<svg xmlns="http://www.w3.org/2000/svg" viewBox="0 0 200 140">
  <rect width="200" height="140" fill="#f7f8fc"/>
  <!-- "4" + 20px gap + frame(160px) = ~198px, start at 1 -->
  <text x="14" y="78" text-anchor="middle" font-size="36" font-weight="700" fill="#2d3748" font-family="'Google Sans Flex', sans-serif">4</text>
  <g transform="translate(36,30)">
    <rect x="0" y="0" width="160" height="76" rx="3" fill="none" stroke="#2d3748" stroke-width="1.4"/>
    <line x1="32" y1="0" x2="32" y2="76" stroke="#2d3748" stroke-width="0.9"/>
    <line x1="64" y1="0" x2="64" y2="76" stroke="#2d3748" stroke-width="0.9"/>
    <line x1="96" y1="0" x2="96" y2="76" stroke="#2d3748" stroke-width="0.9"/>
    <line x1="128" y1="0" x2="128" y2="76" stroke="#2d3748" stroke-width="0.9"/>
    <line x1="0" y1="38" x2="160" y2="38" stroke="#2d3748" stroke-width="0.9"/>
    <circle cx="16" cy="19" r="11" fill="none" stroke="#a0aec0" stroke-width="1.2" stroke-dasharray="3,2.5"/>
    <circle cx="48" cy="19" r="11" fill="none" stroke="#a0aec0" stroke-width="1.2" stroke-dasharray="3,2.5"/>
    <circle cx="80" cy="19" r="11" fill="none" stroke="#a0aec0" stroke-width="1.2" stroke-dasharray="3,2.5"/>
    <circle cx="112" cy="19" r="11" fill="none" stroke="#a0aec0" stroke-width="1.2" stroke-dasharray="3,2.5"/>
    <circle cx="144" cy="19" r="11" fill="none" stroke="#a0aec0" stroke-width="1.2" stroke-dasharray="3,2.5"/>
    <circle cx="16" cy="57" r="11" fill="none" stroke="#a0aec0" stroke-width="1.2" stroke-dasharray="3,2.5"/>
    <circle cx="48" cy="57" r="11" fill="none" stroke="#a0aec0" stroke-width="1.2" stroke-dasharray="3,2.5"/>
    <circle cx="80" cy="57" r="11" fill="none" stroke="#a0aec0" stroke-width="1.2" stroke-dasharray="3,2.5"/>
    <circle cx="112" cy="57" r="11" fill="none" stroke="#a0aec0" stroke-width="1.2" stroke-dasharray="3,2.5"/>
    <circle cx="144" cy="57" r="11" fill="none" stroke="#a0aec0" stroke-width="1.2" stroke-dasharray="3,2.5"/>
  </g>
</svg>
