<svg xmlns="http://www.w3.org/2000/svg" viewBox="0 0 200 140">
  <rect width="200" height="140" fill="#f7f8fc"/>
  <g transform="translate(10,30)">
    <rect x="0" y="0" width="80" height="35" rx="3" fill="none" stroke="#cbd5e0" stroke-width="1.2"/>
    <line x1="16" y1="0" x2="16" y2="35" stroke="#cbd5e0" stroke-width="0.8"/><line x1="32" y1="0" x2="32" y2="35" stroke="#cbd5e0" stroke-width="0.8"/>
    <line x1="48" y1="0" x2="48" y2="35" stroke="#cbd5e0" stroke-width="0.8"/><line x1="64" y1="0" x2="64" y2="35" stroke="#cbd5e0" stroke-width="0.8"/>
    <line x1="0" y1="17.5" x2="80" y2="17.5" stroke="#cbd5e0" stroke-width="0.8"/>
    <circle cx="8" cy="9" r="5" fill="#667eea" opacity="0.6"/><circle cx="24" cy="9" r="5" fill="#667eea" opacity="0.6"/><circle cx="40" cy="9" r="5" fill="#667eea" opacity="0.6"/>
    <circle cx="56" cy="9" r="5" fill="#667eea" opacity="0.6"/><circle cx="72" cy="9" r="5" fill="#667eea" opacity="0.6"/>
    <circle cx="8" cy="26" r="5" fill="#667eea" opacity="0.6"/><circle cx="24" cy="26" r="5" fill="#667eea" opacity="0.6"/><circle cx="40" cy="26" r="5" fill="#667eea" opacity="0.6"/>
  </g>
  <text x="98" y="52" text-anchor="middle" font-size="18" font-weight="700" fill="#a0aec0" font-family="Arial">+</text>
  <g transform="translate(108,30)">
    <rect x="0" y="0" width="80" height="35" rx="3" fill="none" stroke="#cbd5e0" stroke-width="1.2"/>
    <line x1="16" y1="0" x2="16" y2="35" stroke="#cbd5e0" stroke-width="0.8"/><line x1="32" y1="0" x2="32" y2="35" stroke="#cbd5e0" stroke-width="0.8"/>
    <line x1="48" y1="0" x2="48" y2="35" stroke="#cbd5e0" stroke-width="0.8"/><line x1="64" y1="0" x2="64" y2="35" stroke="#cbd5e0" stroke-width="0.8"/>
    <line x1="0" y1="17.5" x2="80" y2="17.5" stroke="#cbd5e0" stroke-width="0.8"/>
    <circle cx="8" cy="9" r="5" fill="#48bb78" opacity="0.6"/><circle cx="24" cy="9" r="5" fill="#48bb78" opacity="0.6"/><circle cx="40" cy="9" r="5" fill="#48bb78" opacity="0.6"/>
  </g>
  <text x="100" y="100" text-anchor="middle" font-size="16" font-weight="600" fill="#2d3748" font-family="Arial">8 + 3 = __</text>
</svg>