<svg xmlns="http://www.w3.org/2000/svg" viewBox="0 0 200 140">
  <rect width="200" height="140" fill="#f7f8fc"/>
  <text x="100" y="18" text-anchor="middle" font-size="17" font-weight="600" fill="#2d3748" font-family="Fredoka, sans-serif">quarter to five</text>
  <circle cx="100" cy="78" r="42" fill="none" stroke="#2d3748" stroke-width="2"/>
  <line x1="118.1" y1="46.7" x2="119.5" y2="44.2" stroke="#2d3748" stroke-width="1.5"/>
  <line x1="103.9" y1="41.2" x2="104.1" y2="39.2" stroke="#2d3748" stroke-width="0.7"/>
  <line x1="107.7" y1="41.8" x2="108.1" y2="39.8" stroke="#2d3748" stroke-width="0.7"/>
  <line x1="111.4" y1="42.8" x2="112.1" y2="40.9" stroke="#2d3748" stroke-width="0.7"/>
  <line x1="115.0" y1="44.2" x2="115.9" y2="42.3" stroke="#2d3748" stroke-width="0.7"/>
  <text x="115.1" y="55.0" text-anchor="middle" font-family="Google Sans Flex, sans-serif" font-size="9.2" font-weight="500" fill="#2d3748">1</text>
  <line x1="131.3" y1="59.9" x2="133.8" y2="58.5" stroke="#2d3748" stroke-width="1.5"/>
  <line x1="121.7" y1="48.1" x2="123.0" y2="46.4" stroke="#2d3748" stroke-width="0.7"/>
  <line x1="124.7" y1="50.5" x2="126.1" y2="49.0" stroke="#2d3748" stroke-width="0.7"/>
  <line x1="127.5" y1="53.3" x2="129.0" y2="51.9" stroke="#2d3748" stroke-width="0.7"/>
  <line x1="129.9" y1="56.3" x2="131.6" y2="55.0" stroke="#2d3748" stroke-width="0.7"/>
  <text x="126.2" y="66.1" text-anchor="middle" font-family="Google Sans Flex, sans-serif" font-size="9.2" font-weight="500" fill="#2d3748">2</text>
  <line x1="136.1" y1="78.0" x2="139.1" y2="78.0" stroke="#2d3748" stroke-width="1.5"/>
  <line x1="133.8" y1="63.0" x2="135.7" y2="62.1" stroke="#2d3748" stroke-width="0.7"/>
  <line x1="135.2" y1="66.6" x2="137.1" y2="65.9" stroke="#2d3748" stroke-width="0.7"/>
  <line x1="136.2" y1="70.3" x2="138.2" y2="69.9" stroke="#2d3748" stroke-width="0.7"/>
  <line x1="136.8" y1="74.1" x2="138.8" y2="73.9" stroke="#2d3748" stroke-width="0.7"/>
  <text x="130.2" y="81.2" text-anchor="middle" font-family="Google Sans Flex, sans-serif" font-size="9.2" font-weight="500" fill="#2d3748">3</text>
  <line x1="131.3" y1="96.1" x2="133.8" y2="97.5" stroke="#2d3748" stroke-width="1.5"/>
  <line x1="136.8" y1="81.9" x2="138.8" y2="82.1" stroke="#2d3748" stroke-width="0.7"/>
  <line x1="136.2" y1="85.7" x2="138.2" y2="86.1" stroke="#2d3748" stroke-width="0.7"/>
  <line x1="135.2" y1="89.4" x2="137.1" y2="90.1" stroke="#2d3748" stroke-width="0.7"/>
  <line x1="133.8" y1="93.0" x2="135.7" y2="93.9" stroke="#2d3748" stroke-width="0.7"/>
  <text x="126.2" y="96.4" text-anchor="middle" font-family="Google Sans Flex, sans-serif" font-size="9.2" font-weight="500" fill="#2d3748">4</text>
  <line x1="118.1" y1="109.3" x2="119.5" y2="111.8" stroke="#2d3748" stroke-width="1.5"/>
  <line x1="129.9" y1="99.7" x2="131.6" y2="101.0" stroke="#2d3748" stroke-width="0.7"/>
  <line x1="127.5" y1="102.7" x2="129.0" y2="104.1" stroke="#2d3748" stroke-width="0.7"/>
  <line x1="124.7" y1="105.5" x2="126.1" y2="107.0" stroke="#2d3748" stroke-width="0.7"/>
  <line x1="121.7" y1="107.9" x2="123.0" y2="109.6" stroke="#2d3748" stroke-width="0.7"/>
  <text x="115.1" y="107.4" text-anchor="middle" font-family="Google Sans Flex, sans-serif" font-size="9.2" font-weight="500" fill="#2d3748">5</text>
  <line x1="100.0" y1="114.1" x2="100.0" y2="117.1" stroke="#2d3748" stroke-width="1.5"/>
  <line x1="115.0" y1="111.8" x2="115.9" y2="113.7" stroke="#2d3748" stroke-width="0.7"/>
  <line x1="111.4" y1="113.2" x2="112.1" y2="115.1" stroke="#2d3748" stroke-width="0.7"/>
  <line x1="107.7" y1="114.2" x2="108.1" y2="116.2" stroke="#2d3748" stroke-width="0.7"/>
  <line x1="103.9" y1="114.8" x2="104.1" y2="116.8" stroke="#2d3748" stroke-width="0.7"/>
  <text x="100.0" y="111.5" text-anchor="middle" font-family="Google Sans Flex, sans-serif" font-size="9.2" font-weight="500" fill="#2d3748">6</text>
  <line x1="81.9" y1="109.3" x2="80.5" y2="111.8" stroke="#2d3748" stroke-width="1.5"/>
  <line x1="96.1" y1="114.8" x2="95.9" y2="116.8" stroke="#2d3748" stroke-width="0.7"/>
  <line x1="92.3" y1="114.2" x2="91.9" y2="116.2" stroke="#2d3748" stroke-width="0.7"/>
  <line x1="88.6" y1="113.2" x2="87.9" y2="115.1" stroke="#2d3748" stroke-width="0.7"/>
  <line x1="85.0" y1="111.8" x2="84.1" y2="113.7" stroke="#2d3748" stroke-width="0.7"/>
  <text x="84.9" y="107.4" text-anchor="middle" font-family="Google Sans Flex, sans-serif" font-size="9.2" font-weight="500" fill="#2d3748">7</text>
  <line x1="68.7" y1="96.1" x2="66.2" y2="97.5" stroke="#2d3748" stroke-width="1.5"/>
  <line x1="78.3" y1="107.9" x2="77.0" y2="109.6" stroke="#2d3748" stroke-width="0.7"/>
  <line x1="75.3" y1="105.5" x2="73.9" y2="107.0" stroke="#2d3748" stroke-width="0.7"/>
  <line x1="72.5" y1="102.7" x2="71.0" y2="104.1" stroke="#2d3748" stroke-width="0.7"/>
  <line x1="70.1" y1="99.7" x2="68.4" y2="101.0" stroke="#2d3748" stroke-width="0.7"/>
  <text x="73.8" y="96.4" text-anchor="middle" font-family="Google Sans Flex, sans-serif" font-size="9.2" font-weight="500" fill="#2d3748">8</text>
  <line x1="63.9" y1="78.0" x2="60.9" y2="78.0" stroke="#2d3748" stroke-width="1.5"/>
  <line x1="66.2" y1="93.0" x2="64.3" y2="93.9" stroke="#2d3748" stroke-width="0.7"/>
  <line x1="64.8" y1="89.4" x2="62.9" y2="90.1" stroke="#2d3748" stroke-width="0.7"/>
  <line x1="63.8" y1="85.7" x2="61.8" y2="86.1" stroke="#2d3748" stroke-width="0.7"/>
  <line x1="63.2" y1="81.9" x2="61.2" y2="82.1" stroke="#2d3748" stroke-width="0.7"/>
  <text x="69.8" y="81.2" text-anchor="middle" font-family="Google Sans Flex, sans-serif" font-size="9.2" font-weight="500" fill="#2d3748">9</text>
  <line x1="68.7" y1="59.9" x2="66.2" y2="58.5" stroke="#2d3748" stroke-width="1.5"/>
  <line x1="63.2" y1="74.1" x2="61.2" y2="73.9" stroke="#2d3748" stroke-width="0.7"/>
  <line x1="63.8" y1="70.3" x2="61.8" y2="69.9" stroke="#2d3748" stroke-width="0.7"/>
  <line x1="64.8" y1="66.6" x2="62.9" y2="65.9" stroke="#2d3748" stroke-width="0.7"/>
  <line x1="66.2" y1="63.0" x2="64.3" y2="62.1" stroke="#2d3748" stroke-width="0.7"/>
  <text x="73.8" y="66.1" text-anchor="middle" font-family="Google Sans Flex, sans-serif" font-size="9.2" font-weight="500" fill="#2d3748">10</text>
  <line x1="81.9" y1="46.7" x2="80.5" y2="44.2" stroke="#2d3748" stroke-width="1.5"/>
  <line x1="70.1" y1="56.3" x2="68.4" y2="55.0" stroke="#2d3748" stroke-width="0.7"/>
  <line x1="72.5" y1="53.3" x2="71.0" y2="51.9" stroke="#2d3748" stroke-width="0.7"/>
  <line x1="75.3" y1="50.5" x2="73.9" y2="49.0" stroke="#2d3748" stroke-width="0.7"/>
  <line x1="78.3" y1="48.1" x2="77.0" y2="46.4" stroke="#2d3748" stroke-width="0.7"/>
  <text x="84.9" y="55.0" text-anchor="middle" font-family="Google Sans Flex, sans-serif" font-size="9.2" font-weight="500" fill="#2d3748">11</text>
  <line x1="100.0" y1="41.9" x2="100.0" y2="38.9" stroke="#2d3748" stroke-width="1.5"/>
  <line x1="85.0" y1="44.2" x2="84.1" y2="42.3" stroke="#2d3748" stroke-width="0.7"/>
  <line x1="88.6" y1="42.8" x2="87.9" y2="40.9" stroke="#2d3748" stroke-width="0.7"/>
  <line x1="92.3" y1="41.8" x2="91.9" y2="39.8" stroke="#2d3748" stroke-width="0.7"/>
  <line x1="96.1" y1="41.2" x2="95.9" y2="39.2" stroke="#2d3748" stroke-width="0.7"/>
  <text x="100.0" y="51.0" text-anchor="middle" font-family="Google Sans Flex, sans-serif" font-size="9.2" font-weight="500" fill="#2d3748">12</text>
  <circle cx="100" cy="78" r="2.5" fill="#2d3748"/>
</svg>