<svg xmlns="http://www.w3.org/2000/svg" fill="#3f3d3d" viewBox="9935 5409 3474 5148"><path d="M10519 5523c-132 56-198 145-214 294-12 105 49 237 138 300 53 38 128 63 184 63h44l39 82c39 85 70 189 70 237 0 21-15 39-70 84-86 70-210 219-269 321-55 97-107 234-134 356-30 139-30 405 1 543 38 171 111 332 216 475 52 70 52 74-9 132-89 84-257 320-333 465-66 127-116 261-153 415-8 30-14 109-14 175 0 113 2 123 30 180 36 72 84 105 156 105 60 0 107-31 137-90 22-44 23-45 67-42 59 5 111-26 136-82 22-48 23-85 8-170-10-53-9-69 9-126 22-71 26-67 36 40 11 107 71 250 153 363 26 35 47 87 80 200 25 84 48 163 51 177 2 14 9 31 15 38 11 14-6 32-31 32-29 0-125 56-157 91-38 42-58 102-49 146 7 37 57 91 101 109 88 37 423 41 561 7 79-20 121-47 150-100 22-40 29-77 55-303l13-105 137-2c75-1 137 1 137 5s11 86 24 182c31 237 55 281 170 316 83 25 290 37 431 26 187-16 260-62 256-160-3-92-56-153-174-199-59-23-67-29-63-47 3-12 26-99 50-194 42-162 49-179 100-256 89-132 110-188 144-381l8-50 22 67c18 57 20 76 12 125-16 93-12 152 10 188 27 44 81 69 131 61 37-6 39-5 58 33 68 133 233 132 303-2 35-67 37-220 4-365-27-121-104-325-163-432-63-114-169-262-268-375-53-61-99-115-102-122-2-6 17-40 44-75 89-116 173-303 213-473 85-358 8-730-209-1023-64-86-135-160-208-215-36-27-42-37-43-68 0-65 78-279 112-306 7-6 39-13 72-16 119-12 233-100 276-215 29-76 25-195-9-262-31-61-105-136-166-168-45-24-60-27-150-27-89 1-106 4-153 28-160 84-226 239-172 405l23 70-59 88c-32 49-73 123-91 164s-37 76-43 78c-5 2-38-6-72-17-157-51-262-65-468-64-202 1-271 10-455 62-38 11-71 19-71 18-1-1-18-38-38-81-20-44-61-116-91-162-30-45-55-86-55-92 0-5 8-24 18-43 12-25 17-58 17-124 0-78-4-97-28-147-32-65-84-116-159-154-77-40-200-45-279-11m239 110c108 50 155 199 97 313-14 27-25 56-25 64 0 9 30 60 68 115 37 55 89 151 116 213s57 117 68 123c14 7 48 0 141-30 304-98 573-97 916 6l124 36 18-22c10-13 23-40 29-61 23-86 92-214 165-305 46-59 48-70 19-132-35-73-41-128-19-192 27-81 102-142 193-157 58-9 144 20 188 64 56 56 69 88 69 172 0 66-3 81-30 123-16 26-47 58-67 72-45 30-118 49-158 42-41-9-78 25-123 110-47 91-96 254-98 327-2 60-2 60 42 95 184 146 346 375 402 571 45 154 60 364 38 515-28 189-129 419-247 564-68 83-64 99 49 225 273 302 428 597 473 901 16 105 13 157-13 217-13 31-21 38-44 38-45 0-65-31-98-158-16-57-43-57-93 0-35 41-37 42-55 25-14-14-17-29-13-70 11-137 5-199-29-279-18-43-58-117-88-165-31-49-60-104-65-123-18-62-60-89-87-56-9 11-8 37 4 110 22 138 20 294-5 390-25 93-54 153-125 257-39 56-57 94-65 136-18 90-79 321-95 360-29 69-14 93 75 112 65 13 155 62 170 92 16 28 7 45-32 65-70 36-462 29-537-11-49-25-48-20-81-290-6-49-14-101-16-115-5-24-2-27 43-38 27-7 72-24 101-37 45-21 52-28 52-53 0-18-6-32-16-36-9-3-58 7-108 23-189 61-420 66-593 14-49-14-101-27-118-27-25-1-30 3-33 26-4 33 30 57 126 89l63 21-5 37c-4 20-13 100-22 179-8 79-19 153-24 166-21 55-153 81-380 73-85-3-172-11-193-18-85-29-46-100 78-144 39-14 79-25 89-25 39 0 74-57 47-75-13-7-53-134-96-298-32-125-40-145-90-217-108-153-149-287-148-475 1-61 8-148 17-193 15-87 14-107-9-116-21-8-63 30-70 64-3 16-24 57-47 91-72 112-96 163-123 254-25 84-26 95-14 162 22 136-12 184-77 107-44-53-64-39-98 71-22 71-31 88-53 96-21 8-30 6-49-12-13-12-29-38-35-57-15-47-6-218 16-307 66-258 266-598 481-815 85-87 85-101-1-217-82-111-155-258-195-393-57-194-52-459 12-658 72-227 195-404 381-550 33-26 63-57 68-69 11-28-12-167-41-253-27-80-85-192-111-216-15-13-34-18-67-16-171 7-299-152-247-308 47-142 193-202 333-137"/><path d="M10968 6935c-25 8-75 34-110 58-261 175-228 575 59 713 184 89 393 40 515-121 59-78 83-154 83-260 0-80-4-98-31-155-43-91-120-172-202-212-59-29-76-33-166-35-68-2-116 2-148 12m275 90c68 34 139 106 169 172 33 74 32 200-4 275-32 69-97 136-163 169-43 20-64 24-145 24-84 0-101-3-148-28-68-36-131-99-163-162-20-42-24-65-24-140 0-102 20-158 83-227 34-38 119-92 170-109 53-17 163-4 225 26"/><path d="M11045 7131c-98 23-165 112-165 219 0 23 12 56 33 90 25 43 44 61 87 83 49 25 62 28 119 23 77-7 128-36 168-98 24-35 28-52 28-109 0-85-14-103-48-63-32 37-85 39-122 4-31-29-32-68-4-104 12-16 18-31 13-36-16-14-68-18-109-9m1063-197c-209 75-329 295-274 502 74 278 393 401 634 245 69-45 103-84 144-165 27-52 32-75 36-152 5-107-10-171-60-254-43-70-133-143-211-170-71-23-210-27-269-6m264 90c114 54 178 139 198 262 33 202-125 384-335 384-122 0-246-75-303-184-23-45-26-63-27-146 0-112 18-161 86-235 102-110 252-142 381-81"/><path d="M12125 7153c-62 35-98 95-103 171-5 74 16 125 72 174 101 88 269 58 337-61 18-32 24-56 23-105-1-82-13-94-55-52-28 28-37 31-68 26-66-10-94-85-51-139 17-22 18-26 4-31-37-14-120-5-159 17m-900 795c-51 32-105 99-105 131 0 41 33 51 65 21l23-22 56 46c110 90 235 130 401 130 168 0 269-32 392-126l64-48 28 21c23 17 32 19 50 10 26-14 26-27 1-69-27-45-48-66-90-91-39-24-70-27-88-9-17 17-15 35 8 56l21 19-32 27c-109 92-322 138-481 105-65-14-181-69-227-107l-34-29 22-22c17-17 19-25 11-41-13-25-46-25-85-2"/></svg>