<svg xmlns="http://www.w3.org/2000/svg" fill="#3f3d3d" viewBox="11805 5538 6117 9087"><path d="M15326 5631c-516 67-1042 334-1378 702-211 230-347 455-457 755-83 227-118 412-128 678-36 993 537 1829 1482 2164 415 146 881 166 1310 54 820-213 1464-904 1614-1734 73-402 45-766-92-1180-133-405-383-760-704-998-313-234-730-401-1105-441-114-13-443-12-542 0m700 139c58 12 156 37 217 57 112 35 347 132 347 143 0 4-22 12-50 19-90 23-274 147-378 254l-43 44-57-23c-31-13-78-26-103-30l-47-6-12-62c-26-134-77-257-154-370-25-36-46-68-46-69 0-7 228 23 326 43m-412 0c92 102 165 247 200 401l14 57-64 17c-35 9-84 30-110 47l-47 30-96-45c-103-49-219-87-346-117-255-59-573-53-840 16-26 6-28 5-17-8 24-30 209-147 317-201 209-103 406-170 615-206 153-27 162-28 256-30l82-1zm1164 307c120 74 189 129 323 263 111 111 152 160 227 274 51 77 90 141 88 143s-23-9-47-25c-87-59-249-134-374-174-175-55-447-88-593-71l-82 9-24-40c-14-23-40-57-60-75-20-19-36-40-36-47 0-16 95-103 175-160 84-59 202-113 273-123 31-5 60-9 63-10 3 0 33 16 67 36m-1708 157c113 20 242 58 368 108 112 43 110 42 77 108-7 14-18 43-24 65l-11 41-97 11c-121 15-335 68-468 117-153 57-387 175-520 264-139 92-345 261-425 348-203 221-378 501-455 727l-23 71-8-40c-5-21-8-125-8-229 1-292 41-501 148-769 61-152 108-240 213-398 111-167 206-269 292-313 110-55 283-105 446-129 67-10 413 2 495 18m921 112c147 43 259 171 259 296 0 53-35 122-82 163-106 90-313 98-431 16-105-72-151-145-151-236 2-181 201-299 405-239m667 234c118 13 269 48 380 89 171 62 410 208 462 281 31 44 67 130 100 243 119 399 127 787 25 1187-28 111-94 294-95 265-2-81-25-267-45-355-91-411-301-797-610-1118-166-173-333-307-502-403-38-22-41-26-35-54 4-16 7-54 7-82 0-38 4-54 15-57 31-8 204-6 298 4m-1149 125c16 35 50 87 76 114l47 50-59 68c-329 383-682 1018-857 1543-127 381-196 824-169 1086 7 60 10 110 8 112-1 2-38-18-81-45-442-267-731-624-892-1103-55-164-58-218-18-363 105-378 343-721 701-1012 309-250 778-458 1140-504 39-4 71-9 72-10 2 0 16 28 32 64m824 146c225 115 557 430 731 694 249 378 361 709 373 1105 6 202 7 200-83 338-255 391-654 697-1105 846-114 38-319 90-319 81 0-1 25-54 55-117 241-502 322-1253 225-2094-22-190-76-489-115-632-29-108-29-112-12-112 27 0 114-49 157-88 25-23 46-41 48-42 1 0 22 10 45 21m-573 94c32 16 131 35 184 35h41l33 137c103 439 147 867 139 1337-6 306-7 319-38 541-43 301-125 581-234 802-79 158-58 148-310 147-258 0-482-43-741-140-159-59-170-66-183-121-32-124-23-400 19-649 83-479 330-1094 625-1554 96-150 140-216 166-250 14-19 58-78 97-130 148-198 135-189 202-155m-2805 3359c-163 40-264 87-377 173-122 93-214 204-282 340-104 209-126 361-97 673 12 129 12 157-3 257-21 139-55 253-139 461-129 316-157 442-164 732-8 321 39 600 166 976 100 299 139 383 209 445 118 106 399 166 822 176 351 8 612-18 830-83 185-56 238-114 324-354 21-58 42-114 47-125 12-28 83-270 114-390 59-227 88-556 66-760-25-238-57-358-176-657-122-306-128-331-129-543 0-99 1-248 3-330 3-167-10-251-59-387-94-257-305-465-574-566-124-47-216-62-364-61-97 0-149 6-217 23m442 105c113 28 186 59 282 121 151 97 279 262 343 441 46 132 54 218 40 466-17 305 1 423 104 687 24 61 41 112 39 115-8 8-186 1-255-10-108-17-277-64-439-123-85-31-156-58-158-60s17-9 43-15c104-26 225-99 315-191 245-249 277-628 77-931-90-136-218-232-388-289-100-34-279-39-390-11-276 69-471 267-551 561-19 69-16 253 5 330 21 78 73 193 114 252 46 67 130 147 202 193 66 43 183 94 217 96 26 1-47 31-210 87-161 56-240 77-365 97-79 13-262 21-262 11 0-2 21-57 46-121 88-225 111-366 98-585-13-209-9-383 10-463 70-298 298-549 581-640 148-48 348-55 502-18m-265 291c-5 39-68 162-111 217-48 60-125 119-208 162-67 33-191 71-235 71h-28l21-53c79-200 241-349 434-401 120-31 131-31 127 4m233 2c199 57 346 189 423 377 33 80 32 81-41 65-252-52-415-181-500-394-14-35-23-68-21-72 6-9 50-2 139 24m-153 160c97 192 325 344 561 372l57 7v92c0 183-61 328-190 457-160 160-382 224-603 174-129-30-216-78-319-180-117-116-176-253-185-435l-6-105 75-12c231-36 463-189 544-359 16-34 31-62 34-62 3-1 18 23 32 51m34 1232c45 45 47 95 5 137-47 46-127 35-157-22-18-36-18-53 2-94 30-63 98-73 150-21m-246 86c0 32 26 87 55 116 25 24 26 29 13 52-26 50-107 123-169 152s-166 57-176 46c-9-9 19-109 49-174 33-70 113-159 173-190 50-27 55-27 55-2m421 0c71 37 152 128 187 212 17 41 34 94 38 118l7 43-54-7c-108-14-224-87-289-182l-29-41 25-24c35-32 54-71 54-109 0-35 8-37 61-10m-657 52c-4 7-18 27-30 43-38 51-74 139-89 220-18 91-12 123 22 131 39 10 145-3 202-25 28-10 51-16 51-13 0 4-31 31-68 60-113 88-253 152-416 189-86 19-330 22-393 4-40-11-43-14-43-45 0-78 40-248 92-392l29-82h107c124 0 302-29 443-72 52-16 95-29 97-29 2-1 0 5-4 11m1041 48c153 37 277 53 369 48l73-3 16 40c43 109 94 320 99 419 3 49 3 50-32 59-68 17-328 13-415-7-100-23-206-63-287-110-69-38-183-125-175-132 3-3 22 2 43 11 43 18 168 31 207 21 35-8 41-46 22-134-19-91-49-163-92-219-18-24-33-45-33-48 0-2 19 3 43 11 23 8 96 28 162 44m-586 137c106 211 318 388 555 464 70 23 237 59 272 59 24 0 24 1 24 102 0 458-253 822-655 944-78 24-108 27-225 28-163 0-232-15-375-84-257-125-442-371-499-665-17-87-26-241-19-292 5-30 9-33 52-38 358-45 663-243 805-523 14-28 28-52 31-52s18 26 34 57m-1086 520 77 6v56c0 266 62 488 188 676 134 200 372 362 602 411 100 21 298 18 400-6 194-46 408-189 534-357 148-197 216-408 216-668v-112l83-7c45-3 95-9 111-13l29-6-6 179c-6 180-25 319-66 469-11 38-29 104-40 147-32 116-135 416-165 480-51 107-123 149-331 193-60 13-157 29-215 37-138 17-581 17-725 0-156-19-360-67-432-102-91-45-114-85-219-393-125-363-184-655-184-906v-104l33 7c17 4 67 10 110 13"/><path d="M12835 11292c-31 18-44 40-45 75 0 45 9 62 42 79 61 31 118-6 118-77 0-29-7-43-31-63-33-28-53-32-84-14m620 0c-33 17-45 40-45 80 0 72 72 112 128 72 56-39 47-124-14-150-39-17-43-17-69-2m-458 345c-15 15-5 51 21 76 85 82 274 76 342-11 46-57 5-92-58-48-82 56-153 58-232 6-46-30-61-35-73-23"/></svg>