<svg xmlns="http://www.w3.org/2000/svg" fill="#3f3d3d" viewBox="23046 11150 4309 3438"><path d="M23402 11261c-118 23-215 98-253 195-18 48-23 78-23 164 0 123 26 220 101 378 116 248 132 305 148 512 21 285 79 446 199 557 36 34 89 70 131 89 68 31 196 64 252 64 76 1 76 9-3 62-181 123-286 290-301 478-19 260 173 566 421 669 190 79 328 68 482-39 171-118 292-295 409-598l28-73 18 71c33 129 71 195 131 226 57 30 136 9 177-47 29-38 67-141 76-203l8-48 27 68c111 283 273 516 421 609 98 63 155 79 274 79 98-1 117-4 174-28 159-68 299-197 376-345 42-81 75-221 75-314-1-205-108-378-326-525l-48-32h35c62 0 218-40 287-72 90-43 197-150 240-238 42-86 69-196 82-333 29-307 30-311 135-537 102-218 118-273 119-420 1-161-19-218-100-285-90-73-146-90-304-89-151 0-243 19-400 81-323 130-658 402-918 746-45 59-87 118-93 129-11 20-13 16-30-39-13-43-31-73-59-101-47-47-47-57 7-192 86-214 225-405 301-415 71-9 109-63 78-110-82-125-393 248-485 580l-16 60-56 3-55 3-23-73c-26-81-96-233-144-312-52-87-156-214-204-251-61-46-115-49-132-7-9 22-9 35 0 55 12 27 63 57 97 57 37 0 144 137 214 275 54 106 68 138 98 224l23 64-26 19c-41 30-69 85-76 146l-6 57-38-59c-70-108-184-250-273-341-259-265-528-450-782-539-159-56-351-79-470-55m224 100c312 43 663 252 965 574 59 64 164 193 191 236 9 14 23 32 30 40 14 14 105 158 152 240 26 45 38 139 17 139-4 0-23-23-42-52-249-379-584-686-811-743-166-42-289 51-276 208 7 84 77 186 201 293 43 37 278 194 291 194 2 0 37 19 78 43 40 24 92 52 115 63 45 20 60 40 18 24-13-5-62-18-107-29-209-49-253-56-393-56-136 0-142 1-205 31-76 36-117 86-126 154-5 37-1 54 23 99 35 63 84 102 168 132 139 49 514 33 933-41 119-21 124-21 137-4 12 17 8 21-43 42-89 37-383 119-532 149-172 34-410 38-529 10-158-38-265-117-324-240-29-60-49-118-48-142 0-2-5-19-10-37s-16-109-24-202c-14-153-24-215-45-271-41-109-60-154-101-240-87-183-117-309-99-418 17-108 76-168 189-193 73-16 113-16 207-3m3406 15c163 53 191 270 68 538-61 134-69 154-99 227-45 116-58 178-75 364-18 194-38 284-86 373-43 81-122 159-190 187-69 29-97 37-180 50-118 19-225 19-360 0-157-21-471-101-636-162-58-22-70-30-66-45 6-23 40-23 162 1 351 71 786 91 923 42 107-38 170-104 182-190 10-74-35-152-110-189-99-49-255-55-440-17-179 36-247 52-279 64-52 20-38 4 21-25 32-15 78-40 103-55 25-14 79-46 120-70 234-135 373-255 430-371 29-60 32-75 28-132-3-54-9-72-34-103-49-62-85-75-184-70-96 5-144 23-249 91-71 46-255 201-306 257-128 143-182 208-250 299-42 58-82 115-88 127-15 34-24 28-30-19s-2-57 76-188c133-223 365-485 591-668 225-183 461-296 693-332 74-11 204-3 265 16m-2886 501c73 25 132 59 222 128 56 42 180 161 255 244 131 144 337 434 337 473 0 18-4 17-52-10-29-16-120-64-203-107-82-43-154-81-160-85-5-4-37-22-70-40-33-17-100-57-150-87-49-30-99-59-110-66s-22-15-25-18-25-19-50-36c-107-73-220-223-220-291 0-37 30-91 59-107 35-19 107-19 167 2m2274-2c98 51 70 188-66 320-98 95-397 278-725 441-63 32-131 68-151 81-34 21-38 21-38 6 1-33 131-226 250-373 75-91 246-264 340-343 135-114 311-173 390-132m-1144 250c58 38 80 119 47 175-22 38-82 70-130 70-73 0-145-89-128-157 8-35 50-85 84-101 32-15 93-9 127 13m-22 326c88 76 109 313 45 501l-30 88 20 104c28 141 44 326 37 406-12 123-48 284-72 327-20 35-30 43-54 43-22 0-33-8-49-34-29-46-58-163-72-291-13-115-1-316 26-447 21-96 19-120-12-202-24-64-27-84-27-201-1-150 18-233 64-284 35-38 87-42 124-10m-1061 160c90 13 283 61 407 100 183 58 333 119 295 119-6 0-62 9-125 20-136 23-355 46-531 55-221 11-366-23-416-98-24-35-30-95-13-126 35-67 202-97 383-70m2302 9c133 40 140 182 12 244-99 48-261 55-552 26-139-14-445-63-445-70 0-8 123-56 260-100 88-29 308-85 425-109 62-12 247-7 300 9m-1669 478c-3 5-47 34-98 64-271 161-442 319-502 463-47 111 0 252 98 296 96 43 217 7 312-92 46-48 154-198 154-213 0-4 12-25 27-49 15-23 62-112 105-197 44-85 77-144 73-130-3 14-8 59-11 100-7 97-16 134-77 310-105 304-213 491-350 608-124 105-226 137-352 107-187-43-364-216-427-418-33-108-22-277 24-358 24-44 72-104 112-142 40-37 149-117 161-117 3 0 22-10 43-23 79-49 183-81 437-137 76-17 210-55 273-79 2 0 1 3-2 7m768 95c105 61 210 129 226 147 3 3 23 19 45 35 204 152 288 301 237 419-23 51-63 76-122 76-114 0-216-115-387-440-22-41-70-132-106-201-37-69-67-130-67-134s12 1 27 10c15 10 81 50 147 88m-705 84c-205 397-290 517-406 577-98 50-203-19-203-134 0-87 96-215 255-342 60-48 288-198 300-198 2 0 33-18 67-40 35-22 67-40 71-40s-34 80-84 177m737-168c5 5 72 23 149 40 77 18 191 43 253 57 89 20 140 39 235 88 273 138 378 277 378 501 1 201-106 387-288 506-192 125-380 95-555-88-175-184-359-605-383-878-3-39-9-81-12-95s33 50 80 141c169 330 262 459 375 526 40 22 59 27 123 27 71 1 80-1 120-30 24-18 54-52 67-75 20-37 23-55 20-119-5-106-31-153-158-281-102-104-221-192-390-291-41-24-58-38-44-38 11 0 24 4 30 9"/><path d="M23504 11530c-90 51-123 161-74 247 28 50 63 78 119 93 112 30 224-57 224-174 0-81-46-147-125-180-54-23-86-20-144 14m144 66c28 19 52 65 52 98 0 85-107 138-174 85-52-41-66-105-33-149 37-49 111-65 155-34m-45 524c-44 29-67 82-60 139 4 37 12 52 43 78 47 42 88 49 142 28 100-40 121-155 42-230-40-39-120-46-167-15m119 67c22 20 24 76 2 97-8 9-31 16-49 16-58 0-86-69-45-110 24-24 67-26 92-3m3022-668c-83 38-133 137-112 220 15 58 76 117 135 129 82 18 156-9 197-72 48-74 46-145-5-216-33-45-95-80-144-80-16 0-48 9-71 19m147 97c24 23 29 36 29 75 0 41-4 51-35 78-51 45-104 44-151-3-51-51-45-112 14-164 37-32 102-26 143 14m-226 500c-124 63-81 254 58 256 84 2 138-51 139-137 2-104-102-167-197-119m107 71c22 20 24 76 2 97-22 22-70 20-94-4-58-58 31-148 92-93m-2832 1356c-35 17-64 79-56 122s66 95 106 95c46 0 78-17 100-52 62-102-43-218-150-165m94 79c24 40-44 80-71 42-17-23-16-29 3-49 20-20 53-16 68 7m-76 278c-44 47-49 84-18 135s65 68 119 62c62-7 101-51 101-114 0-75-50-123-126-123-30 0-44 7-76 40m122 50c23 43-20 92-60 70-11-6-20-15-20-20 0-4-3-15-6-23-15-39 66-64 86-27m186 111c-53 42-69 104-41 159 21 40 53 60 98 60 74 0 127-50 127-120 0-93-114-154-184-99m110 86c9 34-25 68-59 59-44-11-47-69-4-85 32-12 56-2 63 26m1974-604c-38 19-64 75-56 119 19 102 154 130 207 44 61-100-47-216-151-163m90 78c14 25 8 44-19 59-17 8-24 7-41-10-24-24-25-34-4-54 22-22 51-20 64 5m-140 256c-61 42-75 94-45 154 18 34 69 69 102 69 64 0 123-60 123-125 0-86-111-146-180-98m86 61c17 11 22 35 13 59-16 44-89 22-89-26 0-28 50-51 76-33m-362 112c-31 12-62 57-70 98-17 91 88 162 175 118 45-24 64-61 58-115-9-82-89-131-163-101m76 80c24 24 25 38 3 62-21 23-38 23-63-2-21-21-18-46 8-68 21-16 29-15 52 8"/></svg>