<svg xmlns="http://www.w3.org/2000/svg" fill="#3f3d3d" viewBox="23766 8230 3584 3254"><path d="M25565 8332c-16 12-73 56-125 98-52 41-130 102-173 135-43 32-85 71-92 85-12 23-11 30 6 56 30 46 25 81-19 124-46 46-95 58-167 41-27-7-61-14-75-17-20-4-47 13-141 88-64 51-238 190-388 308s-329 259-397 313-128 107-134 117c-14 26-13 615 0 641 7 13 21 19 44 19 138 0 258 122 255 259-2 121-120 241-235 241-74 0-74-1-74 280 0 213 2 251 16 264 19 20 46 20 159 0 50-8 101-17 115-19s131-22 260-44 357-61 505-86c149-25 403-69 565-96 162-28 332-56 377-63s89-18 97-26c10-8 16-29 16-58 0-69 20-120 66-167 115-119 322-62 349 97 8 45 27 62 59 54 13-3 118-22 233-41 114-20 286-49 381-66 95-16 177-29 182-29s16-7 24-16c14-14 16-72 16-493 0-358-3-480-12-489-7-7-25-12-40-12-110 0-188-121-142-222 22-50 76-88 125-88 65 0 69-12 69-227v-190l-52-49c-274-256-636-458-1084-604-119-39-503-140-528-140-6 0-24 10-41 22m245 122c419 107 747 244 1060 444 67 43 240 181 240 192 0 4-33 13-72 19-40 6-145 24-234 39l-161 29-30-28c-56-50-136-73-248-73-55 0-118 5-141 12-87 26-154 95-154 158 0 19-5 34-10 34-6 0-77 12-158 26-235 41-485 84-1257 214-198 33-391 67-430 75-148 31-149 32 132-188 142-111 328-258 413-326l154-122 51 7c90 13 96 13 146 0 63-17 120-57 154-108 25-37 27-48 23-112l-4-71 165-132c91-73 171-132 176-132 6-1 89 19 185 43m705 740c67 30 75 52 43 114-77 150-313 146-380-6-16-35-18-50-9-68 32-71 229-94 346-40m656 110 1 119-50 19c-129 48-190 211-128 343 33 71 80 110 169 139 16 5 17 34 17 416 0 225-3 410-7 410-5 0-46 7-93 15-47 9-128 22-180 30s-132 22-177 30c-174 32-248 45-254 45-4 0-17-19-29-43-12-23-29-51-38-61-34-38-120-85-181-97-58-12-67-12-132 11-119 40-201 131-216 240l-8 54-255 43c-140 23-313 52-385 63-71 12-164 28-205 36-41 7-156 28-255 45-99 16-218 37-265 45s-139 23-205 34-169 29-229 40c-61 11-112 20-115 20s-4-82-1-181l5-182 46-13c99-29 201-126 234-223 22-65 19-169-6-238-36-94-128-173-237-202l-42-12v-508l53-10c28-6 160-29 292-50 132-22 305-51 385-65 80-15 291-51 470-82 179-30 348-59 375-64 28-5 102-18 165-29s181-31 262-45l147-26 40 43c107 116 278 134 409 45 52-36 98-97 112-149l10-37 93-17c50-9 162-28 247-44 85-15 156-27 157-26 1 0 3 54 4 119"/><path d="M25770 8659c-79 24-120 64-120 117 0 75 83 119 220 118 95-1 151-22 189-70 29-37 26-67-8-107-48-55-193-84-281-58m165 95c22 6 39 16 38 21-1 6-21 16-45 23-48 15-129 8-168-13l-25-13 25-10c62-24 115-26 175-8m-934 337c-64 22-89 42-108 86-46 110 131 203 319 167 78-15 128-46 154-95 32-62-21-135-118-164-70-21-180-18-247 6m252 94c20 9 37 21 37 27 0 5-19 18-42 28-70 32-211 24-263-14-18-13-17-14 9-31 14-10 41-21 59-26 49-13 158-4 200 16m937 523c-67 26-143 105-170 177-53 144 9 304 144 370 68 33 172 36 239 7 61-27 127-90 157-149 21-40 25-62 24-133 0-62-5-94-18-120-58-110-138-162-256-167-53-2-88 2-120 15m206 102c112 63 136 210 52 306-42 48-97 74-154 74-167 0-261-190-160-322 69-91 167-113 262-58m-1897 13c-96 51-136 173-87 266 13 25 40 59 61 75 35 28 46 31 111 31 60 0 78-4 108-24 53-37 81-84 86-148 6-76-13-127-65-173-64-56-140-66-214-27m131 82c39 20 60 53 60 93 0 95-98 146-168 87-58-49-47-145 21-179 40-20 51-20 87-1m732 166c-108 54-142 190-72 288 39 53 82 75 150 75 80 1 144-38 176-107 28-60 30-103 9-155-45-106-162-151-263-101m132 80c51 24 66 108 27 153-31 36-69 48-107 36-43-14-68-50-66-96 3-78 76-124 146-93m1301 153c-41 18-83 69-91 111-10 56 4 102 44 144 47 50 94 60 157 36 51-19 80-51 96-105 38-125-88-238-206-186m99 97c17 13 26 30 26 49 0 30-39 70-68 70-26 0-62-41-62-71 0-28 39-69 65-69 7 0 24 9 39 21m-2070 133c-88 40-146 125-147 216-2 213 252 311 394 153 98-108 72-269-54-347-57-35-143-45-193-22m159 102c83 62 73 195-17 238-52 25-109 21-146-10-63-53-76-125-34-189 39-60 141-80 197-39"/></svg>