<svg xmlns="http://www.w3.org/2000/svg" fill="#3f3d3d" viewBox="12193 11797 3770 3638"><path d="M13805 11910c-66 11-136 23-155 28-175 48-399 148-540 241-113 75-267 208-345 300-347 407-492 916-408 1431 58 355 246 719 494 956 258 245 546 399 879 471 71 15 131 18 360 18 265 0 279-1 385-27 348-85 614-237 867-495 167-170 321-422 398-650 143-427 109-927-90-1325-235-469-658-803-1169-924-204-48-460-57-676-24m420 80c311 30 520 104 785 278 128 84 311 258 393 372 26 36 58 81 72 100 43 58 141 268 180 384 112 337 104 728-22 1066-144 389-415 699-783 898-113 61-286 123-435 156-270 58-624 34-888-61-123-44-344-159-385-200-8-7-23-18-34-24-12-6-35-24-52-39s-58-51-91-80c-159-139-314-356-398-558-151-356-177-707-82-1082 28-110 57-185 125-320 192-383 538-678 955-815 228-75 424-97 660-75"/><path d="M13814 12034c-220 42-323 101-550 316-97 91-132 117-270 195-270 153-325 236-339 509-10 184-31 263-119 446-97 202-80 342 70 568 100 150 136 224 180 369 65 216 139 342 246 421 72 53 130 75 290 111 164 36 233 64 383 156 88 54 187 95 253 107 114 19 166 5 397-112 212-106 257-122 427-146 175-24 288-73 362-155 23-26 68-98 100-160 67-133 101-179 228-311 156-162 190-256 170-463-16-157-15-201 4-304 11-58 15-122 12-201-6-160-28-211-164-365-86-99-137-182-180-293-93-244-172-347-324-420-68-32-108-44-195-57-171-25-261-49-380-100-60-26-135-56-165-67-139-48-317-67-436-44m331 111c33 9 69 20 80 24 26 11 219 89 265 107 57 23 149 43 242 53 107 12 158 25 223 58 122 62 183 139 255 326 26 67 55 138 65 157 21 41 67 113 76 120 32 25 165 195 186 238 36 73 43 197 19 325-20 107-23 244-6 354 23 155-10 238-148 378-124 126-164 180-234 318-34 67-77 138-96 159-62 68-160 103-362 129-111 14-211 48-340 117-251 135-256 137-350 137-95 0-148-20-264-98-71-48-193-109-263-131-28-10-103-28-167-41-183-37-265-85-343-202-42-63-62-115-115-288-44-145-90-238-178-359-32-45-72-108-87-141-25-53-28-72-28-155 0-94 1-97 52-205 92-193 107-252 123-478 8-115 14-148 36-198 35-79 102-138 235-211 153-84 208-124 322-234 104-100 225-191 294-221 21-9 76-27 123-40 74-20 101-23 205-19 66 3 147 12 180 21"/><path d="M13874 12235c-59 19-175 78-247 127-115 77-341 275-498 434-277 283-299 314-245 349 31 20 48 11 96-53 19-26 121-132 225-237 318-319 592-518 742-541 37-5 48-3 64 13 19 18 19 20-8 73-29 60-203 240-483 500-543 504-780 808-780 999 0 100 66 161 172 161 121-1 273-98 511-325l112-107 12 82c7 45 21 100 31 123l18 41-70 66c-87 81-257 274-318 360-54 77-100 167-118 232-46 173 103 283 276 204 85-39 141-84 348-279 104-99 218-203 253-232 59-49 68-53 111-50 166 8 354-93 459-245 34-50 79-171 88-240 7-51-3-42 230-208 268-192 512-276 523-180 11 92-141 248-613 628-44 36-85 69-91 75-7 5-22 19-35 29-64 52-183 160-266 240-51 49-96 92-101 95-15 11-137 155-179 211-119 162-140 297-57 369 41 37 70 45 134 39 114-11 252-117 514-394 249-263 383-389 528-496 78-58 181-118 203-118 23 0 48-38 41-64-9-36-38-40-103-13-172 70-337 213-820 709-208 213-310 288-392 288-20 0-35-8-45-22-54-77 32-226 264-459 174-174 178-178 450-403 458-380 516-431 589-528 52-69 84-148 75-186-15-61-43-99-84-116-132-53-349 37-680 282l-94 70-13-50c-19-74-49-136-88-184l-35-42 98-78c124-100 304-280 364-364 128-180 114-331-36-371-94-26-255 34-456 169-108 72-406 328-516 443-34 35-89 80-123 99-85 47-177 146-223 241-32 66-56 94-170 206-184 179-222 212-311 273-173 117-271 119-269 5 0-58 42-146 118-252 112-155 163-207 876-908 247-242 279-285 280-375 0-108-103-158-238-115m1015 306c106 37 38 182-191 405-114 111-272 254-281 254-3 0-26-14-51-30-64-43-148-71-238-77-43-3-78-8-78-11 0-15 287-267 397-349 111-82 237-153 317-179 84-27 84-27 125-13m-717 650c192 40 342 209 356 400 26 361-352 606-663 429-163-94-257-288-224-463 27-138 121-267 239-327 98-49 186-61 292-39m-482 815c53 55 149 120 190 129 17 4 30 10 30 13-1 4-24 26-53 49s-125 111-212 195c-88 84-185 172-215 195-145 110-256 110-254 1 2-49 66-183 126-259 86-110 323-369 338-369 3 0 26 21 50 46"/></svg>