<svg xmlns="http://www.w3.org/2000/svg" fill="#3f3d3d" viewBox="816 757 6269 5111"><path d="M3291 851c-170 28-357 135-496 281-87 91-128 154-207 319l-51 105-151 54c-247 88-427 190-592 336-244 218-415 507-490 829-13 58-29 93-55 128-20 27-54 85-77 130-98 197-144 352-163 554-12 122-14 130-45 167-50 59-68 124-68 241 1 166 67 325 135 325 17 0 39-5 49-10 42-23 137-180 170-284 19-59 8-174-21-234-27-54-28-42 21-225 15-56 30-62 30-11 0 42 37 232 81 412 104 436 122 620 104 1117-8 229-3 270 42 339 52 80 238 136 452 136 186 0 342-40 397-102 43-48 46-73 30-239-20-192-20-348-1-507 15-132 23-156 43-143 19 12 30 120 40 391 7 172 13 245 25 271 38 91 172 139 394 140 188 1 333-41 384-112 29-41 30-106 4-287-9-64-15-151-13-192l3-75 69-3 69-3-6 438-7 438 23 40c61 108 271 173 521 162 211-10 349-59 406-145l32-47-7-99c-3-54-10-121-15-150-26-146-39-561-22-705l7-54 46-12 47-11 6 75c4 42 7 211 7 375-1 188 3 314 10 340 15 57 80 118 154 145 81 30 140 40 275 47 217 11 396-41 448-131 27-47 26-84-7-295-26-166-42-442-35-598 6-152 24-406 29-410 2-2 9 14 15 35 46 141 203 385 318 495 171 164 322 241 533 272 155 23 295 7 453-54 60-23 93-30 150-30 42 0 89-6 109-15 94-39 112-163 37-249-29-33-30-36-21-97 10-73 2-115-28-158-31-43-50-51-120-51-64 0-90 14-155 88-41 46-76 62-141 62-91 0-141-17-199-70-78-72-126-173-157-332-13-62-18-392-7-403 3-3 27 8 54 25 119 75 351 132 445 110 78-19 115-68 93-125-4-9-66-60-138-114-131-99-285-247-269-260 4-4 33-15 63-24 105-32 204-134 267-274 13-32 40-112 58-178 49-176 64-214 153-385 127-245 162-359 162-532 0-193-55-378-175-593-59-106-205-259-298-314-109-64-179-84-318-89-107-4-137-1-205 17-87 24-193 78-278 140-30 23-57 41-60 41s-38-16-78-36c-236-115-401-150-673-141-295 9-517 71-723 200l-64 40-26-21c-145-115-307-192-475-227-78-16-239-18-326-4m315 108c51 10 107 26 125 34 19 9 64 29 100 45 96 43 182 104 271 194 42 43 82 78 88 78 48 0 63-47 30-90-28-36-25-45 28-76 238-143 576-209 868-170 297 39 533 153 718 346 105 110 159 195 225 355 73 175 110 349 118 556 8 182-7 310-73 639-31 151-64 340-75 420-25 188-42 499-34 620 18 277 145 507 315 571 51 19 83 24 150 23 108 0 144-16 217-93 47-51 63-61 90-61s34 5 39 25c3 14 3 40 0 58-21 108-20 120 19 160 83 87 64 127-61 127-60 0-94 7-191 41-115 41-122 42-253 43-156 1-196-5-294-44-310-123-526-399-660-845l-13-40h86c73 0 91-3 117-22 35-25 46-60 29-92-6-12-69-66-140-119-144-109-236-208-307-331-38-68-42-80-40-135 1-46-6-86-31-161-30-91-35-100-60-103-38-5-43 28-18 128 12 45 21 86 21 89s-33 6-72 6c-60 0-83 5-130 28-32 16-58 32-58 35-1 4-11 20-24 35l-23 29-20-35c-11-18-30-69-43-113-31-111-37-124-59-124-39 0-45 24-27 112 21 109 62 190 130 262 31 33 56 63 56 67 0 12-166-36-248-71-154-66-334-201-393-296-21-34-21-35-3-124 17-84 17-91 2-107-28-27-65-4-78 49-18 72-59 172-94 231-77 128-153 194-256 224-134 39-313-49-412-202-22-33-77-137-123-230-95-191-129-240-278-398-139-149-183-205-223-292-45-98-53-140-54-277-1-361 209-741 495-897 171-94 343-121 531-82m2711 1c149 41 271 136 378 294 75 111 120 215 167 381 33 120 31 299-6 412-14 45-33 94-41 110-8 15-15 32-15 38 0 5-21 48-48 95-79 142-128 258-167 400-77 279-170 409-308 435-76 15-123-25-106-89 19-69 59-269 80-396 40-238 30-591-21-765-5-17-16-55-25-85-20-68-80-220-107-275-12-22-41-70-64-106-24-36-44-69-44-72 0-14 139-86 186-97 107-24 225 21 335 126 36 35 73 64 83 64 24 0 31-27 15-57-16-31-125-143-138-143-5 0-16-6-23-13-42-41-192-73-275-57-65 11-171 58-205 89-30 29-38 27-83-20-22-22-64-59-93-81l-52-41 37-27c171-123 370-167 540-120m-3817 752c-22 74-32 239-21 332 22 189 100 324 311 541 128 133 176 202 265 391 42 87 95 185 119 218 157 220 403 307 599 211 95-47 170-124 253-263 1-1 32 29 70 69 108 111 229 191 379 249 105 40 251 80 295 80 30 0 46 11 120 84 88 87 162 142 230 172 22 10 40 23 40 30 0 6-21 41-47 76-156 213-321 356-545 472-97 50-213 95-222 85-2-2 2-45 10-94 16-98 9-135-24-135-43 0-63 59-94 275-19 129-15 689 4 810 9 49 14 91 13 93-2 2-12-1-23-7-12-6-39-11-61-11-33 0-49 7-81 36-22 20-40 45-40 55 0 24-8 24-36-2-12-11-39-27-60-34-91-31-177 42-204 172-6 29-14 53-17 53s-32-7-66-16c-79-20-130-47-157-81-22-28-22-31-16-243 3-118 9-274 12-345 6-134-4-305-32-530-21-169-31-199-66-203-42-5-52 25-39 117 6 42 14 111 17 155l7 78-219-5c-308-7-478-37-689-122-114-46-139-52-150-35-8 13-29 99-46 185-15 75-20 494-7 552l7 31-53-5c-65-7-103 12-137 68l-24 38-32-31c-44-43-124-51-166-18-31 25-60 76-76 138-14 50-23 52-118 17-74-26-108-58-116-109-3-17 0-156 5-310 16-402-6-619-97-991-88-359-115-545-115-785 0-530 209-977 591-1265 118-88 233-152 399-222 152-63 162-64 150-21M1212 3399c-27 53-59 135-72 183-13 49-26 88-30 88-10 0 15-184 38-280 11-47 40-135 64-197l43-111 3 111 3 110zm3769-169c10 6 37 45 58 88 72 141 204 291 342 388 76 53 110 84 93 84-5 0-48-5-96-10-100-12-211-54-303-117-81-55-190-172-250-267-47-76-48-79-33-105 36-60 132-91 189-61m1219 61c29 39 78 96 109 126 60 59 246 203 261 203 6 0 10 5 10 11 0 20-204-14-285-48-22-9-73-35-113-57l-74-41 6-65c6-63 27-200 31-200 1 0 26 32 55 71m-5088 514c72 66 59 193-36 349l-29 48-20-48c-16-39-20-73-21-164-1-120 2-130 59-197 14-17 17-16 47 12m4114 147c-17 88-38 453-38 693 0 197 4 301 16 385 20 146 20 142-6 140-53-5-72 2-108 37-20 21-39 44-41 51-3 10-16 7-49-12-25-14-58-26-75-26-65 0-122 60-145 152-14 54-18 55-95 34-66-17-112-42-125-66-7-12-11-122-11-297 0-256-9-441-24-503-6-23 1-28 77-67 224-114 422-283 577-490 25-35 48-63 50-63s1 14-3 32m-2618 672c87 31 347 72 492 79l55 2-1 35c-2 41 14 232 22 274 6 27 4 28-19 22-37-9-82 11-111 49l-26 34-44-25c-39-22-50-24-83-15-22 6-49 20-62 32-28 26-60 95-61 128 0 22-2 23-47 16-27-4-62-13-80-20-60-25-65-43-75-287-5-121-12-247-17-279-9-66-7-67 57-45m569 498c29 27 29 59 1 85-19 17-77 43-96 43-10 0 10-106 24-128 18-28 41-28 71 0m-230 36c23 17 56 95 46 106-4 3-39 6-80 6-67 0-73-2-73-20 0-41 47-109 75-109 6-1 20 7 32 17m2272 99c17 15 31 37 31 49 0 35-46 81-96 98l-47 16 5-71c4-55 10-75 28-94 30-32 41-31 79 2m-2958 32c31 32 38 75 17 103-13 15-98 48-125 48-33 0-6-128 34-160 34-26 39-26 74 9m2724 39c13 20 27 51 31 68 7 37-8 44-98 44-64 0-73-7-64-53 19-99 85-129 131-59m-2987 5c16 17 51 100 52 124 0 6-177 3-182-3-9-8 11-75 34-112 24-39 64-43 96-9m2234 154c35 39 41 62 22 90-15 24-109 73-139 73-17 0-19-31-6-97 18-93 71-121 123-66m-257 62c16 24 27 55 28 82l2 44-92 3c-92 3-93 2-93-21 0-40 31-116 53-132 39-27 74-19 102 24"/><path d="M3310 1195c-138 28-241 85-348 194-60 62-81 99-67 120 14 23 41 8 114-62 42-39 105-89 141-109 165-97 399-87 570 24 97 63 151 127 227 268 29 55 58 74 74 48 14-22 10-44-17-105-93-205-287-350-512-383-83-12-101-11-182 5m2554 1019c-30 30-34 41-34 84 0 68 15 103 53 129 47 33 82 30 122-10 62-62 55-168-14-214-49-33-86-30-127 11m-1150 5c-58 35-78 150-35 208 24 33 77 56 115 49 107-20 130-197 34-256-41-25-74-25-114-1m911 697c-38 9-97 30-130 48-52 28-60 37-60 62s4 29 24 26c13-1 53-16 89-33 84-40 203-50 300-25 81 21 82 20 82-8 0-29-13-40-70-59-72-23-157-27-235-11m84 365c-25 4-69 17-97 29-42 18-52 27-52 47 0 35 22 38 100 13 56-18 86-21 162-19 90 4 93 3 96-19 3-17-4-25-30-36-42-17-120-24-179-15"/></svg>