<svg xmlns="http://www.w3.org/2000/svg" fill="#3f3d3d" viewBox="23313 -80 4178 7912"><path d="M25282 47c-22 52-90 286-115 400-9 39-24 129-33 200-10 70-19 130-20 132-2 2-29-19-61-46-126-109-255-182-415-234-96-31-147-36-166-17-20 20-13 57 14 81 52 43 196 223 251 312 53 85 133 250 133 274 0 7-8 7-27 0-108-41-334-51-471-20-95 22-112 33-112 72 0 33-5 30 134 75 184 58 379 212 473 372 64 108 64 112 1 143-345 170-528 614-530 1284 0 110 5 238 11 284 40 277 147 504 298 627 182 148 397 214 698 214 327 0 554-79 726-252 223-225 309-640 244-1188-49-417-150-671-339-847-62-58-158-123-205-138-28-9-27-18 10-84 113-200 298-350 529-427 95-32 95-32 95-65 0-41-18-51-126-75-130-28-316-19-457 22l-23 7 20-52c70-176 149-297 323-492 67-75 80-103 56-127-19-19-60-14-171 22-166 54-288 124-404 231-35 31-63 54-63 51 0-30-37-256-56-346-25-119-116-403-135-427-6-7-24-13-39-13-23 0-31 7-48 47m98 285c38 142 77 357 86 469l7 86-63 94c-35 52-67 98-71 103s-19-13-32-40c-14-27-43-73-65-102-33-44-39-59-36-90 21-201 28-261 45-347 30-152 80-320 91-301 5 8 22 66 38 128m-615 321c198 98 372 270 476 471l41 78-28 93-28 93-71-63c-40-34-92-74-117-89-43-25-48-32-78-118-54-157-145-318-254-451-54-66-48-68 59-14m1194 19c-104 129-207 319-255 471-18 55-23 62-89 104-86 56-176 147-234 237l-45 68-18-35c-17-34-17-37 3-113 71-273 238-521 447-666 47-33 220-127 234-128 5 0-15 28-43 62m-1169 558c211 60 367 187 461 375l40 80-63 7c-66 8-171 26-200 34q-16.5 4.5-24-18c-4-13-25-57-48-98-76-139-263-310-411-375-30-14-55-28-55-31 0-15 227 5 300 26m1390-24c0 3-17 12-37 21-71 29-200 120-274 194-79 78-138 158-184 249-15 30-28 56-29 57s-30-4-66-12c-36-7-95-16-132-20-38-4-68-11-68-17s16-45 37-87c28-60 55-95 127-166 76-76 107-99 186-138 119-59 227-85 348-86 50-1 92 1 92 5m-1022 701-118 118-70-70c-62-62-69-71-54-82 41-30 235-81 314-82l45-1zm438-92c34 8 87 26 119 40l58 25-19 22c-10 13-40 45-66 72l-46 50-121-113c-67-62-121-116-121-118 0-8 127 7 196 22m-102 184 88 83-117 112c-65 61-121 112-125 114-4 1-61-49-126-112l-119-115 120-119 120-120 36 37c19 20 75 74 123 120m-542 101c-13 11-68 61-124 112-55 51-103 94-108 96-9 4-110-108-110-122s65-112 100-152c14-16 45-46 69-68l44-38 76 76 76 77zm944-134c45 36 114 122 151 186l22 37-52 60c-29 33-56 60-60 60-5 1-64-52-132-117l-124-117 72-73c39-39 73-72 76-72 2 0 23 16 47 36m-741 289 120 115-130 125-130 125-117-117c-65-65-118-122-117-128 1-10 239-234 249-234 3 0 59 51 125 114m615 0c66 60 119 115 118 122-2 7-54 64-117 128l-114 115-106-102c-58-56-117-111-130-124l-24-22 119-116c66-63 122-114 126-113s62 51 128 112m-1192 192c-46 46-85 78-87 72s14-64 35-130l38-120 48 48 48 47zm1578-25c13 48 24 93 24 100s-36-23-80-67-80-84-80-89c0-6 19-29 42-53l42-43 13 32c8 18 25 72 39 120m-678 139 121 115-129 129-129 128-128-122c-70-68-129-126-131-131-5-14 251-249 264-242 6 4 66 59 132 123m665 51 59 58-34 39c-95 112-184 209-190 208-4-1-64-55-133-120l-125-119 118-124 117-123 65 62c35 34 91 88 123 119m-1305-56c61 64 112 119 112 123 0 3-57 60-126 125-107 101-127 117-139 105-8-8-59-64-114-124l-100-110 117-118c64-64 121-117 127-117 5 0 61 52 123 116m315 311 126 121-132 126-132 125-130-129-129-130 124-119c69-66 130-119 136-118 7 1 68 57 137 124m637-11c66 64 120 121 120 127 0 20-243 256-256 249-7-4-67-61-134-126l-122-120 128-122c71-68 132-123 136-124 4 0 61 52 128 116m-1244 21 93 98-102 100-102 100-3-55c-5-68 8-340 15-340 3 0 48 44 99 97m1691 114 6 183-101-94c-56-52-102-97-102-100 0-4 33-42 73-85 39-43 78-87 86-98 24-34 31 0 38 194m-1407 174 124 125-114 115c-63 63-119 115-124 115s-64-57-131-127l-122-128 116-112c64-62 118-112 121-112s61 56 130 124m1267-13 112 113-123 130-123 129-122-114-122-114 128-128c70-70 130-128 133-128s56 51 117 112m-623 21 128 122-131 124-131 123-119-111c-65-61-124-117-130-124-9-11 15-39 115-136 69-66 128-121 132-121 4 1 65 56 136 123m-295 334 96 91-85 80c-47 43-102 93-122 111l-38 33-125-118c-69-65-125-120-125-123s53-55 118-117l117-112 34 31c19 18 77 73 130 124m606-36 113 111-125 119-125 119-47-40c-25-21-81-72-123-112l-78-73 128-117c70-64 131-117 136-118 5 0 60 50 121 111m-1185 164c-30 30-57 52-61 47-16-15-51-121-74-216l-23-99 106 106 107 107zm1606-172c-13 62-60 214-68 223-2 1-30-23-62-52l-60-55 99-99c54-55 101-98 103-95 2 2-3 37-12 78m-1352 310 109 103-72 58-72 58-42-28c-56-37-129-106-162-155l-28-40 34-36c76-81 93-93 109-78 8 8 64 60 124 118m1175-69 64 64-21 34c-26 42-112 125-170 163-50 33-56 31-141-44l-53-48 53-49c30-27 86-79 124-116 39-37 72-68 75-68s34 29 69 64m-576 52c56 53 108 102 115 109 11 10-7 31-100 115-62 56-118 104-125 107-12 5-243-192-243-207 0-11 231-220 242-220 5 0 55 43 111 96m-335 261c46 42 79 79 72 81-29 10-270-51-270-68 0-9 96-90 107-90 3 0 44 35 91 77m589-30c54 46 54 47 31 59-28 14-143 40-222 49l-58 7 80-71c45-39 84-76 87-81 11-18 26-11 82 37m1455-87c-52 12-95 62-155 178-31 59-182 352-337 652-154 299-288 552-297 562s-46 27-83 38c-77 23-150 69-182 113-12 17-40 64-63 105l-40 75-90-2c-50-1-121 5-160 13-76 16-85 14-85-15 0-35-44-113-88-157-178-178-477-81-535 173l-14 60-64 6c-36 4-82 12-103 18-38 10-40 9-88-34-156-140-391-90-494 105-14 26-18 57-18 120 0 47 3 94 7 105 7 18 1 22-65 37-262 62-479 280-544 543-9 38-18 76-20 82-2 9-31 13-97 13-143 0-154 25-79 176 71 145 217 308 384 427 104 74 298 177 430 227 83 32 87 34 93 69 11 59 41 117 72 139 35 24-45 23 1191 22h692l35-33c25-23 42-52 58-102 21-65 24-70 62-84 407-145 710-384 854-672 72-143 58-169-90-169-71 0-101-4-103-13-2-6-11-46-20-87-25-112-98-251-176-334-68-72-159-147-205-168-15-7-37-31-50-58-13-25-49-78-80-119l-57-73 33-67c29-57 33-77 34-141 0-41-7-104-15-139l-15-64 32-58c31-56 271-451 453-744 48-77 133-214 189-304 104-168 128-227 117-282-19-99-125-164-224-139m105 112c41 38 32 77-49 207-511 826-695 1135-708 1192-10 40-9 58 5 106 22 76 21 153-4 206-10 23-50 91-88 152-66 106-70 110-107 113-21 2-37 0-35-5 2-4 30-54 63-111s56-109 52-117c-3-8-17-20-31-27-33-15-38-9-104 107-28 49-54 97-59 105-7 12-14 13-36 2l-27-12 62-121c55-109 60-123 49-144-15-27-33-37-55-29-8 3-41 57-72 120-32 63-63 114-69 114-5 0-19-6-30-14-18-14-16-21 64-180 95-189 126-224 229-256 129-40 122-31 303-385 62-121 141-274 175-340s97-188 140-270c43-83 107-206 142-275 36-69 74-133 85-143 28-24 77-22 105 5m-1807 1465c65 26 124 102 132 168 3 30 7 27-105 81l-79 37-79-27c-44-14-107-29-140-33-33-3-62-9-64-13-9-14 23-101 50-136 32-42 93-84 137-94 40-10 100-3 148 17m-783 234c70 34 133 133 133 209 0 41-30 127-52 147-18 16-22 16-88-6-71-22-221-44-274-39-28 3-32-1-44-37-33-96 12-205 108-263 67-40 148-44 217-11m1293-4c0 16-52 93-60 88-26-16-156-5-246 20-93 27-97 27-131 11-21-10-32-21-27-26 19-18 172-73 239-85 75-14 225-19 225-8m-670 98c89 29 200 80 200 93 0 4-23 13-51 19-41 10-56 10-77-1-88-44-166-60-297-61-71 0-144 3-161 7-29 6-32 5-38-23-3-16-6-32-6-37-2-17 111-31 225-28 97 3 136 9 205 31m645 99c33 15 89 46 124 69l64 42-44 13c-44 14-46 13-95-16-60-37-149-62-222-62-38 0-65-6-89-21-19-12-32-23-30-25s21-11 43-19c61-23 176-15 249 19m639 87 19 32-24-7c-13-3-43-9-67-13-23-3-44-9-47-13-2-4 7-24 21-44l26-38 27 26c14 14 35 40 45 57m-1448-60c43 6 103 20 135 32l58 22-28 34-28 34-42-16c-22-9-72-22-109-27-66-11-86-9-224 17-26 5-26 5-16-36 9-35 15-42 47-51s65-14 113-19c9 0 51 4 94 10m513 83c41 22 99 93 113 140 12 39 12 39-32 78-77 69-248 138-341 138-28 0-69-94-69-160 0-168 178-274 329-196m272 47 42 21-53 29c-29 16-56 29-60 29-5 0-60-104-60-114 0-9 94 16 131 35m580 24c218 46 400 185 493 378 43 88 65 157 66 204 0 20-5 23-37 23h-38l-28-89c-34-106-105-220-180-286-118-106-314-172-473-161-156 11-279 64-449 192-179 134-299 179-480 178-83 0-129-6-188-22-98-28-131-45-285-144-198-128-312-168-482-169-167-1-307 52-424 162-80 74-126 148-162 257l-27 82h-79l7-43c28-164 154-348 299-436 282-170 609-141 913 80 144 105 274 150 430 150 86 1 114-4 186-29 98-33 143-59 253-139 204-151 328-199 521-202 50 0 124 6 164 14m-1305 20c49 14 50 15 46 50-5 42-14 50-43 34-34-18-138-27-204-18-52 7-65 6-102-14-39-20-54-36-35-38 4 0 39-9 77-20 79-22 176-20 261 6m1288 145c152 39 278 133 349 261 37 66 70 163 60 173-4 3-21 6-40 6-23 0-35-5-39-18-17-50-66-146-91-177-42-53-128-115-207-149-64-27-81-30-176-29-147 0-213 28-410 173-114 83-198 130-302 164-70 24-90 26-246 26-145 0-180-3-238-21-92-28-228-97-346-176-53-35-117-72-141-83-151-67-317-66-451 2-84 43-187 162-215 250-12 36-15 38-53 38h-40l7-38c19-102 137-258 240-315 94-53 172-70 303-65 152 5 219 29 384 136 159 103 248 148 346 173 119 31 229 35 342 11 143-29 227-70 385-183 77-56 164-112 194-126 123-55 255-67 385-33m-1311 11c54 18 67 26 80 55 16 33 16 34-4 34-43 0-219-81-219-101 0-16 78-10 143 12m1256 144c35 9 86 28 114 42 78 43 157 138 182 220 6 21 3 23-34 23-39 0-43-3-72-50-93-152-271-202-431-122-35 18-103 62-152 99l-90 67-83 2c-46 0-83 0-83-2 0-1 26-17 58-34 31-18 109-70 173-116 188-136 274-163 418-129m-1866 45c40 12 106 47 169 88 57 38 135 86 173 108l70 39-84 3c-78 3-86 1-122-25-161-116-242-153-333-153-99 0-203 54-254 131-30 45-35 49-73 49-37 0-40-2-33-23 30-98 119-182 232-218 77-24 174-24 255 1m1890 139c28 13 58 38 72 60l25 36-177 3c-98 2-202 0-232-3l-53-7 67-45c37-24 83-51 103-59 52-19 138-13 195 15m-1888 35c28 14 60 35 70 46 18 20 18 20-184 20-199 0-202 0-191-20 25-47 118-82 199-76 29 3 77 16 106 30m2705 164c0 5-17 37-39 73-83 138-223 281-371 381-85 57-299 163-408 202l-73 26h-1955l-75-25c-105-36-298-133-405-204-104-68-234-187-299-271-42-54-115-172-115-184 0-3 842-6 1870-6 1029 0 1870 4 1870 8m-932 787c2 2-4 21-14 42l-19 38-903 3-903 2-19-42-19-43 767-5c734-5 1102-3 1110 5"/></svg>