<svg xmlns="http://www.w3.org/2000/svg" fill="#3f3d3d" viewBox="14945 11077 2210 3551"><path d="M15893 11175c-209 48-409 188-512 359-89 148-117 276-104 481 17 298 5 385-83 600-131 315-153 405-161 641-8 228 12 372 89 639 63 222 140 417 186 470 89 105 313 163 664 172 373 11 670-39 790-130 58-44 107-140 172-337 107-319 141-511 140-775-1-250-28-373-141-637-30-70-65-171-79-225-23-93-24-108-22-367 3-242 1-278-16-331-71-228-203-388-400-486-56-27-126-57-156-65-79-22-290-27-367-9m332 110c33 8 102 36 153 61 131 64 224 157 286 286 69 145 71 158 71 473 0 320 6 355 100 577 6 16 1 18-43 18-110 0-315-46-474-108-94-36-119-52-79-52 10 0 50-16 89-35 120-60 224-183 273-321 27-75 36-221 19-306-40-204-217-388-426-443-74-19-203-19-277 0-204 53-380 234-423 434-56 266 71 527 313 642l91 43-86 34c-169 65-374 112-488 112-30 0-54-1-54-3 0-1 16-40 35-86 65-153 79-226 75-396-8-370-7-404 22-486 88-251 280-409 556-459 62-12 192-4 267 15m-215 238c0 79-129 232-245 289-69 35-171 65-182 55-9-10 17-74 56-134 69-106 176-184 301-217 72-19 70-19 70 7m171-7c138 41 258 139 315 259 31 64 41 95 30 95-3 0-40-11-84-25-144-46-257-139-314-260-27-59-30-85-9-85 4 0 32 7 62 16m-56 210c74 102 201 176 351 207l69 14 3 53c6 109-49 251-131 339-18 18-59 51-91 72-191 126-437 101-610-61-97-91-155-223-156-352v-47l48-7c70-10 177-48 239-86 69-42 154-126 185-184 21-41 24-43 36-27 7 10 32 45 57 79m-31 865c44 35 31 101-24 114-36 9-80-27-80-64 0-27 20-53 50-64 24-9 26-8 54 14m279 108c150 48 271 72 395 78 70 4 112 10 112 17 0 6 11 40 25 77 14 36 36 116 49 178l24 111-27 8c-52 14-253 7-326-12-187-49-347-162-449-316-20-30-36-59-36-63 0-5 11-22 25-39 14-16 28-47 31-68l6-39 37 18c20 10 80 33 134 50m-459-25c4 19 19 48 35 65l28 30-27 49c-122 224-411 374-692 359-53-3-102-8-108-12-20-12-1-130 42-261l39-121 117-6c64-3 158-15 207-26 92-20 292-82 323-100 26-16 29-14 36 23m222 256c38 54 122 134 187 178 96 67 219 114 381 147l29 6-6 117c-6 137-23 207-77 317-117 239-345 388-595 388-241-1-482-157-598-388-48-97-69-183-74-312l-6-122 29-6c196-40 310-87 427-176 81-61 158-151 195-225l26-54 25 43c15 24 40 63 57 87m-883 330h47v95c0 380 252 712 601 791 87 20 286 15 360-9 330-106 549-419 549-782v-95h39c21 0 60-3 86-7l48-6-6 129c-7 173-53 394-127 614-73 219-109 299-149 333-75 63-288 105-571 114-326 9-631-39-721-114-40-34-83-128-149-325-90-269-130-474-130-662v-94l38 9c20 5 58 9 85 9"/><path d="M15777 11982c-28 22-32 69-7 101 29 36 71 36 99 1 25-32 27-61 5-92-17-25-69-30-97-10m468 8c-26 29-24 79 4 102 68 54 145-23 97-97-21-32-74-35-101-5m-335 260c-9 17-6 25 18 49 69 70 210 63 266-12 18-25 19-28 4-43s-20-15-69 10c-65 32-82 32-141 1-57-30-64-31-78-5"/></svg>