<svg xmlns="http://www.w3.org/2000/svg" fill="#3f3d3d" viewBox="9608 8007 4124 7018"><path d="M13224 8129c-22 10-128 69-235 132-718 418-804 472-1284 807-559 391-850 577-1260 804-288 160-268 151-309 132-45-22-95-12-131 26-25 26-29 38-29 84 2 102 114 283 187 301 66 17 137-36 137-102v-39l260-148c470-267 714-386 1370-668 330-142 748-343 1010-485 479-261 579-318 612-351 100-96 83-288-38-422-75-83-197-113-290-71m172 55c55 26 98 71 135 144 19 38 24 62 24 124 0 127 27 108-634 465-324 175-677 345-1076 516-198 86-402 174-453 196-51 23-94 41-97 41s-5-7-5-15c0-21-36-91-67-133-14-18-23-35-22-37 2-2 76-52 164-112s279-191 425-293c360-250 582-394 820-532 52-31 205-120 340-198 358-209 356-208 446-166m-2162 1465 14 46-62 31-61 32-8-60c-4-33-14-77-21-99-14-40-14-40 17-60l32-20 38 42c20 23 43 63 51 88m-175-22c6 21 13 64 17 95l7 56-71 36-71 36-6-48c-3-26-10-65-15-87s-5-44-1-48c12-12 114-75 123-76 4-1 12 16 17 36m-178 104c4 13 7 52 8 86l1 61-57 31c-31 17-60 31-63 31-4 0-10-28-13-63-4-34-9-72-13-84-5-18 4-27 53-56 32-20 62-34 68-33 5 1 12 13 16 27m-177 94c3 13 9 51 12 83l6 58-61 37c-35 20-66 37-70 37-5 0-11-28-14-63-3-34-9-71-12-82-5-17 5-27 57-57 35-20 66-37 69-38 4 0 10 11 13 25m-177 102c4 16 7 55 8 87v59l-58 35c-32 18-60 32-63 30-2-2-8-33-13-69-5-35-12-71-15-79-4-11 13-26 57-51 34-21 65-37 69-38s11 11 15 26m-174 112c4 18 7 55 5 83-3 46-6 53-38 73l-35 22-42-73-41-74 61-34c34-18 66-33 72-32 5 1 13 17 18 35m-211 44c31 39 93 162 102 201 9 38-16 76-51 76-34 0-79-49-121-131-42-83-51-133-27-159 28-31 68-26 97 13m2731-799c-142 54-239 172-265 324-30 178 70 367 237 447 82 40 221 47 308 16 213-74 325-303 258-522-37-116-115-204-229-257-83-38-221-42-309-8m248 46c80 25 146 73 188 136l32 49-22 10c-16 7-24 6-27-3-2-6-11-12-19-12-11 0-14 7-9 24 8 32-15 51-43 37-24-13-39 3-21 24s-7 53-36 47c-17-3-24 0-24 11 0 8 5 17 11 19 22 7-1 48-26 48-31 0-43 20-16 27 12 3 21 9 21 13 0 22-14 40-30 40-28 0-33 17-10 30 26 14 26 47 0 55-27 9-25 24 5 35 30 12 32 31 5 48-25 15-17 34 12 30 32-5 33 20 1 29-15 4-62 8-103 7-59 0-87-6-131-26-94-43-198-153-170-181 8-8 14-6 24 8 17 22 40 11 32-14-8-26 18-45 44-32 24 13 39-3 21-24-19-23 5-57 35-49 18 5 25 2 25-9 0-8-5-17-11-19-19-6 0-48 21-48 26 0 35-19 15-33-20-16-10-47 16-47 23 0 26-28 4-36-18-7-21-55-3-52 6 2 14-5 16-15s-2-17-11-17c-16 0-30-27-21-41 3-5 12-9 20-9s14-7 14-15c0-9-9-15-25-15-34 0-32-28 3-36 15-3 32-7 37-9 29-10 100-3 156 15m-251 29c0 5-7 11-15 15-22 8-18 36 5 36 24 0 26 18 3 35-16 12-9 40 8 30 5-4 9 5 9 19 0 19-5 26-20 26-24 0-26 16-3 28 10 6 14 16 10 26s-11 14-17 11c-20-12-32 6-15 25 22 24 9 52-21 44-18-5-24-2-24 10 0 9 5 16 10 16 14 0 13 27-1 36-6 3-15 0-20-7-6-11-11-11-20-2s-9 15 0 26 8 17-5 28-17 10-25-4c-13-23-42-11-29 13 9 17 4 30-11 30-18 0-31-76-27-149 8-118 55-202 152-273 40-29 56-34 56-19m500 257c28 132-45 298-159 362-40 23-57 17-26-8 18-15 11-30-16-30-10 0-19-7-19-15s7-15 15-15 15-7 15-15-7-15-15-15c-24 0-18-37 8-44 21-6 21-7 5-20-24-18-23-46 1-46 26 0 35-17 16-28-22-12-8-44 15-37s35-11 20-30c-17-21-3-36 27-29 24 6 25 5 19-19-6-26 14-53 22-29 6 19 34 14 30-6-3-21 10-44 22-37 5 3 14 30 20 61m-355 958c-49 13-153 49-230 79-209 81-245 91-560 157-159 33-319 67-355 75-104 23-859 181-1173 246-292 60-447 79-642 79-180 0-293 49-342 148-23 47-25 61-21 136 5 106 37 173 117 253 140 140 357 218 641 232l135 6 58 44c54 42 57 46 57 88 0 68 25 109 104 168 81 61 112 75 164 75 80-1 170-70 191-147 29-103 0-180-89-245-33-24-60-46-60-49 0-4 17-10 38-14 20-3 294-61 607-127 314-66 650-137 748-158l177-37 53 36c46 33 53 41 58 82 10 68 33 104 94 149 102 76 119 83 185 78 77-6 134-43 169-112 49-95 25-203-57-260-96-66-96-59 4-90 252-78 406-193 492-365 36-73 37-78 37-185 0-105-2-114-31-166-37-66-126-138-211-170-90-35-241-38-358-6m327 54c108 38 191 113 208 187 12 51-11 134-56 201-65 98-204 199-356 258-115 45-205 67-673 167-209 44-560 118-780 165-994 211-1053 221-1235 211-133-7-241-29-354-73-176-68-301-169-332-268-16-50-16-54 4-100 18-40 29-50 77-72 68-31 148-44 286-44 131 0 283-15 409-40 159-32 1147-238 1270-265 36-8 216-46 400-85 335-70 416-92 605-167 262-105 390-123 527-75m172 479c-48 82-148 173-252 227-155 79-214 95-942 246-107 22-298 63-425 90-983 212-1152 245-1313 256-344 23-699-112-802-306-10-18 1-12 40 23 112 100 289 180 474 212 114 19 310 19 443 0 92-14 711-142 1448-300 143-30 325-69 405-86 244-51 432-96 500-119 168-57 292-131 385-232 33-36 62-64 63-62 2 1-9 24-24 51m-566 422c9 6-2 16-40 34-74 37-118 108-118 192v30l-20-30c-46-70-3-191 80-224 31-12 81-13 98-2m-218 40c-15 29-27 33-50 19-34-22-26-28 48-37 10-1 10 4 2 18m321 37c57 29 75 114 39 184-48 94-159 114-225 40-29-32-28-128 1-167 50-67 123-90 185-57m-2096 348c17 12 16 13-11 20-81 20-143 97-147 180-1 25-6 46-10 46-18 0-39-74-33-115 15-96 138-177 201-131m-205 13c0 5-7 17-15 27-12 16-19 18-40 8-36-16-31-30 13-35 20-2 38-4 40-5 1-1 2 1 2 5m316 71c32 25 44 55 44 107 0 89-50 146-135 153-52 4-56 3-90-31-31-31-35-41-35-89q0-94.5 72-138c42-25 115-26 144-2"/><path d="M12929 11679c-66 67-10 162 75 127 59-25 70-117 17-145-33-18-61-12-92 18m81 31c16 31-4 62-38 58-32-4-41-37-17-62 22-22 42-20 55 4m-2075 395c-24 24-29 40-25 80 9 90 150 63 150-30 0-70-75-101-125-50m80 49c0 32-23 53-49 43-19-7-21-48-4-65 7-7 22-11 33-10 15 2 20 11 20 32m1826 316c-55 12-69 24-77 65-8 43 2 72 27 80 16 5 20 14 17 43l-3 37-82 7c-145 12-173 44-173 198 0 79 2 91 20 102 31 19 24 50-19 92-58 57-83 122-84 222-1 80 0 85 36 137 49 71 49 109 0 190l-38 60-3 491c-4 543-1 600 31 648 57 84 139 103 452 103 318 0 395-20 443-115l22-44v-538c0-583 2-559-55-637-35-48-32-84 12-149 33-47 38-63 41-123 5-81-10-150-43-200l-24-37 46-11c70-18 117-46 160-95 46-53 63-101 63-182-1-133-93-230-236-249-62-9-149 12-233 55-33 16-63 30-66 30-13 0-3-27 16-38 31-20 24-98-12-125-31-22-165-32-238-17m209 65c23 28 0 35-116 35-104 0-114-2-114-18 0-10 3-22 7-25 3-4 52-7 108-7 78 0 105 4 115 15m-38 121c2 19 2 36-1 37-3 2-39 1-78-1l-73-4v-68h148zm439-13c24 13 58 43 74 66 26 37 30 51 30 110 0 58-4 75-30 117-35 56-109 100-187 110-43 6-48 5-48-12 0-11 10-25 21-33 21-12 22-18 16-118-4-57-12-113-17-123-16-29-60-48-131-58l-64-8 45-24c107-56 216-66 291-27m-260 117c30 6 60 18 67 27 7 10 12 48 12 94v76l-37 7c-50 8-527 8-587 0l-47-7 7-81c3-45 11-86 16-93s28-16 51-22c57-12 452-13 518-1m42 281c7 25-34 29-284 29-257 0-308-5-302-29 4-16 30-17 293-17 264-1 289 1 293 17m-129 81c175-11 185-7 224 70 17 35 24 65 25 121 1 71-1 77-36 128-51 74-52 132-3 208 23 35 37 71 41 105 3 28 5 272 3 543-3 480-3 492-24 520-46 62-127 78-394 77-280 0-378-22-406-90-11-27-14-136-14-562v-529l25-34c69-94 72-151 15-237-35-53-40-66-40-118 0-81 15-129 55-172l33-37 173 8c100 5 235 5 323-1"/></svg>