<svg xmlns="http://www.w3.org/2000/svg" fill="#3f3d3d" viewBox="6695 193 3392 3971"><path d="M7784 287c-6 4-13 15-16 23-10 28 11 48 57 54 56 9 101 27 139 57 30 23 86 96 86 111 0 5-15 15-32 23-102 42-175 140-165 221 5 51 28 81 75 101 97 41 207-63 227-213l7-51 46 9c55 10 111 45 146 91 14 19 26 36 26 40 0 3-20 10-45 15-60 13-136 64-171 114-25 35-29 51-29 107 0 50 5 72 20 93 89 122 290 34 327-143 7-33 15-59 19-59 13 0 49 51 69 98 43 96 33 264-23 384l-22 49-90 3c-49 1-97 6-105 9-11 5-23-11-48-63-119-254-437-315-635-122-55 54-87 106-111 178l-17 51-52-18c-65-23-179-24-238-4-165 58-279 232-267 408 6 80 40 168 88 229 17 20 30 41 30 45 0 5-18 27-41 48-50 49-93 132-110 213-21 99 9 218 77 308l23 31-45 33c-56 40-108 116-135 199-38 114-16 246 58 354l27 38-32 30c-85 79-127 177-127 299 0 103 13 148 64 228 73 113 188 175 326 175 101 1 167-21 244-79 61-45 125-129 137-177 3-15 10-27 14-27s34 12 66 27c51 24 72 28 154 28 86 0 101-3 160-31 36-17 80-44 99-60 47-39 108-137 127-200l15-52 46 14c139 42 295-2 400-113 76-80 121-214 106-319l-6-44 59 27c52 25 71 28 159 28 87 0 107-4 158-27 166-78 270-270 238-441-16-85-61-173-115-226l-45-44 33-41c168-207 104-512-133-629-59-29-75-32-165-34l-100-1-22-44c-12-24-30-50-38-57-27-23-18-40 63-120 116-115 234-181 324-181 45 0 119 20 115 31-2 4-25 23-53 42-73 49-108 107-113 182-4 59-2 63 31 98 31 34 39 37 88 37 41 0 62-6 90-26 73-50 116-148 103-230l-6-37 46 6c57 8 94 27 135 68 27 26 71 97 71 113 0 3-21 8-47 12-93 13-156 51-203 122-24 37-30 56-30 100 0 50 3 58 38 92 48 48 95 59 157 36 60-24 128-98 149-167 10-29 19-60 22-67 11-35 120 65 155 142 10 22 19 56 19 74 0 47 16 72 46 72 51 0 51-99-2-207-29-60-120-148-181-175-33-14-43-25-43-42 0-40-59-144-105-184-55-48-140-82-207-82-42 0-56-5-86-31-54-48-98-63-182-62-57 0-90 6-137 25-35 14-63 24-63 22s13-25 28-51c84-144 162-362 178-494 13-109-51-162-194-163-70-1-75 0-101 30-24 27-29 43-35 115-14 159-70 379-123 483l-20 39-5-94c-4-75-11-108-33-157-28-62-82-122-131-144-14-7-38-37-56-70-58-109-175-188-278-188-38 0-41-3-66-51-33-66-106-138-168-168-52-24-143-38-162-24m1262 338c21 14 22 16 9 82-31 158-112 348-225 528-74 118-163 225-186 225-20 0-19-4 30-70 118-160 216-429 237-655 6-61 13-116 15-124 5-17 87-8 120 14m-972 42c-13 70-61 133-103 133-21 0-41-19-41-40 0-25 47-83 88-107 54-33 64-30 56 14m328 227c-7 111-115 203-172 146-41-41-13-114 65-165 28-18 51-25 75-23 34 3 35 4 32 42m-382 345c91 34 158 105 191 199 11 31 9 34-44 87-64 64-101 135-118 226l-13 65-65-19c-51-14-84-17-148-13l-82 6-34-42c-81-100-104-203-72-313 13-48 28-70 78-120 93-93 196-118 307-76m1295 217c-12 66-85 126-126 104-53-29 1-124 98-175 27-14 28-14 31 12 2 14 1 41-3 59m-796 60c276 78 310 440 54 570-237 120-507-128-413-380 36-96 123-173 224-197 49-11 76-10 135 7m-1096 19c70 18 107 41 107 66 0 38 44 133 85 184l44 53-40 28c-46 32-101 102-130 169-16 36-24 45-37 40-9-4-44-12-78-18-50-9-73-8-129 6l-69 17-27-26c-14-14-39-49-55-77-36-66-45-184-20-251 33-87 102-155 188-186 65-24 88-24 161-5m2227 127c-1 66-85 168-137 168-34 0-63-26-63-57s74-111 114-122c17-5 43-10 59-10 22-1 27 3 27 21m-615 122c59 27 105 70 142 133 22 37 28 62 31 129 4 71 1 89-20 136-32 69-76 119-136 154-39 23-62 29-133 32l-86 4-26-44c-25-43-99-118-145-148l-24-15 47-35c91-68 155-195 157-309l1-61h71c53 0 84 6 121 24m-1074 112c68 20 124 76 169 168 30 60 32 72 28 133-16 214-231 348-419 261-237-110-240-434-6-548 73-35 143-39 228-14m-543 270c37 14 40 18 45 65 8 64 56 163 108 222l41 47-26 21c-57 45-107 107-133 166-24 56-31 64-61 69-60 12-154-2-209-29-127-65-195-233-148-366 32-92 115-176 196-199 53-16 144-14 187 4m1174 93c153 73 219 265 143 415-53 105-155 166-278 166-111 0-222-74-270-179-29-62-30-189-3-243 40-81 120-151 206-179 43-15 154-4 202 20m561 215c113 114 128 279 36 413-80 115-253 162-374 100-47-23-125-89-125-105 0-4 23-29 50-56 28-28 65-78 83-115 27-56 33-79 35-153l4-88h56c32-1 80-9 107-19 73-27 79-25 128 23m-1292 101c81 2 113 6 135 20 103 63 153 233 106 358-28 74-85 135-159 169-56 27-72 30-136 26-88-4-151-34-209-96-46-50-76-111-84-175-9-61 25-169 68-221 46-56 117-99 148-90 14 4 73 8 131 9m-661 261c64 23 85 25 146 20l71-6 6 53c6 61 43 149 80 193l27 32-17 51c-36 113-158 201-278 201-89 0-150-25-217-91-43-43-60-68-72-109-32-109-13-216 55-301 38-48 87-82 109-75 8 3 49 17 90 32m1265 99h103l19 30c105 160 41 372-136 456-60 29-170 29-233 1-79-35-148-109-176-190-11-32-10-34 46-90 65-64 106-138 124-222l11-56 70 35c66 34 74 36 172 36m-793 287c52 21 186 31 247 18 21-4 26 1 43 47 11 28 43 80 70 114 47 58 50 64 44 103-36 234-320 338-494 181-65-58-103-134-109-218l-5-64 46-49c25-27 58-73 73-101 16-29 29-53 30-53s26 10 55 22m-596 225c49 22 74 27 144 27 47 1 102-3 123-8l37-8v36c0 49 31 134 68 188l30 44-24 60c-29 73-49 100-103 141-80 62-189 78-284 43-116-44-198-158-198-278-1-75 13-121 57-187 25-38 70-81 90-85 1 0 28 12 60 27"/></svg>