<svg xmlns="http://www.w3.org/2000/svg" fill="#3f3d3d" viewBox="24261 504 2961 4602"><path d="M25429 614c-62 33-119 98-119 135 0 21 21 57 70 123 39 51 95 140 124 198 56 109 130 306 118 313-4 3-32 10-62 17-262 60-450 268-533 590-14 52-37 162-52 245-66 363-112 476-322 799-235 360-312 610-283 920 26 280 125 504 309 698 121 127 188 178 327 249 201 102 358 125 589 89l145-23 158 22c131 18 172 20 247 12 167-18 298-66 442-161 329-217 515-547 530-945 10-266-62-507-237-784-26-42-84-135-129-206-146-231-173-305-246-682-64-327-111-453-221-593-86-110-228-199-376-235-62-16-66-19-70-48l-3-32h170c160 0 174-2 244-28 226-83 381-270 460-554 19-71 19-73 1-95-18-23-22-23-217-23-190 1-201 2-283 29-192 63-338 195-402 361-11 31-22 54-23 53-2-2-21-50-44-106-43-108-129-264-178-320-38-43-76-48-134-18m108 138c70 110 81 132 118 228 48 124 81 269 94 404 14 137 14 196 1 196-5 0-10-15-10-34 0-88-58-307-120-451-33-77-124-226-174-283-25-30-46-57-46-61 0-10 71-60 86-60 7-1 30 27 51 61m1083-36c0 23-59 161-98 227-55 94-144 182-226 222-113 55-181 68-320 62-65-3-122-9-127-14-14-14 29-151 71-229 70-126 191-220 335-258 91-24 91-24 233-25 114-1 132 1 132 15m-975 791c16 74 18 72-44 47-51-20-84-6-79 34 7 59 184 112 304 91 87-15 138-46 142-87 2-23-2-34-14-39-15-6-29-2-86 22-16 6-18 1-18-44 0-59 1-60 89-32 135 42 275 166 348 307 51 98 85 210 117 384 43 229 45 242 78 360 39 141 107 276 253 505 139 218 195 325 239 455 168 508-56 1060-530 1307-177 93-329 114-557 80l-138-21-169 24c-155 21-177 22-257 10-452-67-814-470-863-959-29-289 44-517 290-899 183-285 237-409 285-654 83-422 89-444 157-587 65-137 200-259 343-311 76-28 103-26 110 7"/><path d="M24776 3353c-38 50-92 172-118 268-32 118-32 345 1 464 27 99 98 247 144 300 32 37 36 39 61 27 35-16 33-43-5-98-48-71-97-185-120-281-18-73-20-109-17-213 4-106 10-139 37-218 17-52 49-128 71-170 30-58 37-80 29-94-16-29-55-22-83 15"/></svg>