<svg xmlns="http://www.w3.org/2000/svg" fill="#3f3d3d" viewBox="19790 818 7570 4958"><path d="M20184 920c-51 18-97 43-121 67-7 6-23 20-36 30-25 20-70 85-102 147-17 33-20 59-20 160 0 118 1 123 36 196 19 41 59 100 88 132 51 56 51 56 37 90-51 117-76 190-105 303-91 359-16 662 225 911 300 309 758 464 1214 413 94-11 102-11 123 8 12 10 41 32 65 48 24 15 45 32 48 36 4 6 83 385 128 609 53 271 82 485 92 695l7 130-94 47c-103 51-170 108-215 186-23 38-29 59-29 113 0 104 44 149 181 184 173 43 480 36 659-15 17-4 44-11 62-14 32-5 32-5 22 22-16 40-2 121 27 160 28 36 84 68 159 90 81 23 405 28 545 8 220-32 320-56 405-96 103-49 149-107 185-231 12-41 37-124 56-184 19-61 39-124 44-140 5-17 36-138 68-270 61-247 92-398 92-449 0-24 3-28 23-23 132 29 181 38 297 51 74 9 168 16 208 16h73l30 67c17 38 36 81 44 98 63 142 135 334 135 361 0 1-33 20-72 41-82 42-179 131-201 185-57 136-15 229 122 272 140 45 476 43 701-4 52-11 96-20 98-20s1 22-2 48c-9 98 53 169 179 208 175 54 597 36 880-36 152-39 216-85 258-186 20-46 21-70 22-439 2-397 5-453 46-660 21-105 81-348 124-500 38-131 72-302 90-445 17-144 20-424 4-536-8-62-8-78 3-84 30-17 97-77 116-105 28-40 50-113 58-195 14-141-59-321-180-445-101-103-193-151-328-170-39-6-51-13-76-48-17-23-66-81-109-129-187-208-431-383-663-475-288-115-452-152-774-174-290-20-633 20-1111 130-71 17-155 37-186 45-30 8-107 22-170 32-131 19-215 11-341-32-242-82-480-86-730-10l-46 14-36-58c-44-71-110-130-185-167-48-24-71-28-163-31-105-4-107-4-185 33-57 27-94 54-138 99l-60 62-80-27c-225-77-495-97-725-54-106 20-261 63-277 77-10 8-25-3-59-41-96-106-194-151-328-150-51 0-100 7-132 19m273 118c42 22 81 53 125 102 37 41 71 70 83 70 10 0 66-16 122-36 118-40 266-71 386-80 143-11 357 24 515 83 115 43 139 44 167 9 88-116 178-175 278-184 144-12 292 93 333 235 37 128-1 253-112 375-35 38-64 74-64 79s18 55 39 111c107 283 138 435 121 590-23 197-106 365-254 513-170 170-426 294-721 352-141 27-390 25-525-5-267-60-525-196-686-364-68-70-157-203-184-275-86-228-61-493 77-816 18-43 33-90 33-104 0-18-20-47-65-94-92-98-120-161-120-269 0-76 4-93 32-151 31-62 72-106 133-140 87-48 192-49 287-1m4791 52c447 48 816 208 1127 488 274 246 457 558 556 950 79 311 87 624 24 968-22 119-37 177-119 456-37 128-83 364-101 518-12 100-15 218-14 460 2 325-1 381-28 433-34 67-142 111-354 142-122 17-369 31-393 22-15-6-15-10-2-34 15-29 38-55 75-85 24-21 28-56 6-64-46-18-121 47-157 134l-23 54-44-6c-24-3-52-6-62-6-43 0-15-85 46-139 25-22 35-38 33-54-9-61-109-3-154 90-34 72-31 68-48 54-22-18-28-57-16-102 15-54 75-112 175-170 105-61 118-76 123-147 3-46-1-71-23-122-40-97-91-193-144-273-81-122-261-463-261-495 0-4-7-20-15-36-26-50-84-246-101-340-9-55-15-151-16-247 0-144-2-159-20-175-32-30-51-8-66 77-25 142-1 363 64 577 43 141 47 132-81 164-195 49-308 61-570 62-152 1-271-4-325-12-83-13-105-17-239-43l-63-12 7-116c11-188-17-485-56-583-15-37-48-47-69-20-15 18-15 28 3 128 17 90 20 155 20 369 1 238-1 272-25 405-57 310-236 965-283 1035-56 83-104 108-270 144-170 36-485 65-485 45 0-17 44-75 75-98 55-42 42-87-20-72-40 10-102 73-121 123l-18 45-59-5c-33-3-64-10-69-15-17-17 26-96 68-128 22-15 41-29 43-31 2-1 0-14-3-29-6-23-11-26-37-20-52 10-109 64-139 130l-28 61-12-42c-17-56-7-99 38-158 32-44 53-58 162-112 73-36 133-72 145-87 17-23 19-42 18-134-2-274-109-742-256-1127-116-304-137-339-180-296l-21 21 41 120c22 66 37 120 33 120-14 0-202-81-284-122-177-89-304-168-508-316l-118-86 113-37c357-117 649-371 754-656 53-144 71-281 54-408-16-111-69-318-101-390-5-11-18-46-29-77l-20-57 42-38c82-73 134-196 139-328l3-80 110-29c98-26 126-29 260-29 135 0 159 3 240 27 195 59 233 68 335 73 73 3 131 0 190-11 89-16 100-19 378-85 429-102 849-143 1150-111m1660 873c108 64 188 167 227 290 42 131 29 252-36 330l-32 39-12-29c-6-15-15-46-18-68-13-84-111-355-172-478-63-127-64-129-37-122 15 3 51 21 80 38m-4986 1694c61 42 305 173 393 212 91 39 252 101 264 101s35 63 96 257l48 152-46 238c-98 499-117 578-153 617-49 53-250 100-473 112l-133 7 16-31c9-17 32-43 51-58 62-47 38-101-31-68-42 20-78 62-96 110l-13 36-50-7c-27-3-51-8-54-10-10-10 24-67 60-98 60-54 47-105-20-77-36 15-73 53-105 109l-25 45-12-26c-34-75 39-169 193-250 55-29 108-63 119-76 22-28 25-120 10-257-5-44-12-112-16-150-14-147-112-688-169-936l-14-58 57 37c31 20 77 51 103 69m3536 723c81 159 99 191 135 247l27 42-19 123c-11 68-25 172-31 231-18 177-34 204-140 233-73 20-284 44-387 44-99 0-103-8-43-74 44-48 48-61 23-74-36-19-105 34-140 107-19 41-19 41-100 25-30-6-21-31 33-94 24-28 44-55 44-59 0-13-24-31-42-31-29 0-95 68-114 116-18 47-23 51-42 32-17-17-15-50 7-100 25-56 69-97 160-146 127-69 137-114 67-300-25-64-51-133-58-152s-31-72-53-117l-41-81 91-7c172-12 435-59 525-93 14-5 26-9 27-8s33 62 71 136m-2654 445c9 71 16 159 16 195v66l-76 37c-61 30-75 34-69 20 4-10 11-36 16-58 4-22 22-108 40-190 18-83 34-168 37-189 7-61 18-25 36 119m2946 82c22 47 42 102 43 121 2 32-2 37-62 73-34 21-64 39-65 39s6-66 16-148c9-81 17-153 17-160 2-23 9-12 51 75"/><path d="M20256 1145c-57 20-85 44-112 95-46 85-27 189 49 273 45 50 71 55 100 21 65-79 118-131 173-170 85-61 89-66 70-102-8-16-36-48-62-71-68-60-138-75-218-46m151 91c24 13 43 30 43 37s-24 28-52 47c-29 19-72 61-96 92-37 47-48 56-59 46-47-39-59-155-21-203 46-59 106-65 185-19m1693-97c-52 17-89 42-129 87-59 67-59 65 50 152 42 33 98 87 124 121 57 72 78 77 131 28 120-109 106-304-27-372-36-19-114-28-149-16m104 75c39 16 72 56 81 97 8 37-9 105-36 139l-19 25-59-66c-33-36-78-78-100-93-23-16-41-33-41-38 0-15 61-67 84-71 41-8 57-7 90 7m-1657 710c-83 77-33 216 78 216 55 0 105-53 105-109 0-80-45-131-116-131-29 0-48 7-67 24m995-8c-32 22-52 67-52 115 0 33 6 47 34 75s41 34 78 34c36 0 50-6 75-30 45-44 48-77 17-161-15-43-109-63-152-33m-595 81c-99 34-174 124-287 348-75 148-100 236-100 353 0 204 102 346 297 414 60 20 87 23 218 23 115 0 163-4 205-18 84-26 176-91 226-160 61-82 79-147 78-277 0-121-21-195-102-359-97-195-148-258-252-312-60-31-211-37-283-12m257 78c56 24 106 82 174 206 139 250 169 400 111 554-57 152-236 245-444 231-112-7-178-25-249-66-116-66-161-153-161-310 1-115 22-187 102-340 105-200 163-268 250-290 52-13 170-5 217 15"/><path d="M20905 2379c-110 29-147 89-109 179 20 49 98 120 146 133 37 10 38 11 38 57 0 67-24 92-90 92-41 0-53-5-78-30-33-32-51-37-70-18s-15 34 18 71c57 65 159 73 237 18 41-29 41-29 60-9 49 55 156 66 228 24 51-31 85-87 66-110-20-24-47-19-70 13-41 57-123 63-181 14-25-20-30-32-30-67 0-39 2-43 36-55 42-15 110-73 128-110 39-77 22-143-44-180-35-20-59-24-149-27-58-2-119 0-136 5"/></svg>