<svg xmlns="http://www.w3.org/2000/svg" fill="#3f3d3d" viewBox="815 10984 5445 3762"><path d="M4510 11092c-209 30-488 184-620 342-142 170-230 409-230 620 0 128 44 322 107 476 34 84 44 104 138 305 67 143 69 147 48 141-10-3-31-8-48-12-37-8-272-103-375-151-563-261-1081-181-1259 197-16 34-33 80-36 101-6 36-12 41-86 81-156 83-261 226-300 410l-11 49-46-7c-309-42-512-250-512-523 0-54 17-118 63-236 24-61 22-111-8-140-53-54-133-20-221 91-207 263-219 640-30 959 171 289 525 469 911 464l101-1 73 55c209 157 539 270 896 306 462 47 893 6 1188-113 139-57 289-140 310-173 6-9 42-13 125-13 203 0 403-44 554-122 122-63 251-193 306-308 22-47 48-114 58-150 22-80 24-221 5-310-29-136-132-301-246-393-60-48-75-57-170-104-71-36-221-72-331-79l-94-7-37-66c-20-36-44-80-53-96-9-17-29-50-45-75-50-78-134-254-150-315-20-77-19-144 1-196 19-46 18-45 124-16 121 33 256 50 415 51 199 1 272-12 393-71l93-45 57 56c125 123 218 163 354 154 120-8 258-72 258-120 0-30-28-33-98-9-36 12-67 20-69 17-3-2 8-23 23-46 18-27 28-55 28-83 1-38-1-42-23-42-19 0-32 12-56 54-67 114-157 142-247 78-25-17-71-56-102-84l-57-52 37-55c29-45 37-67 41-118 6-89-19-134-122-218-44-36-138-124-210-196-116-117-139-136-215-173-170-82-405-117-600-89m240 103c128 9 226 35 336 88 58 29 82 49 154 132 48 56 124 128 175 167 106 81 131 108 139 156 16 101-82 163-261 164-85 0-161-20-226-62-55-35-82-38-97-11-8 16-5 26 16 51 51 60 174 105 304 113 45 2 45 2-30 20-161 39-501 18-670-42-105-37-200-149-200-235 0-48-15-76-41-76-37 0-51 25-48 89 2 59 2 61-43 105-54 52-109 140-133 211-23 67-31 233-16 321 19 105 55 209 153 439 158 369 182 461 183 700 0 150-3 180-24 255-61 218-182 382-379 518-269 184-609 261-972 219-501-59-877-241-1044-506-62-98-92-238-76-352 19-132 59-216 142-295 42-40 116-94 129-94 4 0 12 27 18 60 7 34 27 90 45 125l34 63-40 33c-91 73-120 219-65 330 66 135 246 211 388 164 75-25 118-54 179-122l52-58 92 21c50 12 109 25 130 30 40 9 40 9 52 77 15 80 40 124 97 171 44 36 147 76 194 76 15 0 51-6 78-14 139-37 210-121 222-265l6-69 36-7c20-4 73-24 118-45l82-38 63 20c54 17 70 18 114 8 79-17 151-71 181-137 56-122 19-270-83-333-28-18-32-26-42-99-6-44-20-107-32-140l-20-60 24-36c67-98 49-261-38-348-47-47-86-67-147-74-46-5-51-9-66-42-28-66-93-254-93-270 0-10 22-26 56-40 66-29 116-83 145-160 17-46 20-71 16-141-5-105-30-163-100-237l-50-54 23-42c50-91 136-183 233-249 81-55 221-126 286-145 63-18 209-42 231-37 8 1 58 6 110 9m-833 642c51 112 39 223-34 303-34 39-88 68-101 56-4-4-8-56-10-116-4-112 13-231 43-304l16-37 31 22c17 12 42 46 55 76m477 120c35 39 37 45 24 61-54 61-69 170-39 285 18 68 87 225 139 312 18 31 70 121 110 190 56 98 153 308 182 395 17 52 38 142 47 199 35 226-25 470-163 655-62 85-146 168-212 212-107 71-128 84-135 84-4 0-34 13-67 29-87 42-271 100-365 115-22 4-53 9-70 12-16 3 20-19 80-49 132-65 246-148 339-247 94-100 134-165 207-335 24-55 50-192 55-295 13-238-35-434-191-775-114-248-158-401-159-545-1-142 37-250 117-337 37-41 43-43 52-27 5 10 28 37 49 61m-372 746c60 46 88 99 88 167 0 58-8 100-19 100-5 0-121-227-149-292-9-20 41-4 80 25m-1013 65 44 7 13 57c17 74 44 125 86 165 107 102 301 97 395-10 18-21 35-37 39-37 3 0 35 13 70 30 35 16 98 41 139 56s75 31 75 35c0 5-4 9-9 9s-42 15-83 34c-384 176-815 143-909-69-23-52-42-69-68-60-43 13-34 86 20 169l32 47-21 28c-11 16-28 53-36 83-52 178 108 346 326 341 164-3 287-121 288-274v-56l77-13c42-7 104-21 136-31 33-10 66-19 73-19 8 0 26 18 40 40 34 51 107 98 176 112 46 10 63 9 106-5 28-9 53-17 56-17 6 0-10 61-31 120-51 144-202 250-428 301-142 32-399 32-564 0-146-28-336-98-438-161-88-54-196-161-232-231-66-126-68-257-5-384 95-190 372-307 633-267m221 46c98 27 238 80 264 99 18 13 17 15-16 41-99 75-252 48-311-56-25-44-42-108-29-108 4 0 45 11 92 24m-2021 120c-34 99-44 208-27 302 13 74 12 83-4 110-22 36-24 124-3 163 8 16 29 41 47 56 30 25 37 27 93 22 86-8 132 23 134 91 1 36 38 108 67 131 76 60 192 44 264-35 17-19 37-33 43-31s18 44 28 94 23 101 29 114l12 22-83-6c-226-17-430-108-576-258-71-73-104-119-141-198-25-52-26-66-26-201-1-133 2-151 26-218 28-76 75-160 111-199 11-13 22-22 23-20 1 1-6 29-17 61m3722 30c59 6 179 41 245 72 49 23 97 57 153 110l44 42-56 12c-105 21-177 94-185 185-10 120 81 235 208 264 52 12 124-1 152-26 10-9 21-14 24-11 8 8-22 115-40 142-35 54-142 124-251 165-76 29-240 61-309 61h-53l23-48c51-103 74-208 81-367l6-150 49-46c52-49 63-92 32-123-25-25-42-19-69 24-25 39-45 45-45 15 0-37-74-243-118-327-2-4 9-6 25-3 15 2 53 6 84 9m-877 243c24 92 22 109-15 122-44 15-123 14-162-3-18-7-50-32-71-54l-39-41 24-9c49-19 145-69 184-95l39-27 12 23c7 12 19 50 28 84m-989 98c33 9 108 19 168 22l107 6v31c0 127-101 220-236 219-166-1-290-156-228-284 29-59 31-60 82-34 26 13 74 31 107 40m2368-28c13 8 50 87 63 138 22 82 18 106-23 137-67 51-162 33-228-44-74-87-46-195 62-234 34-12 103-11 126 3m-4193 132c0 5 18 32 40 60 39 49 40 51 16 51-38 0-67-30-73-78q-6-42 6-42c6 0 11 4 11 9m2976 57c38 49 45 134 16 190-36 70-88 104-160 104-66 0-68-11-15-76 51-62 97-153 108-217 4-20 11-37 16-37 4 0 20 16 35 36m-1636 284c36 22 89 49 118 61 28 12 52 27 52 34 0 20-74 81-132 111-46 23-61 26-127 22-59-4-85-10-116-30-79-50-115-114-115-200 0-55 18-99 62-145l30-31 81 70c45 38 111 87 147 108m-965-48c108 36 105 33 63 54-52 25-104 11-135-35-27-41-29-56-5-46 9 4 44 16 77 27m-170 243c136 65 299 105 425 105h57l37 55 36 55h-42c-59 0-221-26-288-45-75-22-225-99-280-142-59-47-160-145-160-155 0-5 24 10 53 33 28 23 102 66 162 94m2153 107c-13 23-42 56-66 73-38 26-54 30-120 33-72 3-80 1-132-30-58-35-95-91-106-158l-6-35 179-2c98-1 198-5 223-10l45-9 3 49c2 35-3 59-20 89m1793-103c-25 35-127 117-191 153-101 57-278 104-412 110-43 2-78 1-78-1s25-37 56-77l57-74h72c149 0 358-53 458-116 28-18 53-31 55-29 3 2-5 17-17 34"/><path d="M4744 11474c-29 29-34 41-34 79 0 51 24 88 69 107 39 16 76 6 112-30 23-22 29-38 29-70 0-109-103-159-176-86"/></svg>