<svg xmlns="http://www.w3.org/2000/svg" fill="#3f3d3d" viewBox="6866 822 4159 5219"><path d="M8850 909c-133 44-209 144-231 306-6 48-14 187-18 309l-6 221-75 16c-335 70-554 247-588 473-19 121 17 267 88 363l27 36-61 31c-85 43-184 143-227 231-33 68-34 72-34 195 0 113 3 130 26 180 14 30 38 69 52 87l27 31-57 32c-188 106-295 308-266 504 11 77 53 184 84 212 11 9 19 22 19 29 0 6-31 33-69 59-96 65-156 134-199 224-34 72-36 84-38 187l-2 110-150 300c-206 409-203 400-203 594 1 195 14 249 69 283l37 23 685 6c975 10 2798 9 2972 0 225-13 231-20 232-291l1-175-34-85c-39-96-178-390-264-555-56-109-57-111-57-196 0-185-88-343-243-435-34-21-64-39-66-40-2-2 12-27 32-57 51-76 77-162 77-249 0-180-83-327-240-429l-80-52 21-31c52-78 72-139 77-237 10-197-71-340-254-453l-62-38 38-62c50-82 70-153 70-245-1-151-39-241-150-351-111-111-251-179-437-210-40-6-73-13-74-13 0-1-4-106-9-232-5-127-14-266-20-310-28-198-128-295-310-301-47-2-96 0-110 5m209 116c38 19 76 69 95 123 20 57 34 259 42 609l7 292-39 8c-50 10-377 10-426 0l-38-8v-232c0-258 16-593 30-647 13-49 56-112 94-138 61-41 163-45 235-7m-469 915c0 49-2 90-3 90-2 0-30-9-62-20-69-24-60-23-79-4-57 56 136 133 384 152 243 19 544-28 601-95 27-31 30-41 14-57-16-15-22-14-122 18-23 7-23 6-23-83v-91l33 6c80 14 188 48 254 80 270 129 356 430 177 623-65 71-110 99-225 139-200 71-513 98-809 72-162-15-267-36-377-75-157-56-239-122-292-234-22-47-26-70-26-146 0-77 4-98 27-147 65-138 210-238 438-299 96-26 90-31 90 71m-368 810c101 48 228 85 368 108 148 24 594 24 730 0 139-25 264-63 359-109l84-41 70 33c167 81 261 252 227 416-27 130-99 212-255 290-224 113-656 166-1095 133-465-35-764-157-857-350-23-46-27-69-28-140 0-77 3-92 33-152 39-80 112-150 203-196 35-17 67-32 71-32 3 0 44 18 90 40m-211 769c459 241 1507 233 1908-14l58-36 46 20c115 50 210 153 242 265 24 82 17 195-15 261-63 130-231 236-474 299-248 65-524 91-883 83-710-15-1132-147-1254-394-20-40-24-63-24-143 0-85 3-101 29-155 37-74 121-160 201-202 33-18 63-33 66-33s48 22 100 49m-228 770c264 144 681 221 1201 221 346 0 603-30 851-100 105-30 254-95 321-139l31-21 62 33c84 43 152 112 193 194 31 63 33 75 33 168 0 90-3 106-29 160-17 33-53 82-82 110-226 218-827 350-1509 332-708-20-1227-172-1383-407-125-187-54-431 162-550 39-22 72-40 74-40s35 18 75 39m-354 674c215 240 796 387 1528 387 367 0 566-17 823-71 359-76 588-190 727-362l30-38 15 23c30 46 268 537 268 554 0 6-3548 1-3652-5l-87-6 33-75c39-89 211-433 234-468l16-25 16 24c8 13 31 41 49 62m2879 595 532 2v123c0 67-4 127-8 134-4 6-21 17-37 23-40 16-2090 22-3019 9-611-8-681-11-698-26-16-14-18-33-18-145v-128l1358 2c746 2 1597 4 1890 6"/></svg>