<svg xmlns="http://www.w3.org/2000/svg" fill="#3f3d3d" viewBox="19872 816 3148 3919"><path d="M21800 920c-85 44-196 264-245 482-9 43-19 78-21 78s-22-13-44-29c-66-48-162-80-348-116-175-35-256-63-318-110-70-53-111-23-99 73 8 68 34 126 80 180l34 39-47 8c-26 5-148 9-270 10-196 1-225 3-233 17-15 27 5 62 82 143 40 41 70 77 68 79s-20 11-39 21c-61 31-148 104-209 175-167 193-239 426-228 735 10 267 81 519 260 930 262 601 471 875 756 988 68 27 88 31 186 31 138 1 204-16 350-89 133-67 245-146 413-292 151-132 433-414 532-533 97-116 243-336 295-445 183-384 177-753-19-1059-20-32-36-59-34-60s30-13 63-27c76-32 175-96 175-112 0-29-31-55-72-61-69-11-180-52-315-116l-128-61 55-30c71-39 105-72 135-133 45-90 24-127-57-105-72 19-221 13-357-15-139-29-267-34-349-12-29 7-52 9-52 4 0-19 54-145 89-208 19-36 64-100 98-143 37-46 63-87 63-101 0-41-58-104-125-136-50-24-80-24-125 0m147 127c3 7-7 25-22 40-79 83-156 227-214 400-47 139-54 208-26 229 27 20 57-3 70-51 8-32 17-41 55-58 68-31 199-34 336-8 138 26 297 45 330 38 37-7 25 13-27 45-61 38-129 50-206 36-71-13-96-2-91 40 2 20 14 29 63 47 33 12 142 61 241 108 100 47 211 96 248 109 36 13 66 25 66 28s-37 16-82 29c-111 33-240 39-349 16-108-21-127-33-179-102-87-117-114-134-144-91-18 26-13 38 52 117 99 122 151 317 126 472l-6 36-52-19c-28-11-96-43-151-71-82-43-116-68-190-142-93-93-135-157-171-265-23-69-31-80-59-80-16 0-30 11-45 34-30 50-126 135-201 179-113 66-280 107-440 107-80 0-81-2-49-94 50-147 158-280 278-344 77-41 88-55 74-87-7-15-20-25-32-25-25 0-108 41-163 81-32 23-50 29-92 29-122 0-284-53-380-125-94-71-93-75 22-76 54 0 107-2 118-4s97-8 190-15c94-7 186-13 206-15 47-3 59-11 59-39 0-34-20-46-90-56-64-9-73-14-128-64-32-30-68-84-60-92 2-2 33 8 68 23 35 14 132 38 215 54 184 34 260 60 339 114 58 39 61 43 64 87 3 53 21 73 57 64 19-5 25-13 25-32 0-44 48-263 76-349 39-121 90-221 139-271l44-46 42 23c23 13 44 29 46 36m-1354 808c63 27 202 65 241 65 32 0 32 3 2 43-57 76-108 207-121 313-6 41-4 54 11 69 17 16 32 17 174 12 165-6 268-26 380-71 79-32 188-105 235-157 20-22 38-39 39-37 1 1 12 27 24 57 75 184 261 337 548 452 100 39 124 36 144-16 20-56 19-291-2-363-8-28-15-52-14-52s33 7 71 15c39 8 114 15 167 15h98l44 56c57 73 113 188 137 283 72 280-2 590-218 921-255 389-870 955-1152 1061-187 69-305 65-465-19-92-48-241-194-323-317-213-320-454-880-529-1232-25-113-28-149-28-308 1-152 4-192 22-257 50-182 105-281 222-398 64-64 104-95 160-123 41-20 76-37 76-37 1 0 27 11 57 25"/><path d="M20304 2334c-24 20-28 33-32 87-3 52 0 69 15 88 28 34 57 20 93-42 37-64 38-100 5-132-30-31-47-31-81-1m1100 227c-23 26-31 133-12 169 22 41 53 37 87-10 47-65 50-144 7-172-21-14-63-8-82 13m-610-3c-53 35-44 212 10 212 17 0 64-54 78-89 15-38 11-91-8-112-17-19-60-25-80-11m1732 94c-38 54-6 193 44 193 53 0 93-138 54-193-10-15-25-22-49-22s-39 7-49 22m-523 108c-39 16-56 55-50 112 14 118 77 132 122 25 24-57 20-102-11-126-30-23-30-23-61-11m-1603 225c-29 31-30 97-3 152 26 55 59 52 90-6 29-55 30-110 2-145-26-33-59-33-89-1m669 79c-37 18-51 54-44 116 14 133 91 131 127-3 10-40 10-51-4-80-19-39-46-50-79-33m1215 140c-24 20-28 32-32 88-5 71 8 108 36 108 34 0 102-93 102-139 0-33-21-69-44-75-31-8-32-8-62 18m-679 30c-31 31-42 104-23 154 23 62 68 50 109-30 25-49 25-102-1-128-27-27-56-25-85 4m-915 313c-28 10-40 37-40 87 1 55 24 112 52 130 25 15 54-16 69-75 15-54 7-92-26-125-25-25-29-26-55-17m535 118c-21 20-25 34-25 87 0 127 60 147 115 38 27-52 25-108-4-131-31-26-57-24-86 6m680-3c-30 27-47 87-38 140 11 74 51 74 102 2 44-60 51-114 20-143-29-27-51-27-84 1m-438 416c-37 40-50 140-24 177 35 47 127-45 127-125 0-62-65-94-103-52m-551 11c-28 31-29 85-2 144 26 60 50 76 76 52 19-17 40-79 40-119 0-76-71-124-114-77"/></svg>