<svg xmlns="http://www.w3.org/2000/svg" fill="#3f3d3d" viewBox="762 680 3615 4279"><path d="M3300 774c-131 16-215 38-306 81-233 107-376 288-443 557l-17 69-42-103c-51-125-132-264-190-330-35-38-50-48-75-48-72 0-207 112-207 171 0 18 22 54 70 113 162 201 251 375 310 605 29 116 30 115-32 90-279-112-365-133-533-133-197 1-351 47-513 153-244 162-401 426-458 771-22 129-22 376 0 505 112 669 512 1321 931 1515 187 87 314 89 549 8 168-58 233-59 406-1 173 57 279 71 390 50 451-85 932-754 1075-1493 82-429 6-849-207-1136-88-120-208-216-361-289-132-62-220-82-377-83-165 0-237 16-470 105-88 34-162 60-164 58s-6-54-10-114l-6-110 107 9c193 17 407-21 558-98 281-143 452-411 539-841 9-45-10-64-76-74-103-17-337-21-448-7m318 85c9 5-12 21-70 51-271 141-606 386-842 615l-89 87 6-74c14-164 82-326 179-432 127-139 296-219 518-246 90-10 282-11 298-1m87 103c-30 143-129 354-213 453-130 153-282 239-492 279-84 16-264 20-310 7-24-7-22-10 55-87 209-206 428-376 680-530 106-64 268-154 278-154 5 0 6 15 2 32m-1420 218c84 130 149 279 200 460 27 98 55 266 55 336 0 75-21 47-42-54-50-248-173-503-331-686-57-66-56-73 9-118 47-32 50-30 109 62m1195 785c141 36 307 138 402 247 201 228 304 587 269 934-77 770-593 1555-1059 1613-88 11-157 0-312-51-113-38-135-42-230-42-95-1-115 3-215 36-157 53-186 59-274 59-155 0-315-77-475-231-151-145-258-288-360-481-145-273-240-562-276-835-16-118-8-393 14-494 51-231 146-410 292-551 164-157 350-229 592-229 123 0 217 20 362 75 320 122 348 123 635 15 72-26 159-56 195-65 131-35 307-35 440 0"/><path d="M1594 2180c-230 119-375 322-437 610-24 113-29 379-9 417 14 25 56 31 69 11 4-7 8-85 8-173 2-209 25-316 104-473 69-140 177-248 321-321 79-40 96-64 65-95-23-23-35-21-121 24"/></svg>