<svg xmlns="http://www.w3.org/2000/svg" fill="#3f3d3d" viewBox="1311 6180 3749 4521"><path d="M2614 6291c-13 14-19 40-22 87-3 61 3 96 32 164 6 12 0 18-23 23-89 19-54 154 61 230 24 16 44 30 46 31 1 1-16 29-38 63-95 143-142 310-180 641-36 308-59 356-283 588-124 129-177 192-248 300-249 375-419 897-419 1289 0 101 11 146 47 184 14 15 21 28 16 30-9 4-124 159-167 224-36 56-45 128-20 156 37 41 72 52 153 46 42-3 88-9 103-13 27-6 28-6 17 25-15 41 3 87 42 106 59 31 216 10 282-37l28-20 20 26c50 64 156 52 262-30 48-37 64-44 102-44s45 3 45 20c0 11-4 20-8 20-15 0-32 49-32 90 0 74 82 131 166 115 33-6 37-10 135-139 33-44 135-131 176-151 23-11 38-13 58-5 38 14 98 12 120-4q19.5-13.5 36-6c15 8 67 0 109-17 8-3 39-7 69-7 50-1 56-4 92-45 22-24 39-49 39-56 0-6 24-16 55-22 51-9 56-8 77 14 36 38 89 49 142 29 25-10 54-15 64-12 10 4 40-1 68-9 27-8 68-15 92-15 37 0 49-6 94-48l50-47 212 4c116 2 234 4 263 5 65 1 96-25 120-100 15-49 15-56-1-97-9-24-27-54-40-67-36-33-150-43-393-35-112 4-203 5-203 2s30-30 68-60c37-30 92-80 124-110 31-31 74-67 97-81 392-248 661-681 661-1067 0-118-44-272-104-368-22-34-23-42-16-136 17-219 19-316 10-465-16-256-60-439-142-593l-34-64 41-26c104-66 155-151 124-205-8-15-28-31-44-36-17-6-31-11-33-12-1 0 6-21 17-45 18-40 26-102 22-172-1-34-33-67-64-67-13 0-36 14-53 31-67 71-179 139-328 198l-79 32-61-24c-280-111-739-114-1068-6-68 23-69 23-121 4-120-42-224-105-324-196-48-44-81-49-109-18m271 255c39 19 140 57 225 84 205 65 325 139 431 265l34 39-30-21c-70-48-188-94-289-112-33-6-110-11-172-11-214 0-332-30-399-101l-30-31 56 7c59 7 99-4 99-29 0-7-17-33-39-57-41-47-81-118-81-144 0-10 20 0 63 31 34 26 94 62 132 80m1845-116c0 20-42 93-81 142-21 28-39 53-39 58 0 19 34 32 84 34l55 1-27 28c-52 54-122 79-256 89-354 25-410 37-522 104-30 18-54 30-54 27 0-17 136-141 195-178 92-57 138-77 270-121 136-44 237-94 307-150 55-45 68-51 68-34m-700 125c63 15 119 31 123 36 5 4-23 24-62 44-132 69-273 226-337 374l-27 62-39-78c-82-165-213-298-366-371-40-19-71-36-70-37 3-4 239-52 283-59 17-2 109-3 205-2 153 2 189 6 290 31m-1099 307c79 1 82 2 58 16-13 9-53 45-89 81-121 122-188 297-176 464 15 217 102 392 258 516 84 67 151 102 283 147 161 55 281 74 465 74 156-1 282-19 439-64 81-23 208-91 281-149 195-158 294-405 254-634-31-182-123-340-249-431l-30-21 80-1c80 0 80 0 99 33 127 213 160 367 160 752 1 347-30 615-105 921-27 112-47 174-126 388-7 21-32 75-55 120-236 462-574 733-1031 826-57 11-58 11-92-19-42-37-72-46-123-36-20 4-60 7-89 6-29 0-71 6-94 14-22 8-46 12-52 8-33-20-124 9-158 50-16 20-20 21-110 9-52-7-157-29-234-49-204-52-247-72-192-89 172-53 444-235 587-391 124-137 255-358 311-525 130-391-18-769-349-890-70-26-249-31-325-9-26 8-49 12-51 10-3-2 13-40 34-84 47-96 54-126 86-375 33-260 55-360 98-459 50-113 128-227 147-215 4 2 45 5 90 6m423 45c120 38 222 114 303 224 31 44 63 79 70 79s28-21 45-48c126-185 331-299 493-273 85 13 154 52 219 122 93 100 142 216 153 359 7 94-7 168-51 276-100 244-344 396-703 435-318 34-648-42-851-196-95-72-161-169-208-305-28-82-26-293 4-369 34-86 83-159 143-215 114-106 239-135 383-89m-512 1172c118 45 199 123 259 246 29 61 59 191 59 256 0 75-31 214-61 274-86 169-267 333-356 323-45-5-43-54 7-156 44-92 47-107 24-116-32-12-43-4-97 81-63 99-163 205-220 235-48 24-115 28-127 8-6-8-10-35-10-59 0-36 11-63 56-140 59-101 62-126 13-126-17 0-33 14-60 55-40 61-143 161-190 186-17 8-47 14-67 12l-37-3 1-66c0-69 32-153 88-235 24-35 24-39 9-56-9-10-22-18-28-18-7 0-33 28-59 62-104 142-220 161-203 35 9-68 166-358 257-476 112-146 233-255 330-299 127-56 299-66 412-23m2016 217c20 71 21 241 3 329-39 188-160 414-306 570l-65 70 31-60c18-33 35-65 39-70 24-36 125-299 151-395 63-231 90-345 101-427 7-51 16-89 21-84 4 4 16 35 25 67m-2956 739c24-8 29-17-67 125-40 58-89 133-109 168-21 35-40 61-42 59-9-9 74-326 97-369 8-16 12-15 54 3 27 12 54 17 67 14m93 175c9 7 36 19 61 25l45 11-73 91c-158 196-373 452-380 453-5 0-6-41-5-91 3-83 7-97 44-167 22-43 89-151 148-241l108-164 18 35c10 19 25 40 34 48m938-23c-86 136-244 287-408 390-108 68-406 195-422 180-2-3 22-27 53-53 127-108 345-346 439-481 17-24 33-43 36-43 4 0 14 12 24 26 22 34 79 57 122 49 34-6 147-67 158-85 3-6 8-10 11-10 2 0-3 12-13 27m-683 23c0 64 70 117 141 105 25-4 39-3 39 4 0 6-78 89-172 184-184 184-337 300-408 311-105 15-120 16-120 5 0-7 19-33 43-59 23-26 67-78 97-115 30-38 92-114 138-169 46-56 102-126 125-156s44-57 47-60 16-20 29-38c26-37 41-41 41-12m1714 685c31 64 10 175-32 175-14 0-16-8-14-48 2-30-4-71-17-110-25-74-25-70-3-75s47 16 66 58m568-29c31 5 39 12 48 39 7 23 7 40 0 60l-11 28-91-7c-50-3-162-6-248-6h-157l-6-29c-3-16-9-40-12-54-6-24-4-26 37-30 75-6 401-7 440-1m-2480 42c-48 60-191 193-264 245-97 68-163 97-225 97-71 0-69-12 13-125 36-50 84-116 107-148l41-57h60c63 0 220-24 259-40 38-15 40-11 9 28m186-4c28 10 52 20 52 24 0 13-86 151-138 219-62 84-159 175-217 203-23 11-63 21-90 22-57 3-56 7-28-90 18-58 25-68 131-168 61-58 135-135 163-170 28-36 57-63 63-61s35 12 64 21m1602 102c0 38-5 55-19 68-30 27-45 15-46-35-1-24-5-65-9-90-7-41-6-46 16-56 21-9 25-7 40 26 10 20 17 59 18 87m-656-3c36 59 43 120 19 167-11 22-25 35-38 35-18 0-20-7-22-75-2-59-8-86-31-132-24-48-26-58-13-61 25-6 54 16 85 66m135-27c16 25 32 63 36 85 8 47-9 105-36 120-24 12-26 7-32-83-3-47-12-81-31-114-14-25-26-48-26-50s14-4 30-4c25 0 35 8 59 46m-827 11c15 5 14 11-12 57-28 49-78 85-120 86-8 0-25 12-37 27-18 21-23 38-23 85v58l-55 35c-61 40-90 44-105 16-17-33-12-45 59-142 38-52 89-132 113-179l43-86 60 19c33 10 68 21 77 24m1198-28c18 35 12 115-11 140-29 31-43 22-51-36-4-27-11-60-16-74-8-21-6-25 22-36 42-16 44-16 56 6m-675 24c52 52 71 156 40 217-30 58-65 27-65-55 0-53-41-139-74-157-19-10-19-11-1-24 31-23 65-16 100 19m521 32c8 32 5 35-47 46-48 11-44 12-53-23-6-25-3-27 36-36 24-6 46-10 50-11s10 10 14 24m-863 5c20 0 37 3 37 8 0 8-130 45-137 38-2-2 2-16 9-30 9-21 17-26 32-22 12 3 38 6 59 6m243 127c6 51 6 51-27 68-81 41-188 138-278 252-35 45-44 51-63 44-36-13-32-33 21-112 28-41 51-84 51-96 0-31-55-48-108-33-24 6-55 7-78 2-33-7-39-12-36-32 3-29 14-36 72-50 25-5 131-32 235-59 105-27 193-46 197-42 4 3 10 29 14 58"/><path d="M4520 8415c-5 14-13 37-16 50-7 27-32 52-54 55-34 5-46-2-73-45-35-54-43-60-62-45-34 28-8 99 49 138 35 24 90 29 130 11 66-30 113-180 59-187-17-3-26 3-33 23m-1104 63c-7 22-1 53 20 97 54 114 198 113 254-1 24-48 26-80 5-88-20-7-45 3-45 20 0 27-61 84-89 84-34 0-69-35-77-78-9-46-57-70-68-34m694 27c-5 14-13 36-16 49-15 60-80 85-120 48-11-10-28-37-38-60-11-23-24-42-31-42-17 0-35 22-35 43 0 33 50 112 81 131 62 36 144 18 180-40 29-48 50-129 36-143-19-19-47-12-57 14m214 342c-34 77-38 84-60 89-37 10-63-5-90-52-20-34-32-44-48-42-28 4-32 37-10 80 65 128 207 119 259-15 22-57 17-91-12-95-18-3-26 5-39 35m-717 0c-13 13-7 64 13 103 11 22 37 51 57 65 71 48 149 25 198-59 32-56 30-90-6-94-21-3-29 4-49 43-27 52-25 50-63 59-23 5-34 1-57-22-16-16-32-42-36-58-9-38-38-57-57-37m195 355c-38 38 33 156 105 174 34 9 106-21 130-54 30-40 46-102 31-119-18-23-50-11-61 22-14 43-46 75-77 75-29 0-70-37-70-62 0-17-25-48-39-48-4 0-12 5-19 12m-595-2121c-94 14-190 96-221 187-49 141 30 295 180 352 130 49 263-2 336-127 29-52 33-66 33-133 0-55-6-87-22-121-51-113-176-177-306-158m108 74c156 48 205 236 91 349-128 129-338 51-363-134-12-86 57-187 145-214 60-19 67-19 127-1"/><path d="M3192 7230c-33 15-47 29-62 62-25 56-25 84 3 133 56 99 197 99 254-1 23-39 28-69 17-98-5-14-8-14-29 0-54 35-113-26-91-94 6-19 4-22-21-22-15 0-47 9-71 20m953-154c-95 24-168 77-203 147-53 106-34 246 43 323 85 84 204 113 308 74 76-29 121-69 158-141 69-138 13-306-124-373-51-25-142-40-182-30m135 85c56 25 77 44 101 91 90 176-58 358-246 303-127-37-189-172-134-291 50-105 173-151 279-103"/><path d="M4109 7234c-44 30-74 92-65 138 20 106 121 157 216 108 53-27 84-86 75-142-7-36-8-38-24-24-25 23-67 20-85-6-18-25-21-64-6-73 19-12-1-25-38-25-23 0-51 9-73 24m-424 210c-50 22-91 63-105 105-11 33-11 51 0 101 14 67 86 202 126 238 23 21 29 21 48 9 29-19 99-135 119-197 27-83 23-139-14-189-29-40-94-81-129-80-8 0-28 6-45 13m99 91c34 36 39 67 21 128-17 57-54 129-70 134-22 7-85-143-85-202 0-35 5-48 26-64 37-29 79-27 108 4"/></svg>