<svg xmlns="http://www.w3.org/2000/svg" fill="#3f3d3d" viewBox="709 8028 3749 3651"><path d="M2583 8135c-78 17-154 55-215 106-46 39-48 39-77 25-41-22-137-35-180-25-97 22-157 65-202 144l-29 52-58-13c-120-29-250-12-367 46-83 42-146 98-198 178-61 91-88 175-94 293l-6 97-48 22c-104 46-194 132-245 232-75 148-75 342 1 489 41 79 117 161 182 196 28 15 33 23 33 53 0 43 25 133 48 169 50 81 130 137 230 161 128 30 282-39 343-155 13-25 28-45 33-45 14 0 90 84 162 180 180 238 274 569 274 962 0 170-1 169 105 219 132 62 423 78 575 30 83-26 158-73 164-103 3-13 7-111 9-218 3-152 9-218 26-300 61-287 144-465 308-663 62-73 67-77 106-77 23 0 61-5 85-10 43-10 44-10 87 34 57 59 115 88 191 94 88 7 166-20 222-75 42-43 92-131 92-165 0-10 13-24 28-32 46-24 110-92 138-147 72-143 28-353-98-463l-49-43 17-83c20-99 14-182-20-275-76-208-278-355-491-355h-60l-17-48c-36-100-114-175-224-213-58-20-149-25-202-10-31 9-33 8-51-27-28-55-99-131-156-167-111-71-252-97-372-70m223 102c102 34 186 109 234 210 17 35 38 67 46 70s34-2 57-11c94-36 222-13 290 52 35 32 77 112 77 144 0 13 7 33 15 45 14 19 24 22 98 22 45 0 104 5 131 11 240 54 383 293 320 535-31 120-32 116 28 155 70 47 111 104 133 185 34 124-6 222-120 296-57 36-63 44-69 82-20 123-131 205-238 176-61-16-95-43-129-105-35-61-45-64-110-34-130 59-270-14-299-156-13-62-33-78-83-69-18 4-45 1-61-5l-29-11 43-41c56-54 89-127 92-203 2-56 5-63 48-112 56-61 76-120 67-195-9-71-50-134-109-167-54-29-81-23-86 21-2 19 5 30 33 49 37 25 75 90 75 128 0 41-32 92-74 119-55 36-58 40-51 93 24 203-165 329-339 224-32-19-64-35-71-35s-33 18-58 40c-133 117-310 112-422-12-38-43-65-97-65-134 0-5-6-19-14-30-12-16-27-19-93-19-88-1-138-21-196-79-149-148-68-398 141-438 63-11 72-22 72-83 0-67 31-127 89-169 39-28 50-31 115-31 64 0 77 4 122 32 28 18 57 33 66 33 8 0 29-17 46-39 73-91 200-95 281-7 37 40 91 30 91-16 0-25-56-85-109-116-39-23-57-27-121-26-78 1-113 13-177 61-31 23-34 23-63 8-78-40-192-39-273 2-79 40-147 133-162 220-5 34-11 43-26 43-24 0-92 34-136 67-44 34-99 119-117 182-63 218 97 440 328 456 39 3 52 8 57 23 6 16 1 22-30 34l-38 15-5 71c-7 98-46 176-109 218-58 38-107 47-182 32-68-13-77-8-96 61-17 61-91 133-154 150-54 16-131 10-175-13-82-42-135-133-132-224 1-32 2-62 1-68 0-6-31-29-67-50-156-91-236-260-206-435 26-153 110-260 259-331l88-43 6-125c6-135 18-181 70-262 47-72 119-132 203-167 63-26 87-31 159-31 57 0 106 7 149 20 100 31 98 32 138-77 17-45 80-100 132-113 56-16 110-6 180 33l58 32 54-57c52-55 101-86 175-113 51-19 168-18 227 2m-609 1593c25 21 62 47 83 57 38 18 38 19 59 118 17 81 43 302 36 312-1 2-28-40-61-93-32-53-93-142-135-197-65-87-75-105-68-125 5-13 9-41 9-62 0-33 7-44 28-49 2-1 24 17 49 39m588 55c-42 199-57 421-33 490 17 51 50 70 90 49 33-17 135-134 261-300l91-122 29 47c16 25 46 59 67 75l39 29-43 51c-240 285-354 614-360 1040l-3 169-29 15c-103 54-352 69-504 31-123-31-120-26-125-217-12-437-135-794-357-1037-28-31-49-57-47-59 2-1 23-8 46-14 25-8 64-32 95-61l53-49 43 57c64 82 192 275 238 358 45 83 71 101 106 73 22-18 23-23 23-192 0-124-5-200-18-268-10-52-18-100-18-105 0-6 32-13 70-16 74-7 154-39 206-82 29-24 31-25 58-9 24 15 28 21 22 47m266 27 65 33-59 80c-32 44-95 125-140 179l-82 100-3-47c-3-49 19-235 38-325l12-52h51c38 0 69 9 118 32"/><path d="M1424 9103c-90 34-152 116-156 206-1 40-6 47-45 74-84 60-116 180-74 274q37.5 81 87 48c29-19 30-35 4-77-11-18-20-50-20-72 0-31 7-45 38-75 20-20 52-43 69-53 31-16 32-18 31-80-2-99 49-164 133-169 19-2 42-6 52-11 20-10 23-48 5-66-15-15-83-14-124 1m2192 112c-58 20-72 38-57 71 10 23 16 25 44 20 124-24 150-21 201 24 46 41 68 99 60 159-5 37-2 51 11 64 48 48 91-14 79-112-12-103-86-200-173-230-45-15-117-13-165 4"/></svg>