<svg xmlns="http://www.w3.org/2000/svg" fill="#3f3d3d" viewBox="925 199 3279 3764"><path d="M3210 294c-125 16-171 28-270 69-199 81-316 217-365 426l-18 73-36-68c-51-97-117-191-173-247-40-40-53-47-86-47-31 0-49 9-97 47-74 60-114 129-100 169 6 16 26 39 45 52 88 58 179 165 245 285 40 72 118 300 105 305-4 1-43-14-86-34-222-102-378-135-536-114-211 28-355 103-505 264-263 282-328 810-161 1316 140 426 437 833 728 997 155 88 302 96 495 28 149-52 207-52 365 1 108 37 122 39 235 39 112 0 125-2 192-31 262-114 510-395 702-794 181-379 235-796 147-1150-42-171-130-331-238-437-194-189-448-272-698-229-90 16-144 35-337 119-45 20-84 33-86 29-3-4-8-51-12-105l-7-97h84c384 0 653-221 734-603 19-90 23-241 8-257-18-18-157-21-274-6m185 153c-19 182-83 331-188 438-113 114-242 169-425 182l-86 6 35-49c60-86 268-286 367-352 50-35 92-69 92-77 0-28-13-45-35-45-65 0-353 240-461 384l-44 58v-48c0-130 61-293 138-372 116-119 309-187 541-191l73-1zM2342 683c114 154 186 328 224 542 16 91 18 155 5 155-4 0-20-47-34-105-31-126-87-257-153-356-47-70-186-219-205-219-5 0-9-6-9-14 0-19 88-98 101-90 6 3 38 43 71 87m-286 633c81 16 178 50 311 109 172 76 263 70 501-32 212-90 342-111 492-79 376 81 600 392 617 858 6 167-6 291-44 448-114 470-444 953-751 1098-133 63-211 63-402 1-68-23-121-33-185-36-85-4-98-2-220 37-210 69-302 60-478-46-75-46-242-210-320-316-204-275-331-570-382-883-20-119-19-358 0-471 63-362 269-611 562-678 130-30 194-32 299-10"/><path d="M3350 1525c-22 27-4 59 47 84 201 97 310 303 325 616 3 50 3 50 38 50h35v-115c-1-137-23-235-81-355-48-99-158-215-250-263-68-35-95-39-114-17"/></svg>