<svg xmlns="http://www.w3.org/2000/svg" fill="#3f3d3d" viewBox="17460 1006 4624 2403"><path d="M17568 1089c-24 7-28 26-28 126 0 183 49 442 119 633 122 329 275 567 525 818 210 210 370 325 618 444 215 103 411 164 648 201 112 18 555 18 663 0 608-100 1145-435 1494-931 246-350 387-764 396-1162 1-71-2-111-10-119-9-9-538-12-2212-13-1211 0-2207 1-2213 3m252 146c0 30 7 103 16 162 59 402 252 781 549 1079s700 500 1118 559c135 19 397 19 539-1 725-100 1343-607 1581-1299 56-162 97-375 97-501v-54h193l-7 87c-22 282-83 507-206 758-214 437-532 762-960 979-206 105-409 171-650 213-121 21-466 24-595 5-721-107-1324-537-1641-1171-128-258-195-501-218-799l-6-72h190zm3805 12c-23 253-80 461-186 676-217 440-595 770-1074 938-105 37-147 47-279 70-470 81-965-27-1363-297-115-78-139-98-256-213-248-242-421-542-501-866-22-90-31-145-52-323l-6-52h3723z"/><path d="M18360 1412c-52 27-67 63-46 113 23 55 92 64 171 22 48-25 115-87 115-107 0-23-46-40-130-46-55-5-72-2-110 18m2665-16c-65 17-85 27-85 43 0 45 135 131 206 131 94 0 127-105 49-156-25-16-131-28-170-18m-1747 108c-144 50-218 169-144 232 58 50 126 20 169-75 21-48 35-155 21-164-5-3-25 1-46 7m934 47c6 68 39 149 76 182 11 10 36 20 55 24 31 5 40 1 67-25 39-39 38-68-2-128-33-48-103-93-172-110l-29-7zm-482 142c-81 142-52 283 55 263 81-16 96-121 34-242-17-35-38-65-45-68-9-3-25 13-44 47m-1041 220c-102 52-137 129-84 182 37 38 85 34 134-10 36-33 81-116 95-178 6-26 5-27-38-27-30 0-64 10-107 33m2026-1c11 60 68 161 104 185 56 38 108 28 136-27 17-33 8-69-28-109-32-34-135-81-180-81-38 0-39 0-32 32m-1505 299c-108 66-164 201-104 248 52 41 111 26 143-37 30-57 34-219 6-229-6-1-26 7-45 18m1066 5c-3 9-6 50-6 92 0 88 26 147 72 170 57 27 137-36 123-97-13-62-122-181-165-181-10 0-21 7-24 16m-533 127c-58 66-79 211-37 258 39 43 112 31 140-22 29-57 3-171-58-252-13-18-16-17-45 16"/></svg>