<svg xmlns="http://www.w3.org/2000/svg" fill="#3f3d3d" viewBox="1089 5171 2901 5321"><path d="M2523 5258c-16 10-76 192-119 362-30 118-71 343-89 493l-6 48-42-48c-141-164-370-330-551-398-114-43-139-2-60 100 50 66 129 190 191 305 42 77 133 283 133 301 0 6-15 1-34-10-50-31-260-98-367-116-52-9-154-20-227-23-115-6-135-5-148 9-35 39-14 61 116 118 170 75 324 177 434 287 75 75 130 143 123 150-3 3-30 1-59-6-137-30-361-22-523 18-67 16-70 18-73 49-4 37 26 63 71 63 108 0 374 107 512 206 102 72 244 223 218 231-6 2-50 27-99 56-104 62-222 170-304 278-143 190-258 504-306 834-21 148-29 458-15 599 40 407 180 735 399 936 198 183 403 261 752 288 305 24 636-51 840-192 68-46 207-183 257-253 110-154 193-368 234-600 20-109 23-164 24-373 0-253-10-374-46-555-40-199-113-412-185-542-49-88-148-218-213-281-58-55-188-147-253-178l-37-17 29-41c126-182 427-355 690-397 92-15 118-40 87-82-18-26-181-58-328-64-94-4-152-1-228 11-57 10-105 16-107 13-3-2 41-53 97-111 139-146 333-278 509-346 63-25 90-46 90-70 0-34-26-42-127-41-213 3-428 52-646 146-16 7-16 3 4-51 60-167 183-391 289-529 63-83 70-103 44-129-20-21-46-14-161 39-163 77-351 215-450 334-32 38-60 70-63 70-3 1-15-66-28-148-33-221-103-512-164-681-19-55-27-65-48-68-14-1-31 1-37 6m41 214c52 188 105 441 131 628 9 63 18 125 20 138 2 14-9 45-27 75-17 29-52 96-78 151l-47 98-51-96c-28-52-68-120-88-150l-36-55 17-143c9-79 27-198 40-266 28-144 96-402 106-402 4 0 9 10 13 22m715 415c-12 21-30 49-40 63-59 86-209 422-211 471-1 39-22 59-137 134-56 37-134 96-171 131s-70 64-72 64c-3 0-11-19-17-43-12-41-10-47 28-136 132-299 290-491 544-662 49-32 91-59 93-59 3 0-5 17-17 37m-1369 34c160 104 340 295 464 489 47 73 206 388 206 406 0 5-13 24-28 42l-27 33-47-63c-71-97-187-210-292-283-67-48-96-75-101-93-25-106-170-422-245-535-21-31-35-57-30-57 4 0 49 27 100 61m-217 495c317 82 618 292 750 524l25 45-37 73-37 73-34-37c-43-44-185-139-265-178-53-25-67-38-120-114-99-142-265-294-424-387-33-20-61-37-61-39 0-4 133 22 203 40m1912-38c-6 5-48 34-95 64-179 115-301 234-406 392-32 49-49 64-94 83-141 62-304 196-396 323-48 67-80 69-122 8l-29-43 33-73c74-162 155-270 286-380 214-180 454-298 728-360 104-24 107-24 95-14m-1755 553c193 45 357 136 484 269 42 44 76 84 76 89 0 4-27 12-61 15-55 7-182 35-219 50-10 4-22-4-34-25-30-51-143-165-222-225-85-64-234-144-317-170-31-10-57-22-57-27 0-17 247-1 350 24m1746-22c-3 5-18 12-33 16-59 14-252 116-328 172-87 65-205 184-230 233-11 21-21 29-33 26-75-23-177-46-224-52-32-3-58-11-58-16s28-39 62-75c192-199 457-309 751-312 55-1 96 3 93 8m-959 508c27 21 75 58 107 83l59 44-122 118c-67 65-125 118-130 118-11 0-241-227-240-237 0-4 46-43 102-86 123-94 147-98 224-40m-322 7c-57 46-72 51-95 31-11-10-18-20-15-23 7-7 97-31 120-31 17-1 16 3-10 23m554-2c33 10 33 10 13 30-24 24-44 19-92-23l-35-30 40 6c22 3 55 11 74 17m-731 81 32 33-127 99c-71 54-133 102-139 107-7 5-24-11-47-46l-37-55 44-36c45-37 213-135 232-135 5 0 25 15 42 33m935-2c55 28 138 82 190 123 17 13 16 17-18 71-20 31-40 55-44 53s-67-50-139-108l-131-105 31-32c18-18 36-33 40-33 5 0 37 14 71 31m-615 314c12 9 22 19 22 23 0 12-295 252-309 252-7 0-196-226-214-257-5-7 24-36 74-75 44-35 108-85 142-111l60-48 101 101c56 55 111 107 124 115m539-114c70 56 134 108 142 115 12 10-3 34-90 143-57 71-110 130-116 130-13 1-306-234-310-247-1-4 35-39 79-77 44-39 99-91 122-117 22-26 42-47 43-48 1 0 60 46 130 101m-1206 55c31 45 31 47 13 64-39 38-238 199-242 196-4-5 43-98 76-151 32-49 112-155 117-155 2 0 18 21 36 46m1627 47c55 81 127 207 118 207s-250-190-254-200c-2-4 11-29 29-54 37-55 36-55 107 47m-1418 227 102 125-43 35c-24 19-98 83-165 142l-123 108-29-38c-31-40-182-260-182-266 0-2 25-23 56-46 31-24 102-81 157-127 81-67 103-81 113-71 6 7 58 69 114 138m1408 0c77 59 131 108 128 115-4 12-157 235-191 280-15 18-17 18-63-27-26-25-96-87-157-138-60-51-113-95-117-99-4-3 16-33 43-66 28-33 78-95 111-138l60-79 27 24c14 14 86 71 159 128m-579 100 42 35-154 152c-84 84-159 153-165 153-18 0-313-292-310-306 2-7 72-69 156-138l153-126 117 98c65 53 137 113 161 132m-1193 280 66 90-132 132-132 131-23-29c-14-16-24-35-25-43-1-59 77-452 97-484 3-5 23 19 44 52 21 34 68 102 105 151m2008-85c26 100 51 239 59 327 4 45-19 108-40 108-5 0-66-58-137-129l-128-128 75-104c41-57 87-123 102-147 16-24 32-39 36-35s19 53 33 108m-1221 265c-76 72-295 260-303 260-16 0-293-328-288-341 2-5 76-71 166-148l163-139 160 156 160 157zm632-270c39 34 102 89 142 123 39 34 72 66 72 70 2 15-276 337-291 337-7 0-137-112-271-233l-87-79 157-157 158-156 25 17c14 9 57 44 95 78m-1238 325c27 33 91 107 143 163 90 101 92 105 74 122-38 35-293 250-297 250-5 0-205-263-231-303l-17-29 51-56c71-78 213-213 221-210 3 2 29 30 56 63m1620 27c48 47 108 107 132 131l44 45-58 82c-32 46-89 120-127 166l-70 84-31-26c-129-109-277-237-277-241 0-3 34-41 76-86 41-45 105-118 142-164 37-45 70-81 74-80s46 41 95 89m-834-26c29 25 109 96 180 156 70 61 127 114 127 117 0 8-115 120-251 244l-106 97-84-73c-46-41-129-117-184-170l-100-97 54-48c30-26 111-97 180-159 69-61 128-112 129-112 2-1 27 20 55 45m-1137 331c21 31 76 104 122 161 46 58 82 106 80 107-35 33-223 185-229 185-17 0-46-185-55-355-6-103-5-117 11-135 10-11 21-20 25-20s24 26 46 57m2236-40c14 13 18 31 18 87-1 126-42 416-59 416-3 0-57-45-118-101l-112-100 57-72c32-40 86-112 120-160 35-48 66-87 69-87 4 0 15 7 25 17m-1490 131c48 48 128 123 177 167s90 82 90 85-15 16-33 30-95 73-171 132l-137 108-97-90c-125-116-246-249-235-259 5-4 65-55 133-112s135-114 150-126c14-12 28-22 31-23 3 0 44 39 92 88m926 41c85 71 156 132 159 135 8 7-145 171-246 264l-87 80-80-60c-43-33-121-94-173-136l-94-75 54-46c66-56 257-237 282-269 10-12 21-22 25-22s76 58 160 129m-1245 368c92 91 167 167 167 169 0 6-187 135-257 177-11 7-140-119-271-264l-42-46 117-101c65-56 118-102 118-102s76 75 168 167m1550-107c40 33 92 77 116 98l45 39-19 29c-10 16-76 87-146 159l-127 129-28-14c-15-8-76-49-135-91l-107-75 159-159c87-88 159-163 159-167 0-15 12-8 83 52m-750 122c78 62 155 123 172 135l30 21-25 21c-50 43-300 231-312 236s-167-105-293-208c-27-23-52-42-54-44-3-2 5-10 16-18s88-69 169-134c82-66 151-120 152-121 2 0 68 51 145 112m871 240c-38 75-106 178-119 178-5 0-21-9-35-19l-24-19 99-99c55-54 101-97 103-96 2 0-9 25-24 55m-1875 160c-38 32-37 33-109-87-73-122-67-126 35-25 95 95 96 95 74 112m646-29c55 42 109 83 120 91s18 16 15 19c-13 10-210 137-253 162l-47 27-93-76c-50-42-121-102-156-134l-64-58 64-42c35-23 98-66 138-96l75-54 50 42c28 23 96 77 151 119m705-111c30 23 87 62 127 88l73 46-68 65c-37 36-106 99-154 138l-88 73-125-79c-69-43-137-87-151-98l-25-20 78-56c43-31 119-88 168-128 50-39 95-71 100-71 6 0 35 19 65 42m318 210 35 22-56 52c-70 65-125 103-214 149-67 35-103 44-103 26 0-5 46-48 103-94 56-47 122-106 147-131 24-25 46-46 48-46 3 0 21 10 40 22m-1467 81c58 50 128 110 154 131 55 45 46 57-23 30-74-28-176-93-244-156l-63-57 25-20c14-12 30-21 35-21 6 0 58 42 116 93m730 28c33 22 98 65 146 94l85 54-63 41-64 41-181-3-181-3-48-30c-27-17-50-35-51-40-3-9 271-194 289-195 4 0 35 18 68 41"/></svg>