<svg xmlns="http://www.w3.org/2000/svg" fill="#3f3d3d" viewBox="6398 7870 4012 7570"><path d="M9140 7978c-42 23-76 78-90 149-11 51-11 51-42 43-94-27-156 84-114 203l14 37-39 22c-88 49-82 128 26 317 30 53 33 118 10 219-23 99-22 99-96 69-194-77-406-50-581 76-123 88-387 381-772 857-478 590-811 1068-905 1295-73 176-42 292 85 311 191 28 854-344 1785-1003 85-60 179-127 209-148 119-85 349-273 415-340 134-137 191-270 189-445-1-98-13-157-48-241-11-25 42-40 159-46l100-5 65 41c115 74 165 94 212 86 40-7 78-36 103-78 9-15 14-15 65 3 66 23 90 24 135 6 43-18 65-52 67-103 1-40 2-41 46-47 128-17 192-116 140-215-28-54-78-83-155-89-53-4-53-4-53-39 0-33-35-82-67-94-6-2-13-26-15-53l-3-49 45-12c114-29 170-83 170-162 0-35-7-50-35-81l-34-39 38-37c22-21 51-61 66-88 36-65 33-152-6-194-31-34-91-64-126-64-40 1-106 33-161 80-52 43-62 47-62 27 0-22-53-66-87-73-46-9-118 28-148 76-13 21-30 59-38 86-10 33-19 48-28 45-8-3-33-6-57-9-31-3-51-13-76-38-24-24-43-34-65-34-30 0-31-1-31-48 0-70-16-114-54-151-44-43-104-51-156-23m94 104c12 16 16 47 16 110 0 104 12 119 85 110 25-2 45-2 45 1 0 21-44 99-74 130-44 47-46 72-5 95 29 16 30 20 25 64-6 55-26 103-59 138-32 35-97 124-140 195-41 66-44 67-21 4 48-136 112-467 99-516-3-12-14-27-25-33-32-17-60 19-60 77-1 66-42 270-78 378l-29 90v-78c0-75-2-83-50-175-28-54-53-107-57-118-9-28 19-57 46-48 31 10 64-3 76-31 10-22 8-34-18-85-27-53-41-130-24-130 4 0 24 5 44 11 21 7 50 9 64 5 27-7 40-38 51-129 10-76 57-111 89-65m912 84c41 40 19 89-88 197-55 55-61 87-22 114 14 10 37 28 52 39 25 21 25 22 9 47-19 29-86 55-167 64-30 3-63 10-72 15-27 13-22 46 13 85 44 51 37 81-26 115l-50 27-27-26c-35-33-102-42-149-18-19 9-63 45-99 79-36 35-109 88-162 119s-118 73-145 92c-62 46 332-340 499-488 69-61 130-121 133-131 9-25-28-58-53-49-19 7-186 159-422 383-82 78-150 139-150 135 0-5 32-51 71-103 93-123 113-171 134-317 20-135 34-172 70-181 20-5 34 2 65 30 22 20 48 36 58 36 27 0 48-29 56-75 15-83 40-147 69-171 33-28 41-25 66 24 45 88 79 90 164 12 93-85 131-97 173-54m-450 742c7 4 19 23 27 44 26 62 56 60 146-9 39-29 88-43 103-28 3 3 1 26-5 50-9 38-8 48 8 65 15 17 31 20 91 20 81 0 120 13 130 43 12 37-26 60-113 66-43 4-84 10-91 15-27 16-30 50-10 89 10 21 16 42 13 47-12 20-67 9-140-27-90-45-108-40-113 28-6 84-36 89-133 24-98-66-133-78-221-79-85-1-82-8 18-36 83-24 233-47 359-56 55-4 106-11 113-17 17-14 15-54-4-61-43-16-328 10-454 43-41 10-76 18-77 17s44-28 99-61c69-41 115-77 146-114 53-61 84-79 108-63m-992 198c99 25 174 71 261 159 88 87 134 164 160 260 43 165-8 344-134 474-69 70-310 271-367 304-7 4-29-21-55-61-53-83-238-272-265-272-25 0-44 18-44 44 0 11 32 49 79 92 62 58 201 235 201 257 0 8-285 209-589 415l-104 70-38-57c-51-77-167-191-194-191-25 0-45 18-45 39 0 9 29 44 64 79s81 88 101 118c33 47 36 57 24 68-19 18-301 194-479 299-188 110-458 242-545 266-67 18-102 14-121-14-15-23-15-29 5-92 11-38 48-118 82-178 58-105 262-417 313-480l24-29 55 41c30 23 72 63 92 88 43 52 79 60 96 21 10-20 8-30-9-53-23-32-113-119-156-150l-30-21 102-133c138-182 171-224 291-374 58-72 105-131 107-133 7-11 140 97 209 170 45 48 89 88 97 88 21 0 38-21 38-46 0-32-92-136-193-219-72-59-84-72-74-85 51-70 445-520 456-520 13 0 118 75 180 129 36 31 93 89 128 131 36 41 71 79 79 83 20 11 54-10 54-35 0-46-163-221-302-322-38-28-68-53-68-57 0-13 93-89 148-121 116-66 241-84 366-52m-459 2400c-177 40-341 151-439 298-71 107-102 202-112 343l-7 92-61 37c-77 48-171 144-219 225-57 96-79 177-85 302-5 129 12 216 64 319 38 76 40 91 18 143-18 44-12 100 17 157 23 45 81 78 137 78 44 0 47 4 86 115 13 38 54 146 89 240 36 93 102 269 147 390 44 121 108 290 140 375s82 218 110 295c29 77 62 167 75 200s33 87 46 120c12 33 32 75 46 93 23 31 26 32 98 32 97 0 103-6 175-190 11-30 25-64 30-75 10-23 157-416 205-550 49-134 129-349 164-440 17-44 40-103 50-130 11-28 38-100 61-160 24-61 51-135 61-165 53-158 50-153 98-157 75-7 117-38 146-106 19-46 19-96 0-145-15-37-15-40 19-112 88-192 93-394 13-570-53-116-154-228-261-289l-53-31-7-85c-9-114-29-183-79-285-76-155-237-290-414-347-101-32-256-40-358-17m337 111c227 70 397 280 415 511l6 73-39-8c-21-4-91-8-154-8-141 0-226 25-335 96l-72 47-44-30c-62-43-159-86-232-103-74-17-215-19-287-4-28 6-54 9-57 6-8-9 17-155 38-215 56-162 218-316 391-371 104-34 253-31 370 6m-442 678c80 24 185 89 247 154 61 63 124 183 142 269 26 128 2 278-65 400-40 73-42 97-13 151 25 49 19 92-18 121-36 28-73 25-143-10-33-17-72-30-87-30-42 0-105 36-137 80-60 80-155 78-206-5-43-69-126-84-222-40-64 30-88 31-121 5-37-29-43-70-18-119 29-56 26-84-13-155-57-103-70-158-70-281 0-88 5-123 23-175 68-195 239-345 441-384 47-9 205 3 260 19m795-10c375 79 557 490 369 833-40 73-41 84-13 147 23 53 20 84-13 115-31 29-69 25-148-15s-89-41-136-19c-48 23-72 75-89 195-14 99-35 154-58 146-33-11-49-55-54-155-7-117-28-166-83-195-35-18-96-19-132-3-14 7-18 3-18-15 0-13-7-45-16-70l-17-46 36-74c20-41 44-101 52-134 19-76 19-252 0-325-18-69-75-184-115-235-37-46-34-50 63-99 131-65 235-80 372-51m-250 1145c18 20 18 21-10 50-16 17-32 30-36 30s-23-14-41-31l-33-30 24-20c30-25 73-24 96 1m396 10c35 19 23 57-36 118l-56 57 6-70c10-107 31-134 86-105m-1265 70c84 78 125 85 251 45 17-5 25-3 29 10 5 12-15 38-72 96-43 43-81 79-84 79s-56-48-118-108c-111-107-146-157-120-174 28-17 53-6 114 52m404-52c0 5-13 21-28 36-26 24-30 25-42 11-11-13-10-19 5-35 18-20 65-28 65-12m303 71 49 47-86 89-86 89-90-89-90-89 45-43c43-43 45-43 98-37 33 4 62 2 73-4 29-17 36-15 87 37m-269 199 82 83-85 84-86 84-82-82c-46-45-83-86-83-92 0-13 153-166 163-162 4 1 45 39 91 85m466-4 82 78-29 31c-15 17-55 57-87 89l-60 59-85-86-84-86 84-85c46-46 87-83 90-82 4 2 44 38 89 82m-854 66c10 12 9 19-4 33-8 10-20 16-25 14-5-1-20-32-34-67l-24-65 38 35c20 19 43 42 49 50m1122-13c-21 65-35 76-55 45-9-15-4-26 31-64 22-25 42-45 43-44 1 0-8 29-19 63m-888 258c0 6-31 41-69 79l-68 68-40-104c-58-150-57-139-22-182l32-38 83 83c46 46 84 88 84 94m797-135 31 41-19 47c-10 26-30 80-45 120l-28 73-72-72-73-73 52-55c29-31 66-71 82-89 15-17 31-32 35-32 3 0 20 18 37 40m-410 52 83 83-82 82c-46 46-86 83-91 83-9 0-167-157-167-166 0-6 163-163 170-164 2 0 42 37 87 82m-199 257 54 54-85 85-85 85-29-24c-15-13-55-52-87-87l-60-63 84-84 85-84 34 32c19 18 58 56 89 86m431-32 82 86-33 35c-94 100-127 132-135 132-5 0-46-38-91-83l-84-84 84-86c46-47 86-86 89-86 3-1 42 38 88 86m-232 401-87 87-87-88-88-88 89-86 89-86 85 87 86 87zm-377-82c0 29-20 22-35-12-20-49-19-51 10-24 14 13 25 29 25 36m615-16c-9 17-20 28-26 25-5-4-6-12-3-18 26-45 52-51 29-7m-442 302c-39 39-66 59-72 53-5-6-28-60-51-122l-43-112 29-24 28-24 85 83 86 84zm374-206 19 26-42 116c-23 64-46 118-51 119-4 2-35-24-68-57l-60-61 85-84c47-46 88-84 92-84 3-1 15 11 25 25m-178 279c52 54 71 80 66 93-3 9-37 51-75 92l-70 75-69-69c-98-97-98-103-9-193 40-40 75-73 78-73 4 0 39 34 79 75m-4 304c-3 6-11 11-17 11s-6-6 2-15c14-17 26-13 15 4m-130 1c3 5-1 10-9 10-9 0-16-5-16-10 0-6 4-10 9-10 6 0 13 4 16 10m73 83c9 10 7 19-5 36l-16 24-18-24c-13-17-15-27-7-36 14-17 33-16 46 0"/><path d="M8286 11740c-48 50-55 63-47 79 20 36 40 33 92-16 53-49 69-84 49-108-20-25-34-18-94 45m288 66c-6 22 2 35 53 86 47 47 65 59 81 54 41-14 34-45-25-107-63-67-98-77-109-33m-145 155c-9 4-28 38-44 75-31 72-27 96 14 102 18 3 27-8 55-70 23-50 31-78 25-89-11-22-31-29-50-18m-417 431c-23 23-12 46 43 87 67 51 81 57 100 41 27-23 16-48-42-94-60-48-81-54-101-34m-307 103c-46 63-51 80-35 100 24 29 48 16 90-45 47-69 50-103 10-108-20-2-33 8-65 53m217 177c-69 63-73 69-58 93 22 34 44 28 101-26 59-55 64-68 39-93-22-23-29-21-82 26m278 3c-30 36 19 76 108 91 34 5 47 3 60-10 26-25 4-48-69-73-78-26-83-27-99-8m-663 86c-9 6-17 16-17 24 0 23 88 155 103 155 8 0 21-8 31-19 20-22 13-46-33-108-37-51-60-65-84-52m1313-356c-21 25-6 46 59 86 50 30 67 36 82 28 37-20 23-52-41-92-66-41-82-44-100-22m-137 160c-9 24 18 133 39 161 16 19 23 22 39 14 11-6 19-21 19-35 0-26-25-129-35-145s-55-12-62 5m415 76c-60 52-73 84-44 109 19 15 31 8 100-58 58-55 65-69 44-90s-42-13-100 39"/></svg>