<svg xmlns="http://www.w3.org/2000/svg" fill="#3f3d3d" viewBox="20450 6810 6816 2796"><path d="M22151 6907c-39 20-91 86-91 118 0 13-6 27-12 32-7 6-71 27-143 47-146 42-181 53-667 201-191 58-359 110-373 115-24 9-31 6-58-20-105-102-277-30-277 116 0 97 65 164 160 164q127.5 0 165-129l10-35 155-47c85-26 283-86 440-133 157-48 310-94 340-103s101-31 158-50c120-39 138-40 147-12 8 24 77 58 118 59 36 0 96-25 112-47 12-15 39-5 296 114 156 73 334 155 396 184l112 53 7 46c12 83 50 129 124 151 48 15 98 5 146-27 36-25 39-25 73-11 64 27 279 122 561 249l275 123 5 40c9 64 46 114 104 141 28 13 56 24 61 24 6 0 23 39 38 88 16 48 85 258 154 467 95 290 122 384 114 395-40 56-53 95-49 147 5 63 28 99 84 130 43 25 103 29 152 12 31-11 92-81 92-105 0-15 10-16 285-44 232-24 623-68 979-110 315-38 305-38 338 3 70 89 204 86 271-5 25-33 33-114 17-162-10-32-53-79-81-88-8-3-3-78 16-273 15-149 42-423 59-609l31-339 40-17c151-65 133-285-26-319-85-19-157 20-187 101l-19 52-274 53c-151 30-546 109-879 175-333 67-634 127-670 133-36 7-121 24-191 39l-125 26-48-45c-71-66-143-72-222-19l-37 26-61-30c-34-16-185-84-336-150-151-67-320-141-375-165l-100-45-5-46c-16-133-180-195-276-105l-22 20-68-35c-38-20-215-105-394-190-268-126-325-156-323-172 4-36-30-104-68-139-34-31-45-35-92-35-28 0-67 8-86 17m4713 823 39 40-17 177c-44 447-56 573-76 788-12 126-23 236-25 242-3 7-12 13-21 13-29 0-85 51-105 94l-18 41-113 12c-206 21-1382 153-1413 157-26 5-34 0-64-40-33-46-80-74-124-74-23 0-32-22-165-423-77-232-149-443-158-469l-18-47 25-19c13-11 30-37 38-58 18-52 29-64 58-64 21 0 1045-201 1228-240 171-37 835-167 860-168 23-1 40 8 69 38"/></svg>