<svg xmlns="http://www.w3.org/2000/svg" fill="#3f3d3d" viewBox="15124 745 2706 6132"><path d="M16035 877c-73 38-114 105-115 186 0 63 19 107 69 155 34 33 41 48 50 103 6 35 11 84 11 109-1 40-4 47-36 67-43 28-46 28-70 2-34-38-134-109-187-133-115-53-246-71-382-55-138 17-171 41-168 120 6 133 82 291 187 386 86 79 169 116 272 121l84 5v91c0 112 16 190 74 359 63 185 67 203 75 377 7 147 9 158 39 222 24 49 50 83 99 127l66 59-6 249c-12 501-58 725-193 953-91 155-150 280-174 370-40 154-37 388 6 600 9 41 26 124 39 185 50 229 72 450 83 835 7 239 9 258 31 304 20 40 33 52 76 72 73 34 183 42 259 20 79-23 101-39 127-94 22-44 23-63 31-377 4-181 12-402 18-490 5-88 10-173 10-188 0-27 1-27 69-27h68l7 67c8 86 23 441 32 738 9 303 20 330 159 370 109 32 263 2 311-60 36-48 41-75 48-257 3-89 9-231 12-313 7-189 33-400 84-669 22-116 43-246 46-289 6-61 10-75 19-65 21 23 62 131 75 200 13 64 13 69-7 90-37 41-57 98-56 162 1 121 76 228 210 298 61 32 62 32 97 16 30-15 36-23 42-65 14-84 10-265-5-303-30-71-63-109-117-136-47-23-54-31-60-63-17-105-81-244-149-326-35-42-43-60-49-110-17-141-70-278-173-452-38-66-79-147-124-248-20-45-58-248-69-365-6-69-13-238-17-377l-6-252 67-66c102-100 146-221 131-355-8-76 13-176 79-374 59-176 82-305 70-396l-6-47 83-5c125-7 222-57 321-163 80-85 147-245 148-352 0-70-39-93-190-113-105-14-231 3-340 47-75 31-104 49-183 116l-57 49-36-27-37-28 7-106c7-104 8-106 41-136 78-70 98-167 52-256-60-115-203-144-320-65-63 43-92 166-57 244 17 39 17 40-11 123-16 46-37 90-46 96-11 8-50 13-105 13-101 0-93 6-138-120-26-74-26-75-9-115 45-99 4-216-92-265-48-25-150-26-194-3m166 112c36 37 40 98 8 150l-20 33 21 69c36 119 86 218 115 229 36 14 264 13 304-1 38-14 58-52 102-198l28-94-20-38c-34-67-21-137 30-164 67-34 132-6 151 65 13 49 4 71-51 120-38 33-40 39-54 130-30 197-19 236 82 304 84 57 110 58 154 8 116-134 289-201 483-189 49 3 93 10 99 16 15 15-8 108-45 182-39 78-125 164-197 197-47 22-74 27-173 30-82 3-121 9-129 18-8 10-8 37 2 104 19 145 10 204-74 445-25 72-48 147-52 168-8 43-11 44-39 18-35-33-144-89-214-112-95-30-309-38-412-15-88 20-200 71-255 115-36 29-40 31-46 14-43-125-113-345-129-407-24-94-25-147-5-241 20-99 17-102-138-107-118-3-124-4-187-39-103-57-189-176-220-307-8-36-9-57-2-64 5-5 52-12 104-15 194-12 369 59 484 196 17 21 35 31 53 31 39 0 167-87 182-123 15-35 7-234-12-296-8-26-21-46-33-51-37-14-59-48-64-99-4-46-2-53 26-81 42-42 101-42 143-1m460 1555c129 35 232 106 275 187 25 50 21 136-10 204-55 120-179 202-351 231-84 15-110 15-179 5-126-20-242-75-311-149-83-88-110-232-59-308 15-21 41-51 58-67 43-40 165-96 245-113 81-17 253-12 332 10m89 765v88l-47 20c-110 46-162 126-171 260-6 109 9 165 62 218 43 42 98 65 159 65 39 0 41 3 52 78 4 24 17 76 30 116l22 73-53 12c-70 16-118 54-151 121-24 47-28 67-28 140 0 116 26 168 113 227 34 23 83 48 109 55l47 13 12 65c16 86 27 111 64 153 34 40 83 60 141 59 36-1 39 1 39 26 0 23-8 30-45 45-120 50-168 119-169 242-1 86 22 137 82 180l42 30-6 54c-8 76-11 81-52 81-46 0-94 33-124 85-18 32-23 55-23 116 0 68 3 79 29 114 18 23 48 46 78 59 32 13 47 25 43 34-3 7-5 65-5 127v113l-48 12c-78 18-243 13-256-8-2-4-7-111-10-237-4-127-11-275-16-330-24-274-24-272 2-280 57-16 80-30 94-58 29-56-12-64-121-23-58 21-87 26-165 25-61 0-110-5-135-15-118-45-134-49-151-33-27 28-2 67 61 94 63 28 60 16 46 190-10 112-16 223-27 508l-6 158-27 10c-36 14-190 13-238-1l-40-12-7-207c-3-113-9-226-12-251-6-45-6-45 30-58 20-7 52-33 72-57 64-79 57-196-18-310-39-59-112-115-149-115-22 0-30-5-33-23-2-12-11-56-18-98l-13-76 47 5c79 8 167-49 206-131 44-95 65-276 41-358-17-56-66-109-126-135l-53-24 41-67c23-38 43-70 45-72 1-2 16 6 32 18 17 11 53 26 81 33 106 24 218-45 261-160 17-43 22-80 22-151 0-83-3-100-29-149-35-69-103-117-165-117-38 0-39 0-34-29 3-15 6-50 6-76 0-47 0-47 46-65 98-37 150-118 142-218-6-76-46-132-114-164-51-23-54-27-54-60 0-32 2-35 23-29 80 24 175 37 256 37 85-1 204-21 241-42 8-5 16-9 18-9 1 0 2 40 2 89m-502 85c62 34 81 125 39 187-22 32-71 68-81 59-6-7 6-260 13-260 3 1 16 6 29 14m508 94c-5 8 8 243 20 344l6 58h-28c-15 0-47-9-70-20-58-29-79-73-79-170 0-91 29-158 84-196 33-23 78-33 67-16m-470 487c39 39 54 87 54 168 0 83-12 127-47 175-48 65-143 85-203 42-34-24-36-33-16-72 8-16 26-61 39-100 22-63 31-100 53-216 4-19 11-22 50-22 35 0 51 6 70 25m624 372c14 26 49 87 78 135 28 48 52 91 52 96 0 4-14 16-31 26-44 26-55 57-39 106l13 39 19-39c21-43 63-76 73-59 28 44 74 245 75 326 0 28-30 38-75 23-52-17-82-70-99-171-6-31-10-36-30-32-17 4-28-3-42-25-37-57-82-100-111-106-84-19-126-138-88-247 26-72 83-119 145-119 32 0 37 5 60 47m-947 279c73 35 100 123 77 261-17 107-35 147-88 193-35 31-53 40-81 40-20 0-41-4-48-8-59-38 22-502 88-502 10 0 33 7 52 16m1151 716c-12 73-25 146-30 162l-7 29-23-26c-46-54-55-158-19-228 15-29 68-69 91-69 7 0 4 43-12 132m-1208 125c33 21 81 91 100 145 20 57 5 124-37 164-16 15-30 26-32 23-4-4-67-329-67-342 0-11 8-9 36 10m1589 31c14 21 30 53 35 71 13 45 1 191-15 191-19 0-94-79-116-122-23-45-25-125-3-156 25-37 69-30 99 16m-469 349c-3 27-8 83-12 125-6 74-7 76-28 67-27-13-66-69-66-96 0-70 46-143 90-143 20 0 21 4 16 47m-911 638c33 0 81-3 108-7l47-8-1 58c-1 83-10 105-49 124-43 22-147 24-195 4-44-19-55-42-55-120v-66l43 7c23 5 69 8 102 8m689 1c39 4 96 2 126-4s56-9 58-7 4 33 4 70c1 59-1 69-25 93-22 21-38 27-92 30-81 5-131-4-156-29-15-15-19-33-19-95 0-67 2-75 16-70 10 4 49 9 88 12"/><path d="M15505 1489c-9 30-1 38 59 55 100 29 185 99 247 203 21 37 65 46 76 17 10-26-37-104-102-170-68-68-154-115-226-122-41-4-48-2-54 17m1820 0c-103 43-163 92-217 176-44 67-48 108-11 113 24 4 28-1 79-77 20-30 48-65 63-77 32-30 121-75 163-83 35-7 54-30 45-55-8-21-68-20-122 3m-1227 510c-85 18-117 133-53 196 52 53 127 38 160-30 40-86-22-183-107-166m707 2c-32 16-65 72-65 110 0 75 70 134 130 109 86-35 92-172 10-215-33-17-47-18-75-4m-561 674c-25 38-12 73 40 113 36 28 52 28 71-1 11-18 12-31 5-57-21-73-84-103-116-55m400-13c-26 12-54 59-54 90 0 14 9 33 21 44 19 17 23 17 47 3 54-30 83-101 53-130-13-14-47-17-67-7"/></svg>