<svg xmlns="http://www.w3.org/2000/svg" fill="#3f3d3d" viewBox="23636 5357 3859 4865"><path d="M27090 5449c-59 19-115 56-170 111-32 33-60 60-63 60s-14-16-26-35c-46-78-138-83-207-10-50 52-74 115-81 218l-6 78-26-7c-70-20-120 4-160 76-22 39-25 60-32 214-4 96-14 195-23 226-16 59-140 313-162 331-25 21 36-174 81-256 43-80 67-139 80-202 7-36-13-83-45-106l-20-14 21-49c13-29 22-71 23-106 1-50-2-60-29-88-27-29-34-31-76-27l-47 6-7-35c-9-52-48-116-85-142-44-30-91-29-130 4-42 36-59 73-66 143-6 56-8 59-28 51-35-13-74 0-102 33-24 28-26 37-21 89 3 36 15 74 31 101l25 44-29 21c-62 46-41 138 60 257 26 31 60 79 76 108 27 49 29 59 29 162 0 93-4 121-26 180-29 79-30 80-121 46-168-62-349-43-494 51-81 53-204 185-290 313-159 236-417 685-666 1160-392 746-541 1108-555 1346-7 111 3 151 48 197 141 144 494-78 1274-798 251-232 847-821 968-958 230-259 317-427 317-612 0-124-51-264-134-373l-36-47 48-34c133-97 226-136 327-136 57 0 80 7 190 55 140 62 195 70 234 34 12-11 24-33 27-48l6-28 46 13c53 16 130 18 166 4 40-15 63-71 49-120l-10-39 51-25c28-14 67-41 86-61 30-30 35-43 35-81 0-40-5-50-37-79-40-37-91-55-155-55-41 0-43-2-43-29 0-17-11-42-25-59-46-55-116-50-214 15l-65 44-38-21c-63-36-132-4-268 124-53 50-115 96-161 121l-74 39 32-39c70-88 178-177 274-225 32-16 106-44 166-61 190-56 253-101 253-183 0-28-7-52-20-68l-19-26 57-21c87-32 173-84 205-123 34-42 45-104 27-148-13-31-61-67-105-78l-25-7 30-45c92-138 94-297 6-355-30-20-91-28-126-16m84 97c42 41 7 169-79 289-67 94-59 125 30 123 64-1 92 8 100 33 10 29-18 65-76 98-49 28-85 41-212 76-93 26-99 68-16 111 42 21 49 29 49 53 0 40-39 62-165 96-263 69-407 182-697 543-59 73-95 109-101 103-9-9 9-37 177-274 74-104 189-335 205-413 7-32 16-131 20-219 6-121 12-168 24-193 10-17 23-32 29-32s30 20 54 45c42 45 72 56 92 32 6-7 16-75 21-151 8-116 14-146 36-191 32-67 59-79 91-41 13 14 26 43 30 64 8 48 30 82 53 82 11 0 42-32 80-84 96-130 209-196 255-150m-1187 236c33 36 43 63 44 115 2 107 29 129 99 82 29-19 47-26 53-20 15 15-9 85-49 148-54 85-45 127 27 121l44-3-3 34c-1 19-29 84-61 145-46 86-67 142-95 247-54 208-112 359-136 359-8 0-9-7-5-18 48-113 59-170 59-292 0-113-2-130-25-180-14-30-53-89-86-130-70-87-98-136-83-145 6-4 29-4 51 0 81 14 91-35 24-114-52-61-75-101-75-131 0-25 17-25 55 0 34 23 68 26 83 7 5-6 12-55 14-107 4-85 19-140 39-140 3 0 15 10 26 22m1103 804c0 4-10 24-22 46-17 30-20 43-11 56 9 15 25 16 112 13 81-3 106 0 126 13 14 9 25 23 25 30 0 28-59 64-132 81-98 22-112 47-58 108 17 19 30 40 30 47 0 18-77 6-154-25-72-29-98-31-116-10-10 12-10 24 0 60 7 25 10 49 6 53-8 7-55-9-176-64-104-47-210-57-307-29-82 24-199 87-261 141-29 26-56 43-59 40-11-11 88-104 160-152 38-25 110-66 160-91 115-58 167-94 231-161 60-63 132-116 146-107 6 3 10 20 10 36 0 84 49 92 112 18 55-66 115-109 150-109 15 0 28 3 28 6m-1482 404c242 46 524 270 603 479 76 203-6 433-250 693l-68 73-28-33c-31-37-215-183-289-231-28-17-58-31-68-31-19 0-43 44-33 60 3 5 65 54 138 109 184 140 221 175 208 198-5 10-119 127-253 261l-243 242-47-37c-228-185-252-201-274-182-39 32 12 93 194 230 28 22 52 45 51 52-1 18-601 575-630 586-6 1-31-15-57-36-101-86-235-183-251-183-37 0-54 46-27 72 7 7 68 56 135 108 66 52 120 99 120 105 0 18-254 213-391 302-86 55-233 123-269 123-114 1-94-207 56-575 92-226 269-593 289-601 13-5 113 61 260 171 41 31 83 55 92 53 26-5 41-35 28-56-14-22-224-184-291-223-54-32-59-38-44-55 4-5 45-79 89-164 102-195 272-510 292-540l16-22 99 64c55 36 129 88 164 116 65 52 99 63 120 38 26-31-42-97-246-235l-92-63 14-28c23-44 206-346 268-443 38-59 61-86 70-81 47 28 241 161 333 229 126 94 145 103 168 80 25-26 19-40-36-87-80-67-297-224-360-260-32-18-58-38-58-44s26-36 58-66c153-145 289-197 440-168"/></svg>