<svg xmlns="http://www.w3.org/2000/svg" fill="#3f3d3d" viewBox="6769 6285 6473 4452"><path d="M8283 6396c-84 17-192 59-270 106-152 91-273 250-342 448-37 108-45 146-76 357-14 95-37 218-51 275-42 164-51 180-295 538-187 273-322 596-375 895-22 124-25 167-20 252 9 160 43 215 132 215 62 0 167-76 264-193l47-57 6 82c3 44 15 151 27 236 29 217 19 261-91 373-47 49-59 68-59 93 0 93 151 163 385 179 55 4 114 13 132 20l32 14-36 73c-33 65-37 82-38 151 0 74 2 80 28 103 32 27 80 31 151 12 45-12 45-12 90 30 25 23 56 44 70 48 43 11 95-5 135-42 43-39 49-40 110-18 29 10 58 13 88 8 83-12 105-83 59-189l-25-55h93c52 0 106-3 122-6 27-5 33 0 83 76 57 85 129 157 168 166 43 11 91-5 120-41l27-33 53 19c102 39 177 20 197-50 8-29 12-31 58-31 54 0 102-20 118-49 5-11 10-37 10-57 0-34-8-45-63-99-34-33-86-71-114-85-47-22-67-40-45-40 16 0 156-149 190-202 41-64 80-148 115-248 29-81 67-278 67-344 0-67 11-70 60-19 126 128 222 146 271 51 11-21 18-38 16-38s-1-21 3-46c21-136-52-499-144-719-64-153-167-339-267-481-200-283-193-259-184-609 8-296 2-364-50-517-83-247-241-418-475-511-138-55-350-72-507-41m391 109c148 39 317 155 392 270 19 29 19 29-1 21-80-33-198-4-259 64-55 62-79 116-84 197l-5 73h-31c-17 0-40 3-51 6-18 4-24-4-43-63-85-264-338-370-553-232-125 80-199 236-199 420 0 113 13 167 84 363 83 226 77 268-93 687-161 398-218 639-226 954-9 355 64 591 244 788 29 31 85 80 125 108 65 47 68 50 36 44-19-3-100-29-180-56-115-38-164-50-235-55-99-6-226-28-253-44-47-27-47-26 3-82 74-82 99-144 103-259 2-58-2-129-12-185-9-49-21-166-27-259l-12-170 60-95c76-120 124-207 158-289 22-53 25-69 16-88s-18-24-39-21c-23 3-35 19-92 124-89 167-127 226-246 384-136 181-236 273-278 257-13-5-16-27-16-129 0-323 153-736 409-1103 169-242 219-331 264-472 32-96 42-147 67-338 11-83 27-182 36-220 76-336 294-560 598-615 70-13 269-4 340 15m-323 382c50 20 111 88 148 167 46 97 48 120 14 164-32 42-53 85-53 110 0 79 71 171 152 198 94 31 196 10 308-62 19-13 53-26 76-30 56-9 88-34 79-64-17-52-109-132-226-193l-44-24-3-63c-2-51 2-72 23-117 37-74 88-108 165-108 104 0 157 57 196 214 24 93 25 106 22 401l-3 305 31 130c28 117 112 435 134 510 13 45 67 348 79 446 16 126 14 412-4 532-44 294-149 499-326 637-24 19-46 37-49 41s-37 23-77 43c-189 95-499 141-683 102-280-60-500-262-578-531-18-62-33-164-46-320-8-93 30-460 54-520 4-11 15-53 24-92 18-84 101-315 175-492 101-240 115-292 116-421 0-100-4-125-28-195-15-44-34-94-42-110-43-96-57-173-53-298 4-105 8-130 30-179 35-75 73-122 128-158 80-51 171-59 261-23m464 365c69 35 145 88 145 100s-185 10-276-3c-96-13-138-32-125-57 14-25 52-59 81-71 38-16 108-3 175 31m-105 169c52 6 96 12 98 14s-14 9-35 16c-63 20-113 16-161-16-47-31-53-40-19-31 12 3 65 11 117 17m755 794c76 116 182 325 231 455 43 114 89 308 105 443 11 93 9 181-4 194-16 16-111-68-189-167-33-41-36-52-42-130-9-119-15-167-37-310-19-118-91-437-124-544-18-61-17-59 60 59m-291 2035c45 27 91 59 101 70 18 20 18 20-48 20-76 0-91 10-101 69-7 47-12 48-69 22-23-11-62-22-88-26-44-7-46-6-73 34-16 23-34 41-40 41-18 0-145-146-135-154 2-1 44-12 93-25 49-12 126-39 170-60 45-22 87-40 94-40 7-1 50 21 96 49m-1139 66c61 13 127 24 147 24 33 0 40 5 77 61 40 59 50 89 32 89-5 0-28-7-51-15-56-20-106-19-128 2-11 10-32 31-49 46l-30 28-54-46c-30-25-65-49-78-52-22-6-77 4-123 22-37 14-15-103 32-180l20-33 48 15c26 9 97 26 157 39"/><path d="M8972 7030c-28 12-55 71-46 104 9 35 49 69 83 69 93 0 122-118 42-166-32-19-45-20-79-7m-752 43c-29 15-50 51-50 90 0 40 49 87 90 87 46 0 90-47 90-95 0-27-8-44-29-66-32-31-61-36-101-16m3250-341c-87 12-246 67-316 109-159 96-279 255-348 460-50 152-61 295-42 579 12 190 7 206-136 390-238 307-348 502-430 768-44 144-62 326-37 375 47 91 162 73 322-50l57-44v43c0 69 27 225 55 322 50 169 149 333 255 421 25 21 47 39 48 40 2 2-20 16-49 30-70 36-156 119-168 162-20 71 21 113 110 113 56 0 58 1 64 30 14 66 99 89 193 53 44-16 44-16 65 9 77 92 181 46 299-130l37-55 118 2c65 1 119 4 121 5 1 2-9 23-23 47-66 115 2 214 124 179 84-23 88-23 112 2 39 40 73 58 107 58 41 0 67-13 113-57 35-33 38-34 75-24 43 12 113 14 139 5 50-19 59-134 19-229-41-96-41-100 3-113 21-6 72-14 113-17 120-9 190-25 254-55 70-33 88-46 104-77 24-45 15-71-50-136-33-34-70-81-80-105-22-49-25-140-8-270 6-48 14-125 18-170l7-84 60 53c169 148 304 181 359 88 24-41 28-91 16-194-25-204-119-482-215-635-12-19-39-64-60-100s-96-142-165-235c-70-94-139-193-153-222-48-97-94-283-112-458-10-84-43-249-66-319-103-319-352-524-684-565-102-12-133-12-225 1m280 113c252 59 424 206 509 435 34 92 50 167 77 350 42 297 83 427 178 571 56 84 67 100 123 171 227 288 393 666 410 935 5 82 4 93-11 99-39 15-154-65-295-205-99-98-184-210-256-334-52-91-70-106-106-87-17 10-20 18-16 46 8 46 77 166 154 267 35 45 71 92 79 104 14 19 14 42 5 175-6 84-16 193-22 243-22 179 8 295 97 378 26 24 44 49 40 55-16 26-124 54-243 63-90 7-142 16-195 36-80 29-231 73-235 69-2-1 24-22 58-46 153-111 269-313 299-516 14-99 12-283-5-399-27-191-79-358-230-741-71-179-75-195-81-289-5-76-3-100 15-154 20-59 51-134 71-172 4-8 18-57 30-108 33-134 25-265-20-375-41-97-120-183-207-224-50-23-71-27-148-27-108 0-163 23-236 95-49 49-103 149-114 213-6 28-11 37-22 33-8-3-39-6-69-6h-54v-33c-1-126-82-260-177-293-46-16-127-18-154-4-26 14-24 9 12-44 96-144 261-249 444-286 68-13 226-11 295 5m-587 428c49 37 81 108 85 187l3 65-72 45c-74 47-153 124-162 160-8 29 23 58 70 65 21 3 49 12 63 20 105 61 155 79 225 79 63 1 76-2 121-31 71-46 97-86 102-154 3-45-1-65-23-108-31-61-29-102 9-186 49-109 123-165 226-173 87-6 151 21 218 92 139 147 145 339 19 639-50 119-51 124-51 222 0 119 3 131 143 489 55 142 114 313 131 379 118 469 57 791-195 1030-75 71-240 140-378 159-179 24-446-25-622-114-200-101-352-321-407-590-36-175-30-493 13-688 27-125 59-261 74-315 98-355 132-536 121-634-35-319-1-567 88-634 44-34 55-37 113-33 37 2 61 10 86 29m281 321c30 13 76 59 76 77 0 4-15 12-32 18-80 26-358 42-358 22 0-13 115-95 160-114 45-20 111-21 154-3m50 177c-11 18-87 49-122 49-29 0-102-23-102-33 0-2 28-5 63-6 34-1 78-6 97-11 51-12 72-12 64 1m-828 704c-30 110-69 274-95 400-16 76-31 201-31 256 0 49 0 49-75 111-42 35-103 78-137 96-55 29-63 31-71 17-17-31 16-206 68-360 19-55 69-176 88-210 6-11 24-45 40-75s47-81 68-114c22-32 39-60 39-63 0-9 132-185 136-181 1 2-12 57-30 123m410 1781c43 19 119 45 168 56 50 11 93 22 95 24 6 5-75 103-105 127l-27 21-31-37c-37-44-60-46-143-17-73 25-73 25-73-9 0-16-8-39-19-52-16-20-27-22-87-22l-69 1 32-26c38-31 153-100 169-101 6-1 47 15 90 35m1163 86c30 60 42 138 21 138-5 0-28-7-50-16-55-22-94-12-146 36-24 22-49 40-57 40-7 0-31-18-52-40-45-46-70-50-146-23-26 10-51 14-55 10-8-8 17-59 50-99 20-25 36-31 161-53 77-14 160-32 185-39 25-8 48-15 52-15 3-1 20 27 37 61"/><path d="M10994 7423c-20 18-27 33-28 65-2 103 132 133 164 36 30-90-66-161-136-101m780 18c-41 20-69 102-46 135 35 50 110 58 153 15 74-74-12-195-107-150"/></svg>