<svg xmlns="http://www.w3.org/2000/svg" fill="#3f3d3d" viewBox="10458 10928 2988 3862"><path d="M12060 11025c-311 49-586 258-739 562-50 100-86 198-156 423-102 328-149 433-303 674-229 360-323 613-324 870 0 135 11 211 49 331 119 378 486 676 913 741 557 84 1100-182 1454-711 201-301 312-613 382-1075 21-144 30-550 15-677-44-354-175-650-373-843-169-165-401-272-646-299-125-13-163-13-272 4m385 105c471 120 740 465 816 1045 15 115 6 499-15 650-48 331-114 559-236 810-242 497-638 820-1104 901-121 21-367 14-478-15-222-56-393-155-541-311-166-175-245-362-254-600-6-151 6-240 52-376 54-161 102-255 271-526 150-240 200-354 299-679 99-323 153-442 264-582 143-180 350-304 561-336 94-14 271-5 365 19"/><path d="M11773 11590c-48 11-96 43-121 80-27 40-25 57 6 78 21 14 24 12 55-22 35-38 79-56 134-56 38 0 60-29 44-59-17-31-51-37-118-21m987 509c-20 38 15 71 75 71 15 0 41 17 70 46 44 42 48 44 68 31 12-8 24-22 25-31 6-28-47-94-92-116-56-27-131-27-146-1m-858 208c-43 6-65 45-39 70 34 34 147 7 147-35 0-38-22-45-108-35m431 444c-31 31-11 62 47 74 19 4 42 14 52 22 9 8 29 13 45 11 22-2 29-9 31-30 2-20-5-32-33-54-41-31-122-44-142-23m-1112 225c-28 20-27 41 8 97 50 77 161 116 169 59 4-29-12-49-53-67-20-8-42-29-55-54-27-48-41-54-69-35m1486 412c-15 16-15 22-1 70 12 40 21 53 40 58 39 10 57-13 49-61-12-76-52-107-88-67m-1768 353c-18 18-20 29-15 66 11 85 81 158 143 151 23-2 28-8 30-33s-4-35-37-57c-23-16-42-38-45-53-3-14-7-36-10-50-3-13-14-29-25-35-16-8-24-6-41 11m1209 408c-57 49-94 63-160 59-53-3-62 0-75 19-35 52 70 88 172 58 74-21 151-89 141-123-13-41-41-46-78-13"/></svg>