<svg xmlns="http://www.w3.org/2000/svg" fill="#3f3d3d" viewBox="19217 10758 4216 4092"><path d="M21170 10854c-66 14-132 51-201 112-94 84-132 96-316 105-219 11-274 31-386 138-50 47-113 157-137 238l-13 43h-61c-139 0-280 64-380 172-103 110-136 204-136 379 0 59-4 119-10 133-5 14-37 55-70 91-104 112-139 184-154 315-9 72 15 186 55 260 16 31 59 90 95 131 96 108 100 117 84 212-15 92-9 140 26 209 41 80 106 136 243 207 67 34 137 78 156 96 18 19 67 101 109 183 114 226 233 373 391 484 107 76 260 148 367 172 21 5 35 20 57 64 67 133 164 172 421 172 125-1 249-19 297-43 41-21 83-72 111-132 23-50 23-50 119-83 186-64 313-141 445-272 99-99 172-207 258-382 34-68 77-139 97-160 20-20 89-65 154-99 148-77 208-129 250-214l32-65-7-120c-8-135-8-135 65-217 215-237 222-510 19-708-75-73-81-87-85-233-4-151-25-230-86-320-80-122-224-209-373-227-54-7-57-9-75-50-10-23-36-61-57-85-35-39-118-90-146-90-7 0-36-11-65-24-44-21-57-34-92-95-54-92-124-143-223-161-40-8-79-7-160 5-127 19-155 14-247-46-86-56-158-86-233-99-74-12-67-12-138 4m140 89c51 12 109 40 232 111 66 38 132 46 252 30 168-22 228 2 302 118 59 93 81 110 183 148 89 33 125 56 153 98 24 37 22 52-7 52-41 0-152 47-214 90-31 22-59 40-62 40s-11-18-18-39c-15-52-83-153-124-183-80-61-168-84-259-68-75 14-89 9-118-42-59-106-141-160-251-166-135-8-274 46-375 147l-60 60-50-15c-104-32-223-12-315 52-48 33-116 132-132 191-6 24-14 43-18 43s-30-15-57-34c-28-19-73-42-99-52-26-9-52-20-56-24-12-10 31-117 70-177 19-29 56-68 81-86 82-59 121-69 297-76 187-8 225-21 347-116 80-62 113-82 173-101 51-16 59-16 125-1m127 292c50 21 69 39 115 112 21 33 50 68 63 77 28 19 88 21 150 5 67-17 144 9 203 69 42 44 112 171 112 206 0 26-52 140-75 164-17 19-39 26-96 33-133 15-197 46-274 131-113 125-142 281-90 476 14 51 25 102 25 112 0 11-23 34-57 57-117 80-135 181-64 359 62 153 56 209-36 358-82 133-88 164-89 466 0 213-4 276-17 319-8 29-18 55-20 58-10 10-67-171-78-250-19-139 7-292 81-477 84-209 94-249 94-375 0-140-15-193-87-303l-44-67-7-190c-12-367-99-605-299-822-56-60-74-69-98-47-29 26-24 40 34 107 69 79 105 134 152 227 84 167 115 295 122 508l6 164-51-26c-29-14-59-37-67-50-15-22-14-30 7-98 33-105 33-288 0-370-58-144-171-237-314-259-131-20-138-24-183-114-48-97-50-145-13-226 46-101 114-154 220-174 61-12 164 25 213 76 22 22 66 59 97 80s76 62 100 91c24 28 70 81 104 117 147 159 168 250 98 416-36 85-38 98-44 222-4 116-8 135-27 162-26 34-29 61-11 79 19 19 42 14 70-16 42-42 51-77 58-217 7-121 10-135 43-205 19-41 45-111 57-155 45-166 113-295 199-380 55-52 54-115-1-115-28 0-163 166-206 254l-39 79-24-48c-13-27-55-83-94-126-38-42-89-99-113-127-23-28-78-77-122-108-101-73-106-87-49-137 110-96 272-141 366-102m-1258 356c134 30 232 111 297 242 60 121 87 142 209 157 172 22 272 117 305 291 13 64 8 101-27 230-40 149-25 186 108 255 101 53 143 94 186 182 37 74 38 79 38 186 0 120 2 109-98 368-125 324-115 508 51 875 28 61 48 114 44 117-17 18-65 2-124-41-88-66-285-265-341-344-123-174-129-526-13-780 61-137 73-226 34-253-36-25-62-1-70 65-3 30-27 106-52 169-66 164-80 231-81 387 0 73-4 128-8 124-18-18-122-226-165-331l-47-115 1-125c3-218 26-316 122-525 80-176 104-270 77-311-27-42-75-25-75 26 0 49-29 135-83 250-77 164-117 283-117 350 0 68-19 21-48-118-54-257-71-393-81-635-7-189-9-197-58-197-12 0-26 8-31 17-15 29-32 227-33 381 0 87-4 140-10 136-12-7-53-88-68-134-6-19-17-71-25-116-15-88-49-164-97-219-37-41-62-44-85-10-18 27-19 25 38 97 17 21 34 61 43 101 8 37 22 97 30 134 18 81 53 157 110 238 63 90 65 95 81 238 13 119 26 208 41 277 3 16-11 1-38-40-97-145-298-320-352-306-53 13-45 62 14 95 69 39 152 115 211 192 100 131 229 362 276 494 84 235 215 476 344 632 33 40 53 73 46 73-23 0-132-70-208-134-117-98-217-233-297-403-91-192-120-223-302-314-117-59-168-100-205-169-27-50-28-57-20-124 19-162 9-195-87-297-33-36-75-96-97-138-36-73-37-78-37-180 0-130 15-164 114-272 101-110 104-118 111-295 6-145 8-155 38-217 90-183 307-283 511-236m2483 9c80 25 174 84 216 138 66 83 84 142 92 302 4 80 12 157 18 172s43 61 81 103c113 122 153 231 131 356-16 87-56 160-143 262-89 104-97 127-83 254 13 122 1 160-69 228-38 37-86 69-167 108-156 77-188 111-282 296-110 217-202 339-329 438-58 45-185 123-200 123-4 0 17-29 47-64 151-178 280-413 367-666 34-100 164-340 236-437 63-86 144-165 218-214 67-45 87-77 65-104-7-8-22-15-34-15-24 0-132 70-189 123-48 45-131 149-164 205-14 24-27 42-28 40-2-2 3-39 11-83s21-134 28-200c17-142 22-156 88-258 80-126 93-162 128-349 7-36 26-79 51-118 21-33 39-69 39-78 0-23-19-42-41-42s-73 58-103 118c-22 44-29 69-56 211-10 50-59 162-81 186-5 5-9-51-9-143 0-159-15-342-30-380-10-22-43-29-67-14-8 5-16 69-22 192-16 279-32 397-104 732-10 51-27 56-27 9 0-51-50-203-105-321-62-131-85-199-85-252 0-57-36-83-75-55-15 12-17 23-12 73 7 75 25 128 98 284 65 140 84 204 99 335 26 232 12 296-125 571l-84 169v-106c-1-171-22-264-101-459-12-30-27-78-32-105-17-82-24-95-57-95-62 0-56 81 18 257 57 138 73 208 78 353 4 110 1 154-16 240-24 121-44 155-178 305-81 91-256 255-272 255-8 0-26-34-47-92-12-34-11-42 11-92 43-97 55-197 55-450-1-259 3-282 67-393 70-122 86-164 90-238 5-71-3-107-56-245-26-68-27-136-3-173 10-15 39-40 64-56 87-55 95-92 52-249-46-170-18-315 79-410 60-57 111-81 207-93 45-5 96-17 111-24 38-20 74-69 100-139 71-185 321-291 531-226m-2416 1457c93 381 210 657 401 948 109 166 174 244 312 378 61 60 111 110 111 111 0 5-135-22-165-34-82-31-295-287-410-495-109-197-219-533-264-805-18-114-38-313-25-265 3 11 21 84 40 162m2150-90c-15 142-71 423-114 573-96 327-269 626-489 842-72 71-113 92-205 104l-51 7 116-117c343-346 570-771 704-1318 21-87 40-158 42-158s0 30-3 67m-1096 1618c146 0 277-4 293-8 37-10 35 7-6 48s-114 55-291 55c-152 0-242-19-286-60-38-36-39-53-2-43 15 5 146 8 292 8"/></svg>