<svg xmlns="http://www.w3.org/2000/svg" fill="#3f3d3d" viewBox="12175 200 3827 7792"><path d="M14500 309c-72 15-136 64-171 132-43 84-51 173-44 454 5 206 3 288-10 394-21 182-55 333-96 428l-18 42-73-45c-250-154-599-125-903 74-195 128-377 385-422 595-17 79-17 79 6 122 30 56 83 81 140 65 47-12 88-42 216-154 288-254 460-336 695-335 155 1 152-3 75 111-158 232-378 433-638 582-74 42-301 154-391 193-92 39-180 86-281 152-38 25-116 64-173 87s-116 53-130 68c-26 25-27 31-26 129 0 115 15 164 59 193 35 23 309 129 401 154 184 52 439 66 634 35 528-85 1052-432 1408-932 28-40 65-97 83-128 17-30 37-55 44-55 18 0 72 139 89 228 19 98 20 296 2 412-17 109-53 229-103 342-71 163-47 258 66 260 53 1 76-8 151-57 215-138 384-416 436-715 21-121 14-301-15-413-26-99-89-235-142-304-43-58-43-58 33-42 81 17 196 82 273 152 11 10 46 36 79 58 69 46 106 50 143 13 23-24 25-31 21-88-4-45-17-87-46-149-116-247-324-400-608-445-95-15-103-18-99-37 27-126 38-332 25-480-24-296-92-523-221-741-149-252-323-384-469-355m131 117c89 45 212 201 302 379 66 131 98 227 134 395 25 113 27 145 27 335 0 171-4 232-22 327-22 119-63 276-87 334l-13 31-103 6c-116 7-213 30-331 78-91 38-92 37-102-47-12-103-69-234-160-369-22-33-40-62-39-65s15-37 31-75c30-73 73-240 93-360 6-39 14-243 18-455l6-385 27-57c35-75 74-101 140-94 26 3 61 12 79 22m-728 1308c110 35 215 112 295 216 25 32 108 183 118 212 5 18-2 15-39-17-194-170-505-209-787-97-138 55-275 153-490 350q-99 91.5-135 78c-23-9-13-74 27-176 115-290 375-508 688-575 80-18 255-13 323 9m1395 292c241 50 422 202 507 426 13 38 23 68 20 68-2 0-48-34-102-77-100-78-208-135-291-154-26-5-87-10-137-10-81-1-188-20-207-38-4-4 1-38 12-76 10-39 24-89 30-113 10-41 12-42 51-42 22 0 74 7 117 16m-1202 110c84 35 184 136 230 230 39 82 41 95 16 132-10 15-44 65-75 112-124 188-298 371-475 497-262 187-530 287-868 323-60 7-112 14-116 17-13 7-9 40 7 53 24 20 232-4 400-46 494-122 876-416 1188-915 42-68 82-89 164-89 69 1 152 32 213 80l41 32-32 57c-133 236-352 493-569 664-249 197-536 335-830 399-154 33-411 33-560 0-109-25-434-143-459-167-10-9-16-44-19-98l-4-85 53-17c72-24 152-64 284-144 61-37 173-95 250-130 293-133 445-219 621-352 173-131 346-322 459-507 21-34 39-62 40-62s20 7 41 16m977 205c159 30 279 174 342 409 39 149 31 370-21 527-72 220-240 440-395 519-83 42-89 14-28-126 133-307 152-707 45-968-52-130-169-260-279-313-32-15-54-30-50-32 11-7 123-26 178-30 52-4 148 2 208 14"/><path d="M14814 1113c-2 7 3 49 12 92 10 48 18 153 21 260 5 193-7 324-48 502-23 100-21 123 11 123 28 0 42-37 73-190 41-202 52-344 38-501-11-121-35-272-47-291-8-13-54-9-60 5m-396 2971c-183 75-323 275-363 518-3 21-7 38-8 38s-24-7-51-15c-66-20-105-19-170 5-53 20-109 70-137 121-38 71-49 201-25 282l14 46-32 14c-17 9-69 25-116 38-155 40-229 91-282 192-17 32-22 60-23 117 0 41 2 83 5 94 4 15-6 21-55 37-176 54-281 185-278 347 0 35 6 83 13 107l12 43-53 64c-29 34-60 81-70 103-37 85-35 105 35 371 36 137 107 406 156 599 113 436 113 434 158 480 82 83 303 162 562 199 139 21 481 28 635 15 349-31 649-140 709-258 8-14 41-132 75-261 33-129 68-260 76-290s36-136 61-235c26-99 62-237 80-307 19-69 37-147 40-172 12-86-27-180-116-276-31-34-37-46-30-61 6-9 14-47 19-84 28-193-74-375-259-462l-80-38v-46c0-170-125-318-333-398l-72-27-8-69c-4-39-14-91-23-117-19-59-86-135-139-159-44-21-144-25-176-9-25 14-25 5 1-94 46-181 158-314 312-371 57-21 73-58 38-87-28-23-33-22-102 6m-460 627c17 6 33 17 36 25 7 19 67 44 106 44 41 0 100-26 100-43 0-32 61-36 109-6 76 46 106 114 99 226-6 95-36 160-100 220-63 57-127 76-242 71-149-7-235-58-293-176-24-48-28-69-27-137 0-89 19-139 71-186 54-50 84-58 141-38m610 393c150 64 229 142 252 248 25 120-30 210-176 286-40 21-145 54-237 74-119 26-438 36-587 18-254-29-448-109-497-203-23-45-12-137 22-188 40-61 69-76 268-138l99-31 46 48c87 89 201 127 366 120 86-3 110-8 161-33 75-36 144-106 176-179 13-30 25-56 26-56s37 15 81 34m449 502c63 43 99 89 130 163 26 65 30 164 8 225-49 138-188 238-391 281-85 18-383 32-430 21-27-7-25-9 41-38 216-95 382-244 473-424 27-53 62-187 62-237 0-38 1-39 28-33 15 4 50 23 79 42m-208 74c-27 125-135 280-258 373-77 58-236 139-337 172-306 100-809 86-1031-28-117-61-193-170-193-276 0-112 45-182 150-235 94-46 153-56 183-28 38 35 188 101 290 127 145 37 292 49 516 42 306-9 509-61 646-165 22-17 41-30 42-28 1 1-3 22-8 46m-1719 563c107 67 226 104 405 128 118 15 386 13 502-4 77-11 107-11 190 1 154 22 479 21 582-1 160-35 267-86 364-176l48-44 28 27c16 15 41 50 56 78 22 41 26 59 23 99-3 27-7 52-10 55s-36-3-73-12c-62-16-69-16-101 0-21 10-47 36-66 66-17 28-33 50-36 50s-36-10-72-21c-85-28-112-21-170 41l-46 48-59-25c-100-40-146-33-217 34l-37 36-53-33c-32-20-70-35-98-37-40-4-52 0-103 36-32 23-60 41-62 41s-32-18-66-40c-79-51-111-52-195-5l-63 35-47-45c-65-62-95-66-191-25l-77 32-20-29c-11-15-33-40-47-56-34-34-81-36-164-7-55 19-59 19-71 2-7-9-14-20-14-24 0-3-12-20-26-37-35-42-80-53-149-35-31 8-60 12-65 9s-12-25-15-48c-8-53 10-102 61-164l37-44 31 29c17 17 56 45 86 65m-35 283c16 28 39 96 55 168 38 161 200 952 200 971 0 13-5 13-37-4-80-40-74-25-197-506-31-121-81-312-110-425-30-113-56-211-58-219-2-10 14-18 52-26 30-6 58-10 62-8 3 2 18 24 33 49m2168-39c33 5 38 9 33 27-33 122-122 465-192 736-47 184-92 345-100 357-13 21-82 63-102 63-9 0 58-341 151-775 25-116 50-234 56-264 7-30 25-79 42-109 26-45 35-53 53-47 11 3 38 9 59 12m-1874 114 43 50 40 272c49 340 104 727 112 789 3 28 2 48-4 48-5 0-38-9-73-21l-64-21-33-166c-17-92-68-340-111-551-44-211-78-389-76-395 3-8 94-51 118-55 3-1 25 22 48 50m1581-20c30 11 56 22 57 23 3 3-42 230-87 436-41 191-117 573-125 632l-7 47-70 21c-39 12-72 19-75 16-5-4 138-1030 152-1091 5-26 72-105 88-105 7 0 37 9 67 21m-1272 68c23 22 43 50 46 63 6 27 30 321 51 608 8 113 17 225 19 250 3 25 8 87 12 139l7 93-42-6c-22-3-59-9-81-12-35-5-40-9-44-37-3-18-17-122-32-232-14-110-46-339-70-509s-44-317-44-326c0-12 20-26 58-43 31-14 62-26 68-26 6-1 29 17 52 38m980-7c28 11 52 22 52 26s-5 38-11 77c-5 38-21 149-34 245s-39 285-59 420c-19 135-38 273-42 307-7 69 1 64-122 79l-53 7 5-39c3-22 8-73 11-114s19-248 35-460 31-407 32-433c1-42 7-55 46-98 48-54 42-53 140-17m-598 620v548h-80c-56 0-82-4-85-13-2-6-11-107-19-222-44-594-55-739-62-806l-6-57 68-40 67-41 59 42 58 41zm322-555c9 8 15 20 13 26-2 7-9 84-15 172s-12 185-15 215c-9 107-27 347-38 515l-12 170-83 5c-46 3-86 3-88 1s-4-249-4-548v-543l60-45 61-44 52 31c29 16 60 37 69 45"/><path d="M13878 4771c-53 30-91 171-52 186 26 10 48-11 55-51 4-22 17-48 33-62 29-27 31-36 16-65-12-21-26-23-52-8m612 508c-14 28-5 42 44 72 29 18 50 41 65 72 24 50 43 62 72 47 24-13 25-56 2-90-65-98-157-149-183-101m-1021 58c-23 6-30 38-13 61 18 26 121 44 188 33 59-10 79-35 57-70-6-10-34-14-97-15-49-1-96-4-104-7-8-4-22-5-31-2m520 149c-24 29-94 72-137 83-35 10-42 16-42 36 0 68 114 45 210-42 22-19 40-43 40-52 0-38-46-54-71-25m1007 312c-3 5-8 29-12 53-8 53-19 76-51 111-28 30-25 63 8 73 43 14 102-56 118-140 12-64 2-99-31-103-14-2-29 1-32 6m-1726 18c-70 30-120 96-120 157 0 76 55 73 85-5 17-43 27-55 64-74 24-11 47-27 51-34 9-14 1-50-10-50-5 0-14-2-22-5-7-2-29 3-48 11m941 126c-21 14-58 24-99 27-71 7-97 26-76 58 24 38 118 33 203-10 54-26 71-50 55-75-16-24-43-24-83 0m-713 9c-10 5-18 19-18 29 0 45 141 160 196 160 26 0 47-23 42-47-2-10-24-28-50-40-25-12-67-42-93-67-51-50-52-50-77-35"/></svg>