<svg xmlns="http://www.w3.org/2000/svg" fill="#3f3d3d" viewBox="6819 6738 4915 7905"><path d="M7845 6831c-429 72-791 418-880 840-66 311 7 630 202 886 137 181 356 326 588 390 91 25 115 28 275 28 195 0 245-9 404-72 320-127 546-375 650-716 5-14 18-17 83-17 88 0 579 23 968 45 821 46 1128 58 1196 46 203-37 321-172 322-371 1-102-26-171-94-245-94-101-203-130-459-121-359 14-1205 59-1694 92-132 8-257 16-279 17l-38 2-23-70c-28-88-96-219-155-299-214-292-527-448-890-445-69 1-148 5-176 10m365 110c235 43 457 181 601 372 148 196 216 426 197 668-24 318-236 638-515 777l-61 31-74-20c-105-28-279-117-379-193-104-79-236-215-307-319-112-162-204-385-239-580-30-168-19-433 23-536 17-43 81-88 194-137 176-76 369-98 560-63m-891 380c-28 245 31 539 162 804 151 306 435 580 722 696 82 33 56 42-133 47-136 4-167 2-245-17-208-51-344-125-488-268-127-126-215-283-259-460-32-128-31-324 1-448 25-98 90-246 142-322 38-56 102-134 106-130 1 2-2 46-8 98m4079 338c62 28 123 93 140 149 25 81 7 183-43 248-32 42-125 89-193 99-45 6-452-12-1655-73l-529-27v-310l79-7c72-7 717-44 1188-69 110-6 301-16 425-24 124-7 295-12 380-11 138 2 161 4 208 25M9535 9225c-533 86-929 477-1021 1009-17 93-17 102 2 587 10 249-22 429-117 661-142 347-189 492-226 707-26 145-25 621 1 786 49 316 159 656 310 960 44 87 44 90 27 115-81 120-40 249 105 323 43 22 221 74 330 97 378 79 964 93 1404 34 400-53 622-148 659-280 13-47-1-115-34-166l-24-36 29-54c94-174 208-472 259-676 75-300 95-476 88-777-8-374-44-535-207-945-95-237-124-330-146-456-17-99-17-161 2-609 8-189-15-341-76-503-68-181-143-299-277-435-159-161-385-281-625-333-104-22-351-27-463-9m395 110c229 34 431 133 599 291s288 391 332 642c9 48 10 125 3 277-14 329-11 516 10 615 23 110 66 245 127 398 27 67 49 127 49 133 0 17-295 5-399-16-130-25-304-79-441-135-69-29-154-63-190-77s-69-29-73-33c-5-5 17-16 50-25 152-44 303-136 412-251 165-173 247-360 258-589 32-654-584-1134-1207-940-495 155-765 686-600 1180 92 277 310 492 598 591 70 24 91 35 76 40-10 4-71 28-134 54-365 151-552 199-812 207-87 3-158 3-158 0 0-4 22-61 50-127 136-332 171-554 139-885-25-262-12-423 47-605 115-351 376-604 734-712 155-47 359-59 530-33m-240 352c0 10-15 55-34 99-94 229-261 380-511 463-91 30-215 54-215 41 0-4 8-31 19-61 94-273 330-482 616-542 98-21 125-21 125 0m294 14c241 72 443 262 538 505 16 42 28 79 26 84-5 13-190-30-278-66-191-77-330-203-418-379-24-49-62-154-62-173 0-10 126 9 194 29m-210 186c88 180 259 337 452 414 86 35 252 79 294 79 59 0 60 2 60 129 0 148-22 240-90 376-104 210-284 361-515 435-96 30-279 38-391 17-309-59-570-299-656-604-17-61-22-106-22-208l-1-129 30-7c17-4 68-15 115-24 209-41 375-128 510-265 60-61 148-194 165-248 3-12 10-22 14-22s19 26 35 57m46 1572c38 26 62 79 56 124-6 52-29 83-78 108-56 29-109 21-154-22-37-36-49-74-39-125 7-39 62-100 97-107 36-8 91 2 118 22m-303 143c0 52 24 102 70 144l35 32-27 43c-81 128-238 224-399 244l-58 8 7-44c24-145 92-279 184-361 46-42 154-107 177-108 6 0 11 19 11 42m521-13c128 65 209 156 263 295 15 39 30 97 34 130l8 59-49-7c-147-21-290-96-371-195-71-88-72-93-25-136 43-38 79-119 69-156-7-26 3-24 71 10m-852 103c-31 42-94 183-109 243-9 33-19 90-22 126-6 54-4 69 10 82 35 35 231 10 335-43 67-34 67-18-1 44-281 258-717 371-1113 290l-29-6 7-87c9-121 49-306 93-440l39-114 141 2c95 2 173-3 239-14 116-20 354-78 381-94 33-19 47-14 29 11m1236 17c192 59 296 75 490 76h177l35 105c42 126 84 332 93 451l6 87-74 13c-110 21-364 18-468-4-244-53-436-146-596-291-66-60-69-79-6-47 90 46 285 76 332 51 58-32-23-357-115-459l-21-24 25 6c14 3 69 19 122 36m-640 174c131 254 348 453 618 565 77 32 266 80 371 94l89 12 1 76c1 122-1 171-12 250-39 282-158 529-346 715s-392 284-654 315c-308 36-639-84-875-318-234-233-354-539-354-908v-131l68-7c169-17 353-74 515-158 212-110 390-293 498-510 19-37 36-68 39-68s22 33 42 73m-1426 652c54 8 118 15 140 15h41v132c0 166 17 294 55 423 112 378 395 690 743 819 301 111 613 98 902-39 323-152 579-469 663-820 34-142 41-197 46-355l5-155 81-7c44-4 103-12 130-17 27-6 54-11 60-11 14 0 2 256-18 400-44 301-165 691-296 955-66 132-75 140-186 175-327 100-763 146-1185 122-377-21-765-95-868-165-108-73-332-670-384-1023-24-160-44-464-32-464 2 0 48 7 103 15m380 1591c131 43 343 87 537 111 182 22 736 25 897 5 300-39 500-79 610-122 28-11 60-20 71-20 22 0 59 54 59 87 0 90-323 189-765 234-154 16-635 16-790 0-152-16-338-45-452-71-248-57-344-115-322-194 6-23 35-66 44-66 1 0 51 16 111 36"/><path d="M9284 10458c-83 67-43 201 60 202 30 0 45-7 72-34 28-28 34-42 34-76s-6-48-34-76c-27-27-42-34-72-34-22 0-49 8-60 18m790 0c-30 24-44 55-44 97 0 29 8 45 34 71 46 46 99 47 145 5 27-25 31-36 31-79s-5-55-31-81c-24-25-39-31-72-31-25 0-51 8-63 18m-572 444c-33 33 4 85 94 129 55 27 77 32 142 33s87-4 140-28c60-28 122-83 122-109 0-17-21-37-39-37-8 0-29 11-47 25-113 86-231 86-343 1-39-29-51-32-69-14"/></svg>