<svg xmlns="http://www.w3.org/2000/svg" fill="#3f3d3d" viewBox="827 745 5298 7266"><path d="M4646 856c-148 36-291 146-372 287-27 47-44 67-54 63-8-3-53-21-100-40-309-128-692-159-1049-85-119 24-284 80-383 130l-76 38-23-47c-13-26-58-83-103-128-125-125-239-174-412-176-314-2-606 230-688 548-19 73-21 239-5 316 25 116 103 247 196 327 26 23 93 64 148 92s101 52 102 53c2 1-7 45-19 97-19 81-22 123-22 304 0 180 3 223 22 303 65 279 229 541 445 711l38 30-53 27c-72 36-232 133-353 214-450 301-833 783-920 1160-20 90-19 221 3 301 73 263 356 427 607 354 111-32 179-75 286-180l66-65-9 57c-12 84-11 329 1 392 6 29 11 58 11 63s-25 20-56 34l-57 25-94-22c-164-38-314-20-463 56-79 40-199 164-238 245-115 245-88 563 75 883 244 478 732 708 1105 521 187-94 560-408 762-641l68-80 60 18c232 73 520 77 772 12l99-26 133 140c287 302 599 543 789 610 70 24 94 28 195 27 230 0 412-86 609-285 89-91 165-203 230-340 90-189 123-323 124-504 2-288-114-488-349-603-32-16-84-35-114-43-83-20-231-16-322 10l-78 21-56-28-56-27 7-41c9-62 7-371-3-429l-8-51 62 62c132 130 253 185 404 185 233 0 416-140 476-364 22-84 18-239-10-348-88-343-397-734-851-1074-123-92-327-221-435-275-25-12-46-24-48-25-1-1 34-38 79-81 192-186 314-412 371-692 40-197 24-490-37-661-16-46-19-42 67-83 128-60 225-157 287-285 47-95 64-174 63-283-2-281-168-538-423-655-134-61-296-80-423-49m274 109c170 45 322 169 399 325 88 180 93 336 16 498-61 130-169 223-327 282-31 11-61 26-66 33-7 8-2 39 18 100 46 145 63 256 63 422 0 164-18 272-68 415-97 272-298 504-569 655-59 33-85 40-175 52-127 16-269 62-429 138l-116 56-63-16c-65-16-152-14-249 6-47 11-54 9-110-19-194-98-357-148-531-162-101-9-118-13-180-47-249-135-425-317-538-556-24-50-55-137-70-192-28-110-49-319-40-405 11-104 27-195 46-265 34-123 28-136-66-160-123-32-269-145-328-253-33-62-67-184-67-245 0-76 29-196 65-272 80-166 231-289 411-335 96-25 161-25 246-1 141 39 249 133 318 277 22 45 47 84 55 88 9 3 70-21 144-58 137-69 286-123 416-152 95-21 469-29 579-13 127 19 293 68 423 125 171 75 169 75 189 28 57-131 81-171 133-223 56-56 158-116 223-131 56-13 190-11 248 5m-224 2818c326 188 486 308 714 537 292 292 443 529 494 774 20 98 20 155 1 231-43 163-151 267-309 296-179 33-355-68-505-289-55-82-57-87-106-249-67-225-151-416-219-498l-25-30-22 22c-27 27-25 34 49 198 114 252 178 521 202 851 8 121 0 315-15 361-3 8-24 13-58 13-147 0-339 101-307 161 15 27 41 24 111-11 117-60 239-73 338-39 39 14 39 20-1 43-107 62-247 207-317 329-31 54-60 161-47 174 10 10 81-63 148-152 122-160 224-250 361-316 192-92 378-84 538 23 194 130 263 389 184 693-91 351-327 644-609 757-77 30-88 32-212 33h-130l-76-38c-208-102-313-366-266-669 8-51 10-94 6-103-12-21-55-19-67 3-18 33-41 172-41 245 0 75 31 251 50 287 24 44 5 38-62-21-162-142-428-408-428-429 0-3 25-18 55-33 58-28 89-64 79-91-12-31-48-29-121 8-174 89-316 124-529 133-117 4-174 2-255-11-135-22-283-68-383-118-66-33-83-38-103-29-47 21-18 69 70 116 20 11 37 25 37 31 0 27-456 474-484 474-3 0 1-15 9-33 72-172 50-533-33-545-33-5-41 28-26 107 18 88 17 230-1 316-29 141-116 278-216 341-132 83-329 87-504 10-197-88-385-284-494-517-68-145-102-276-108-419-8-202 32-324 142-436 97-97 214-144 363-144 94 0 167 18 257 62 137 69 228 151 353 320 62 85 95 118 116 118 15 0 4-95-15-133-56-111-197-266-301-332-76-48-53-62 98-64 96-1 131 7 227 54 95 47 145 10 73-53-68-59-191-102-296-102h-48l-9-78c-29-270 26-674 132-982 15-41 49-128 76-192 55-128 59-161 18-166-20-2-31 5-51 36-68 102-143 287-198 487-18 66-39 132-46 147-26 51-162 224-211 268-59 53-171 108-244 119-158 26-329-67-401-218-43-90-50-217-19-342 38-151 159-369 311-559 80-99 262-282 373-374 118-97 356-252 563-366l61-34 46 28 47 27-29 24c-15 14-38 48-51 77-28 66-24 138 15 253 22 66 28 105 34 230 7 172 23 220 93 279l40 34-41 115c-55 159-82 302-88 477-10 256 24 434 116 625 130 270 369 467 656 541 196 51 449 42 636-22 243-82 447-263 569-504 89-178 126-373 117-630-8-218-31-339-104-528l-35-94 36-32c63-58 78-110 86-286 5-126 11-171 33-244 15-48 27-105 27-125 0-62-28-127-76-174l-44-44 48-26c26-15 52-27 58-27 5 0 59 28 120 63m-285 83c46 27 79 79 79 124 0 20-14 76-31 126-30 83-32 99-33 234-1 112-5 151-17 174l-16 28-39-58c-23-34-61-74-92-96-105-72-301-137-465-154l-68-7 3-41 3-41 65-12c36-7 92-12 126-13 67 0 99-16 89-43-14-36-123-45-257-21-36 6-38 5-38-19 0-22 14-31 138-87 245-111 460-148 553-94m-1561 3c99 22 190 55 313 113 78 37 87 44 87 68 0 27-1 27-42 19-24-4-80-8-124-9-65 0-86 4-105 18-42 35-21 47 111 60 145 14 160 21 160 67 0 31-3 35-32 39-144 21-197 32-292 64-158 52-296 149-328 231l-10 26-20-40c-18-34-21-60-23-170-1-117-4-139-33-228-37-113-40-157-12-202 46-75 173-95 350-56m746 149c24 16 34 55 34 136 0 94-11 129-46 144-41 19-117 24-164 10-59-18-80-57-80-149 0-104 7-128 44-138 38-11 197-14 212-3m-379 340c-169 153-351 251-484 260-69 4-72 4-66-16 18-70 148-161 303-213 74-24 229-62 282-68 4-1-11 16-35 37m621-18c194 35 326 89 414 168 35 32 68 79 68 98 0 13-154-4-195-21-78-32-161-79-245-136-83-58-171-128-159-129 3 0 56 9 117 20m-439 89c-4 14-20 62-34 106-61 188-99 397-111 607l-7 117-77-81c-88-92-85-91-201-44l-59 24 6-42c10-66 73-243 124-351 65-137 136-240 219-317l69-66 40 11c37 10 39 12 31 36m328 27c99 90 126 127 200 275 44 90 148 368 139 376-1 1-37-9-79-22-43-14-84-25-91-25s-47 35-89 77l-77 77v-41c0-69-30-281-57-403-20-92-73-277-100-347-4-9 39-36 66-42 2-1 42 33 88 75m-193 139c50 171 84 354 100 551 8 95 19 181 25 193 8 13 21 21 39 21 21 0 47-21 122-101l95-101 75 27c126 46 146 50 164 36 21-18 20-46-5-155-23-96-73-231-133-356-19-41-34-75-33-77 2-1 43 14 92 34 71 28 109 37 176 41l87 5 27 71c40 106 43 114 64 201 43 172 54 429 26 601-69 424-345 724-745 806-139 29-358 22-484-16-160-48-270-112-386-222-213-204-310-450-310-789 0-221 29-385 97-558l35-87h53c57 0 136-22 229-64 35-16 56-22 53-14-3 7-28 63-56 124-107 238-159 458-116 494 19 16 51 9 154-31l84-34 96 103c76 80 102 102 123 102 16 0 31-7 36-18 5-9 15-91 22-181 14-195 31-319 65-461 36-151 77-282 86-273 4 4 23 62 43 128"/><path d="M4671 1221c-33 13-73 40-100 68-56 56-105 143-96 170 3 11 34 44 67 73 74 64 186 197 253 301 44 69 53 77 80 77 75 0 194-93 246-191 20-38 24-59 24-144 0-93-2-105-33-167-37-75-104-143-179-178-70-34-189-38-262-9m252 97c137 74 189 264 107 392-32 50-102 110-128 110-14 0-51-38-52-53-1-21-122-171-201-248l-88-85 18-30c69-114 223-152 344-86m-2980-37c-75 29-155 106-195 187-30 60-33 75-32 152 0 101 28 172 94 244 46 49 147 106 190 106 32 0 45-14 90-95 49-90 104-160 207-267 51-53 93-103 93-112 0-54-97-168-176-207-69-34-197-38-271-8m232 83c49 23 92 61 113 101 9 17 2 29-59 90-79 80-142 162-196 254-20 35-43 65-50 68-19 7-77-32-122-83-73-83-88-185-43-287 63-143 223-207 357-143m682 830c-65 35-98 121-76 195 38 129 196 137 251 14 54-121-68-267-175-209m1111 2c-62 33-86 143-47 214 27 47 66 70 122 70 76 0 127-58 127-145 0-55-18-93-60-129-36-30-98-35-142-10m-640 264c-205 33-378 118-513 254-149 150-204 371-140 561 33 99 64 153 133 226 100 108 243 187 418 231 121 30 370 32 489 4 227-53 403-165 506-322 60-93 82-162 87-282 4-93 1-113-23-188-32-100-73-166-145-240-104-105-247-183-415-225-92-23-306-33-397-19m249 71c215 24 363 89 490 215 136 133 190 277 164 432-37 222-222 402-485 471-199 52-401 48-577-12-129-45-199-87-284-172-148-148-196-323-136-498 76-221 336-402 623-436 104-12 100-12 205 0"/><path d="M3387 2660c-160 25-234 107-193 215 27 69 127 148 229 179 16 5 17 17 15 112l-3 107-38 30c-71 58-185 35-261-54-20-24-36-46-36-50 0-5-9-13-19-19-15-7-24-5-41 8l-22 18 20 40c26 50 86 110 137 136 43 23 143 34 198 24 19-4 51-17 70-30l35-24 57 29c76 38 166 40 240 5 89-42 177-155 154-198-15-28-45-21-68 16-85 136-260 176-325 73-11-17-13-46-9-124l6-103 35-10c81-22 182-115 200-185 21-79-27-152-117-179-66-19-192-27-264-16m225 91c86 19 98 64 37 133-91 104-199 116-306 35-63-47-89-90-73-119 32-60 192-82 342-49M1413 6321c-105 31-123 199-31 291 48 48 81 61 134 53 67-10 104-62 104-147 0-124-107-226-207-197m90 101c62 60 57 160-8 166-67 7-122-111-81-173 22-34 48-32 89 7m257-90c-129 89-67 324 87 330 169 6 178-278 10-341-41-16-60-14-97 11m105 80c14 13 30 40 35 61 9 44-4 105-26 114-50 19-109-44-107-115 1-75 47-103 98-60m3254-79c-83 44-124 173-81 256 24 49 62 73 111 73 99-2 172-106 156-223-8-57-35-96-81-115-45-19-54-18-105 9m96 77c37 40 13 142-41 170-53 29-96-29-75-102 14-44 54-88 81-88 9 0 25 9 35 20m275-77c-68 36-105 102-105 186 0 78 25 123 80 141 130 43 264-139 197-269-37-73-102-95-172-58m106 94c14 33 14 40-1 79-19 49-56 84-91 84-63 0-57-139 8-184q58.5-40.5 84 21m-4432 193c-80 52-74 177 11 260 28 28 44 34 90 38 53 4 57 3 90-32 31-33 35-44 35-89 0-66-30-127-80-162-52-36-106-42-146-15m104 76c29 20 52 66 52 104 0 23-6 33-25 40-35 13-68-2-94-43-48-79-2-150 67-101m4462-83c-58 27-89 58-108 108-66 177 117 277 232 127 38-51 52-123 33-170-27-64-97-93-157-65m78 79c27 27 3 116-37 138-11 5-33 10-50 10-54 0-55-72-2-129 30-32 68-40 89-19m-623 62c-73 19-114 38-175 85-65 49-111 105-144 176-35 72-45 126-46 226 0 76 3 93 31 147 18 36 50 79 80 106 168 151 446 75 583-158 71-121 89-289 42-391-33-74-88-130-160-165-73-35-143-44-211-26m181 94c52 26 108 89 125 138 20 59 15 169-11 237-30 79-103 174-170 219-72 50-144 65-223 49-236-50-266-370-52-569 104-98 230-126 331-74m-3742-77c-68 26-132 84-169 150-25 46-30 68-33 145-7 152 45 280 155 385 160 153 372 166 506 33 66-67 88-119 94-229 7-110-15-190-77-289-52-83-108-132-199-178-68-34-83-38-151-37-50 0-92 7-126 20m249 88c234 114 313 454 138 588-118 90-274 63-396-69-154-166-162-403-16-507 83-59 171-63 274-12"/></svg>