<svg xmlns="http://www.w3.org/2000/svg" fill="#3f3d3d" viewBox="6322 4356 4163 3318"><path d="M8307 4470c-142 36-237 149-238 283 0 34 4 74 10 89 9 24 4 34-42 100-60 83-160 228-299 433-159 235-297 439-648 955-589 866-668 988-676 1037-12 81 40 168 124 209 26 12 58 18 107 17 59-1 111-14 325-83 140-45 279-90 308-100 49-18 53-18 59-2 11 32 54 82 84 97 48 25 113 22 158-8 53-35 79-81 88-157l8-64 390-128c215-71 752-248 1195-394s834-275 870-286c138-44 192-86 247-191 24-45 28-64 28-138v-87l-72-143c-125-251-269-448-492-669-204-203-369-328-617-468-348-195-777-336-917-302m168 105c92 19 305 92 445 151 203 87 458 241 635 383 236 189 502 496 633 731l31 55h-72c-52 0-85 7-119 22-54 25-129 97-148 142-7 17-16 31-21 31-22 0-146-187-206-310-58-118-75-143-137-205-59-57-98-84-211-144-178-94-228-127-327-218-207-190-255-213-559-272-128-25-221-69-243-115-55-117 51-260 197-265 15-1 61 6 102 14m-254 405c40 18 120 40 214 59 83 16 175 39 206 50 70 27 153 84 247 172 111 103 195 163 317 225 225 114 276 163 374 357 56 113 98 176 219 330 25 31 43 59 41 61s-346 117-764 256-776 261-797 271c-20 10-63 42-95 70-82 73-100 79-240 76-112-1-123 0-175 26-121 59-171 159-194 381-5 50-11 65-39 93-40 40-49 41-84 5-23-22-29-39-34-96-8-84-38-136-97-166-61-31-110-25-296 35-93 31-238 78-322 105-84 28-159 50-166 50-12 0 244-393 278-429 12-11 24-9 77 12 174 69 359 28 495-109 73-73 104-143 104-233 0-73-14-114-56-170-41-53-82-82-150-107l-51-18 57-80c51-74 305-447 389-573l35-52 27 48c55 96 152 150 285 158 183 12 357-76 435-218 31-58 34-72 34-144 0-69-4-86-27-126-57-98-155-151-288-157-47-2-104 1-127 6-32 7-41 7-36-2 14-24 134-196 137-196 2 0 32 13 67 30m37 265c60 18 119 66 138 112 62 148-103 327-312 341-169 11-298-84-281-209 6-48 78-157 124-189 94-66 223-87 331-55m1972 763c107 54 107 213-1 306-30 25-75 45-187 81-81 26-410 134-732 240-322 107-718 237-880 291-162 53-394 130-514 170-121 41-221 72-224 70-2-3 9-28 25-57 18-35 43-62 72-81 43-27 50-28 168-28 149 0 174-9 285-96l80-63 742-246c407-135 771-257 809-271 74-28 73-27 80-130 10-127 82-204 192-204 28 0 65 8 85 18m-2920 410c59 36 90 91 90 160 0 29-6 68-14 87-24 56-100 129-174 166-59 29-77 33-147 34-76 0-185-27-185-46 0-7 232-356 276-415 23-31 25-32 66-23 24 6 63 22 88 37m-16 827c14 13 26 30 26 38 0 12-376 143-570 198-104 30-180 22-218-24-10-12 1-18 66-35 42-12 196-62 342-111s279-90 296-90c20-1 41 8 58 24"/><path d="M8702 5412c-7 7-12 23-12 36 0 19 11 28 59 49 45 20 63 34 80 64 16 27 29 39 45 39 87 0 38-126-67-176-58-26-87-30-105-12m403 316c-107 9-250 76-317 148-100 109-102 256-4 362 112 121 327 146 512 58 87-41 141-89 178-156 118-217-79-438-369-412m163 107c29 9 69 30 89 48 165 145-16 377-293 377-165 0-284-107-260-236 13-69 115-156 221-190 56-18 181-17 243 1"/><path d="M9145 5904c-30 45 16 87 67 62 26-13 35-50 18-72-20-23-67-17-85 10m-249 125c-38 41 5 102 54 78 28-14 39-59 19-83-16-20-53-17-73 5m293 62c-27 27-21 61 14 77 24 12 31 11 53-2 31-21 32-60 2-80-30-21-44-20-69 5m-1521-152c-90 18-169 116-126 159 21 21 38 14 84-33 34-36 50-45 77-45 33 0 67-24 67-48 0-17-30-42-48-41-9 1-34 5-54 8m345 105c-122 30-247 123-291 218-28 61-29 156-3 214 58 127 232 203 403 175 241-38 414-241 355-415-54-159-255-242-464-192m242 97c67 25 113 62 131 106 81 193-243 395-472 294-85-38-126-91-126-165 0-55 14-87 58-135 47-53 93-81 168-102 85-24 173-24 241 2"/><path d="M7978 6201c-21 12-24 59-6 77 19 19 65 14 82-9 33-47-25-98-76-68m254 95c-47 33-3 105 52 85 32-12 44-56 21-81-22-24-43-25-73-4m-287 124c-15 16-17 26-9 48 8 23 15 27 49 27s41-4 50-29c8-24 6-31-14-47-30-24-53-24-76 1m716-16c-54 41-65 59-51 86 15 28 42 25 82-7 67-56 79-78 56-101-19-19-39-13-87 22m-627-1093c-17 19-17 23-3 47 27 50 99 34 99-22 0-47-61-64-96-25m208 115c-12 8-22 26-22 39 0 25 33 55 61 55 21 0 49-32 49-57 0-23-29-53-51-53-8 0-25 7-37 16m-298 97c-31 27-27 62 11 79 55 25 102-52 53-86-29-21-32-20-64 7m-712 1019c-35 35 8 99 55 82 37-13 50-37 35-68-9-20-19-26-45-26-18 0-38 5-45 12m-228 163c-15 23-15 27 0 50 29 44 96 24 96-29 0-50-67-65-96-21"/></svg>