<svg xmlns="http://www.w3.org/2000/svg" fill="#3f3d3d" viewBox="7354 11213 5871 3548"><path d="M12275 11335c-104 23-154 42-224 83-81 49-188 158-256 264-99 152-130 201-144 226l-13 24-42-40c-56-54-101-75-166-76-48-2-64-8-130-52-332-224-819-358-1235-341-272 11-449 46-740 146-95 33-114 41-235 99-330 158-677 466-897 796-37 56-98 162-136 236-65 128-71 136-115 159-64 32-82 49-104 99-14 31-19 60-16 100l3 57-67 22c-36 12-111 29-165 38-108 18-140 33-149 70-10 39 15 83 70 128 145 114 398 159 614 107 46-11 86-20 90-20 18 0-93 56-181 92-54 21-116 50-137 64-34 23-130 150-130 173 0 4-32 44-70 87-81 91-107 151-90 213 25 93 117 139 296 148 362 18 661-125 883-422 25-33 48-64 52-68 4-5 62 5 130 21 235 57 447 78 709 69 258-9 444-35 690-97 62-15 291-90 313-102 26-13 34-2 14 20-26 29-72 138-116 278-35 114-51 146-116 245-122 184-149 256-133 348 20 113 137 152 303 101 86-27 268-114 355-171 142-92 325-264 425-399 60-80 145-221 146-242 0-7 10 14 23 48 29 78 57 118 100 138 122 58 240-47 340-303 84-212 119-431 97-599-16-130-75-274-139-344-14-15-24-29-21-31 38-32 189-82 357-117 328-70 456-125 587-254 48-48 90-100 103-127 15-34 33-54 66-73 59-35 71-73 63-216-13-217-102-380-275-501-143-101-399-146-587-104m341 111c112 32 173 65 246 133 102 94 155 209 167 360 10 120 9 122-57 148-111 43-180 55-286 51-84-3-110-9-158-32-47-22-61-25-78-16-28 15-23 57 10 81 52 39 138 60 241 60 53 0 116-5 139-11s44-9 47-6c8 8-45 67-92 103-105 80-232 131-450 178-262 57-329 81-530 189-121 65-166 76-211 53-63-33-154-138-154-178 0-10 16-78 36-151 77-284 74-275 118-316 104-96 165-166 210-243 125-211 225-316 361-377 125-57 301-67 441-26m-2148 115c107 20 113 23 108 43-4 11-22 81-40 154-19 73-40 139-46 147s-33 26-58 41c-48 27-239 154-324 214l-46 33-74-31c-40-17-128-51-194-76-202-75-210-79-222-134-5-26-21-92-35-147s-28-119-31-142c-5-42-5-42 32-53 63-17 283-60 362-70 130-16 439-5 568 21m287 65c33 9 78 25 100 34 22 10 51 22 65 25 89 25 370 182 370 207 0 5-11 24-24 41-38 50-61 103-106 239-23 71-44 128-47 128-2 0-30-20-61-43-53-41-290-214-338-247-12-8-47-33-78-54-66-46-65-28-17-211 40-153 38-147 58-141 10 3 45 12 78 22m-1321 76c4 29 23 115 42 191s31 144 27 150c-4 7-43 57-87 113-118 146-123 153-169 216-27 36-49 58-62 58-80 1-461-32-471-41-26-21-136-210-131-223 3-8 48-51 99-96 112-99 340-252 460-309 75-36 260-109 279-110 4-1 9 23 13 51m2055 238c51 25 58 47 27 79-44 48-56 77-112 291-72 272-164 440-331 608-79 78-264 222-286 222-3 0-31 15-64 33-143 81-411 178-653 236-284 69-479 91-790 91-325 0-550-35-850-133-207-68-336-133-430-215-84-75-99-144-38-186 39-28 73-19 166 42 108 72 165 102 267 141 414 158 937 195 1436 101 202-38 414-95 524-140 162-67 213-91 288-133 238-133 403-305 504-525 47-103 45-99 92-245 84-262 141-323 250-267m-784 165c61 44 151 109 200 144 50 36 111 80 137 99l46 35-23 52c-40 91-94 165-188 260-114 113-189 167-337 239-63 31-132 65-153 76l-37 21-9-23c-5-13-30-91-55-173-26-83-65-207-87-276-38-120-89-303-86-305 1-1 80-54 176-118 96-65 190-126 209-136 41-22 20-33 207 105m-945 54c91 35 188 72 216 84l52 22 28 100c15 55 37 131 50 170 12 38 51 162 87 275s67 213 69 224c4 24-47 42-267 95-191 47-493 91-621 91-22 0-29-34-50-235-10-99-54-448-59-473-4-18 16-51 92-150 155-203 215-274 227-269 6 2 85 32 176 66m-1214 118c15 27 45 73 66 104 35 50 38 59 28 85-9 24-78 184-180 419-9 22-28 66-41 99-13 32-29 60-35 63-13 5-140-64-231-125-31-20-53-42-53-53 0-49 172-345 279-479 49-61 133-160 137-160 2 0 15 21 30 47m537 230c88 5 98 8 102 27 5 18 61 465 80 628l6 58h-58c-165 0-407-34-569-81-129-37-177-57-171-72 17-42 153-361 171-402 13-28 36-79 51-114l29-64 130 7c72 4 175 9 229 13m2396 243c31 31 80 67 109 80l53 25-52 73c-29 39-56 72-60 72s-14-9-22-20c-8-12-36-43-61-70-51-54-88-65-106-31-13 26-6 43 56 126 57 76 124 198 124 224 0 10 6 23 13 29 8 9 12 53 12 145 0 155-19 234-90 382-62 130-136 236-240 344-178 184-401 333-602 400-109 37-183 21-183-37 1-44 42-130 108-229 82-121 112-185 152-318 18-61 44-133 58-160 27-55 95-148 153-210 85-91 118-158 119-243 0-57-28-127-62-150-17-12-11-19 69-81 138-107 240-226 328-385l39-69 15 24c8 13 40 49 70 79m420 67c102 124 140 322 107 551-21 141-91 352-141 427-14 20-25 40-25 44 0 18-72 71-95 71-33 0-47-24-90-157-32-100-35-117-25-150 6-21 14-91 17-155 6-123-7-209-46-301l-17-41 71-100c40-56 80-115 90-132 15-27 97-92 117-94 3 0 20 17 37 37m-3935 432c33 26 88 63 120 81 70 40 66 43-70 61-94 12-178 7-264-18-59-17-170-70-170-82 0-4 33-13 73-20 41-7 112-26 158-41 46-16 86-29 88-29 2-1 31 21 65 48m2928-2c23 39 31 93 19 125-24 63-119 117-341 193-192 65-215 71-370 104-213 44-396 62-617 62-217-1-337-12-503-46-169-34-194-47-151-77 15-10 52-11 177-5 328 18 782-30 1084-113 203-56 420-140 580-224 47-25 90-45 95-45 6-1 18 11 27 26m-2412 245c36 11 126 34 200 50 74 17 137 32 139 34 5 4-96 148-174 247-48 60-175 162-256 206-158 86-360 125-523 103-94-12-141-32-151-62-8-25 6-50 70-126 29-34 69-91 89-127 46-82 85-120 144-143 48-18 177-79 222-105 13-8 52-35 85-62 38-30 66-45 75-41 8 4 44 16 80 26"/><path d="M12381 11715c-35 30-55 83-46 125 10 45 67 90 115 90 30 0 48-8 74-30 57-51 60-123 6-180-38-40-104-43-149-5"/></svg>