<svg xmlns="http://www.w3.org/2000/svg" fill="#3f3d3d" viewBox="5092 638 4341 4402"><path d="M8351 731c-86 25-173 108-226 215-47 94-87 258-124 509-56 371-115 597-205 787l-37 77-73-40c-249-134-605-121-911 34-298 150-585 453-585 618 0 40 5 55 29 81 55 62 103 47 343-107 274-176 447-243 657-252l124-6-5 51c-10 104-107 250-288 436-74 76-171 167-215 203-174 140-506 342-765 466-162 77-339 184-475 286-168 126-205 151-290 194-38 19-77 43-87 53-40 46-46 153-12 268 28 99 42 108 274 184 290 95 406 116 655 116 190 0 269-10 473-60 328-80 815-330 1080-553 39-34 72-58 72-55 0 11-68 131-152 266-103 166-121 209-122 283-2 110 64 175 176 175 146 0 401-140 607-335 354-334 545-724 529-1078l-4-96 23 37c35 57 80 206 97 322 8 58 18 181 21 275 7 186 19 241 62 275 81 64 190-26 262-215 66-171 94-327 93-515-1-145-14-229-56-352-44-130-107-236-194-329-64-68-166-149-204-161-8-3 1-47 30-149 82-283 112-491 113-769 0-202-14-327-57-500-98-395-310-652-537-649-34 0-77 5-96 10m224 114c170 99 318 416 366 785 14 113 14 360 0 490-26 226-98 511-186 735-35 90-127 289-141 304-1 2-30-13-63-34-162-98-410-145-600-115-35 6-68 12-74 13-5 1-15-27-23-62-21-101-66-186-133-250l-59-57 70-109c145-230 252-493 302-747 13-68 38-217 56-332 49-323 92-468 170-564 79-98 206-121 315-57M7492 2304c100 25 218 78 218 98 0 10-106 181-130 211-4 4-24 0-45-9-111-46-314-57-474-24-176 36-326 104-548 248-214 138-240 148-230 87 13-81 158-261 304-376 139-111 339-209 498-242 114-25 295-22 407 7m67 409c77 38 141 98 178 168 24 47 28 65 28 144v90l-76 115c-322 489-781 857-1320 1059-269 100-604 171-878 185-20 1-28-9-52-69-16-39-29-71-29-72s17-12 38-24c20-12 97-67 170-121 179-133 258-181 499-304 474-243 745-425 973-654 201-202 308-367 345-533 5-26 9-28 33-22 15 3 56 20 91 38m1461 287c99 98 162 208 204 352 31 106 49 269 41 357-27 285-159 627-219 570-5-5-13-88-18-186-9-214-22-332-48-436-48-192-133-329-264-423l-30-21 23-38c21-37 113-232 132-282l9-24 42 23c24 12 81 61 128 108m-711 120c277 79 401 224 401 473 0 245-122 532-334 784-168 201-346 346-536 437-184 89-260 79-260-34 0-48 20-90 130-270 241-392 360-734 360-1030 0-160-39-289-105-350l-27-25 34-7c63-13 259 0 337 22m-411 76c57 63 73 118 79 254 6 132-15 265-67 431-35 114-62 154-170 248-367 324-861 571-1325 663-146 29-424 31-560 5-97-20-260-64-340-94l-49-18 3-55c1-30 5-58 7-62 3-5 31-8 62-8s104-7 162-14c515-69 968-242 1354-519 283-202 570-510 736-788 29-49 57-89 61-89s25 20 47 46M5337 4392c25 36 47 127 46 192-1 38-4 71-7 73-2 2-18-3-35-11-36-19-50-59-58-165-5-64-3-76 12-88 23-16 30-16 42-1"/><path d="M8710 1455c-10 12-10 37-1 119 14 129 15 398 1 513-27 222-82 434-166 645-61 153-62 173-8 173 26 0 33-7 61-65 45-92 130-353 158-487 60-284 71-616 29-851-10-55-48-79-74-47"/></svg>