<svg xmlns="http://www.w3.org/2000/svg" fill="#3f3d3d" viewBox="10412 12696 1645 2338"><path d="M11127 12800c-139 25-242 123-278 264-11 46-11 46-48 40-57-9-117 12-168 59-79 73-119 179-129 347-12 180 34 348 146 537 33 56 60 108 60 115s-15 44-34 81c-63 125-91 295-71 442 8 67 20 89 64 113 84 48 434 135 597 149 85 7 109-3 133-57 10-22 29-48 43-59s30-33 36-48c28-68 64-247 69-342l6-104 40-36c141-127 319-508 368-786 16-92 7-267-16-325-48-118-135-208-267-276-170-86-418-138-551-114m226 64c103 20 250 70 323 111 177 99 254 241 240 440-18 267-202 697-360 843-37 34-53 42-85 42-105 0-449-77-616-138-70-25-85-36-118-78-57-75-134-238-157-334-39-168-20-386 46-497 43-74 122-111 192-89 20 7 22 15 24 74 3 93-2 161-13 190-7 19-6 29 6 41 40 40 65-57 64-248 0-166 14-215 85-287 38-37 68-57 102-68 63-19 172-20 267-2m-475 1362c177 59 469 124 561 124 59 0 65 9 57 87-14 148-66 347-93 357-8 3-60-1-116-9-55-8-105-15-110-15-6 0-3-8 6-18 21-23 56-151 63-233 5-50 3-74-10-101-21-43-53-58-196-93-206-51-290-81-290-104 0-16 8-31 17-31 2 0 52 16 111 36m-64 91c38 13 115 35 170 49 201 50 216 59 216 124 0 54-42 204-64 229-19 21-27 23-81 18-104-9-401-105-412-134-6-14 29-193 53-274 12-41 18-49 32-44 9 4 48 18 86 32m-47 403c135 48 330 92 560 126 33 5 33 5 16 31-16 24-20 25-72 19-189-22-553-118-592-157-21-21-26-49-8-49 6 0 49 14 96 30"/></svg>