<svg xmlns="http://www.w3.org/2000/svg" fill="#3f3d3d" viewBox="19217 5402 4183 4813"><path d="M22995 5549c-34 15-88 54-122 85l-62 57-15-30c-33-62-108-95-166-71-37 15-85 69-106 118-18 44-44 162-44 202v30l-35-17c-70-33-147 18-175 116-6 20-15 97-20 171-11 172-22 220-73 322-38 75-148 250-154 244-11-10 68-213 108-282 101-170 112-227 59-288l-30-34 25-43c66-118 21-240-84-226-38 5-39 4-46-32-9-52-45-119-78-147-34-28-86-32-127-8-34 21-69 92-77 155l-6 48-42-6c-107-14-146 93-80 220 19 37 23 53 14 56-7 2-23 15-36 29-43 47-23 120 66 241 72 98 92 143 98 226 5 58 1 88-17 146-25 85-66 169-81 169-5 0-27-9-47-19-75-38-184-65-267-65-214-1-394 106-597 354-138 170-539 755-728 1065-40 66-109 178-153 250-293 478-503 892-568 1120-30 105-32 234-5 287 70 143 268 91 669-175 373-248 884-662 1502-1217 392-352 552-534 625-708 76-181 61-371-45-540-25-39-45-74-45-77 0-12 140-101 203-128 62-27 84-31 162-31 90-1 90-1 209 57 124 61 167 74 211 63 35-9 65-41 65-71s-3-30 60-5c28 11 74 20 101 20 45 0 55-4 86-35 29-29 34-41 31-68-3-17-8-40-13-49-5-13-2-20 11-24 111-40 164-91 164-159 0-77-60-124-177-140-52-7-53-7-53-42 0-50-45-93-97-93-59 0-104 16-158 58l-50 38-35-23c-25-18-42-22-65-17-56 12-119 52-197 122-53 49-101 82-155 107-43 19-87 41-98 47-32 17 30-46 115-117 128-106 239-166 348-186 85-16 204-58 239-85 65-50 76-104 32-166-23-31-24-29 51-48 136-35 250-136 250-220 0-54-65-120-117-120-13 0-23-2-23-6 0-3 18-31 40-64 55-81 75-135 75-205 0-143-110-203-250-136m146 77c39 47-17 203-106 297-71 76-59 117 35 117 65 0 100 19 100 56 0 48-122 109-292 144-59 12-88 30-88 56 0 15 16 31 70 67 80 53 30 98-157 141-115 26-230 76-319 137-84 56-168 137-336 321-89 97-166 174-170 171-12-7 8-35 119-176 173-218 300-437 323-557 6-30 15-114 19-185 9-134 26-200 56-211 11-5 31 7 59 35 45 44 79 52 95 22 6-10 15-69 21-130 12-123 37-205 75-241 21-20 28-22 49-12 25 11 39 44 51 123 8 55 39 58 84 10 20-21 59-62 86-91 93-98 189-138 226-94m-1194 210c17 29 23 55 23 103 0 98 32 124 94 76 90-68 88 17-3 138-64 84-52 134 28 121 37-6 41-5 41 15 0 23-40 103-93 188-18 28-43 84-56 125-64 206-106 320-142 385-38 69-59 90-59 60 0-7 4-17 9-22 20-21 71-169 82-237 8-54 8-90-1-145-14-91-37-142-96-223-101-138-106-155-35-147 39 5 52 2 65-12 25-28 19-46-30-102-48-54-74-103-74-139 0-27 18-25 64 6 32 22 42 24 62 15 13-6 24-19 25-28 0-10 2-29 3-43s3-45 4-70c2-49 35-114 55-107 7 2 22 21 34 43m1053 831c0 5-9 23-20 41-22 36-26 77-9 88 6 3 50 6 98 5 91-2 161 17 161 43 0 32-72 69-155 81-27 4-56 12-62 17-22 18-14 53 17 83 17 16 30 37 30 48 0 17-5 18-42 12-24-4-73-23-110-41-78-39-113-43-128-13-9 15-8 31 4 66 9 26 16 48 16 50 0 13-53-6-162-58-113-54-135-61-206-66-47-3-101-1-133 7-74 17-201 79-274 133-33 25-62 44-64 41-9-9 66-78 132-121 38-25 133-76 210-113 136-65 189-99 287-190 51-47 96-74 110-65 6 3 10 26 10 50 0 42 10 55 45 55 8 0 31-19 52-41 63-69 132-119 164-119 16 0 29 3 29 7m-1536 348c190 40 432 218 536 395 114 193 100 367-46 591-46 70-337 379-358 379-5 0-43-30-84-68-143-128-351-295-399-321-30-16-53-4-53 28 0 30 37 69 139 146 108 82 316 265 316 279s-172 174-399 370l-137 119-37-35c-20-19-82-72-136-117-111-90-150-104-162-54-6 21-2 31 18 47 177 148 248 210 248 216 0 4-28 29-62 56-35 27-115 92-178 144-63 53-146 121-185 150-38 30-72 57-75 61-3 3-22 17-44 32l-39 26-110-99c-61-54-125-107-144-117-30-16-34-16-49-1-30 30-9 60 116 163 66 54 120 102 120 106 0 15-327 244-461 322-207 121-344 170-383 138-37-31-28-161 21-306 31-93 86-225 94-225 4 0 33 20 65 45 71 55 102 65 121 40 7-11 13-25 13-32s-36-40-80-74c-44-35-79-65-77-68s11-23 20-44c37-81 331-604 352-626 5-4 232 165 240 179 13 20 55 11 67-15 10-22 8-29-18-56-16-17-74-64-129-106s-101-79-103-84c-3-8 207-349 310-502 42-62 63-86 71-79 7 5 53 40 102 78 50 38 127 99 173 136 85 69 110 79 132 53 31-37-7-75-272-275-85-64-96-75-87-92 47-88 457-648 474-648s222 143 344 239c63 50 122 91 131 91 25 0 43-26 36-52-9-36-373-319-439-341-18-6 5-31 79-83 107-77 212-117 319-123 11 0 51 6 89 14"/></svg>