<svg xmlns="http://www.w3.org/2000/svg" fill="#3f3d3d" viewBox="22860 12407 5380 2608"><path d="M26960 12520c-36 5-200 36-365 69-508 101-795 133-1190 133-158 0-333-6-445-16-191-17-252-25-600-76-230-33-385-38-495-15-143 30-282 121-341 221l-24 41-83 6c-102 7-175 31-251 82-103 68-164 164-193 305-33 155 20 320 139 437 66 64 156 116 221 129 37 6 39 8 33 38-27 130-28 162-13 251 25 138 79 239 186 346 200 199 506 306 1147 398 279 40 402 51 699 58 319 8 712-18 945-61 41-8 118-22 170-32 305-56 633-155 837-254 238-114 368-241 445-434 32-78 33-86 33-221 0-115-3-146-18-173-17-31-17-33 0-38 69-21 162-76 212-124 101-98 151-213 151-353 0-141-38-243-128-339-102-109-260-170-388-150l-51 9-49-55c-128-145-350-215-584-182m270 106c83 18 159 58 212 110 33 32 37 39 23 47-9 5-103 30-210 57-190 48-194 48-241 34-67-21-194-14-255 13-25 11-61 34-81 52-33 29-50 34-175 56-76 13-205 31-288 41l-150 17-45-23c-55-28-176-38-247-21-26 7-73 28-104 48l-58 35-313-5c-305-5-315-6-383-31-76-28-149-33-220-15-33 8-71 8-147 0-145-17-592-88-658-106-30-8-84-16-120-19s-89-10-119-17l-53-11 38-40c95-99 223-150 383-152 120-1 179 5 466 48 408 62 523 71 905 71 304 0 447-7 625-30 203-27 423-65 720-125 105-21 204-40 220-43 73-10 211-6 275 9m526 225c118 21 217 99 273 214 105 212-9 474-239 550l-51 17-65-61c-118-111-229-147-423-138-129 7-171 14-321 60-690 209-1420 272-2110 182-58-8-462-75-500-83l-35-8 47-7c71-10 166-57 270-135 119-88 158-112 184-112 30 0 105 53 144 102 70 87 150 164 202 195 98 59 212 75 308 42 88-30 153-86 271-231 140-171 157-174 299-40 108 102 139 125 200 156 141 72 293 52 411-52 25-23 76-90 114-149 144-228 146-229 333-109 109 70 179 98 254 104 61 4 72 2 107-21 75-50 88-154 28-222-12-14-58-40-102-58s-100-46-125-62l-45-28 170-43c143-37 287-68 331-73 6-1 37 4 70 10m-731 124c22 10 58 30 82 46 23 16 44 29 46 29 3 0 31 16 62 35 32 19 79 42 104 51 25 10 54 24 64 32 39 33 5 92-53 92-34 0-153-58-262-127-92-58-142-72-212-59-47 9-100 64-167 175-128 212-193 260-338 249-78-6-144-46-277-169-83-77-114-99-157-113-48-15-57-15-97-1-54 19-88 51-190 176-91 112-127 143-195 175-72 34-143 32-220-5-69-34-88-51-203-178-145-160-238-181-372-85-25 17-76 54-115 82-146 105-242 130-346 91-75-28-128-77-224-204-49-65-96-115-123-132-24-15-47-37-51-49-21-54 25-86 87-60 51 21 81 52 179 181 99 133 146 167 226 165 62-1 109-25 242-122 136-99 190-123 276-122 120 0 186 47 374 259 20 23 61 54 91 69 100 49 156 20 305-157 119-142 158-175 228-196 111-32 201-3 311 98 214 198 268 222 358 161 49-32 74-65 148-187 100-167 189-230 314-221 36 3 83 12 105 21m-3418 17 83 12-6 46c-8 63 20 118 81 156 30 19 73 65 126 137 78 104 131 156 194 191 27 15 27 16 5 11-14-4-86-9-160-12-107-4-148-2-200 12-104 27-193 79-260 153l-58 64-38-12c-183-60-295-187-310-351-17-175 98-355 256-404 57-17 179-19 287-3m688 108c110 17 202 33 204 36 9 9-169 131-204 140-45 11-78-10-148-97-84-103-93-118-69-113 9 2 107 17 217 34m2245-5c0 13-80 135-109 167-27 30-61 35-98 15-29-16-153-126-153-136 0-5 39-11 88-15 48-4 119-13 157-21 79-14 115-18 115-10m-1202 95c157 1 194 3 182 13-8 7-39 41-69 77-107 128-122 130-228 27-87-84-128-135-99-124 10 4 106 7 214 7m2063 344c123 26 207 83 265 177 115 189 70 424-116 609-91 91-198 156-363 222-520 208-1280 322-1912 289-705-38-1340-178-1578-347-121-86-218-224-247-352-20-86-9-199 26-268 38-78 128-168 197-199 136-60 242-58 582 10 559 111 735 130 1215 130 391-1 513-10 802-61 195-34 321-63 608-139 331-89 395-97 521-71"/></svg>