<svg xmlns="http://www.w3.org/2000/svg" fill="#3f3d3d" viewBox="22710 10123 4633 4607"><path d="M24983 10222c-10 13-52 90-163 303-83 157-166 291-193 310-31 22-95 18-153-9-51-24-257-147-404-241-135-87-139-88-166-70-22 14-24 22-24 98 0 45 5 165 11 267 13 211 2 348-28 383-54 60-149 65-628 32-98-7-113-6-128 9-35 35-31 43 176 378 157 253 176 312 120 364-45 42-176 118-368 216-207 104-245 129-245 162s15 43 210 143c326 168 362 190 407 242 50 58 25 119-176 447-77 127-141 241-141 252 0 12 11 29 25 38 23 15 40 16 178 5 84-7 226-13 317-14 145-1 170 1 205 18 74 37 76 48 70 385-3 162-8 311-11 332-7 42 20 78 60 78 13 0 70-30 127-67 174-111 200-128 304-190 115-69 186-97 226-88 53 12 102 89 329 520 64 122 67 125 94 125 34 0 56-31 143-200 45-85 98-184 118-220 21-36 47-83 59-104 11-21 37-57 57-80 33-37 41-41 82-39 65 2 158 52 499 270 87 55 124 74 145 71 47-5 51-32 41-228-5-96-8-248-6-337 3-184 11-206 84-232 51-19 328-19 524-1 231 21 236 9 94-220-54-85-112-179-131-208-49-75-110-201-117-241-6-32-2-39 47-85 29-28 84-67 122-87 195-99 445-234 466-250 20-15 22-21 14-44-8-22-53-49-240-147-247-129-360-195-389-227-48-53-14-141 159-411 148-233 165-263 165-295 0-45-31-50-213-37-205 15-461 15-507-1-21-8-42-25-55-47-18-32-20-51-20-240 0-113 1-264 3-335 2-72 1-137-3-147-12-31-53-31-100-1-423 272-515 323-583 323-36 0-48-6-80-39-39-40-119-179-242-416-40-77-82-150-93-163-22-24-59-29-74-10m157 373c62 115 127 229 146 253 81 106 171 136 283 93 49-18 217-116 371-216 47-30 93-60 103-66 18-10 19-7 12 63-3 40-7 163-8 273-2 166 1 210 15 256 51 163 159 188 662 152l88-6-59 89c-119 179-145 221-198 329-70 142-75 192-27 264 48 71 124 120 425 274 70 36 129 68 130 71s-65 40-148 82c-277 142-392 221-421 291-8 18-14 54-14 81 0 61 62 187 203 411 53 85 96 155 94 157-1 1-90-1-198-7-211-10-360-1-420 25-47 20-102 83-120 138-15 48-19 226-9 453 3 77 4 143 2 148-2 4-18-4-35-17-60-45-352-222-411-250-135-64-230-41-322 79-38 50-121 189-164 275-18 36-48 94-68 129l-35 63-16-33c-19-38-140-265-156-291-5-9-25-42-44-73-51-86-139-172-185-180-105-20-192 19-515 230-55 36-103 65-108 65-4 0-4-80 0-177 4-98 6-228 4-289-3-96-7-118-30-166-30-62-77-99-148-118-46-13-444-15-531-4-27 4-48 4-48 1 0-4 43-75 96-158 113-178 190-332 200-395 18-123-75-212-376-360-58-29-129-65-159-82l-53-30 153-75c285-141 406-228 431-308 15-51 3-114-38-199-34-71-141-260-153-270-14-12-101-151-101-161 0-8 25-10 88-5 473 33 584 11 649-129 16-36 18-67 16-328l-2-288 42 24c23 13 80 48 127 77 365 228 445 247 559 130 52-53 193-299 280-487 8-18 18-30 21-25 4 4 58 101 120 217"/><path d="M24868 11030c-90 10-260 51-338 82-400 154-722 483-850 868-68 204-91 453-60 655 29 192 118 414 239 595 68 102 238 275 342 347 245 169 483 249 774 260 366 14 689-101 973-347 189-164 332-377 412-616 56-169 73-291 67-484-10-329-113-605-318-856-202-247-488-419-808-484-114-23-322-33-433-20m363 116c189 32 399 117 547 221 98 69 249 225 319 330 216 323 280 681 189 1053-81 328-331 651-639 823-193 109-484 177-686 163-487-36-880-293-1108-726-51-96-77-166-110-298-24-94-27-127-28-267 0-216 33-373 118-555 86-185 251-385 415-503 162-116 376-208 552-237 41-6 82-13 90-15 49-9 260-3 341 11"/></svg>