<svg xmlns="http://www.w3.org/2000/svg" fill="#3f3d3d" viewBox="3225 8002 7236 7028"><path d="M4336 8120c-240 38-503 178-662 353-276 304-369 737-242 1127 51 157 140 301 268 434 137 142 309 247 492 300 649 188 1311-224 1439-894 17-93 14-318-6-415-90-436-406-770-833-882-78-20-126-26-247-28-82-2-176 0-209 5m291 51c157 17 324 74 448 151 58 37 165 120 165 129 0 3-33 9-72 12-89 7-216 46-323 99-44 22-161 96-260 163-249 170-389 235-501 235-50 0-50 1-29-84 80-316 228-558 415-680 30-20 56-36 58-36 1 0 46 5 99 11m-299 71c-153 151-273 381-328 633-16 77-18 80-44 78-42-3-128-46-164-83-46-45-79-115-93-195-22-129-10-155 129-266 137-110 284-182 446-219 137-31 138-30 54 52m1003 300c124 135 232 386 253 589 7 64 6 67-16 72-35 9-248 35-383 48-140 12-1063 25-1131 14l-46-7 7-91c10-154 0-141 117-159 85-13 119-25 212-71 61-30 167-95 236-142 301-210 467-282 653-284 64-1 70 1 98 31m-1645 269c51 102 145 175 247 194l37 7-6 122c-4 66-8 122-9 124-10 12-502-43-518-58-12-11 10-158 39-258 29-101 70-194 122-274l37-57 12 75c7 41 24 97 39 125m1889 601c-36 215-130 411-265 550l-56 58h-90c-178 0-314-54-579-231-250-167-337-208-479-228-38-6-72-14-77-18-4-4-11-56-15-114l-6-105h453c263 0 528-6 629-13 186-13 480-48 489-57 14-14 11 67-4 158m-1900-122c93 11 194 20 223 20 33 0 54 5 56 12 3 7 7 64 10 125 6 113 5 113-17 113-13 0-51 9-85 21-107 36-201 144-221 251l-7 43-35-55c-86-137-149-321-164-484l-8-79 39 7c22 3 115 15 209 26m311 347c67 296 147 471 283 616 24 26 42 49 40 51-11 11-168-42-264-89-122-60-213-125-304-217-45-45-60-66-56-82 2-11 7-41 10-66 8-62 57-144 106-177 42-27 131-62 161-63 11 0 20 10 24 27m186-8c101 26 163 59 359 188 90 60 189 123 219 140 119 68 267 113 373 113 37 0 67 4 67 8 0 11-140 102-210 137-135 68-296 105-457 105h-105l-48-40c-96-80-210-257-265-410-25-72-65-221-65-248 0-17 45-15 132 7m2542-1505c-35 15-32 10-126 271-267 744-370 1047-364 1080 3 22-55 190-226 655-222 603-322 874-462 1253-78 211-94 249-130 302-15 22-43 74-63 115-67 144-78 162-111 191-42 37-71 37-220-1-171-43-292-60-424-60-237 0-385 58-443 173-31 63-32 121-5 209 76 248 327 397 668 398 182 0 296-29 415-108 77-50 127-111 182-221 45-90 175-477 209-623 22-93 130-390 618-1703 39-105 94-254 123-333 38-101 60-148 78-162 27-22 35-40 353-856 103-265 164-434 164-457 0-92-139-165-236-123m136 63c30 21 49 44 50 60 0 11-93 253-362 938-49 126-99 254-110 282-11 29-23 53-28 53s-34-9-65-21c-41-15-55-25-55-40 0-39 416-1219 446-1267 18-28 87-31 124-5m-531 1364c17 6 31 14 31 18 0 7-86 243-300 816-43 115-117 316-165 445s-123 332-167 450-94 253-110 300-33 89-38 93c-9 10-70-19-70-33 0-5 9-33 21-62 19-48 141-378 376-1013 46-127 109-295 138-375 30-80 90-243 134-363 88-237 108-287 114-287 2 0 18 5 36 11m-806 2164c20 8 38 19 42 25 7 11-23 129-36 144-9 10-129-33-129-47 0-9 37-83 58-115 17-26 19-26 65-7m-13 232c0 7-16 60-35 118-120 357-179 451-330 525-78 38-156 58-264 66-175 13-286-27-377-136-45-55-99-165-115-235-36-163 55-211 391-205 387 8 411 7 455-17 52-28 87-66 119-130l26-51 65 25c36 15 65 32 65 40m-657 63c170 33 165 38-33 32-320-8-440 28-471 141-23 85 49 280 138 375 43 45 45 50 23 45-75-17-195-108-251-189-68-100-90-240-46-305 29-45 132-96 228-115 97-18 273-12 412 16m3774-3880c-549 69-1027 366-1327 825-67 104-172 318-205 420-36 113-58 249-51 315 8 70 56 169 102 209 166 146 592 224 958 176 213-28 390-82 586-180 375-186 672-484 845-849 165-347 175-596 30-724-80-70-230-132-420-172-113-24-400-35-518-20m316 50h57l65 87c35 49 65 91 65 95 0 6-63 22-138 34l-39 6-75-108c-42-60-73-113-71-118 3-4 22-6 42-2 20 3 62 6 94 6m-125 117 83 117-91 29c-51 15-93 27-94 25-56-93-88-114-134-87-49 28-51 41-18 120 5 12-1 19-23 27-28 10-31 8-55-29-62-93-183-40-131 57 19 36 19 36 0 50-29 21-41 17-64-20s-39-46-77-46c-52 0-83 71-49 116 22 29 18 40-17 55-27 11-32 11-36-1-9-25-60-70-80-70-11 0-31 9-46 21-30 24-34 64-11 109 14 26 13 29-10 44-34 22-41 20-55-13-17-41-62-59-95-37-41 27-49 60-25 114 21 47 21 48-21 72-12 7-19 2-32-25-28-59-105-57-128 2-8 21-6 38 10 80l20 52-68 61-69 60-41-115c-61-173-62-155 5-236 281-344 665-563 1109-634 162-26 148-32 243 102m400-72c111 30 226 76 265 107l28 23h-323l-54-78c-63-91-62-91 84-52m335 184c18 7 30 22 37 48 11 34 8 49-20 134-30 92-110 254-125 254-4 0-31-56-61-124-29-68-78-167-108-220l-55-96 32-7c43-9 268-1 300 11m-341 83c92 166 188 378 188 417 0 17-88 142-109 155-5 3-24-31-41-77-49-123-149-329-213-441-32-54-56-100-54-102 6-6 130-32 158-33 22-1 32 10 71 81m-539 0c41 70 54 133 28 133-8 0-31-32-50-71-20-40-43-79-50-88s-10-23-7-32c11-30 41-8 79 58m304 55c103 177 263 526 263 576 0 19-178 189-300 286-273 218-634 382-982 446-49 9-92 14-97 11-14-9-122-188-184-306-53-100-157-325-157-339 0-4 32-33 71-65l70-58 17 23c26 37 51 59 70 60 77 5 106-55 60-129l-21-35 24-18c26-20 39-24 39-10 0 5 13 23 29 40 38 40 81 42 110 5 26-34 26-41-3-96l-24-45 28-16c16-10 30-17 32-17s12 15 22 34c23 42 62 61 99 47 49-19 59-64 27-123l-20-38 32-16q31.5-16.5 36-6c2 6 13 26 26 44 19 29 27 33 66 33 38 0 46-4 60-27 14-25 13-32-2-75-16-45-17-49-1-61 28-20 40-14 65 30 30 54 69 69 107 41 32-24 39-69 17-112-9-16-16-32-16-35 0-8 65-27 68-19 1 4 12 26 25 47 29 52 69 66 106 39 32-24 38-67 17-117-12-28-12-38-3-41 51-19 136-43 152-44s33 20 72 86m-502 30c44 76 54 122 29 130-14 5-117-185-108-198 14-23 37-3 79 68m-189 98c48 88 54 115 25 115-14 0-32-24-65-85-52-95-57-118-25-113 15 2 35 27 65 83m1300 67c-27 111-78 253-91 253-5 0-15-19-22-42-14-41-14-43 25-107 21-36 54-99 73-140 18-41 35-73 37-71s-8 50-22 107m-1526-20c58 94 85 157 73 169-10 10-16 9-30-4-30-27-97-162-90-181 10-25 25-19 47 16m-151 175c36 67 48 100 41 107-19 19-43-7-88-93-33-65-40-86-31-97 6-8 15-14 19-14 5 0 31 44 59 97m-201 75c11 24 33 64 48 90 30 53 27 86-5 68-24-12-106-174-97-189 14-21 32-10 54 31m-291 121 42 122-62 62c-34 35-64 63-68 63-8 0-56-132-65-175-4-24 5-47 47-117 29-49 55-85 58-82s24 60 48 127m2025-67 16 55-52 85c-28 47-55 86-60 87s-17-27-27-62l-18-64 57-78c31-43 60-78 63-78 3-1 13 24 21 55m-157 229 18 64-56 68c-280 342-717 579-1167 634-113 14-95 21-160-68-34-47-35-46 50-58 248-37 599-179 845-343 121-80 298-226 389-320 27-28 53-49 57-47 3 3 15 34 24 70m-2060 223c-35 47-78 111-95 141l-31 56 5-71c7-81 43-213 88-322l31-75 33 93 33 93zm484 247c30 49 62 103 73 118 11 16 18 30 16 33-3 2-49 5-103 7l-97 2-55-90c-62-103-178-336-189-378-6-26 0-36 57-93l63-64 91 188c50 103 115 227 144 277m-211 95c22 36 39 67 37 68-2 2-51-1-108-7-104-12-195-31-250-53-36-14-60-60-52-98 7-31 94-175 148-246l32-42 77 157c42 86 94 185 116 221m-31 106 105 7 29 40c16 22 28 42 26 43-5 5-137-24-212-47-63-19-165-64-165-73 0-2 25 3 56 10s104 16 161 20m406 49 38 55h-98c-54 0-103-4-109-8-13-9-64-77-64-85 0-6 61-12 150-15 44-1 46 0 83 53m5 530c-230 36-454 156-623 336-214 226-329 558-296 853 38 334 188 598 454 797 319 238 772 277 1132 96 324-162 537-452 601-817 21-119 14-308-15-426-140-572-673-929-1253-839m345 56c107 16 109 25 10 32-230 17-483 132-675 307-37 33-69 57-71 53-8-13-37-160-37-186 0-28 36-55 146-110 82-41 176-73 270-91 86-17 262-20 357-5m299 99c59 17 184 106 271 192 44 44 77 81 74 84s-40-2-83-11c-96-20-287-23-399-5-222 34-468 156-647 319-31 28-58 51-60 51-11 0-99-133-132-198l-36-72 66-63c175-163 376-266 603-308 61-11 296-4 343 11m-1106 228c63 286 269 552 532 685l84 42-5 120c-4 110-28 250-45 267-10 11-179-54-257-98-88-49-230-159-288-224-152-169-251-368-282-566-5-36-1-47 37-105 40-60 183-219 197-219 3 0 16 44 27 98m1371 91c125 26 141 36 184 109 35 60 109 261 109 296 0 13-4 13-35 0-19-8-72-23-118-34-93-22-283-27-383-9-150 26-365 118-454 193-18 14-38 26-46 26-39 0-233-130-299-200l-30-32 26-21c15-12 51-43 80-68 148-128 361-230 552-264 111-20 305-18 414 4m-1656 272c23 86 90 226 151 319 56 86 184 218 280 290 85 64 244 148 334 177 31 9 58 23 61 29 6 16-65 168-106 228-19 27-40 46-51 46-55 0-256-90-374-168-191-126-352-339-403-534-17-64-17-74-1-180 18-123 70-299 84-286 2 3 14 38 25 79m1688 146c5 10 17 56 27 103 22 104 26 373 6 465-44 203-134 384-255 512-37 39-68 60-125 83-88 37-249 80-299 80h-35l53-55c161-169 281-413 324-661 18-106 19-341 1-442-10-58-10-75 0-79 30-11 116-21 201-22 78-1 94 2 102 16m200 33c31 11 62 28 69 37 17 24 16 222-4 323-30 160-99 313-199 445-50 66-152 172-144 150 2-6 25-51 51-101 133-259 161-522 92-853l-7-34 43 7c23 4 68 15 99 26m-557 35c18 94 20 319 5 420-44 278-166 524-348 700l-69 67-67-7c-112-11-303-59-303-76 0-4 20-25 45-47 210-185 344-486 359-807 3-59 11-114 17-121 38-45 299-177 339-171 9 1 18 19 22 42m-1371 442c128 199 388 392 616 460 35 10 63 21 63 25 0 12-50 66-100 108-61 51-67 50-176-21-178-117-341-313-409-493-23-61-46-146-40-146 1 0 22 30 46 67m-1190 98c-104 32-205 135-236 240-42 139 11 302 128 394 67 53 139 74 237 69 141-7 241-72 302-196 31-62 33-74 33-167 0-96-1-103-36-165-84-152-264-226-428-175m243 69c138 68 203 219 157 367-83 267-436 291-566 39-24-45-32-174-15-226 58-177 257-261 424-180m3492 751c-211 34-343 91-426 181-69 76-92 142-89 260 2 93 1 93-29 119-104 87-122 326-42 534 56 144 181 298 316 389l61 41 5 98c5 99 48 304 75 356 8 15 25 33 38 39 14 6 25 20 25 30 0 11 13 33 29 49 25 24 38 29 80 29 112 0 481-85 612-141 56-24 82-61 78-112-1-18 4-44 11-59 10-22 11-42 0-105-18-115-57-262-77-292-34-50-44-93-28-118 28-42 63-168 76-267 8-64 10-161 6-275-15-468-116-682-352-748-75-21-265-25-369-8m344 61c180 41 265 173 307 478 21 155 21 440 0 553-17 92-61 199-88 214-30 16-179 69-179 63 0-63-26-210-45-251-66-145-264-126-306 29-12 47-8 77 27 202 18 65 22 91 14 96-7 4-53 13-103 19-51 7-101 14-111 16-54 11-266-172-335-287-145-248-143-532 4-615 53-30 123-31 159-2 63 49 75 124 51 299-19 133-17 164 12 158 13-2 20-18 26-56 7-45 11-51 24-41 8 7 26 36 40 63 30 60 43 70 62 51 12-11 10-20-9-60-12-25-40-68-61-95-32-41-38-54-32-80 4-24 9-29 22-24 156 68 343 62 509-18 143-68 230-211 220-364-2-41-6-49-24-52-19-3-22 3-28 74-11 139-75 236-191 293-141 70-334 80-443 25-52-27-57-33-64-71-8-48-38-111-65-135-36-33-94-50-145-44l-47 7-7-36c-9-49 3-129 27-180 52-111 195-191 413-230 101-19 283-18 366 1m-81 1013c50 35 61 62 77 185 8 65 14 119 12 121-2 1-15 5-29 8l-26 7-6-99c-7-139-42-194-111-177-70 17-83 83-41 206 32 93 32 110 1 110-21 0-26-9-49-93-37-136-39-144-27-186 14-53 37-79 85-96 45-16 79-12 114 14m-45 113c16 26 27 216 12 220-10 3-38-76-57-159-10-42-9-55 1-68 17-21 27-19 44 7m370 194c3 9 6 19 6 23 0 14-102 48-270 90-89 23-175 51-191 62-47 33-55 81-33 196 10 53 28 118 41 142 12 25 21 47 19 49-3 2-52 11-111 19-93 14-109 14-121 1-22-21-74-240-81-339l-6-87 59-7c164-19 471-91 594-138 78-31 86-32 94-11m56 123c21 78 50 227 50 257 0 28-5 34-47 52-80 34-294 94-358 99-83 7-99-8-125-114-28-114-29-168-5-192 12-12 75-33 160-55 77-19 172-46 210-60 96-34 102-33 115 13m30 386c0 17-9 29-29 39-78 41-416 124-572 142-51 6-58 4-73-17-16-23-16-24 11-31 15-3 87-16 158-27 151-25 284-57 405-99 106-37 100-37 100-7m-2818-1680c-209 38-381 121-522 251-238 221-318 532-189 735 35 55 84 91 157 115 91 29 177 3 287-85 49-40 73-47 42-13-58 64-84 231-53 352 38 149 127 270 240 325 44 21 72 28 124 28 59 1 82-5 191-50l125-52 32 27c18 15 94 84 170 155 94 87 145 127 161 127 59 0 332-118 377-163 29-29 74-206 60-237-12-26-475-570-549-645-74-76-151-115-237-122-53-4-80 0-170 30l-107 35-18-21c-27-30-130-95-163-102-24-5-30-13-35-45-27-158 153-228 386-150 99 33 172 70 358 182 163 98 236 116 317 79 51-23 80-64 94-128 45-206-215-479-558-587-174-55-362-70-520-41m360 50c343 61 648 292 674 510 12 96-44 165-131 165-48 0-142-43-265-120-116-73-269-145-364-170-154-43-301-15-364 68-24 31-27 44-27 109 0 61-3 73-16 73-21 0-29-20-29-68 0-178 179-278 406-227 127 28 243 80 422 189 143 87 190 108 240 109 38 0 49-4 70-28 22-26 24-36 19-91-6-85-44-150-138-237-258-242-661-326-1001-208-341 118-586 438-538 702 14 75 22 93 64 137 41 45 80 64 130 64 49 1 87-17 181-87 80-60 171-109 186-99 15 9-8 32-55 56-23 11-74 45-114 75-90 67-144 93-197 93-88 0-179-71-216-169-30-80-24-229 13-319 43-103 89-172 173-258 143-146 322-239 525-273 84-13 266-12 352 4m-62 76c258 32 543 196 623 358 31 62 36 131 12 151-28 24-76 3-300-130-204-121-354-173-500-174-149 0-248 47-304 145-35 62-46 127-32 190 9 39 7 52-9 85-11 21-20 47-21 59 0 21-134 123-207 157-135 64-243-124-184-318 81-264 362-483 673-523 93-12 154-12 249 0m-321 634c65 31 118 73 99 80-7 2-44 16-82 30-37 14-70 25-72 25-1 0 0-15 3-34 7-46-26-81-68-72-36 7-37-6-3-33s57-26 123 4m525 64c66 29 117 80 360 365 255 300 276 326 276 337 0 10-165 94-252 128-32 13-64 21-72 18-7-3-139-142-293-309-329-356-349-376-427-422-33-20-58-36-55-36 2 0 76-25 164-56 176-61 212-64 299-25m-463 145c61 22 104 62 382 361 149 159 290 311 314 336l44 46-17 61c-10 34-21 62-26 62-4 0-65-54-136-119-205-192-269-239-305-225-8 3-21 19-29 37-74 156-235 171-371 36-68-69-111-152-127-252-40-234 96-406 271-343m301 587c20 11 20 12-12 25-42 18-41 18-28-11s13-29 40-14m797 76c-22 85-28 92-113 133-114 56-220 92-224 77-1-7 6-36 15-65l18-54 85-32c47-18 112-46 145-64 80-41 86-41 74 5"/><path d="M8020 13957c-91 31-253 100-257 110-6 14 135 173 153 173 19 0 258-100 273-115 16-15 6-31-80-123-47-51-58-56-89-45m70 93c24 28 41 52 39 55-2 2-49 21-104 43l-100 40-47-46c-27-25-48-49-48-53 0-7 193-87 212-88 3-1 25 22 48 49m430 660c-19 10-70 34-113 51-65 27-77 37-75 54 4 26 21 23 123-22 103-45 125-59 125-83 0-25-15-25-60 0"/></svg>