<svg xmlns="http://www.w3.org/2000/svg" fill="#3f3d3d" viewBox="5782 10483 3258 4428"><path d="M7643 10585c-63 17-144 57-163 80-7 9-44 36-81 60-62 40-129 116-129 146 0 7-18 28-40 46-44 38-93 104-105 143-4 14-26 45-48 70-43 49-77 118-77 156 0 16-11 35-30 50-38 32-90 141-90 188 0 20-4 36-9 36s-29-37-52-83c-82-161-194-312-322-434-87-82-111-94-139-66-19 19-19 21 12 142 59 234 72 335 77 608 3 139 3 259-1 269-5 13-35-11-139-113-92-90-167-152-248-206-114-76-152-90-177-65-20 20-14 45 32 115 151 235 239 499 266 803 14 151 8 268-31 628-56 517-36 742 84 977 28 53 65 104 113 153l72 75-30 86c-37 109-34 158 12 206 95 98 420 176 497 119 35-26 48-52 78-156 26-90 37-103 93-111 119-20 267-111 407-251 145-146 216-260 425-681 120-244 204-399 258-480 85-127 241-308 333-387 77-65 226-165 357-238 91-51 112-67 112-85 0-42-24-50-144-48-161 4-300 25-454 69-30 9-55 14-57 12-5-5 113-209 173-302 93-144 189-261 329-407 55-57 93-104 93-116 0-53-53-54-236-2-134 37-263 96-375 169l-86 56-6-81c-4-60-2-94 10-126 10-31 13-63 9-109-8-84-8-86 0-147 3-29 1-81-6-120-7-37-12-93-11-123 0-33-7-77-19-110-11-30-27-79-35-108-40-141-126-242-259-300-58-26-162-29-243-7m192 157c-4 35-9 65-10 66-2 2-17 1-34-3l-31-7 32-59c18-32 37-59 41-59 5 0 6 28 2 62m-275-17c-7 8-17 15-22 15-6 0-5-7 2-15s17-15 22-15c6 0 5 7-2 15m135 15c-14 27-35 41-35 23 0-7 41-53 47-53 2 0-3 13-12 30m238 80c3 11 1 23-4 26s-9-6-9-20c0-31 6-34 13-6m-453-3c0 7-60 103-65 103-2 0-15-4-30-10-23-9-24-12-14-32 16-33 61-68 87-68 12 0 22 3 22 7m570 55c0 10-4 18-10 18-5 0-10-15-10-33 0-24 3-28 10-17 5 8 10 23 10 32m-421-16c2 1-7 26-20 53-22 50-36 59-73 45-23-9-20-20 16-70 25-35 36-43 52-38 12 4 23 8 25 10m139 37c24 7 43 17 43 23 0 5-3 30-6 56-8 54-13 56-85 34-28-9-44-19-42-27 5-19 40-99 44-99 2 0 22 6 46 13m180 120 3 67-33-13c-18-7-33-18-33-23 1-5 5-31 9-57 7-41 11-48 30-45s21 10 24 71m141-5c5 9 12 38 16 64 8 51 4 55-37 39-21-8-24-16-26-76-3-64-3-66 17-55 11 6 25 18 30 28m-730-12c3 3 0 14-7 25s-22 38-34 60c-11 21-23 39-27 39-16 0-81-22-81-27 0-15 52-93 68-103s69-6 81 6m181 59c0 7-10 35-21 64-17 41-26 51-45 51-18 0-64-15-82-26-4-2 43-88 60-110 11-15 88 3 88 21m192 46c21 5 38 16 38 23 0 19-19 119-24 123-8 8-156-42-156-53 0-6 10-35 22-64 24-57 20-56 120-29m191 61c26 10 27 13 27 79 0 38-4 69-8 69-25 0-102-34-102-44 0-7 5-38 11-70 10-46 15-56 28-50 9 3 28 11 44 16m-1316 142c98 132 187 307 179 356-2 19-8 59-12 89-5 44-13 60-39 82-44 39-78 120-78 187 0 42-4 55-19 63-11 6-30 33-43 61l-23 50-24-38c-23-37-23-45-17-139 18-261 6-516-35-743l-22-122 29 27c16 16 63 73 104 127m606-113c20 5 37 13 37 16 0 10-70 133-76 133-13 0-72-29-78-39-8-12 18-78 41-103 19-21 25-21 76-7m898 42c24 29 26 112 3 121-8 3-29 0-47-8-28-11-32-17-30-47 1-19 2-49 2-68 1-31 3-33 27-27 15 4 35 17 45 29m-701 11c25 7 45 17 45 22 0 15-37 118-45 127-9 10-130-23-130-35 0-20 61-128 73-128 6 0 32 6 57 14m227 67c43 12 81 23 84 25 4 2-1 36-10 76-12 51-22 73-32 72-8-1-51-13-97-25-93-27-89-20-55-116 10-29 21-53 25-53s43 10 85 21m266 82 34 15-8 53c-4 30-8 64-8 76l-1 21-67-21c-38-12-69-22-71-23-1 0 5-34 15-73 17-71 18-73 45-67 15 3 42 12 61 19m-771 25c5 5-6 41-24 81l-32 73-35-7c-74-14-82-28-56-92 27-64 44-76 95-69 24 3 48 10 52 14m951 27c29 12 37 22 43 49 7 38-3 98-18 107-11 7-78-8-91-20-12-12 4-151 18-151 7 0 29 7 48 15m-764 25c24 6 48 13 52 16 4 2-4 39-19 82-26 74-28 77-57 74-16-2-34-7-40-11-5-5-27-11-47-15-21-4-39-10-41-14-3-4 11-40 29-81 30-65 37-73 56-68 13 3 43 11 67 17m256 79c50 16 90 33 90 38-1 24-28 144-34 148-6 3-211-52-219-59-6-7 54-156 63-156 5 0 51 13 100 29m250 71c79 25 86 29 81 48-3 9-8 43-12 75-3 31-10 60-15 63-7 4-147-32-157-41-2-2 25-129 33-154 3-7 11-11 18-8 6 2 30 10 52 17m-838 25 51 15-31 78c-18 42-32 78-33 80-6 10-80-14-101-32-25-21-25-21-8-66 14-36 55-90 69-90 1 0 25 7 53 15m1115 61c14 9 5 141-11 157-8 8-25 6-66-8l-55-18 6-36c22-141 16-131 70-115 24 7 50 16 56 20m588-21c0 3-24 33-53 67-142 168-251 328-387 570-62 112-89 149-109 156-14 6-33 13-42 17-28 11-29-22-2-71 29-51 42-160 25-204-7-19-5-30 9-50 22-29 42-129 37-177-4-32 0-37 81-98 103-76 216-138 331-182 82-31 110-38 110-28m-1478 25c39 11 73 22 75 24 3 3-7 41-22 86-31 92-19 87-130 54-33-9-64-20-68-24-10-9 52-160 65-160 4 0 40 9 80 20m273 82c39 11 82 22 98 25 15 3 27 7 27 9 0 13-43 160-49 166-7 7-211-49-225-62-4-5 4-45 19-90 22-66 30-80 44-75 9 3 48 16 86 27m-1348 57c260 225 425 446 538 721 14 36 32 78 40 95 24 55 73 223 99 339 63 277 85 545 67 800-12 175-40 375-67 481-40 158-27 148-135 110-232-81-381-253-446-514-29-120-29-388 1-661 15-129 31-301 37-382 25-331-36-678-170-964-22-46-38-84-36-84 3 0 35 26 72 59m1619 22c3 5 14 9 25 9s34 6 53 14l33 14-16 78c-8 44-16 81-18 83-3 4-119-25-160-40l-22-8 20-73c11-40 21-78 24-84 4-13 52-7 61 7m-866 23c28 9 44 19 42 27-10 46-57 159-66 159-28 0-84-22-104-40-20-19-20-22-7-67 14-46 53-93 78-93 7 0 32 7 57 14m1135 54 50 17-1 68c-1 93-13 105-89 87-31-7-57-16-59-19-8-13 27-171 38-170 6 0 34 8 61 17m-901 13c39 11 75 24 79 29 6 5-34 154-48 177 0 1-44-12-97-29l-97-30 18-47c10-25 24-63 30-84 15-43 20-44 115-16m228 68c13 5 60 20 106 32 94 26 89 12 51 141l-20 67-47-15c-26-8-81-24-122-35-41-12-76-22-77-23-2-2 32-111 52-164 5-14 25-15 57-3m385 112c36 10 68 20 70 23 6 6-17 151-27 167-7 10-18 10-52 2-98-26-133-36-140-42-5-4 1-40 12-81 29-106 27-102 51-95 12 4 50 15 86 26m-945 12c21 7 40 16 44 20 3 3-6 42-21 86-21 63-31 81-46 81-32 0-99-31-110-51-13-24 3-87 32-123 23-29 46-32 101-13m1180 57c24 6 49 19 56 28 15 20 16 78 1 121-14 41-45 48-114 27-53-17-53-18-45-49 4-18 13-58 20-90 8-42 16-57 25-53 8 3 33 10 57 16m-935 15c48 14 88 27 90 28 3 3-46 166-53 178-3 5-191-47-201-56-2-1 32-110 52-163 6-16 12-16 112 13m282 84c53 16 108 32 123 35l27 6-15 48c-8 26-19 68-25 94-6 27-14 48-17 48-18-1-236-70-243-77-8-8 40-183 49-183 3 0 48 13 101 29m343 97c51 15 94 28 95 29 2 0-9 43-24 93-15 55-31 91-37 88-6-2-50-14-98-27-58-15-88-28-88-38 0-26 43-171 51-171 5 0 50 12 101 26m-904 28c1 2-2 16-8 31-12 32-11 32-35-14l-17-34 29 7c15 4 29 9 31 10m1952 0c0 3-35 28-77 57-147 98-272 207-382 334-153 176-242 316-373 585-44 91-111 228-148 305-111 226-196 355-323 483-142 145-303 227-457 234-62 2-75 0-74-12 3-28 15-83 20-91 18-29 60-319 74-502l11-149 87-136c48-75 107-163 130-195 227-306 537-574 837-725 74-36 252-102 360-132 115-32 315-67 315-56m-1808 45c29 11 72 25 96 31 23 6 42 15 42 21 0 17-43 163-50 172-4 4-47-5-96-20-80-26-89-31-92-55s35-168 44-168c2 0 27 9 56 19m1004-4c114 30 113 55-7 118-50 27-93 47-95 44-4-3 38-177 43-177 1 0 28 7 59 15m-646 114c142 45 135 33 99 153-20 66-23 70-48 65-43-7-215-59-224-67-6-6 40-191 47-190 1 0 57 18 126 39m345 94c44 13 80 27 80 33s-38 41-84 78l-83 67-48-11-48-12 19-56c11-31 24-73 30-94 8-33 13-37 32-33 12 4 58 16 102 28m-687 100c26 7 42 16 42 26 0 19-50 184-55 180-1-2-15-48-29-101-15-54-30-106-33-115-5-13-3-15 13-8 10 4 38 12 62 18m197 61c22 8 75 24 118 37 61 18 76 26 72 38-4 9-16 50-28 91s-22 76-22 77c-1 2-21-3-46-11-24-7-80-24-124-37-44-12-81-24-83-25-3-2 29-129 43-172 6-16 20-15 70 2m315 94c0 5-11 19-25 32-26 24-29 21-19-18 6-21 44-33 44-14m-229 231c14 5 5 21-47 88l-65 81-67-22-67-23-3-44c-3-36 11-115 24-140 3-6 175 40 225 60m-184 237 23 6-28 49c-15 27-30 49-34 49-5 0-8-25-8-55 0-57 3-61 47-49m-436 1048c78 36 193 66 256 67 71 1 73 4 46 92-30 96-42 104-138 88-143-25-295-97-295-139 0-23 42-142 50-142 4 0 40 15 81 34"/><path d="M6365 13080c-15 25-34 259-35 421 0 190 12 284 54 406 25 75 94 204 129 240 22 25 56 30 75 11 20-20 14-43-24-92-47-62-89-153-115-251-28-105-36-345-19-546 15-176 11-199-30-199-16 0-32 5-35 10"/></svg>