<svg xmlns="http://www.w3.org/2000/svg" fill="#3f3d3d" viewBox="662 4374 3798 3301"><path d="M2380 4466c-14 2-65 9-115 15-138 17-318 58-443 101-266 91-446 200-617 372-124 126-189 225-239 366-26 72-30 100-31 185 0 84 3 106 22 141l22 41-35 16c-49 24-122 94-146 141-56 110 34 216 185 216h67v49c0 48-1 50-42 71-55 28-199 128-215 148-37 45 0 92 71 92 42 0 47 2 41 17-27 68-14 177 31 266 22 44 23 53 13 93-15 60-6 182 20 265 12 37 42 96 71 136 140 201 423 311 945 368 191 22 749 30 990 16 755-44 1131-209 1229-540 18-61 22-215 6-255-7-21-4-38 19-86 36-76 46-166 27-237-13-50-13-51 8-57 11-3 35-6 52-6 35 0 64-26 64-58 0-24-46-63-172-146-67-44-88-63-88-80 0-19 4-22 30-18 40 6 117-14 153-40 42-30 71-100 63-151-10-60-52-131-113-188l-54-51 17-44c13-35 16-63 11-132-14-204-113-391-302-571-235-222-557-365-970-432-123-19-506-35-575-23m495 110c415 52 775 207 993 426 153 155 231 288 258 438 29 164-4 222-165 285-143 56-368 98-701 132-254 25-1088 26-1340 0-411-41-697-104-817-180-54-34-73-78-73-169 0-164 81-324 252-497 337-340 973-514 1593-435m1326 1232c60 62 80 113 59 152-26 49-101 52-289 9-199-45-251-35-380 76-36 30-85 62-109 72-58 22-114 10-242-50-52-25-122-53-154-62-122-35-233 3-374 129-98 88-133 106-201 106-64 0-110-22-216-105-114-88-155-107-245-113-72-4-82-2-195 43-208 81-271 75-394-40s-166-125-351-79c-115 28-178 28-210-1-11-10-20-28-20-40 0-27 86-110 135-131 32-13 38-13 77 7 164 84 492 146 948 181 207 15 860 15 1080-1 458-33 828-104 965-186 22-13 44-24 50-24 5-1 34 25 66 57m-2820 278c103 98 160 125 267 126 60 0 95-6 150-26 40-14 104-38 144-52 54-19 82-24 112-20 42 7 146 54 146 66 0 19-176 42-360 47-265 7-433-17-581-83-60-27-127-90-112-104 13-13 74-28 116-29 34-1 46 7 118 75m2563-26 39 12-39 24c-55 34-183 73-293 89-52 8-96 13-98 11s9-11 24-21 51-37 78-60c81-69 101-76 180-71 39 3 87 10 109 16m-759 86c110 46 116 49 81 52-89 8-395-56-381-79 11-16 69-28 126-26 41 2 89 17 174 53m825 38c0 19-61 71-118 100-156 79-529 108-789 62-149-27-340-102-330-130 6-16 41-11 137 18 308 96 803 80 1027-32 70-35 73-36 73-18m-2695 81c233 76 618 84 875 19 110-28 109-28 135-8s17 25-105 65c-341 110-903 58-1039-96-42-49-39-58 12-30 23 13 78 35 122 50m2843 12 57 36-100 17c-55 10-113 21-130 25-26 6-24 3 18-25 27-18 58-46 70-61 11-16 22-29 24-29s30 16 61 37m-3060 23c17 21 32 40 32 42 0 5-153-2-170-8-10-3 4-17 40-39 30-19 57-35 60-35s20 18 38 40m1714 55c157 74 369 109 631 103 137-2 162-1 140 9-16 7-71 30-124 53-103 44-297 149-392 211-60 40-76 45-92 30-19-18-236-122-328-157-51-20-185-59-299-88l-207-52 102-32c56-17 128-47 161-66 50-31 67-36 120-36 43 0 76-7 111-24 49-23 50-23 77-4 14 10 59 34 100 53m-1624 85c81 6 217 19 302 30 85 10 189 22 230 25 167 14 511 82 720 142 162 46 264 88 428 174 153 81 121 84 292-25 126-80 328-181 465-232 108-40 368-107 458-118 56-7 56-7 73 25 12 25 15 49 12 101-11 148-95 202-424 272-287 60-572 86-1027 93-486 7-857-16-1202-77-327-57-461-114-506-215-31-68-19-205 18-205 8 0 80 5 161 10m-77 404c130 59 476 126 809 156 842 76 1771 2 2182-174 45-20 30 160-21 262-37 74-134 166-227 214-260 137-734 203-1374 192-835-15-1274-146-1402-421-27-57-33-82-36-161-3-57-1-92 6-92 5 0 34 11 63 24"/><path d="M2369 4666c-47 20-67 59-43 85 49 54 180-31 134-87-16-18-45-17-91 2m663 86c-34 34 7 91 73 104 64 12 99-21 68-65-30-44-114-66-141-39m-1100 55c-41 20-65 54-60 85 2 19 10 24 41 26 32 3 43-2 72-31 39-39 43-58 19-81-19-20-31-20-72 1m678 68c-30 36 33 125 89 125 57 0 59-55 3-113-29-30-72-36-92-12m900 135c-22 42 63 129 114 116 50-12 38-72-23-113-42-28-77-29-91-3m-2001 46c-30 19-69 73-69 97 0 9 11 24 24 32 21 14 28 14 50 3 31-16 76-75 76-99 0-20-26-49-43-49-7 0-24 8-38 16m709 29c-33 18-70 78-66 106 5 37 33 46 71 26 60-33 89-115 48-137-24-12-20-12-53 5m724 67c-35 35 22 138 77 138 59 0 68-52 19-105-37-38-77-52-96-33"/></svg>