<svg xmlns="http://www.w3.org/2000/svg" fill="#3f3d3d" viewBox="21125 808 6188 4085"><path d="M24385 896c-22 2-92 9-155 15-278 26-583 102-792 195-323 146-482 347-702 892l-71 176-106 45c-172 74-279 138-385 228-28 23-58 43-66 43-34 0-178 44-244 74-125 58-215 128-299 231-27 33-76 87-110 120-103 100-124 193-100 446l7 75-48 25c-65 33-97 95-102 194-7 136 29 201 164 291 48 32 155 88 237 125l149 66 31 58c39 72 141 166 221 205 170 80 371 84 518 9 37-19 39-19 170 5 198 37 326 50 493 50 170 1 234-11 295-55 22-16 50-29 63-29 20 0 26 9 41 60 39 128 155 252 283 300 133 50 347 73 465 51 190-37 344-185 416-402 17-52 34-126 38-164 4-39 8-76 9-84 1-9 17-15 46-16 24-2 100-17 169-33 160-39 726-162 744-162 7 0 29 33 50 74 43 88 122 165 203 202 109 47 307 68 434 44 196-37 349-213 394-455l17-90h37c27-1 50-10 77-32 29-22 53-32 91-35 58-6 113-40 137-87 23-43 29-121 16-186-14-68-67-133-140-170-45-23-46-25-64-99-37-156-128-301-240-381l-62-44-23-108c-131-633-411-1080-841-1346-109-67-289-150-410-190-135-44-352-92-505-112-116-15-468-27-550-19m310 104c213 12 306 24 471 61 407 89 709 252 954 514 167 178 290 401 392 710 47 141 100 350 91 359-2 2-21 0-41-5-58-13-182-10-247 6-209 53-380 214-474 448-60 147-96 320-104 492l-2 60-75 13c-90 16-521 104-638 131-60 14-84 16-87 8-1-7-11-44-20-82-40-161-112-327-198-455-118-177-326-329-552-404-319-107-693-70-980 97-219 128-344 256-539 550-109 166-176 236-266 279-97 47-176 49-305 9-55-17-110-37-121-45-27-19-68-105-83-174-6-29-11-110-11-180 0-396 213-781 542-981 57-35 140-73 290-134 20-9 43-26 51-39 9-12 52-113 97-223 190-467 313-639 550-772 223-126 674-234 1030-246 41-2 82-4 90-5s92 3 185 8m-2665 1615c0 2-20 33-45 69-82 117-155 295-192 466-13 62-18 129-18 250 0 159 6 203 41 294 5 14 1 14-27 4-62-20-236-105-283-137-45-31-46-33-46-87v-56l39 7c93 16 197-76 231-205 7-24 12-77 12-117-1-87-25-148-78-197l-38-34 70-70c75-75 124-107 242-158 76-33 92-38 92-29m4550 117c167 50 285 188 340 398 30 116 40 376 17 432-9 21-20 38-24 38-5 0-14-39-21-88-34-247-113-389-258-457-51-24-66-26-143-23-108 5-176 35-258 116-101 99-166 249-202 465-11 66-26 126-32 134-19 22-58 39-134 56-176 41-892 197-903 197-8 0-12-19-12-58v-57l418-84c280-56 423-89 434-100 14-12 19-40 24-121 28-486 231-804 547-859 58-10 154-5 207 11m-2527 182c189 50 333 127 458 244 103 96 160 174 219 297 82 172 130 359 130 507 0 59-2 69-17 66-12-2-23-33-44-115-35-142-84-246-153-320-162-174-386-199-583-65-143 97-218 223-287 483-41 153-74 212-135 243-63 32-66 31-66-32 0-72-31-138-82-172-35-24-43-25-262-31-124-4-278-14-341-23-130-20-378-69-460-92l-54-16 59-31c93-49 187-151 307-332 131-198 210-291 324-382 154-123 296-192 475-232 126-28 144-30 289-26 95 3 149 10 223 29m-2434 74c64 64 45 235-35 315-38 38-70 44-102 20-74-55-53-257 35-339 34-32 68-30 102 4m4947 216c122 57 194 210 194 414 0 223-83 410-216 488-61 36-155 44-210 18-120-57-203-219-204-395 0-166 73-360 175-462 87-87 168-106 261-63m529 120c50 65 43 199-11 212-14 4-27 5-29 3s-5-59-7-127c-3-135 2-146 47-88m-2678 232c27 9 60 24 73 35l25 19-29-10c-131-47-243-27-369 69-87 65-155 172-199 311-20 66-23 95-23 235 0 143 3 168 25 235 24 74 110 217 136 227 31 12 11 20-28 12-108-23-189-61-242-113-52-51-100-134-112-193-5-28-3-33 25-47 71-37 128-139 170-303 30-117 66-216 97-270 54-91 170-182 274-214 43-13 126-10 177 7m-3031 21c25 39 34 45 174 117 452 231 1286 434 1723 420 78-2 136 0 147 6 54 29 66 146 20 195-37 40-90 49-260 49-388-2-923-127-1420-331-154-63-356-172-403-218-52-49-62-82-55-175 6-88 39-116 74-63m3099 117c59 27 132 102 163 166 80 167 69 416-26 594-99 185-258 265-414 206-93-35-164-124-204-255-25-81-25-283 0-375 42-155 136-288 240-336 71-33 171-33 241 0m1579 207c22 82 55 144 106 201 39 45 40 48 18 48-48 0-141-31-183-61-56-40-99-100-119-166-6-19-1-23 46-37 29-9 64-23 78-31s28-14 31-15c3 0 13 27 23 61m-3953 359c96 32 201 63 232 71 76 16 55 29-48 29-141 0-285-52-360-131-27-28-33-40-20-35 11 4 99 34 196 66"/><path d="M23441 1351c-173 22-263 98-392 334-95 172-189 414-189 486 0 54 21 64 180 88 312 45 562 119 911 270 173 74 253 51 327-94 50-99 129-361 157-521 48-277-24-384-324-478-217-68-508-105-670-85m369 105c160 28 312 73 410 122 83 41 97 52 117 91 44 85 27 231-61 513-72 230-113 301-173 301-16 0-84-24-153-53-228-96-437-167-635-214-115-27-289-56-339-56-27 0-28-2-22-31 9-48 80-218 142-341 127-254 193-323 334-349 60-11 273-1 380 17m1260 94c-163 34-248 78-334 171-91 98-177 297-247 569-56 216-49 305 26 347 54 30 98 30 395-7 135-17 301-37 369-46 149-18 176-30 203-91 25-57 26-184 3-538-21-317-33-366-98-405-42-26-196-26-317 0m282 88c13 13 22 42 28 88 12 97 30 413 33 576 2 126 0 139-18 158-17 17-62 25-300 55-154 20-307 40-340 45-33 6-90 10-127 10-82 0-94-13-85-100 15-141 129-489 198-607 68-114 165-181 314-218 153-37 264-40 297-7m272-98c-42 9-49 15-68 54-10 21-16 60-16 105 0 112 40 672 50 712 22 83 83 116 188 104 142-17 381-57 424-71 138-45 155-194 49-428-121-268-445-513-627-476m193 140c212 105 412 390 413 588 0 62-13 79-73 96-47 14-395 66-438 66-32 0-46-27-53-102-16-182-44-671-39-685 10-27 95-10 190 37m-2872 683c-230 86-476 286-625 509-119 178-218 421-261 641-29 150-25 176 25 163 20-5 25-20 50-138 60-291 169-528 337-735 137-167 352-320 540-383 74-25 89-35 89-61 0-16-8-19-47-18-27 0-75 10-108 22m2354 377c-106 10-147 26-156 57-10 41 27 65 86 58 92-12 156-27 179-41 31-20 30-62-4-74-14-6-26-9-27-9-1 1-36 5-78 9m-2238 547c-105 38-179 158-188 303-6 90 6 142 50 206 41 60 94 89 163 88 151-3 265-150 267-345 1-76-2-92-28-145-54-106-155-147-264-107m143 94c45 36 60 76 59 162 0 66-5 87-29 134-80 154-225 159-269 9-12-39-13-63-5-114 12-70 20-90 57-140 53-70 134-92 187-51m3195 57c-54 35-93 102-109 190-31 174 82 331 211 293 48-14 112-86 133-148 20-59 21-178 1-234-9-24-28-57-43-72-61-64-122-73-193-29m124 70c64 71 61 219-7 298-34 39-72 48-103 23-51-42-68-169-34-245 37-81 106-118 144-76m-2252 420c-78 53-121 142-121 251 0 122 44 212 123 250 53 26 80 26 132 2 93-43 146-131 153-252 7-126-36-221-120-265-46-24-119-18-167 14m141 63c32 17 61 96 62 165 0 71-39 164-81 191-80 53-162-29-163-162 0-137 96-240 182-194"/></svg>