<svg xmlns="http://www.w3.org/2000/svg" fill="#3f3d3d" viewBox="14871 1050 3845 3664"><path d="M16593 1151c-453 53-894 280-1179 607-265 305-411 663-430 1057-33 652 332 1267 947 1599 261 140 596 220 907 215 294-4 539-63 807-194 357-174 628-434 801-770 139-271 190-481 188-790-1-165-4-207-27-316-82-390-292-739-598-994-213-178-526-328-801-385-183-38-437-50-615-29m563 113c367 77 662 233 909 481 136 136 226 261 310 430 121 245 168 443 168 715 1 196-17 308-74 485-168 513-568 901-1115 1081-311 102-663 111-996 25-419-108-776-360-1014-716-303-454-355-994-143-1495 227-535 726-919 1319-1014 146-24 153-24 340-21 139 3 200 9 296 29"/><path d="M16773 1327c-8 3-13 25-13 57 0 70-16 83-116 96-154 20-172 28-160 74 5 20 16 25 68 36 84 16 136 38 149 62 9 17 5 32-20 81-34 65-38 86-19 105 20 20 38 14 86-29 113-99 210-109 353-35 61 31 69 33 88 20 34-24 25-49-44-115-36-34-65-70-65-79 0-26 29-46 93-66 69-21 87-44 57-74-18-18-28-19-125-13-131 8-175-6-239-78-41-45-62-55-93-42m140 188c20 8 50 15 68 15 29 0 31 2 23 27-4 16-7 40-6 55 1 26 0 27-76 31-42 2-89 8-103 12-23 6-27 3-33-18-3-14-17-39-30-55l-25-29 39-17c21-9 46-28 55-42 15-23 18-24 34-10 9 8 33 22 54 31m-1046 214c-270 181-482 498-539 807-13 71-4 94 37 94 32 0 38-12 68-134 31-125 91-258 167-372 71-106 234-267 341-337 48-31 89-62 91-69 3-7 2-23-3-36-14-37-51-27-162 47m2399 1417c-21 21-20 47 2 67 24 22 35 21 55-1 22-24 21-38-3-62s-34-25-54-4m-264 121c-7 3-17 13-22 24-23 43 39 82 70 44 26-31-9-81-48-68m-416 232c-35 39 10 94 52 65 27-19 29-60 3-74-27-14-35-13-55 9m561-2c-15 15-7 63 13 73 40 21 72-17 54-64-6-16-54-22-67-9m-302 103c-37 41 9 95 54 63 25-17 27-46 5-67-21-21-37-20-59 4m-289 236c-19 18-21 45-4 62 39 39 100-17 63-58-22-24-38-25-59-4m-391 244c-37 41 24 97 63 58 18-18 14-56-7-68-27-14-35-13-56 10m287 82c-19 19-14 56 8 68 38 21 80-22 60-61-12-21-50-25-68-7"/></svg>