<svg xmlns="http://www.w3.org/2000/svg" fill="#3f3d3d" viewBox="23776 10945 3709 3600"><path d="M27189 11027c-50 8-61 32-69 156-5 63-16 139-26 170l-17 55-61 7c-76 8-103 20-235 100-110 67-184 95-258 95-25 0-48 6-58 16-28 28-14 56 44 91l53 32-113 54c-170 80-491 264-674 387-117 78-407 259-650 405-258 154-465 288-635 410-225 161-365 249-486 306-129 61-148 78-132 114 22 48 241 170 406 225 206 69 453 102 623 83 52-6 96-9 98-7 5 4-123 211-207 334-77 112-122 170-175 226-29 32-38 48-35 69 4 34 30 45 208 82 103 21 154 26 290 27 279 1 511-55 783-190 194-97 352-217 562-428 430-431 696-904 785-1396 7-36 17-122 24-193l11-127 37 25c49 33 90 41 107 21 16-19 11-50-18-128-17-48-21-80-21-190 0-145-12-210-54-283l-25-46 41-121c32-97 41-141 45-219l6-98-31-30c-20-21-40-31-60-31-17 0-36-2-44-3-7-2-25-2-39 0m85 101c2 4 0 42-5 85-8 66-44 185-89 293-13 30-11 35 18 81 48 75 60 131 64 295 3 143 3 146-15 130-29-26-64-92-78-145-17-70-72-88-101-34-14 28-118 137-130 137-14 0-9-152 7-213 8-31 12-63 9-71-9-25-41-28-93-11-33 11-75 15-132 13l-84-3 59-23c32-12 89-42 125-66 113-74 147-88 225-90l71-1 22-41c34-61 63-187 63-271v-73h29c17 0 32 4 35 8m-436 724c-5 39-23 114-40 166l-31 94-36-9c-72-16-173-8-232 19-225 103-276 382-103 559l46 47-37 56c-21 31-40 56-42 56s-19-11-36-24c-102-77-257-91-376-34-68 32-154 125-182 195-35 90-32 199 7 283 18 38 50 84 77 110l46 45-45 46-46 46-49-32c-181-122-406-62-497 133-23 48-27 71-27 142 0 73 4 93 27 138l27 52-42 31c-86 63-435 259-461 259-3 0 21-36 52-80 59-83 160-240 270-422 96-157 214-317 498-676 556-700 722-888 948-1078 78-66 264-194 281-194 8 0 9 20 3 72m-313 26c-11 10-65 57-120 104s-116 103-135 124c-87 96-245 280-339 397-57 70-107 126-110 125-4-2-33-17-66-33-53-27-70-30-150-30-78 0-98 4-152 29-73 33-144 104-176 174-33 72-31 207 4 283 15 31 43 75 63 97l36 40-122 163c-68 90-137 185-153 212-35 56-49 61-210 77-125 13-234 7-381-21-156-30-354-102-466-171l-49-31 111-58c62-33 178-105 258-160 81-55 219-150 307-210 88-61 254-167 368-237 347-212 705-433 837-519 162-104 311-192 485-285 172-92 195-102 160-70m600 122c29 56 32 112 15 281-51 511-306 1011-755 1478-391 408-830 616-1295 615-137 0-277-16-310-35-9-5-10-9-3-9 20 0 174-76 291-142 188-107 381-243 577-407 136-113 479-462 575-584 244-310 465-671 597-972 46-106 55-120 77-120 31-1 90-43 146-104 25-28 48-50 52-51 4 0 19 22 33 50m-436 186c17 4 31 13 31 20 0 27-217 434-231 434-13 0-69-71-85-108-10-21-17-65-17-103-1-54 4-73 26-112 57-96 172-151 276-131m-967 491c18 10 33 24 33 31 0 6-71 100-159 208l-158 196-28-27c-32-31-70-122-70-169 0-113 79-221 190-257 43-14 155-4 192 18m490 183c29 11 64 29 77 39l24 18-33 49c-46 67-170 224-248 312l-65 73-43-42c-61-60-84-113-84-198 0-56 5-79 28-122 30-57 100-119 156-137 52-17 132-13 188 8m-561 655c24 9 55 24 69 35 25 19 25 19 5 37-161 145-340 293-356 293-5 0-16-15-26-33-24-44-23-159 1-207 60-115 185-167 307-125"/><path d="M24813 12978c-77 27-137 81-174 157-29 59-31 71-27 137 18 272 344 395 523 196 112-123 107-309-12-419-87-80-207-108-310-71m211 101c73 45 118 151 96 229-53 195-306 227-396 50-55-109-11-236 101-290 53-25 149-20 199 11"/></svg>