<svg xmlns="http://www.w3.org/2000/svg" fill="#3f3d3d" viewBox="14779 5610 4055 4431"><path d="M16791 5719c-54 21-113 60-142 95-15 18-16 18-75-4-74-28-218-38-295-20-186 43-348 195-384 358-6 30-10 33-34 28-14-3-62-9-106-12-289-22-556 208-590 508-4 32-10 58-15 58-16 0-82 76-106 123-13 26-27 67-30 91-7 48 10 138 32 173 13 21 11 25-31 64-57 52-109 156-126 248-30 173 56 361 211 457 55 34 60 40 70 88 23 110 100 224 192 282 95 61 246 81 356 49 29-9 82-36 119-62l67-46 33 39c69 79 184 263 241 384 140 294 201 582 205 963 2 228 0 222 116 276 221 102 511 101 717-1 110-55 105-40 109-309 7-523 88-860 278-1164 28-44 66-99 85-122l36-42 32 38c70 81 229 135 334 112 96-21 189-80 230-146 20-32 26-35 69-35 113 0 229-81 264-184 19-55 22-151 7-190-8-21-5-33 15-61 65-96 79-237 33-337-14-31-45-76-67-101-23-24-41-48-41-52s14-23 31-43c73-82 110-219 89-325-22-117-115-249-202-290-31-15-38-23-38-47 0-53-40-138-90-193-67-74-150-111-242-110-66 1-68 1-89-33-30-50-123-112-202-136-68-20-151-21-213-3-17 5-23 2-27-17-11-40-65-96-122-123-42-21-68-27-123-27h-70l-31-43c-42-59-104-108-177-142-80-37-222-43-303-14m279 104c62 29 106 71 153 143l32 49h96c88 0 98 2 131 27 19 15 48 53 64 85 33 65 34 66 148 43 115-24 237 29 317 136 38 52 42 55 72 48 128-29 250 37 292 157 8 23 15 56 15 74 0 51 9 64 59 90 134 67 206 205 180 343-12 67-61 153-106 186l-25 18-36-37c-72-74-186-104-266-71-37 16-39 15-68-10-65-53-107-69-193-68-60 0-92 5-127 21-39 18-48 19-48 7 0-32-52-114-100-157-28-25-74-54-101-65-47-17-52-23-68-69-25-75-72-127-146-164-69-34-152-42-209-20-25 10-32 8-64-20-20-18-61-44-92-58-47-22-69-26-150-26-86 0-102 3-161 31-71 34-130 88-160 146l-19 37-73-1c-54 0-86 5-124 22-72 31-146 111-168 181-16 50-22 57-64 77-58 26-114 81-143 141-45 90-21 247 47 311 21 20 23 27 18 99-5 63-2 85 14 122 27 61 68 106 119 132 32 16 53 38 79 81l36 60-29 35c-16 20-51 49-77 66-44 27-57 30-137 31l-88 2-57 59c-84 86-135 108-253 108-84 0-101-3-146-27-104-55-174-159-192-286-7-45-10-48-65-78-110-58-184-153-207-267-25-125 17-244 125-345 36-34 65-67 65-73s-11-25-24-42c-31-42-49-109-41-157 9-55 56-123 98-143 20-10 39-23 43-29s11-49 15-96c20-219 186-392 406-424 72-11 95-10 177 7 107 21 126 15 126-36 0-44 38-134 80-190 53-70 125-122 209-149 96-31 217-25 305 14 78 35 98 33 130-8 28-37 78-72 135-93s175-12 241 20m-110 776c25 13 64 41 87 63l42 41 40-17c130-51 265 24 285 158 8 52 18 62 74 74 140 32 218 157 182 292-9 34-26 59-73 103l-61 58 12 44c19 70 15 134-12 190-28 60-99 127-154 143-51 16-137 15-184-2-44-16-46-14-80 45-39 67-98 115-164 135-70 20-123 13-201-26-32-17-61-30-64-30-4 0-30 16-59 35-96 65-178 69-264 15-48-31-100-101-111-150-5-21-16-32-48-45-119-47-162-132-122-244l14-41-46-52c-75-85-90-145-54-224 22-48 82-101 125-110 53-10 76-31 76-67 1-79 81-175 165-196 41-10 110-4 156 14 18 7 59-41 59-68 0-18 45-84 73-108 73-61 217-75 307-30m1063 542c23 12 56 37 73 57l32 37 63-23c35-12 73-22 84-22 43 1 99 30 128 66 17 20 54 47 82 60 166 73 211 262 99 409-36 46-37 49-23 79 7 17 14 60 14 96-1 76-20 116-78 164-36 29-45 31-121 32-88 1-106 6-106 31 0 30-69 101-127 129-135 66-306 6-369-131-13-27-24-66-24-86 0-53-19-74-61-64-70 16-171 10-215-12-69-37-132-123-89-123 33 0 133-60 173-104 67-73 86-124 88-238l1-97 41-47c23-26 52-73 63-106 41-110 166-160 272-107m-777 714c23 4 33 14 42 39 7 19 31 55 54 81 39 44 40 48 27 74-18 35-262 361-271 361-11 0-21-231-14-339 6-101 7-105 41-143 20-21 41-50 47-64 7-15 17-23 27-20 9 3 30 7 47 11m-461 157c38 16 65 19 115 15 36-3 73-8 83-12 16-7 17-2 11 71-7 94 11 356 28 411 11 32 18 38 43 41 49 5 113-65 298-325l108-151 32 9c18 5 60 9 93 9 47 0 63 4 68 16 13 34 4 58-39 106-139 155-269 438-330 720-41 192-67 506-65 810 0 11-19 27-49 43-184 93-456 93-644 1l-62-31-6-215c-6-225-17-325-50-475-47-210-111-388-205-564-51-97-164-269-194-296-32-29-24-42 32-49 53-7 93-24 140-59 15-11 29-19 31-16 53 60 198 283 303 461 70 119 83 133 115 123 40-13 63-177 63-463 1-185 3-211 16-206 8 4 38 15 65 26m-322 35c48 5 90-2 141-23 18-7 19-1 13 197-9 291-5 284-92 140-40-66-109-172-154-236s-79-120-76-125 30 3 60 16c30 14 79 28 108 31"/><path d="M16327 6064c-127 46-238 234-164 280 25 16 48-3 63-52 34-119 146-180 264-146 101 28 97 28 116-1 18-27 18-28-10-50-16-12-45-28-66-34-50-15-156-13-203 3m1294 310c-45 15-91 51-91 71 0 7 9 20 20 30 19 17 21 17 69-4 59-25 111-27 157-5 43 20 83 68 91 106 6 30 29 48 62 48 30 0 88 56 102 97 6 20 9 61 6 93s-2 62 2 67c13 20 41 22 63 3 21-16 23-27 23-97-1-60-6-87-22-118-26-50-67-92-113-115-20-10-49-40-68-68-46-72-115-113-195-118-37-2-80 2-106 10m-1938 100c-151 49-243 174-243 329 0 90 34 132 75 91 12-13 15-26 10-55-10-56 20-150 63-200 51-59 119-89 208-89 41 0 75-5 82-12 16-16 15-43-3-58-22-19-142-22-192-6m-441 861c-95 107-52 268 89 340 36 19 48 31 57 62 42 141 209 233 345 190 30-9 66-28 81-42 23-21 25-27 14-50-13-29-32-31-79-8-56 28-127 28-179 1-51-27-110-113-110-159 0-29-40-69-69-69-28 0-79-38-97-71-21-42-14-112 15-143 25-26 28-71 5-80-29-11-42-6-72 29m1028 94c-17 33-11 75 21 139 37 74 102 132 178 157 91 30 191 6 191-45 0-31-24-40-87-34-48 5-66 3-99-14-68-35-124-115-124-179 0-18-29-43-50-43-11 0-24 9-30 19m2062 103c-16 16-15 44 3 72 25 37 35 85 28 131-7 56-66 120-123 135-52 14-70 45-42 73 27 26 74 17 139-26 61-41 99-97 113-170 16-84-10-175-62-211-27-19-40-20-56-4"/></svg>