<svg xmlns="http://www.w3.org/2000/svg" fill="#3f3d3d" viewBox="15045 10588 3370 4308"><path d="M16293 10681c-39 11-92 82-122 162-22 61-28 164-11 196 5 10 35 28 67 41 162 61 221 109 269 213 26 58 53 181 42 192-3 4-30-1-59-9-145-42-292-40-427 5-71 24-190 99-239 152-27 29-42 36-89 42-135 17-260 81-369 190-165 165-230 348-228 635 1 251 54 524 217 1125 97 356 167 548 250 688 90 152 206 262 324 308 46 19 77 23 167 23 98 1 117-2 174-26l64-27 47 43c204 182 526 180 716-6l42-40 73 27c279 102 520-26 689-364 66-133 124-289 170-461 16-58 58-215 94-350 138-511 181-757 172-990-7-206-37-322-117-457-42-69-138-167-213-217-64-42-187-90-259-100-40-6-59-17-112-65-74-67-176-124-266-147-101-27-264-23-362 9-54 18-79 22-82 14-1-7-10-50-20-95-63-315-235-577-448-680-74-36-111-44-154-31m152 134c22 13 63 45 91 72 143 134 226 300 278 555 14 70 35 150 47 178 28 65 110 140 203 185l68 33-27 18c-25 16-30 16-78 1-195-60-401-62-579-5-65 21-68 21-88 3-23-21-26-35-7-35 25 0 146-68 185-104 64-59 86-121 86-241 0-145-36-246-122-337-53-57-109-92-196-124-56-20-61-24-64-54-5-46 27-136 59-171 28-30 28-30 66-14 21 9 56 27 78 40m18 750c31 10 57 22 57 25 0 36-129 129-207 150-26 7-52 16-56 20-5 5-37-5-72-21-74-33-197-69-239-69-28 0-28-1-12-19 25-27 124-78 187-96 74-21 263-15 342 10m916 3c61 24 161 82 161 94 0 4-10 8-23 8-37 0-168 39-239 72l-68 31-93-45c-90-44-167-104-167-132 0-12 21-21 110-46 61-17 258-6 319 18m-1359 208c82 24 148 53 218 97 34 21 62 40 62 42s-23 17-50 35c-78 50-172 159-219 253-121 245-136 478-70 1072 11 99 22 187 24 195 3 8 12 67 20 130 60 431 129 696 224 850 17 28 31 54 31 59 0 22-97 46-185 46-110-1-171-26-257-104-148-135-259-375-378-816-192-713-247-1027-221-1258 20-188 73-315 176-426 99-106 216-169 359-192 70-11 200-3 266 17m1781 10c173 54 318 194 384 368 13 35 31 103 41 152 29 155 6 415-65 734-39 177-189 733-236 880-139 429-320 640-547 640-48 0-171-30-187-45-2-2 6-16 17-32 108-154 182-431 251-948 74-552 92-892 57-1085-38-213-154-403-303-498-24-15-42-31-40-36 6-17 169-105 236-127 125-42 264-43 392-3m-951 124c309 47 492 213 567 514 41 165 34 441-23 906-74 599-127 845-224 1034-57 111-104 172-172 222-209 153-482 110-637-100-131-176-193-393-270-936-97-686-103-966-25-1199 43-128 113-235 196-299 161-123 372-174 588-142"/><path d="M15642 11940c-127 60-227 196-268 365-33 132-22 352 27 571 23 104 43 133 79 114 26-14 25-37-11-215-26-133-32-359-10-445 35-143 124-265 228-311 75-33 76-34 87-52 16-24-4-51-40-55-17-1-56 10-92 28m791 161c-108 63-204 203-244 358-12 44-23 126-26 197-6 119-5 121 18 137 20 14 26 15 44 3 17-12 21-28 26-129 8-143 21-201 66-296 41-87 106-161 174-197 52-29 64-52 42-83-19-28-38-26-100 10"/></svg>