<svg xmlns="http://www.w3.org/2000/svg" fill="#3f3d3d" viewBox="679 10912 3729 3875"><path d="M2577 11020c-33 27-100 167-126 265-17 64-40 225-41 281 0 7-25-1-57-17s-97-46-145-68c-57-26-106-57-140-89-62-57-80-65-104-48-14 11-16 22-10 67 11 85 46 156 128 263l22 29-97-7c-112-7-200-26-294-62-78-29-119-53-180-106-51-44-56-45-82-19-17 17-18 25-9 58 13 49 67 132 125 194 25 27 44 51 42 52s-33 16-69 32c-332 153-578 429-694 780-69 205-87 496-47 725 83 472 379 854 841 1085 490 245 1146 272 1672 69 553-214 923-663 998-1211 18-129 8-411-18-524-97-414-308-695-671-894-56-30-106-55-112-55-18 0-5-17 40-51 24-19 57-53 74-76 29-41 29-43 13-68-20-31-32-31-76-2-109 72-243 92-422 63-54-9-119-16-145-16l-48-1 41-37c44-40 141-92 171-92 52 0 85-68 44-90-30-15-201-12-278 6-75 17-202 75-229 105s-35 23-28-24c15-111 61-221 136-328 32-46 37-60 29-80-12-32-44-60-112-98-64-36-106-39-142-11m116 101c34 28 36 33 24 48-34 38-100 187-122 277-21 81-25 120-25 243 0 116 3 151 16 169 18 26 37 28 59 5 14-13 16-28 10-83l-7-67 49-42c26-23 84-59 128-81 127-62 135-60 63 12-35 35-70 78-77 96-12 29-12 35 3 51 15 17 28 18 115 14 67-4 134 0 213 12 63 9 138 16 166 14 63-5 56 2-33 34-79 27-153 42-300 57-80 9-103 15-117 32-10 11-18 24-18 29 0 4 25 34 57 66 97 100 156 211 179 338l7 40-42-53c-54-68-117-126-200-184-95-66-277-168-301-168-22 0-320 151-410 208-30 19-79 55-107 80-29 24-53 42-53 38 0-3 11-31 25-62 38-85 108-178 175-229 36-28 60-54 60-65 0-33-38-50-116-50-167 0-334-56-432-145-29-26-51-49-50-51 2-2 33 7 68 20 119 43 224 60 383 60 132 1 150-1 162-17 21-29 13-43-62-121-39-40-76-82-82-94-10-19-6-18 57 8 37 16 93 39 124 51 32 13 73 35 92 51 32 26 34 33 41 108 9 100 28 125 76 100 18-10 19-19 13-163-7-159 3-280 33-392 20-77 90-225 106-225 7 0 29 14 50 31m-948 785c57 33 188 74 235 75 19 0 43 4 53 8 17 6 14 12-23 56-51 62-123 209-144 296-22 91-21 175 2 187 27 15 57-3 85-50 36-61 121-144 197-194 36-23 139-80 229-128l163-86 130 77c206 123 306 219 381 369 29 57 41 65 74 53 30-11 38-45 37-164 0-146-37-249-135-381-21-29-35-54-32-58 4-3 26-6 49-6 56 0 169-24 268-56 93-31 104-29 253 46 165 83 332 224 433 366 53 76 135 240 163 329 57 182 62 217 62 435 0 178-3 219-23 309-156 696-816 1161-1647 1161-415 0-771-105-1087-322-207-141-352-313-468-552-70-144-115-303-125-442-4-49-8-102-10-118-6-44 14-250 31-325 81-360 275-628 586-813 57-34 188-95 209-97 4-1 28 11 54 25"/><path d="M1455 12210c-64 48-173 160-221 226-96 134-163 321-185 518-10 91-6 235 8 294 7 31 37 46 64 31 21-11 21-15 15-129-14-232 39-452 147-622 57-88 131-172 197-223 75-57 88-79 64-106-23-26-42-24-89 11"/></svg>