<svg xmlns="http://www.w3.org/2000/svg" fill="#3f3d3d" viewBox="12245 8205 3664 3292"><path d="M13883 8299c-206 33-439 161-555 305-26 32-78 111-115 174-37 64-91 139-119 168-54 56-151 122-253 174-194 97-337 230-420 389-71 138-96 270-80 428 30 288 193 486 530 642 81 37 172 105 220 163 19 24 82 110 140 193 57 82 132 180 168 217 116 124 271 209 440 243 107 22 357 16 436-9 28-9 66-22 85-27 51-16 145-65 209-109 80-55 160-137 271-280 139-178 206-238 365-325 349-192 527-411 601-740 23-104 23-299 0-410-32-150-108-314-200-434-126-163-279-264-501-332-263-80-282-89-441-206-140-103-276-174-389-203-89-24-304-35-392-21m360 110c109 27 246 97 352 180 133 104 194 136 355 187 263 83 355 126 463 216 147 124 274 355 307 562 16 94 8 290-14 371-57 205-174 385-321 495-28 21-120 79-205 130-233 139-272 174-433 386-134 177-264 280-427 336-196 67-425 64-600-9-160-66-264-163-419-391-107-158-193-256-271-309-25-17-99-59-165-94-66-34-138-73-159-87-129-81-233-237-267-402-16-76-6-250 19-320 42-120 94-200 184-286 75-71 118-101 258-179 220-121 285-182 394-366 85-143 168-239 258-301 101-68 226-116 363-139 75-12 240-2 328 20"/><path d="M13963 9079c-88 24-195 76-267 131-67 50-155 160-195 243-104 211-92 481 30 682 32 53 127 159 177 197 40 32 125 76 193 102 57 21 234 50 249 41 3-2 30-4 60-6 276-14 530-232 610-523 26-95 29-263 5-351-64-240-245-432-480-505-102-32-284-37-382-11m353 100c97 29 163 70 245 151 132 131 181 246 183 430 1 93-3 128-21 185-97 307-402 487-713 421-207-44-385-203-457-408-33-94-37-259-9-353 68-227 240-388 471-441 77-18 219-11 301 15"/><path d="M13959 9324c-81 33-119 59-176 119-55 58-93 125-111 197-23 88-20 123 12 138 34 15 56-4 66-59 18-98 51-162 114-224 61-61 146-105 200-105 25 0 56-28 56-51 0-44-74-51-161-15"/></svg>