<svg xmlns="http://www.w3.org/2000/svg" fill="#3f3d3d" viewBox="10558 559 3508 4860"><path d="M11394 685c-32 78-5 204 58 264 24 24 26 29 21 103-13 186 101 336 300 395 38 11 62 28 104 74 90 97 248 160 363 145l45-6-30 22c-39 28-167 156-186 186l-14 23-60-30c-201-102-421-41-546 152-21 32-41 72-44 88-5 23-11 29-23 23-229-97-454-19-559 193-35 71-37 81-38 172 0 120 19 179 87 268 27 36 48 66 46 67-212 138-280 342-184 552 52 114 195 222 313 239l48 6v112c1 93 4 122 24 170 30 77 122 175 198 213l62 31c1 1-6 28-17 61-29 82-36 147-23 217 26 139 111 253 237 316 38 19 70 34 71 34 1 1-3 31-9 69-9 57-9 79 6 142 40 166 166 286 335 315 214 38 427-131 449-357l7-69 75-6c141-12 273-103 335-234 25-52 29-74 32-160l3-100 52-6c117-13 232-99 284-212 26-55 29-73 29-163 0-96-2-103-38-177-37-74-37-78-28-137 6-33 8-66 6-73s-6-26-9-43l-5-32 52 21c41 16 75 21 157 21 94 1 111-2 163-26 76-36 174-134 213-213 27-56 29-68 29-175 0-108-2-119-31-180-43-91-116-163-208-206-41-19-85-34-97-34-20 0-21-1-5-23 68-92 103-222 87-324-29-189-158-320-344-352-77-13-127-8-207 20-30 11-62 21-70 22-23 3-96-129-136-248-29-87-38-130-41-205-6-122 7-148 95-201 76-45 154-64 239-56 52 5 143 38 143 51 0 2-24 17-53 34-99 56-176 164-177 246 0 88 73 176 162 196 184 39 315-165 242-374-18-49-18-46 9-46 40 0 111 29 150 61 36 30 97 121 97 145 0 7-15 15-34 18-18 4-54 25-80 47-56 50-74 101-52 152 49 119 202 72 243-75 16-56 18-59 42-53 58 13 97 63 123 155 7 25 20 46 28 47 76 14 45-147-43-223-23-19-65-41-93-50-47-13-52-18-63-57-41-142-183-246-334-247-64 0-72-2-110-35-108-93-269-104-441-30-33 14 39-80 139-181 88-89 222-187 302-220 43-18 53-29 53-61 0-16-8-25-25-29-35-9-59-1-146 49-154 88-302 233-430 419-33 48-81 104-107 124-56 42-165 96-247 120-78 23-213 23-279 0-47-17-146-81-146-95 0-3 26-11 58-17 120-23 241-103 281-187 24-50 28-132 8-180-20-46-65-96-116-129-37-23-56-28-108-28-82 0-139 27-198 92-71 79-107 214-85 314 5 21 8 40 6 41-8 8-108-52-140-85-63-62-104-169-92-237 6-29 8-30 64-31 92-1 146-42 159-120 5-29 1-38-30-69-27-27-43-35-70-35-50 0-99 24-135 65-17 19-34 35-36 35-3 0-13-11-22-25-25-39-34-95-22-143 8-32 7-46-2-57-22-26-50-18-66 20m296 199c0 21-48 56-76 56-30 0-30-10 1-44 26-28 75-36 75-12m435 139c67 33 106 110 85 171-24 74-128 144-251 170-82 17-90 11-97-82-8-119 40-216 130-261 44-21 88-21 133 2m1185 537c25 89 1 194-55 238-55 44-149 17-182-52-15-32-15-38 1-79 20-53 97-130 159-157 39-18 43-18 55-3 7 10 17 33 22 53m-780 132c-20 62-41 137-45 166-5 36-12 55-24 59-63 20-165 80-209 123l-51 50-22-42c-12-24-30-55-40-69-19-26-18-27 13-70 53-74 147-156 278-245 69-46 128-84 132-84 3 0-11 51-32 112m138 90c11 47 30 105 41 128l20 42-22-7c-12-4-46-13-75-20-30-8-56-16-59-19-7-6 13-95 39-180 25-78 24-79 56 56m977 15c-15 62-71 111-98 84-16-16 8-59 52-88 45-30 55-29 46 4m-1710 137c71 32 116 75 156 148 32 58 34 70 34 153 0 128-27 181-143 279l-85 73-51-38c-61-47-136-77-214-85-67-8-85-21-120-89-23-43-27-62-26-140 0-70 5-100 21-137 42-92 137-169 233-189 54-12 139-1 195 25m688 80c81 19 154 72 197 142 106 175 45 385-139 477l-54 26-38-53c-66-92-163-149-283-167l-75-11-7-55c-20-166 81-315 245-359 60-16 84-16 154 0m644 147c197 95 239 354 84 521-22 24-62 54-88 67l-48 22-56-54c-63-61-159-112-231-122l-48-7 19-27c53-74 78-245 50-345-13-48-8-53 73-77 84-25 163-18 245 22m-1934 42c53 24 57 28 57 60 0 42 34 155 54 182 23 30 19 40-21 59-111 53-194 149-229 266-18 60-18 61-48 54-58-12-154-64-186-101-58-66-84-137-85-228 0-94 24-152 89-223 93-101 239-129 369-69m1066 359c78 40 139 109 171 195 31 83 26 206-14 286-31 64-103 134-174 169-39 19-63 23-142 23-113 0-167-21-240-95-193-192-111-525 150-611 14-5 61-7 104-5 66 4 91 10 145 38m-669 24c30 14 69 39 87 56l31 30-21 57c-30 81-29 223 2 311l23 64-34 28c-68 56-137 82-218 82-66 1-84-3-142-32-189-93-247-324-122-493 65-88 146-128 264-128 60-1 86 4 130 25m1273 129c246 121 250 467 6 600-131 71-306 28-402-98l-27-35 36-59c60-100 80-208 61-329l-8-50 68-33c61-29 75-32 138-28 51 3 86 12 128 32m503 140c67 30 129 93 163 164 22 47 26 70 26 141 0 105-22 158-95 230-70 71-125 94-225 94-69 1-88-3-137-28-31-16-71-44-89-62l-32-34 47-47c106-108 144-257 104-411-13-52-7-59 53-71 62-11 125-3 185 24m-2394 53 66 16 6 40c20 121 132 265 239 304 28 11 52 25 52 32s-32 20-72 30c-102 27-197 91-244 167-22 35-23 35-76 29-30-3-80-19-112-35-200-102-247-365-92-520 46-46 129-93 151-85 8 3 45 13 82 22m811 286c9 22 126 99 182 118 30 10 80 17 127 18h76l18 52c97 281-183 546-442 418-119-58-184-165-184-303 0-59 5-83 29-132 29-61 51-86 131-149 51-40 56-41 63-22m597 62c0 9-100 107-105 103-2-2-6-15-10-29-5-22 0-28 42-51 48-27 73-34 73-23m-870 59c0 16-9 19-34 9-25-9-19-24 9-24 16 0 25 6 25 15m1067 97c60 27 181 34 250 15 59-16 58-16 92 51 32 62 39 166 17 234-21 64-84 150-134 183-60 39-153 59-223 46-80-14-126-37-179-91-72-72-94-127-94-240-1-112 20-167 91-238l43-43 45 31c25 17 66 41 92 52m-1112 88c3 136 51 241 151 329 45 39 46 42 34 70-18 45-109 125-165 147-74 28-195 26-255-5-62-32-127-96-158-156-20-39-26-69-30-136-4-78-2-91 24-144 36-78 106-147 175-173 42-17 73-21 138-19l84 2zm877 422c62 60 68 70 68 107 0 165-151 311-322 312-93 1-154-25-224-95-75-75-107-156-102-258l3-63 77 3c130 6 245-39 334-129l49-50 24 53c15 33 51 79 93 120m664-15c84 288-252 499-475 298l-42-38 6-61c9-89 6-85 65-73 120 24 264-26 360-124 30-31 58-57 62-58 4 0 15 25 24 56m-1291 298c23 49 149 176 192 194l32 13-19 50c-55 145-163 221-315 222-68 0-88-4-132-27-63-33-125-95-156-157-18-37-22-62-22-140 0-83 3-102 26-145l25-50 67-7c76-7 163-43 215-89l36-32 16 64c9 35 24 82 35 104m762 75c19 17 66 46 105 66l70 35-4 77c-14 281-317 421-521 241-62-54-107-145-107-215v-53l63 1c118 0 222-44 302-128 27-29 52-53 54-54 2 0 19 14 38 30m-444 454c27 31 70 65 107 85l63 34-5 66c-9 118-78 219-183 267-49 23-67 26-133 22-94-5-140-25-204-90-58-60-88-135-88-223 0-87 12-115 49-115 42 0 139-32 186-62 22-14 58-44 80-66l40-40 22 35c11 19 41 58 66 87"/></svg>