<svg xmlns="http://www.w3.org/2000/svg" fill="#3f3d3d" viewBox="1040 5485 11210 9105"><path d="M3410 5571c-96 11-238 52-314 90-95 48-145 86-236 178-71 71-94 103-136 186l-50 100-159 2c-88 2-189 8-223 13-181 30-323 163-376 351-8 29-20 99-26 154s-15 134-20 175-19 178-31 305c-11 126-22 230-22 230-17 5-134 105-188 162-55 58-81 97-114 167-147 315-190 429-205 551-8 61-16 85-49 132-92 137-141 272-141 392 0 92 21 145 76 190 145 118 165 131 203 131 21 0 53 7 71 16 48 25 134 14 171-22 28-27 52-84 65-156l6-37 33 24c24 19 44 25 83 25 61 0 104-31 123-87 14-44 6-193-15-252-18-53-8-52 27 4 46 71 132 127 256 165 31 9 55 22 54 28-2 7-8 65-13 130-6 65-17 159-24 208-19 123-54 174-191 276-97 72-155 131-155 155 0 6-55 50-121 99-200 146-268 202-284 234-28 54-20 141 25 252 45 113 137 278 219 392 146 204 335 305 464 248 64-28 131-93 158-155 20-44 24-67 23-152 0-65-7-121-18-160-38-126-35-135 49-159 100-30 382-204 483-300 72-68 149-186 216-331 30-66 66-142 79-169l24-50 47 65c69 93 173 270 185 315 6 22 11 118 11 215 0 133 4 187 16 222 13 39 14 62 5 153-6 59-11 180-11 268 0 214 12 235 156 277 165 47 549 85 716 69 164-15 247-53 286-130 48-96 10-268-78-348-42-39-122-88-195-120-65-28-70-33-78-68-6-29-3-49 12-85 32-72 61-334 61-535 0-161-57-323-233-663l-89-173 7-92c4-50 13-127 21-171s21-129 29-189 17-111 20-114c2-2 42 17 87 43 235 136 287 154 583 200 128 20 331 16 407-8 45-14 48-14 104 14 31 16 65 29 75 29s20 4 23 9c4 5-3 81-14 168-142 1149-227 1814-250 1970-9 60-9 76 4 101 47 91 189 109 240 30 9-13 23-92 35-188 12-91 32-248 45-350 30-227 82-633 96-755 6-50 24-189 40-310s41-315 56-432l27-211 41-6c90-14 162-85 170-168 2-18 13-49 24-68 27-43 36-88 28-137-3-21-6-49-6-63 4-137 1-150-49-203-14-16-46-38-69-49-41-18-44-22-38-51 3-18 10-78 17-134s15-107 19-113q15-24 180-36c176-12 307 21 552 140 184 90 301 124 449 133 164 9 385-32 408-76 9-17 44-241 56-361 7-69 48-378 65-495 6-39 14-113 17-165 8-129 6-130-130-106-139 25-298 31-383 17-98-17-161-41-325-119-79-38-180-82-224-98-76-26-89-28-250-29-93 0-193 4-220 8l-51 8-12-35c-23-64-117-101-185-73-64 27-62 19-123 507-14 113-47 374-73 580l-47 375-42 7c-51 8-124 40-175 75l-38 27-82-22c-45-13-156-40-247-62-108-25-184-49-220-69-55-30-246-193-431-367-53-51-106-95-118-99-11-3-21-9-21-13s31-42 70-85c115-131 190-304 206-476 3-36 7-80 9-96 2-17 0-73-5-125-29-277-148-502-345-651-109-82-295-155-419-164-39-3-89-7-111-9-22-1-74 1-115 5m207 109c196 21 373 113 496 258 46 54 97 135 97 153 0 5-20-5-45-22-134-91-302-132-535-132-129 0-169 3-240 22-253 67-363 208-400 511-18 148-8 296 26 369 50 112 148 183 334 245 185 61 431 71 614 25 43-11 80-18 83-16 2 3-29 23-69 45-248 136-576 129-873-18-162-80-270-183-321-308-29-70-29-82-5-82 59 0 137-129 147-245 7-78-8-169-36-225-17-34-69-80-89-80-21 0-20-21 2-72 112-254 385-427 687-437 19 0 77 4 127 9m446 501c80 70 127 194 127 333 0 64-26 126-53 126-28 0-37-25-37-105 0-136-47-257-122-317-55-43-52-78 7-78 23 0 45 11 78 41m-1504 116c-76 155-48 347 60 413 22 14 41 31 41 38 0 8 12 43 26 78l26 64-29 34c-26 31-33 33-108 39-69 5-92 11-167 51-48 24-89 42-92 38-5-9 18-226 43-397 11-77 25-192 31-255 18-177 6-160 108-160h89zm-224 20c-3 38-22 183-40 323-19 140-39 298-45 351l-12 96-46 22c-25 12-92 52-149 88s-106 63-108 61c-11-11 75-704 94-761 49-142 165-241 290-246 23-1 23 0 16 66m466-36c35 37 43 77 37 179-6 103-37 168-91 189-53 20-90 2-118-56-19-39-21-57-17-132 8-131 55-211 124-211 27 0 43 7 65 31m3031 66c5 24-26 278-117 958-14 104-32 253-41 330-8 77-17 146-20 153-2 8-15 0-36-23l-32-37 22-171c12-95 33-262 47-372 57-455 106-831 110-843 7-19 63-15 67 5m582 103c38 12 129 51 203 86 183 88 252 113 363 130 121 18 210 18 334-1 55-8 101-13 103-11s-8 86-21 187c-14 101-37 276-51 389s-31 245-38 295l-12 90-38 12c-104 34-259 42-379 19-105-20-174-45-338-124-228-109-314-133-489-136-58 0-139 3-180 7l-74 8 7-48c4-26 20-154 36-283 47-364 81-615 86-619 18-18 136-30 269-27 121 3 163 8 219 26m-2274 301c0 25-32 69-50 69-44 0-46-65-3-89 19-10 53 2 53 20m-1215 366c99 75 276 147 450 185 34 7 126 13 215 13 131 0 169-4 245-24 50-13 111-34 138-47l47-24v30c0 89-209 170-441 170-180 0-335-36-515-120-211-98-370-260-312-318 10-10 25 0 73 46 33 32 78 72 100 89m-260-31c58 62 95 243 76 369-14 98-45 188-83 242-16 25-32 43-34 41-1-2 4-24 13-48 9-28 18-94 21-170 4-106 1-139-17-210-23-93-71-181-114-212-38-27-21-38 56-38 50 0 61 4 82 26m-178 66c116 129 138 420 45 592-21 38-37 54-72 69-102 44-210 97-247 120l-39 24-51-76c-69-101-147-191-206-238-40-32-47-42-43-64 3-15-3-38-15-58-10-17-19-37-19-44 0-13 102-97 117-97 13 0 104 97 157 167 34 46 54 63 71 63 27 0 233-133 242-156 9-24-22-81-95-171-37-46-65-86-63-90 3-5 32-20 65-35 76-34 125-36 153-6m-234 148c29 33 62 75 72 94 23 42 18 49-66 101l-62 38-36-44c-19-24-59-69-88-100l-53-56 77-46c43-26 83-47 90-47 6 0 36 27 66 60m787 82c175 79 350 118 533 118 179 0 294-28 450-108 4-2 7 86 7 196 0 348-73 927-121 952-25 14-195 40-258 40h-53l6-83c12-145 7-137 84-137 80 0 128-21 155-67 31-54 57-206 63-373 5-149 4-156-18-194-44-76-81-85-442-111-385-28-447-21-480 53-26 60-57 238-63 364l-6 117-56 17c-107 31-165 36-239 19-37-9-82-24-99-35-29-17-31-22-23-50 5-18 12-70 16-116 6-80 8-85 33-91 78-18 179-112 225-208 48-99 61-161 61-305v-135l80 54c44 30 109 67 145 83m1106-75c33 36 38 60 31 172-5 79-53 311-69 326-1 2-3-116-3-261s4-264 8-264 19 12 33 27m206 205c46 39 112 97 147 129l63 59-50 54c-27 31-66 84-86 120-36 65-106 257-106 293 0 11-3 22-6 25-5 6-129-63-186-104-41-28-37-74 11-168 48-92 99-258 106-348 7-83 15-132 20-132 2 0 41 32 87 72m-2562 33c40 48-97 245-170 245-18 0-30-5-30-13 0-36 154-247 181-247 4 0 12 7 19 15m126 187c112 116 201 245 190 275-6 14-15 8-54-28-80-77-148-128-215-163l-64-34 36-55c20-31 38-56 41-56 3-1 33 27 66 61m1159-35c-12 33-26 123-38 250-11 112-14 127-34 141-23 14-23 14-23-40 0-116 31-305 56-346 17-27 50-31 39-5m270-7c72 5 193 14 270 19 164 12 202 22 213 59 11 41 5 195-13 312-23 154-31 179-63 192-47 18-446-3-520-28-9-3-3-17 22-46 58-67 60-131 7-190-25-28-36-32-91-36l-62-5 6-71c10-104 26-179 44-199s17-20 187-7m1298 61c12 7 23 13 25 15 2 1-15 33-37 70-48 80-95 218-109 322-6 41-12 76-14 78-3 2-20-1-39-6-18-6-47-10-62-10-28 0-29-1-22-41 21-122 95-287 175-387 45-56 50-58 83-41m270 77c90 21 107 28 101 41-44 100-48 126-49 286 0 112 4 167 13 182 12 22 12 23-35 23-50 0-265-33-318-48-23-6-31-16-37-43-22-94 50-343 127-446 29-37 23-37 198 5m627 2c38 38 61 98 58 153-3 50-4 52-35 55-28 3-37-3-80-57-28-36-56-61-67-61-16 0-18 5-12 46 5 43 4 47-37 92-46 50-51 82-13 82 12 0 32-7 44-16 13-9 24-14 26-13 1 2-3 47-10 99s-13 112-13 132c-1 47-12 48-91 8-90-45-104-78-98-234 3-85 9-130 20-151 57-107 251-192 308-135m-3715 55c62 34 169 122 204 167l20 25-55 109c-30 59-58 112-64 118-5 5-35-11-78-43-38-28-96-63-128-77-70-31-194-64-241-64-44 0-43-10 16-145l48-110 76-5c42-3 80-9 84-14 11-11 52 2 118 39m3343 10c2 2-3 25-11 52-40 125-44 241-11 338 7 22 10 43 6 46-4 4-25 9-47 12-52 8-62-7-77-119-14-99 1-230 33-303l19-44 42 7c23 4 44 9 46 11m601 30c31 15 41 33 41 70 0 25-22 35-82 35h-36l-4-60c-3-60-3-60 25-60 15 0 41 7 56 15m-3371 70c-2 2-21 0-42-4l-39-6 39-21 39-20 3 24c2 13 2 25 0 27m-115 27c-32 36-63 104-63 140 0 41 46 122 95 167 29 27 35 39 31 60-4 14-13 79-21 143-18 139-22 153-41 137-8-6-14-9-14-6 0 13-84-25-150-67-53-34-76-57-99-98-17-29-31-63-31-75 0-13 15-47 34-76s55-97 80-150c43-90 52-102 114-147 71-53 99-64 65-28m927 47c5 11 10 26 10 34 0 23-138 134-221 177-243 127-554 98-673-63-39-53-17-147 35-147 14 0 16 7 12 40-7 49 10 71 79 106 152 77 341 71 518-18 55-28 102-61 135-95 53-55 87-66 105-34m2598 88c3 52 2 53-32 69-65 32-225-13-239-66-4-17 0-20 23-20 16 0 41-5 57-12 30-12 123-26 163-24 23 1 25 5 28 53m-4165 66c80 29 139 64 196 114l44 39-18 30c-11 16-20 30-21 32s-44-19-95-47c-93-49-247-101-301-101-26 0-28-3-28-43 0-24 3-47 8-51 13-14 148 3 215 27m2855 43c7 2 11 8 7 13-6 11-61-5-71-20-5-9 25-5 64 7m1102 30c19 7 63 13 98 14 59 0 62 1 62 25 0 18-10 31-32 46-61 38-175 15-212-43-15-25 9-72 32-63 9 4 33 14 52 21m-2330 38c63 8 152 18 198 22l83 7-5 41c-3 23-8 72-12 110l-6 69-181-6c-177-6-292-20-447-51-135-28-340-83-340-92 0-3 9-3 19 1 11 3 57 6 103 6 127 1 260-35 383-103 27-15 59-26 70-24 11 3 72 12 135 20m-1718 60c114 33 233 89 252 118 19 28 43 130 52 219 5 54 4 68-11 83-17 16-18 16-37-1-11-9-28-39-40-65-21-48-43-64-77-53-32 10-52 53-85 178-25 97-35 121-52 128-49 17-54-14-41-251 2-40-1-45-21-48-31-5-50 45-66 167-13 107-27 123-66 74-20-26-22-35-17-113 4-47 9-104 13-128 6-41 6-42-20-42-32 0-47 29-67 128-7 34-16 62-21 62-10 0-28-68-28-105 0-51 55-192 112-285 53-90 53-90 94-90 23 0 80 11 126 24m3996 93c5 2-46 459-73 653-24 175-116 890-134 1050-14 119-60 459-67 492-5 23-11 28-36 28h-31l6-98c3-53 19-194 36-312 32-238 54-403 121-935 6-44 26-199 45-345s42-333 51-416l17-151 31 16c17 9 32 17 34 18m-2978 33c203 61 492 120 588 120h43l-3 62-3 62-50-3c-229-14-722-148-719-195 0-9 1-32 2-52 2-30 5-35 20-31 9 3 64 20 122 37m1350 139c0 22-7 46-15 54-12 13-139 41-282 62-48 7-50 3-37-76l6-35 107-13c58-8 122-17 141-21 73-16 80-14 80 29m-502 1h92v44c0 77 2 76-126 76h-114v-28c0-15 3-44 7-65 5-33 9-38 27-33 12 3 63 6 114 6m-893 45c433 149 936 194 1295 115 65-14 88-16 97-7 6 7 60 106 118 222l107 210-48 7c-196 30-249 64-269 171-5 27-12 37-25 37-10 0-82 20-159 44-161 50-141 55-210-59-41-68-56-90-114-167-26-35-27-38-10-44 95-33 173-89 173-125 0-32-39-28-118 12-50 26-99 43-141 49-74 10-92 24-116 88-17 45-94 213-101 221-2 2-25-10-51-27s-84-47-128-68c-104-47-175-52-225-13l-34 26-36-20c-19-11-66-46-104-76-38-31-75-61-82-67-11-9-10-37 6-170 24-190 51-376 57-387s9-10 118 28m-132 657c32 27 61 48 65 48 4 1 22 13 40 29l32 28-36 47-36 48-50-49c-28-26-70-77-93-113-41-61-42-65-26-86 18-25 10-28 104 48m1790-8c30 63 48 157 50 253 1 109-2 115-85 132-76 17-152 14-177-7-21-18-40-80-62-208-14-86-6-139 24-158 24-16 130-39 194-44 36-2 41 1 56 32m-1917 98c21 29 62 78 91 109 51 54 53 58 47 97-3 22-1 56 6 76 13 42 102 126 160 153 22 10 40 23 40 30 0 12-126 89-202 123l-47 21-39-20c-121-62-250-204-306-338-31-73-32-103-8-132 18-22 203-169 214-170 3-1 23 23 44 51m553 9c47 22 100 51 118 65l33 25-29 58c-34 66-162 208-213 235l-35 19-69-37c-137-72-170-125-121-197 145-212 153-221 198-213 19 4 72 24 118 45m1021 100c0 22 4 49 10 59 12 22 7 24-165 46-123 16-129 16-142-2-24-33-16-51 30-68 53-19 196-63 222-69 42-10 45-8 45 34m-1915 166c13 54 101 189 165 254 36 36 91 81 122 98l57 33-21 29c-12 16-24 29-26 29-3 0-34-14-70-31-76-35-117-36-117-1 0 20 12 28 78 54 54 21 84 39 101 61 48 64 72 227 46 314-12 40-16 43-48 43-82 0-231-125-331-276-67-102-152-269-191-374-16-45-30-85-30-89 0-5 24-24 53-44 28-20 83-59 121-86 39-27 73-48 77-45 4 2 10 16 14 31m1964 22c29 55 77 76 171 75 41-1 95-8 119-17l43-16-6 92c-9 120-25 205-43 223-8 7-40 22-71 31-82 26-372 26-454 0-86-26-88-32-88-229v-168l38-1c20 0 73-6 117-14 140-22 152-21 174 24m-2255 254c114 326 330 600 521 663l20 6-20 8c-36 15-88 10-134-12-97-47-256-240-348-422-43-86-103-241-103-268 0-22 17-58 28-58 4 0 20 37 36 83m2061 233c84 19 369 15 423-6 18-7 35-11 37-9s6 21 10 41c5 28 4 39-6 43-119 41-129 47-129 71 0 36 18 38 100 8 50-18 84-24 108-21 46 8 155 60 202 97 44 35 99 135 83 151-6 6-37 18-69 27-72 20-419 23-554 4-85-12-318-66-328-76-6-7-5-75 4-239 6-115 7-118 28-112 11 3 53 13 91 21m-20 428c254 69 660 86 813 33 47-16 51-11 21 26-29 38-105 58-244 64-136 6-374-15-538-48-127-26-157-41-157-75 0-29-2-29 105 0"/><path d="M3245 7759c-61 26-78 109-30 156 36 37 97 35 136-4 75-75-7-192-106-152m65 85c0 14-4 27-9 30-18 11-41-6-41-30 0-19 5-24 25-24s25 5 25 24m160-52c-13 22-20 51-20 85 0 78 16 89 131 97 52 4 105 9 119 12 46 9 62-15 68-98 4-72 3-77-19-91-13-8-64-20-114-26-137-17-142-16-165 21m163 45 67 6v38c0 37-1 38-32 34-18-3-59-7-90-10l-58-6v-35c0-39-1-38 113-27m-182 207c-15 18-31 121-20 137 16 27 277 41 296 16 6-6 13-34 16-61 6-64-11-82-89-90-184-18-190-18-203-2m150 66c54 0 71 4 76 15 3 9 4 18 1 20-5 5-179-12-185-19-10-10 9-27 24-22 8 3 46 6 84 6m7572 2930c-33 13-60 62-178 311l-107 225-201 23c-346 38-338 37-374 76-49 52-41 100 29 172 23 24 40 44 37 47-2 2-60 11-129 20-579 77-1305 325-1855 632-319 178-682 444-923 676-117 113-138 142-124 173 10 22 18 25 59 25 27 0 93-7 148-15 55-9 171-18 258-22l158-6-93 129c-145 202-272 406-353 567-41 81-75 154-75 161 0 22 29 46 55 46s67-22 295-160c199-120 560-319 580-320 3 0 0 42-7 92-7 51-16 200-19 330-6 213-5 240 10 263 13 19 24 25 44 23 21-2 48-31 132-144 342-456 754-884 1170-1216 228-182 516-379 735-504 177-102 179-102 171-67-3 16-9 62-12 103-6 66-4 78 15 101 25 32 72 41 123 24 21-7 134-65 251-129s221-116 231-116c9 0 43 14 74 32 119 66 407 218 424 224 9 3 36 0 58-6 61-16 74-54 60-163-7-45-13-84-15-87-3-6-58-281-70-352-4-23 17-47 181-204 101-98 193-192 204-210 30-47 26-87-10-118-41-34-72-41-290-66-291-34-292-34-301-50-5-8-61-122-125-253-95-196-121-242-147-258-34-20-59-23-94-9m172 365c93 192 129 257 147 264 21 9 103 20 397 52 57 6 115 14 129 18 29 8 36 0-235 263-142 138-154 160-134 235 10 37 21 97 61 323 11 63 23 123 26 133 5 15 3 16-23 5-15-7-82-43-148-81-66-37-170-93-232-124l-112-57-88 45c-48 24-164 84-256 133-93 48-170 86-171 85-4-6 20-154 38-234 32-139 56-307 47-324-5-9-98-102-206-206l-197-190 68-11c38-6 161-22 273-35 182-20 207-26 233-47 15-13 28-28 28-32 0-15 220-470 227-470 2 0 59 115 128 255m-824 616c21 17 39 34 39 39 0 4-28 13-62 19-253 49-731 198-1013 317-49 20-193 90-320 153-378 191-722 417-1001 660l-74 63-192 5c-106 2-227 8-268 12-41 5-76 7-78 6-7-6 195-179 314-271 227-175 466-327 704-451 235-122 533-248 780-329 74-24 149-48 165-53 17-5 75-23 130-40 133-41 280-75 450-106 379-68 372-67 426-24m142 143c25 31 25 35 9 48-9 8-53 27-97 42-182 64-614 272-870 419-406 234-760 499-1088 815-155 150-193 181-243 201-86 35-394 200-574 307-85 50-156 91-158 89-20-19 409-665 508-765 102-103 502-392 728-526 512-305 1018-501 1697-657 47-11 63-6 88 27m7 142c0 3-7 30-15 59-14 47-20 55-68 80-124 67-164 89-189 106-14 11-29 19-32 19-15 0-272 166-446 287-460 321-914 755-1345 1286l-120 148-3-38c-7-73 26-403 53-529 3-12 64-80 137-152 357-350 755-643 1223-899 140-77 431-223 515-258 36-15 83-36 105-46 45-21 166-67 178-68 4-1 7 2 7 5"/></svg>