<svg xmlns="http://www.w3.org/2000/svg" fill="#3f3d3d" viewBox="5763 5203 2732 5103"><path d="M7016 5312c-29 46-99 302-135 498-19 97-51 316-51 342 0 7-32-23-71-65-124-135-250-229-428-319-115-59-147-68-169-46s-12 50 45 126c146 193 246 403 327 680 15 51 14 54-2 47-160-64-592-95-637-45-26 29-5 64 52 85 140 52 325 206 443 370 28 39 75 118 105 177l55 107-67 40c-168 100-342 299-430 491-41 89-100 270-127 392-40 183-57 312-63 503-20 617 147 1071 485 1323 139 103 310 165 525 192 121 16 408 8 523-13 527-98 837-491 905-1145 15-146 6-521-15-662-75-487-243-823-511-1023-44-33-99-68-123-78l-43-19 22-40c55-97 175-203 304-268 102-51 292-102 379-102 49 0 66-13 66-52 0-35-25-48-140-76-130-32-255-45-367-39-57 2-103 1-103-3 0-15 178-178 250-229 85-60 205-123 299-157 82-30 96-49 67-90-13-18-28-19-203-19-236 0-377 27-525 101-26 13-49 24-52 24-2 0 11-42 30-93 46-123 135-303 177-359 52-68 59-85 47-108-19-36-44-31-140 28-88 53-122 76-170 116-96 79-147 126-195 182l-52 61-21-123c-40-229-165-678-199-717-22-24-50-21-67 5m109 423c36 140 66 289 85 426l12 87-66 118c-37 66-72 134-78 151-7 18-14 33-18 33-3 0-16-26-30-58-13-31-46-95-73-142-47-83-49-87-42-145 20-195 81-525 121-662l18-58 18 60c11 33 34 118 53 190m-585 270c83 64 231 224 289 312 54 82 140 249 164 320 13 38 12 49-7 123-12 45-26 80-31 79-6 0-33-22-60-48-45-40-135-105-217-155-18-11-31-30-38-58-62-243-159-483-256-636-19-29-34-55-34-57 0-8 132 75 190 120m1089-4c-93 185-201 571-211 757-2 42-4 45-82 96-88 58-152 117-198 183-16 24-31 43-33 43-3 0-19-28-36-63-32-61-32-63-20-131 41-240 205-554 402-768 38-41 196-178 206-178 2 0-11 28-28 61m441 322c-92 52-169 109-248 182-66 61-172 186-172 203 0 6-19 16-42 23-24 6-53 15-66 20s-25 9-28 9c-11 0 40-283 54-307 11-17 179-99 251-123 70-23 209-47 281-49l45-1zm-1670 308c265 66 490 233 591 437 31 62 39 86 30 92-7 4-49 10-94 13-71 5-236 41-289 62-13 5-18 2-18-12 0-27-66-153-134-258-67-103-199-243-298-317-38-27-68-51-68-52 0-8 213 18 280 35m1643 156c37 3 67 9 67 12 0 4-29 14-65 23-197 52-390 192-488 356-20 33-37 51-47 48-8-2-51-13-95-25s-111-24-150-27c-38-3-76-8-83-10-24-7 28-82 110-159 177-166 453-247 751-218m-1105 523c-35 27-78 62-96 76l-33 27-45-44c-24-24-44-49-44-55 0-8 30-19 73-28 39-8 81-17 92-19 11-3 42-5 68-6l48-1zm372-39c88 14 140 28 140 38 0 5-19 30-43 56l-42 47-95-72c-52-40-97-74-99-76-8-8 75-4 139 7m-109 125c86 66 97 78 86 93-6 9-53 56-104 105-77 73-95 86-110 77-10-5-58-50-108-100-78-79-88-93-75-105 53-51 205-165 208-157 2 6 48 45 103 87m-527 1c31 32 56 62 55 68 0 5-19 24-42 41-23 18-78 59-121 93l-80 61-53-73c-29-39-53-77-53-82 0-10 52-52 125-102 26-18 106-63 112-63zm934-28c83 42 184 120 178 138-11 27-98 143-107 143-14 0-238-173-238-184-1-7 98-123 107-125 1-1 28 12 60 28m-603 372c0 6-162 142-240 202-23 18-24 17-92-60-38-43-82-95-98-117l-29-38 25-19c14-10 70-54 124-97l100-80 105 101c58 56 105 105 105 108m563-57c28 22 52 44 52 49 0 10-127 162-168 201l-31 29-117-99c-64-54-123-105-132-111-13-11 1-28 94-116l109-104 70 55c38 30 94 73 123 96m-1204-42c25 37 46 69 46 71 0 7-250 207-258 207-4 0-13-9-20-20-10-16-8-29 12-74 36-81 160-267 171-254 1 2 23 33 49 70m1564 15c62 92 122 202 122 226 0 8-8 21-17 29-17 14-29 7-149-90l-132-105 51-74c28-40 54-73 58-73s34 39 67 87m-1422 170c16 21 60 73 98 116 57 66 66 81 55 91-8 7-61 53-119 103s-111 98-119 107c-19 23-33 20-56-13-11-16-53-75-94-131-68-95-72-102-55-115 11-7 71-54 134-104s118-91 121-91c4 0 19 17 35 37m1322 65c70 55 131 104 136 109 8 7-61 107-149 215l-41 51-129-113c-70-62-132-117-138-123s25-50 89-125c55-64 101-116 102-116 2 0 61 46 130 102m-602 25 136 118-138 132-138 132-95-89c-53-48-116-109-141-134-44-46-44-46-25-65 22-22 257-211 262-211 2 0 64 53 139 117m-1035 230c34 49 78 107 96 131 19 23 33 46 31 50s-55 58-120 120l-116 114-51-76c-28-41-51-83-51-93s11-68 23-130c23-111 24-112 73-157 27-25 50-45 51-46 1 0 30 39 64 87m1975 115c13 57 24 113 24 126s-23 57-51 98l-50 75-123-116-124-116 100-133 101-133 50 48c48 46 51 52 73 151m-1286-36c115 115 133 137 120 147-9 7-78 66-155 131l-138 120-36-41c-20-22-78-87-129-144-88-98-92-104-75-121 52-51 259-227 268-228 6 0 71 61 145 136m675-31c64 55 128 110 142 121l25 22-82 93c-46 52-106 117-133 146l-50 51-124-111c-68-62-137-122-152-135l-28-22 136-135c75-74 139-134 143-132 3 1 59 47 123 102m-1078 307c50 57 107 119 127 138 19 19 36 38 36 41s-41 42-92 85c-50 43-111 96-134 117l-42 38-54-63c-92-107-178-216-178-226 0-11 230-232 241-232 4 0 47 46 96 102m1467 47 90 90-49 63c-60 76-176 212-185 216-4 1-66-50-139-113l-132-117 33-36c18-20 75-85 127-144l94-107 36 29c20 16 76 69 125 119m-706 3c81 72 149 134 152 136 7 6-291 292-304 292-6 0-80-66-164-148l-153-147 131-110c72-61 141-120 152-133 12-12 26-22 30-22 5 0 75 59 156 132m982 70v82l-35-38-35-38 31-44c16-24 32-44 34-44 3 0 5 37 5 82m-2227-31 24 36-33 36-34 37v-53c0-49 9-102 16-95 1 2 14 20 27 39m134 171c26 35 76 99 112 142l65 80-40 34c-80 70-171 142-180 141-5 0-35-31-67-69l-57-69-7-95-6-96 59-64c32-35 62-64 66-65 4 0 28 27 55 61m2093 157v83l-66 79c-36 43-70 79-74 79-9 0-72-52-169-137l-45-40 81-96c45-53 96-117 115-143l33-46 62 68 63 69zm-1464-122c27 27 96 91 153 144 60 56 101 101 97 107-11 18-273 222-284 222-14 0-294-271-290-280 3-7 268-240 273-240 1 0 24 21 51 47m829 59c61 52 120 105 132 117l23 22-143 143-144 143-144-116c-79-64-144-120-144-124 0-5 54-58 120-119 66-60 131-121 144-136 14-14 29-26 35-26s61 43 121 96m-1083 331c76 76 138 141 138 144 0 15-226 172-239 167-5-2-65-62-134-134l-126-130 107-92c59-50 109-91 111-91 3-1 67 61 143 136m1426-35c51 43 93 81 93 85s-55 66-122 136c-82 86-127 127-138 124-14-3-231-154-231-160 0-2 62-66 138-143 110-112 140-138 152-130 8 6 56 46 108 88m-733 34c55 47 120 100 144 117l43 32-42 37c-69 61-242 191-255 191-6 0-76-51-154-114l-143-114 27-20c16-11 82-64 149-118 66-53 123-97 126-97s50 39 105 86m990 34c-5 16-10 19-18 11-7-7-6-15 3-26 17-20 24-13 15 15m-2179-9c3 6 2 15-4 21s-11 2-15-11c-5-22 7-29 19-10m312 343c2 11-146 106-166 106-13 0-76-142-109-242l-26-81 29-23 28-23 121 126c66 69 121 131 123 137m1836-215c10 16-101 297-129 329-2 2-16-5-32-16-15-10-54-35-85-56-32-20-58-39-58-43 0-3 55-63 123-133l122-126 27 18c15 11 30 22 32 27m-1291 169c73 58 133 109 135 113 3 7-188 143-233 166-17 9-32 1-96-51-42-33-104-85-138-115l-61-53 122-88c68-48 127-86 131-83s67 52 140 111m657-68c30 22 82 59 117 81 54 36 61 44 51 57-7 8-68 62-136 119-112 93-125 102-145 91-39-20-237-161-237-167 0-4 12-14 28-23 15-9 77-57 137-107 61-49 115-90 121-90 6-1 35 17 64 39m-1104 201c10 12 70 62 132 111 61 50 112 94 112 97 0 4-48 33-107 64-93 49-111 56-129 46-32-17-145-121-187-172l-37-45 93-60c50-34 95-61 98-61 3-1 14 8 25 20m1459 40c52 34 95 64 95 67-1 17-110 129-173 177l-70 52-108-61c-60-33-109-64-109-67 0-4 35-34 78-67 42-33 102-83 132-111 30-27 56-50 57-51 2 0 46 27 98 61m-659 86c130 85 132 87 111 103-44 33-221 152-234 157-8 3-73-34-144-82l-129-88 113-75c61-40 119-80 127-88s16-14 19-14c2 0 64 39 137 87m-384 204c46 33 101 72 122 86l40 26-25 20c-21 17-34 19-94 14-80-6-250-49-301-75l-35-18 53-29c29-16 73-41 97-57 25-15 48-28 52-28s45 27 91 61m701-3 97 59-37 16c-88 39-258 77-343 77-17 0-42-7-55-16l-25-16 128-89c69-49 129-89 132-89s49 26 103 58"/></svg>