<svg xmlns="http://www.w3.org/2000/svg" fill="#3f3d3d" viewBox="17936 8005 3631 7445"><path d="M18984 8109c-52 32-64 72-64 218v129l-153 225c-84 123-192 282-240 352l-87 129v1050c0 660 4 1056 10 1067 14 27 26 31 300 81 63 12 135 25 160 31 25 5 119 22 210 39 91 16 237 43 325 60s219 41 290 55c72 13 203 38 292 54 89 17 168 31 175 31s96-45 198-101c102-55 239-129 305-164 176-93 329-178 356-196l24-16 3-1019c1-561 0-1034-3-1053-8-41-57-95-267-288l-157-144-3-149c-3-132-5-152-24-177-40-54-74-68-190-81-60-7-242-28-404-47s-358-41-435-49c-77-9-216-25-310-36-216-25-271-25-311-1m231 86c17 2 75 9 130 15 139 15 585 66 795 91 372 44 394 47 407 65 12 17 20 254 8 254-2 0-147-18-322-40s-392-48-483-59-280-34-420-50c-140-17-270-33-287-36l-33-6v-105c0-144 2-148 98-139 43 3 91 8 107 10m-50 350c231 25 1360 167 1364 170 2 2-36 75-84 162-167 302-192 349-239 435-26 49-51 88-56 88-22 0-607-94-1175-189-165-28-324-53-352-57-29-4-53-9-53-13 1-3 57-87 125-186s163-237 211-308c62-91 92-126 103-123 9 3 79 12 156 21m1585 316c82 79 108 109 90 105-77-18-281-83-282-89 0-13 63-127 70-127 4 0 59 50 122 111m-105 148c72 21 156 46 188 55 31 9 57 19 57 22s-17 12-37 21c-21 8-132 58-247 110s-233 105-263 118l-53 24 11-22c63-119 202-367 207-367 4 0 66 18 137 39m345 369v229l-167 78c-93 43-260 123-372 177s-208 98-213 98c-4 0-7-106-6-236l3-237 250-111c138-62 304-137 370-168s123-56 128-57c4-1 7 102 7 227m-2212-103c119 20 312 51 427 70 116 19 325 53 465 76 140 22 302 49 360 58l105 18 3 245c2 231 1 246-15 242-10-2-130-24-268-48-137-25-351-63-475-85s-358-63-520-91-303-53-312-56c-17-5-18-25-18-235 0-199 2-229 15-229 9 0 113 16 233 35m2208 1241c-2 5-86 52-187 104-101 51-269 138-373 192s-191 98-193 98-2-189-1-420l3-420 145-69c80-38 249-118 375-179l230-109 3 396c1 218 0 401-2 407m-2267-686c91 16 423 75 736 131 314 55 596 105 628 111l57 10v848l-22-5c-28-7-363-69-513-96-60-11-117-21-125-24-8-2-53-11-100-19-140-24-689-126-767-141-40-8-75-15-78-15s-5-187-5-415c0-307 3-415 12-415 6 0 86 13 177 30m2271 1034c0 175-3 236-12 244-15 11-213 118-448 242-91 48-195 104-232 124l-68 38v-249l1-248 372-192c205-106 375-192 380-193 4 0 7 105 7 234m-2296-108c131 24 553 102 866 160 74 14 169 31 210 39 41 7 141 26 223 41l147 28v248c0 209-2 248-14 248-8 0-77-12-153-26-76-15-158-30-183-35-25-4-92-17-150-28-102-19-353-66-515-96-310-56-550-103-577-111-17-5-18-26-18-250 0-172 3-244 11-244 6 0 75 12 153 26"/><path d="M18665 10003c-3 7-4 122-3 256 3 220 5 245 21 255 12 8 22 8 35 0 15-10 18-33 22-173l5-161 45 90c58 117 72 119 132 18l43-73 3 164c2 105 7 170 14 178 6 8 23 13 37 11l26-3 3-252 2-252-23-16c-13-8-31-13-40-9-9 3-40 46-67 95-28 49-55 91-59 93-4 3-32-45-62-105-30-61-62-115-71-120-24-13-58-11-63 4m672 103c-4 4-7 119-7 255 0 247 0 249 23 263 26 16 221 51 242 42 18-7 20-50 2-64-7-6-44-16-82-22-39-6-78-13-87-16-16-5-18-27-20-232l-3-227-30-3c-17-2-34 0-38 4m350 60c-4 4-7 121-7 259 0 272 2 280 52 273 21-3 23-9 28-88 3-58 11-93 22-109 10-14 19-23 21-20 3 2 37 61 77 131 60 107 76 128 96 128 13 0 28-9 34-20 9-17 1-38-53-133-36-61-72-127-81-145l-17-33 71-80c66-75 70-82 57-102-15-23-44-44-49-37-2 3-42 49-88 104l-85 99-5-114-5-114-30-3c-17-2-34 0-38 4m698 1781c-147 18-232 42-358 103-179 88-372 263-508 462-94 137-194 384-234 573-87 420-157 584-330 770-26 27-54 63-62 80-23 43-21 130 3 162l20 26-199 196c-114 112-206 195-216 194-9-1-41-9-71-18-62-19-158-15-212 8-129 56-202 209-163 342 32 112 92 172 213 211l65 21 14 53c21 83 67 139 146 179 120 61 240 43 340-48 57-53 86-120 88-203 1-65-14-143-31-153-26-16 4-56 178-234l187-192 49 26c27 14 63 25 80 25 46-1 107-32 168-87 181-164 304-217 690-293 238-48 387-94 532-166 139-69 249-147 353-251 193-192 311-410 344-635 16-113 6-312-21-407-79-276-281-516-545-645-161-79-365-118-520-99m234 104c179 29 352 120 492 259 327 325 366 775 102 1172-65 98-229 260-333 329-139 92-339 178-485 209-22 4-130 26-240 49-331 67-456 120-641 277-97 82-125 94-162 73-30-17-38-31-52-84-11-46-46-72-98-73-49-1-63-17-61-71 1-26-3-56-9-68-12-21-59-43-94-43-34 0-68-30-68-60 0-28 22-60 111-162 60-68 139-198 179-293 17-41 53-168 80-283 27-114 59-243 70-287 122-469 485-853 885-938 83-18 235-21 324-6m-1576 2183c3 30 11 63 18 74 14 22 70 52 99 52 10 0 25 3 34 6 22 9 12 22-151 188-152 155-254 268-272 304-11 20-8 29 17 67 56 85 50 183-14 255-69 76-174 90-252 34-54-38-79-85-86-163-3-36-10-69-15-74-6-6-36-11-68-12-98-3-180-60-203-143-12-46-12-58 0-104 33-118 173-171 298-113 30 14 63 25 74 25 13 0 105-84 253-230 157-155 237-228 247-225 10 4 17 25 21 59"/><path d="M20390 12216c-145 25-234 57-331 120-135 89-198 164-169 199 20 24 64 18 91-11 67-73 182-146 292-185 80-29 270-33 359-7 50 14 59 14 77 1 28-19 27-59-1-74-53-28-249-55-318-43"/></svg>