<svg xmlns="http://www.w3.org/2000/svg" fill="#3f3d3d" viewBox="17633 4339 4230 3368"><path d="M20260 4427c-184 18-309 45-680 149-396 112-552 161-1015 324-459 161-598 225-691 315-154 150-161 379-18 592l44 66v596c0 661 1 673 64 760 18 25 52 58 77 73 59 37 90 44 559 143 91 19 219 46 285 60 169 37 392 82 513 105 81 15 113 17 155 9 49-9 405-149 1455-573 238-96 451-185 474-198s57-42 75-66c63-83 63-87 63-705l-1-559 32-36c96-108 132-199 132-332 0-109-18-166-83-259-157-223-601-415-1069-461-96-9-291-11-371-3m415 108c280 33 584 131 767 247 102 65 199 169 227 242 44 119 20 257-62 357-23 28-53 65-65 82l-24 32 4 580 3 580-22 41c-12 23-37 51-55 62-27 16-688 285-1288 524-69 28-130 52-136 55-9 3-9-8-1-44 7-31 11-256 11-628l1-581 42-49c136-159 158-363 61-556-69-139-238-286-445-388-169-84-421-157-653-190l-125-17 185-61c299-99 744-225 935-264 199-40 427-49 640-24m-1580 471c206 29 466 116 630 209 271 155 408 358 376 560-12 78-45 141-110 208l-46 48-5 632-5 632-25 45c-21 37-38 51-100 82-40 21-75 36-76 35 0-1 3-34 7-72 5-39 8-327 7-641l-2-570 54-65c66-79 96-143 110-237 45-286-172-531-614-697-205-76-459-130-669-142-68-3-113-10-105-14 8-5 59-15 114-23 114-17 300-13 459 10m-310 139c213 28 486 110 665 200 156 78 282 191 337 302 25 52 28 68 28 158 0 121-16 163-94 245-29 30-57 63-62 73-6 11-9 251-7 640 3 677 3 680-53 733-50 48-84 46-419-27-74-15-337-72-584-124-247-53-463-102-480-109s-44-25-59-40c-58-54-57-39-57-724v-629l-24-34c-114-158-151-294-110-411 41-121 189-215 399-253 99-18 380-18 520 0"/><path d="M21290 5551c-30 11-138 49-240 85-102 35-311 110-465 167-265 96-280 103-280 127 0 19 6 26 25 28 23 2 229-65 495-163 55-20 193-69 307-110 239-85 248-89 248-115 0-34-30-40-90-19"/></svg>