<svg xmlns="http://www.w3.org/2000/svg" fill="#3f3d3d" viewBox="8599 775 4390 5118"><path d="M10489 869c-74 23-89 55-42 94 15 12 42 35 60 52l34 30-115 2c-164 2-249 22-395 90-141 65-262 172-246 215 8 20 48 38 88 39 70 1 71 11 8 57-174 127-317 317-396 526-28 75-65 231-65 273 1 66 52 80 126 37 24-14 44-22 44-17s-18 52-39 104c-62 151-76 236-75 434 1 154 4 180 30 280 24 91 33 112 53 122 34 16 53 4 90-61 45-80 51-79 51 9 0 208 96 462 228 605 17 19 22 33 18 56-9 60-87 200-173 309-162 207-234 333-275 479-28 101-36 327-14 419 9 38 16 70 16 73 0 14-74 0-118-22-150-75-214-262-150-439 14-39 44-108 65-155 65-138 77-190 77-320 0-91-5-128-22-179-21-61-21-65-5-113 11-36 14-70 10-129-10-149-92-252-272-341-110-54-171-105-181-152-16-74-63-90-101-33-104 153-124 419-44 583 71 145 157 212 324 248 27 6 27 7 27 86 0 84-22 160-72 252-70 127-118 298-118 417 0 151 67 315 172 425 124 128 258 180 449 174l108-3 10 42c21 82 129 161 286 209 79 24 107 27 235 28 80 1 159-2 176-6 27-6 33-3 48 23 49 84 211 122 445 104 140-10 211-40 270-115 23-29 42-65 46-89 5-29 12-41 28-45 40-11 57-7 57 13 0 52 49 126 113 170 67 45 122 59 268 66 209 9 336-23 394-99 23-30 34-36 83-42 31-3 80-15 108-25 151-56 184-239 65-367-31-33-142-92-173-92-21 0-24-16-5-23 16-6 77-119 106-197 27-72 37-215 22-306-16-89-61-181-122-246-28-30-47-59-45-68 10-34 17-134 20-274s4-150 28-180c13-17 39-58 58-91 32-56 35-58 41-35 4 14 7 39 8 56 1 33 27 64 54 64 9 0 36-17 58-37 42-38 169-195 169-209 0-4 6-15 14-23 46-54 113-284 124-424l7-92 40 60c58 86 96 83 123-10 6-22 19-65 28-95 10-35 18-109 21-201 5-126 2-162-17-255-23-112-45-182-85-269-13-27-22-52-20-54s27 8 54 23c62 32 86 33 106 3 14-22 13-34-3-133-45-260-209-531-414-684-48-35-86-66-84-68s32-7 66-12 68-14 76-21c38-31 0-83-118-160-102-67-172-101-263-129-90-27-287-46-338-32-35 10-36 9-26-10 6-11 30-33 55-51 47-33 59-55 49-87-9-29-43-35-215-35-144 0-161 2-244 29-89 29-183 83-243 140l-33 30-32-31c-79-73-190-132-303-158-70-16-289-20-336-6m311 106c110 26 187 68 289 157 30 27 65 48 77 48 11 0 36-16 55-35 98-102 261-174 412-183 89-5 104 2 70 29-29 25-73 102-73 131 0 43 27 51 118 38 214-33 391-1 565 103l70 41-44 12c-61 16-113 40-128 58-20 24 9 61 72 92 80 40 134 81 228 174 119 118 201 255 258 429 32 99 31 102-31 85-97-25-168-14-168 27 0 10 12 38 26 60 135 215 186 442 153 690-6 46-15 88-19 92-4 5-17-4-29-19-31-40-101-84-132-84-38 0-53 22-44 66 3 20 6 90 6 154-1 94-6 135-26 203-33 115-94 240-152 310l-47 58-27-60c-28-62-50-81-94-81-26 0-31 8-88 140-10 23-27 48-86 128-56 76-147 164-242 231l-56 40-19-77c-17-68-23-78-48-87-26-9-31-7-55 25-68 89-168 192-257 265-54 44-113 94-131 111l-32 31-33-35c-18-19-76-68-128-109-98-77-228-207-258-256-18-30-42-41-70-32-24 7-38 39-47 101-4 27-9 52-12 56-6 12-129-84-212-165-85-83-160-190-204-288-22-50-36-71-53-75-44-11-58 0-96 73l-36 72-39-52c-131-174-187-360-181-599 2-106 0-130-13-143-24-25-60-10-128 51-68 62-60 67-81-50-15-89-12-198 9-316 19-106 23-121 46-175 37-87 58-130 90-182 19-32 35-63 35-70 0-42-88-57-170-28-23 8-44 15-46 15-18 0 39-177 88-274 86-171 240-337 387-417 24-13 54-30 67-37s29-23 35-34c10-19 8-25-15-45-15-13-54-31-87-40s-58-21-56-26c6-18 141-86 222-111 138-44 286-52 422-25 105 21 125-34 48-136-25-33-45-61-45-62 0-9 136 0 190 12M8880 3394c19 21 72 54 143 88 88 43 123 66 157 105 79 87 101 197 58 283-27 53-56 70-119 70-211 1-353-242-295-504 10-42 19-76 22-76s18 15 34 34m1352 489c104 135 225 241 388 339 52 32 72 34 95 11 14-13 16-27 10-72l-7-56 58 55c33 31 111 99 174 151 63 53 134 115 156 137 49 49 80 53 115 16 13-14 76-68 139-119s146-125 183-164l68-70-5 48c-14 126 65 110 284-60l90-70v89c0 103-37 336-110 692-98 476-103 513-72 544 9 9 38 30 64 46 86 53 127 166 82 227-32 43-48 36-55-24-8-64-41-113-75-113-35 0-40 25-15 71 15 27 21 52 19 81-3 39-5 43-38 50-19 4-50 5-67 2-31-5-33-7-34-47-1-57-20-107-50-129-47-35-75-2-44 52 8 14 14 46 15 72 0 46-1 48-28 48-46 0-129-29-161-56-16-13-37-45-47-71-16-42-17-61-5-257 7-116 16-256 21-311 4-55 8-168 9-252 1-146 0-153-20-164-33-17-69 3-69 38-1 63-40 724-46 780-5 42-6 43-44 43-43 0-50-10-50-70 0-22-4-72-10-112-18-137-29-263-42-461-6-108-14-201-18-206-13-20-49-22-68-3-16 16-19 31-16 93 6 164 16 296 39 528 30 291 30 335 7 381-24 48-85 87-149 94l-53 7v-55c0-30 5-58 10-61 6-3 10-19 10-36 0-26-3-29-30-29-40 0-70 57-70 135v55h-51c-28 0-58-4-68-10-30-15-35-73-11-119 29-58 27-73-12-69-41 4-66 44-76 124l-7 58-34-30c-27-25-34-39-38-80-8-74 23-131 98-184 47-33 59-47 59-68-1-23-64-289-105-437-42-153-97-385-121-504-30-155-36-171-67-171-53 0-57 30-26 206 23 134 68 319 139 569 51 181 78 311 66 322-3 4-23-10-44-30-39-38-156-97-193-97-13 0-19-5-16-13 61-137 70-173 75-293 5-134-6-192-60-299-70-140-219-237-300-194-20 11-20 11 3 35 12 13 38 29 57 35 93 31 149 90 195 208 28 69 30 86 30 191-1 124-21 200-76 287-23 36-31 41-88 52-88 18-139 45-139 75 0 33 32 39 105 19 119-31 257-11 328 47 43 37 47 57 11 66-32 8-44 39-44 113 0 57-1 59-31 65-17 3-44 6-60 6-28 0-29-2-29-47 0-63-32-128-70-142-23-8-33-7-45 5-13 13-12 19 10 52 14 21 28 59 31 85l7 48-54-6c-129-16-259-62-313-113-15-15-40-52-56-82-15-30-45-87-68-125-36-62-83-182-100-255-3-14-5-81-5-150 2-244 64-389 278-654 82-101 137-194 161-271 14-44 22-55 39-55 35 0 52-22 59-73 3-27 9-53 12-58 3-6 21 15 39 46 19 31 49 75 67 98m-967 179c32 110 15 213-65 383-78 167-94 228-87 349 7 131 30 194 103 274 70 78 153 121 254 132 39 4 73 9 74 11 9 10 36 69 36 79 0 15-117 12-185-6-170-44-317-191-354-355-25-105-8-294 33-384 8-17 37-78 65-137 71-151 91-245 73-340-10-53-11-53 17-55 17-1 24 9 36 49m2832 493c27 53 34 100 34 205 0 92-19 166-66 260-33 66-106 140-137 140h-25l13-73c7-39 31-160 53-267s45-226 51-264 13-73 16-78c7-11 35 25 61 77m-3 714c101 35 156 92 156 161 0 37-23 85-45 93-12 5-15-2-15-31-1-78-61-160-96-131-19 16-18 32 6 76 11 21 20 55 20 75 0 31-4 38-20 38-11 0-23 1-27 2-3 2-11-22-18-53-13-67-47-115-116-167-39-29-49-42-49-66v-29l73 6c39 3 98 14 131 26"/><path d="M10214 1470c-108 22-193 94-247 208-26 56-31 77-30 143 0 65 5 87 28 131 34 66 75 111 142 154 28 19 54 38 58 44 3 5 17 10 31 10 18 0 27-8 35-28 57-156 198-327 329-399 41-23 50-60 23-94-86-107-126-137-215-163-60-17-90-18-154-6m168 98c41 20 118 86 118 101 0 4-11 14-25 21-22 12-29 10-65-15-44-30-113-42-176-30-45 8-111 71-125 118-23 81-11 128 54 210 20 25 25 40 20 55-8 20-10 20-39 6-76-37-124-120-124-215 0-86 19-129 84-195 84-83 180-103 278-56m-38 156c19 8 36 19 40 24 3 6-16 32-42 59-26 26-61 68-77 92l-29 43-28-33c-52-62-44-130 19-178 33-24 71-26 117-7m1601-250c-83 26-132 63-183 138-52 78-53 75 33 131 58 37 157 133 200 195 17 24 50 82 75 130 34 66 51 88 68 90 13 2 24-3 28-12 3-9 27-29 53-45 53-32 107-93 142-161 32-60 34-194 5-255-38-77-97-144-166-186-60-37-180-49-255-25m177 78c53 16 123 80 156 142 58 112 20 262-83 326-40 25-42 25-55-1-10-17-6-26 29-64 44-48 57-91 47-162-6-49-47-113-86-136-62-37-158-30-223 16-23 16-33 17-53 8-13-6-24-14-24-19 0-15 85-91 120-106 42-18 119-20 172-4m-22 178c56 40 63 116 17 174l-23 28-42-55c-23-31-58-71-77-90-41-40-43-50-12-65 37-18 106-14 137 8m-1225-32c-145 14-335 133-424 265-48 72-106 191-126 262-10 33-32 98-50 145-136 352-144 524-34 745 111 224 343 399 670 505 232 76 314 76 548 0 140-45 233-91 351-172 99-67 154-117 229-208 163-195 197-471 92-735-11-28-45-118-76-200-30-83-63-166-73-185-105-215-251-354-424-405-115-33-266-14-347 45l-29 20-44-25c-68-39-186-65-263-57m104 92c30 5 87 26 127 47l73 36 79-40c44-23 102-44 129-48 150-20 326 71 435 228 42 60 107 185 123 237 4 14 33 95 65 180 78 209 92 266 93 380q0 213-141 390c-50 62-83 91-187 164-116 82-209 128-355 177-191 64-286 63-481-2-511-171-750-487-667-879 6-30 15-59 20-65 4-5 8-17 8-27 0-15 60-193 89-263 5-11 21-54 36-95 43-118 92-198 169-274 122-123 250-171 385-146"/><path d="M10713 2387c-31 6-80 57-88 92-8 39 19 103 54 124 55 32 131 16 157-34 19-37 18-95-2-129-15-25-73-62-92-59-4 1-17 4-29 6m859 9c-45 20-76 86-62 135 13 45 19 53 57 73 48 24 88 20 125-13 30-27 33-35 33-85 0-49-4-59-30-85-37-36-79-44-123-25m-537 375c-84 21-108 80-58 151 28 41 103 101 141 112 19 6 22 14 22 56 0 60-30 100-88 119-76 25-156-12-187-85-17-41-41-53-62-31-26 26-8 85 41 132 86 83 223 88 312 11l39-33 37 32c123 105 310 51 353-103 8-26-9-52-34-52-9 0-27 21-41 48-19 36-36 53-72 71-44 21-52 22-97 11-74-18-111-66-103-137 4-28 11-38 36-48 53-22 131-99 145-143 12-34 11-42-4-65-9-15-33-31-54-37-50-15-277-22-326-9"/></svg>