<svg xmlns="http://www.w3.org/2000/svg" fill="#3f3d3d" viewBox="9398 6199 4593 3431"><path d="M13540 6323c-58 24-141 60-185 79-44 20-145 64-225 98-129 56-812 353-1243 541-87 38-294 128-460 200s-336 146-377 164c-116 52-649 281-1031 445-468 201-516 224-523 248-18 54 149 368 307 577 356 475 884 775 1494 850 199 25 472 17 673-18 483-86 917-308 1261-648 366-361 592-808 664-1317 14-97 16-165 12-334-5-212-13-282-56-462-51-214-160-467-200-466-3 0-53 20-111 43m59 114c20 53 60 203 77 290 21 118 30 439 15 574-58 503-279 952-647 1311-181 176-357 299-594 415-513 250-1073 291-1620 118-466-148-887-486-1146-921-34-56-53-99-48-104s34-20 65-34l57-25 51 88c296 499 807 843 1379 926 281 41 535 26 827-47 261-65 589-235 810-420 473-395 735-939 735-1524 0-200-27-370-96-610-5-19 1-25 48-42 69-27 74-27 87 5m-201 135c130 446 83 929-134 1355-132 261-343 507-589 687-233 170-496 288-808 360-157 37-424 45-619 20-533-69-986-345-1299-794-56-79-105-167-98-174 2-3 157-71 344-152 187-80 520-224 740-319s614-266 875-380 615-268 785-342c171-75 411-180 535-234s230-98 236-98c6-1 21 32 32 71m420 523c29 374-45 747-217 1100-143 292-347 548-596 746-251 201-570 362-868 438-221 57-292 65-557 66-262 0-366-11-557-61-371-96-717-296-978-565-90-94-86-95 14-6 76 68 229 175 341 239 474 269 1064 356 1585 233 691-163 1259-603 1569-1215 79-156 127-284 171-456 47-180 65-330 66-542 1-192 11-184 27 23"/><path d="M13030 6918c-58 21-116 58-124 77-7 18 24 40 87 61 108 36 208-6 193-80-13-65-77-88-156-58m-659 263c-25 5-52 15-60 24-13 13-12 18 17 48 69 71 171 98 212 57 46-46 9-121-68-134-43-7-42-7-101 5m549 268c-74 15-77 33-16 89 57 53 96 72 145 72 31 0 44-6 60-26 67-85-43-163-189-135m-820 100c0 54 57 154 102 177 36 18 84 10 98-16 22-40 12-81-28-119-58-55-172-83-172-42m-1060 208c-106 70-149 164-100 213 25 25 81 27 102 2 40-45 66-159 48-206-11-30-17-32-50-9m745 2c-11 19-17 101-11 145 14 93 87 135 141 81 28-27 31-51 11-99-26-64-125-152-141-127m-373 83c-5 7-21 36-36 65-33 66-35 139-6 171 28 30 80 29 108-1 38-40 27-151-20-220-21-30-31-33-46-15m1232 51c-8 23 51 141 87 171 57 49 118 47 144-5 20-37 13-78-18-107-53-50-200-91-213-59m-2251 118c-70 27-105 69-101 122 2 34 8 44 35 60 20 11 40 16 53 12 54-17 125-109 144-188 6-26 5-27-36-26-24 0-66 9-95 20m1964 186c-20 20 9 155 44 204 28 39 70 54 106 37 90-43 46-160-86-228-43-21-54-24-64-13m-1577 94c-133 80-164 208-57 234 63 16 118-67 121-183 1-77-8-85-64-51m1195 116c-13 36-17 139-6 180 13 46 51 83 86 83 12 0 34-9 49-21 20-16 26-29 26-59 0-56-14-85-71-146-55-57-73-65-84-37m-834 45c-39 41-71 106-78 157-4 30-1 43 16 60 50 50 116 34 139-34s1-201-35-212c-6-2-25 11-42 29m384 80c-49 109-44 183 14 213 27 14 35 14 66 1 40-17 49-43 43-121-5-58-51-147-79-153-11-2-25 17-44 60"/></svg>