<svg xmlns="http://www.w3.org/2000/svg" fill="#3f3d3d" viewBox="14177 7387 8323 7381"><path d="M15970 7480c-63 11-154 44-189 69-16 12-35 37-41 57-22 66-9 90 114 209 145 141 179 203 184 337l4 88-164 167c-243 250-408 479-559 776-244 480-364 1036-345 1598l6 186-57 24c-205 83-387 224-514 399-83 115-138 259-146 387l-6 92 31 30c43 44 100 45 172 4 189-109 195-111 375-122 152-10 232-31 296-76l47-33 33 34c75 78 175 129 297 155 94 19 190 69 267 141 39 36 80 70 92 76 57 31 131-5 154-75 17-53 6-250-20-341-29-101-103-251-146-298-5-6-21-26-35-45-30-42-202-219-212-219-6 0-87-57-106-75-5-5 69-163 112-240 21-39 68-112 105-164 36-51 73-104 82-117 43-66 247-277 353-366 70-59 225-163 358-241 108-64 347-181 354-174 2 2-8 25-22 51-47 84-32 161 38 197 72 37 169 18 333-63 152-76 309-211 423-364 60-82 97-106 106-71 12 46 5 168-14 243-29 115-27 167 8 204 86 89 258 13 461-203 65-70 127-166 182-283l47-101 79-12c43-7 148-15 233-18 131-5 181-2 315 17 225 33 416 33 507 2 101-35 175-117 193-213 8-43-8-136-32-187-28-60-120-143-240-217l-111-69-12-60c-17-90-68-252-102-323-83-176-271-359-483-473-135-72-366-145-545-172-130-20-596-17-730 5-113 18-251 47-340 71-30 9-66 19-80 22-14 4-29 10-35 14-27 21-75 21-103 2-38-28-228-122-245-122-7 0-17-4-22-9-25-22-232-82-367-106-87-15-262-18-338-5m258 101c185 20 344 72 572 186 90 46 170 83 177 83s47-11 90-25c169-56 318-88 533-116 134-18 459-15 595 5 141 20 127 17 290 60 6 2 17 5 25 8s38 14 65 23c61 22 201 95 264 137 76 52 179 147 227 211 95 124 146 239 179 404 12 62 30 124 39 137 9 14 37 37 63 52 70 40 153 93 196 127 49 38 107 124 107 159 0 24-4 27-47 34-67 11-200 8-269-6-105-20-156-40-340-131-234-116-323-140-514-141-163 0-296 19-456 66-66 20-137 39-158 43l-39 9-38 113c-77 234-181 411-333 570-154 160-375 290-493 291-46 0-43-19 16-143 65-135 91-232 101-386 12-159 20-223 31-237 15-19 14-85-2-95-24-16-53-5-74 27-15 23-39 38-95 59-85 32-367 170-391 191-8 8-19 14-23 14-16 0-264 176-346 245-300 255-542 598-673 956-55 148-80 242-108 404-12 66-25 142-30 170-7 42-6 52 9 63s20 9 39-12c21-25 22-25 45-7 13 10 28 20 35 22 16 5 108 84 163 140 165 168 261 380 261 578 0 52-4 98-8 102-5 5-44-22-88-62-92-82-185-130-300-154-142-30-210-75-285-187-14-21-29-38-35-38-13 0-65 33-91 58-57 54-145 80-314 91-149 10-218 29-310 85-82 50-118 67-124 57-8-12 10-108 34-181 36-106 106-217 195-305 101-102 192-165 325-227 184-85 175-80 173-113-2-17-6-138-9-270-6-211-4-262 15-420 50-413 141-722 318-1081 53-106 53-107 170-286 121-185 256-349 422-511 139-136 146-151 138-287-8-138-67-265-164-354-27-23-69-62-95-86-27-23-48-48-48-54 0-24 77-50 210-70 48-7 81-6 178 5m2476 1308c72 19 161 59 292 132 159 88 301 124 489 124h141l-24 27c-13 15-43 34-66 44-62 25-227 30-366 9-156-23-477-31-637-16-228 21-473 61-653 105-52 13-97 22-98 21-2-2 14-43 35-92 21-48 52-128 68-177 24-71 35-90 55-98 14-6 34-14 45-19 54-23 234-64 350-79 103-13 277-4 369 19m-1720 368c-5 102-21 222-36 275-9 32-19 40-72 64-281 125-392 183-571 300-184 120-362 275-510 445-89 102-166 203-182 239-12 27-93 143-93 133 0-38 100-285 171-424 168-328 466-650 807-872 90-59 301-169 406-212 45-19 82-34 82-34 1-1 0 38-2 86m1316 99c0 16-85 171-119 218-95 128-278 276-341 276h-27l18-88c12-56 19-129 19-209 0-107 2-122 18-127 65-19 124-31 242-51 139-24 190-29 190-19"/><path d="M18484 8467c-32 34-38 61-25 111 17 60 66 85 138 68 35-8 57-35 66-84 7-36-3-63-36-100-31-34-109-31-143 5m2542 2684c-117 13-233 84-333 201l-32 38-53-12c-69-17-357-17-426 0l-53 12-77-78c-122-124-226-167-381-160-82 4-105 10-162 38-217 106-311 317-253 566l17 72-52 72c-81 111-121 223-121 343 0 114 70 264 168 360l59 59-33 81c-18 45-44 122-59 171-14 50-27 91-29 93-1 2-41-15-88-36-87-40-207-71-275-71-47 0-155 25-192 45-85 44-150 146-166 263-24 179 147 474 383 659l52 42-47 7c-26 4-120 4-208 1-148-6-163-5-202 14-105 51-123 176-36 250 26 22 27 27 19 61-21 83 34 171 122 193 45 12 59 12 103-1 56-17 69-11 69 32 0 52 88 113 161 114 38 0 134-43 142-64 6-14 120-108 206-170 91-64 277-164 287-153 11 11-47 107-85 139-70 59-91 149-50 214 47 77 148 98 226 47 38-24 44-34 64-105 24-82 44-88 29-8-12 63-3 93 39 133 76 75 192 66 257-18 38-51 31-123-19-199-52-78-46-89 16-29 76 75 133 90 217 57 32-13 45-26 66-71 24-48 26-58 15-92-6-21-11-40-11-42s40-4 90-4h90l-6 50c-11 96 58 175 154 175 53 0 73-10 135-67 27-25 51-43 53-40 3 3-14 41-37 85-36 70-40 84-34 121 10 58 46 98 106 115 77 23 144 4 194-56 27-31 27-35 21-113-8-93 2-90 33 10 17 56 29 75 55 93 55 38 102 46 151 28 65-25 97-66 103-129 5-65-12-102-69-154-33-30-89-116-89-137 0-8 84 28 132 56 26 16 49 28 52 28 18 0 221 147 274 198 106 102 186 125 269 77 43-26 64-56 77-108 5-21 11-27 23-23 59 23 105 28 148 16 83-23 138-118 117-201-9-35-7-40 15-54 32-22 63-74 63-108s-23-90-47-116c-41-44-83-52-231-45-164 8-288-2-255-20 72-38 265-243 312-331 12-22 26-47 31-55 8-14 20-43 51-120 9-22 14-73 14-140 0-99-2-109-33-170-60-121-160-175-317-175-100 1-196 25-297 76-66 34-68 34-68 14 0-15-61-199-95-285l-18-46 54-54c208-211 225-462 46-712l-58-80 18-52c24-70 24-221-1-299-47-148-200-287-341-311-78-13-91-13-159-5m-1186 132c60 22 151 101 202 175 34 50 27 49 188 18 107-20 209-20 330 0 160 27 158 27 201-36 51-73 97-113 177-152 61-30 74-33 153-32 74 2 96 6 151 33 82 39 148 108 177 184 28 77 29 200 1 283-11 32-20 67-20 77s22 46 50 80c57 70 112 178 130 255 16 69 6 144-29 218-58 122-145 205-303 289-94 50-112 73-82 106 9 10 22 19 28 19s47-18 91-40 81-40 83-40c5 0 48 100 70 165 48 140 82 303 82 391 0 49 3 56 26 66 23 11 29 10 46-12 18-22 20-34 14-110l-6-86 62-36c71-41 192-85 260-94 48-7 142 15 184 43 41 26 81 99 89 158 28 231-224 558-558 722-40 19-80 42-89 51-25 22-22 51 7 64 20 9 35 7 82-12 64-25 55-25 303-11 126 8 192 7 236-1 34-6 73-8 87-4 32 8 60 47 51 70-15 40-40 39-295-5-141-25-179-23-196 11-16 33-4 42 90 69 40 12 86 25 102 31 17 5 62 14 101 20 112 15 124 22 124 70 0 78-66 87-162 23-59-40-103-58-252-110-145-49-169-51-174-12-3 23 7 34 65 76 80 58 122 80 169 89 40 7 64 36 64 78 0 34-24 55-63 56-22 0-45-15-95-63-75-70-112-99-222-171-81-53-257-146-277-146-22 0-25-21-7-48 10-15 47-59 83-98 36-38 95-112 131-164 74-108 241-286 324-345 43-31 56-46 56-67 1-123-266 97-496 408l-21 29 18-72c41-164 50-344 24-493-30-171-58-225-105-200-24 13-26 47-4 115s31 340 14 443c-13 86-39 189-68 272-19 53-28 75-68 165-10 22-20 72-22 111-4 65-1 76 31 140 21 41 54 86 81 111 70 64 57 119-27 111-28-3-33-7-40-43-12-59-85-203-111-221-28-18-47-12-73 24-39 53-56 118-50 186 5 47 2 68-9 85-29 41-104 16-104-34 0-12 11-39 25-60 27-38 55-137 55-191 0-19-8-38-20-49-19-17-26-18-68-6-56 14-116 52-156 98-50 56-116 41-116-26 0-26 33-47 89-55 58-9 155-61 207-111 120-117 166-486 98-782-22-97-30-113-58-113-46 0-51 21-30 133 29 154 27 403-4 517-39 142-53 166-114 194-76 35-177 48-372 48-266 0-390-32-431-112-8-16-25-69-37-117-30-120-32-393-4-529 20-103 14-134-28-134-31 0-48 37-72 155-24 119-25 384-1 499 19 91 66 198 105 239 38 41 145 98 216 117 46 11 64 22 73 40 16 33-3 64-44 68-24 2-40-7-83-48-78-74-170-108-203-75-35 34-15 163 36 239 36 52 35 81-3 101-26 13-35 14-58 3-26-13-27-17-24-78 4-99-51-239-94-240-37 0-134 151-134 208 0 64-49 98-96 67-39-25-32-65 20-112 69-62 106-130 113-208 5-53-4-87-72-270-106-285-125-499-69-767 18-85 16-103-16-111-46-12-74 56-101 250-19 130 7 429 42 495 5 10 6 18 2 18s-35-37-68-82c-74-102-272-303-343-351-42-27-59-33-80-28-52 14-39 54 31 98s231 216 350 376c66 86 127 163 136 170 9 6 29 28 44 48l28 37-91 46c-193 98-314 180-426 288-99 97-173 88-166-19 2-16 14-25 50-38 65-23 112-48 188-103 53-39 64-51 62-72-5-38-32-36-182 14s-177 62-251 111c-70 47-108 53-138 23-18-18-23-32-20-55 6-37 25-47 123-63 76-13 290-76 304-90 5-5 2-19-8-34-20-31-45-33-166-10-47 8-121 20-165 25s-92 12-107 15c-21 4-30 0-43-20-37-57 15-93 118-81 83 10 272 7 377-6 78-9 90-8 155 14 74 26 107 23 119-9 9-24-16-48-77-74-111-47-214-118-320-220-94-89-159-177-215-290-45-91-47-99-47-180 0-89 13-128 58-178 85-93 293-84 469 19l66 39-5 95c-6 95 2 125 31 125 34 0 48-27 57-110 8-86 65-328 80-344 5-6 9-17 9-26s11-40 25-68c14-29 25-56 25-61 0-23 24-19 89 14 75 38 107 41 125 12 16-25-1-46-65-84-180-104-255-172-306-274-83-165-55-320 90-500l48-60-22-72c-17-52-23-97-24-162 0-79 4-98 29-152 81-176 275-252 466-180"/><path d="M19587 11360c-114 44-170 129-170 254 0 167 121 276 292 264 109-8 183-58 227-153 51-107 10-266-84-334-73-51-181-64-265-31m164 65c87 31 147 122 136 205-9 68-52 128-110 156-81 37-152 29-218-25-97-80-94-231 5-306 60-46 116-55 187-30"/><path d="M19622 11506c-31 22-52 66-52 113 0 33 7 47 35 76 30 29 43 35 80 35 36 0 50-6 79-34 32-30 36-39 36-84 0-44-5-55-34-86-28-31-40-36-77-36-25 0-55 7-67 16m1361-141c-106 48-160 141-151 264 8 109 58 183 153 227 56 26 142 32 209 13 53-15 129-88 156-151 45-105 13-241-72-313-82-69-198-84-295-40m206 68c133 70 149 250 30 337-132 95-319 1-319-160 0-147 161-246 289-177"/><path d="M21039 11502c-34 29-52 60-56 93-7 70 52 135 126 135 33 0 47-6 76-35 30-31 35-42 35-83 0-38-6-55-31-85-28-34-35-37-83-37-29 0-59 6-67 12m-872 495c-13 12-6 58 11 78 9 11 28 28 41 38 23 15 26 15 43 0 26-23 22-47-13-88-29-32-65-45-82-28m393 8c-34 18-54 57-46 90 11 44 36 43 78-5 40-45 49-84 22-94-21-8-25-7-54 9m-1144 170c-10 26 4 44 63 79 241 146 698 236 1051 207 305-25 527-78 717-173 95-47 128-77 118-107-5-16-15-21-41-21-19 0-34 4-34 9 0 14-158 88-250 116-359 111-768 126-1139 40-62-14-141-35-175-46-72-24-222-95-231-109-10-16-72-12-79 5"/></svg>