<svg xmlns="http://www.w3.org/2000/svg" fill="#3f3d3d" viewBox="14334 768 4406 4734"><path d="M16440 867c-117 13-292 47-398 77-390 113-687 289-983 585-302 303-499 664-588 1081-42 193-54 302-54 495-3 590 224 1141 641 1563 135 136 223 210 375 312 291 195 676 334 1026 369 718 73 1466-225 1931-768 81-95 270-375 270-400s-29-61-50-61c-10 0-47 16-82 36-117 67-353 139-531 163-97 14-376 14-477 1-82-11-228-45-275-64-16-7-68-28-115-46-229-88-459-251-644-455-90-99-108-123-197-256-79-118-167-318-209-474-90-343-75-751 40-1048 122-317 326-585 588-775 84-60 313-182 343-182 55 0 82-85 37-114-50-32-478-58-648-39m345 104 76 12-72 39c-126 68-230 148-349 268-263 263-415 542-490 893-62 297-41 675 54 971 176 542 647 1015 1191 1194 134 45 198 60 328 77 275 36 598 4 851-84 33-12 61-19 64-17 2 3-16 33-41 68-222 311-554 560-963 722-345 137-794 175-1163 100-464-94-929-367-1233-723-120-140-196-256-288-436-104-205-165-396-206-640-28-164-26-476 5-645 45-253 104-437 202-631 235-468 678-864 1159-1038 299-107 663-161 875-130"/><path d="M15894 1272c-53 36-94 97-94 140 0 35 32 68 64 68 29 0 44-18 22-26-26-10-27-36-1-75 33-50 96-83 141-74 40 7 46-13 14-45-31-31-88-26-146 12m-507 531c-48 16-97 55-120 98-11 19-12 26-4 16 11-13 16-15 20-5 3 10 21 4 69-20 94-47 153-41 184 19 21 41 14 114-17 173-42 82-134 156-195 156-36 0-92-28-106-53-10-20-6-168 6-226l5-24-24 23c-46 43-68 105-62 173 6 82 22 111 75 147 118 78 281 4 367-166 39-76 46-174 17-231-37-72-131-107-215-80m26 796c-52 24-72 54-80 119-7 60 16 106 59 121 38 14 47-8 22-54-17-32-17-38-4-77 27-76 102-79 108-4 4 43 22 47 47 10 21-33 13-67-25-105-34-34-67-37-127-10m-511 423c-5 7-13 23-16 35-6 20-4 21 31 17 45-6 88 17 125 68 34 45 48 91 48 157 0 75-15 126-50 164-24 28-35 32-74 31-54-1-86-25-119-89-28-55-36-181-13-226 18-36 14-64-13-79-15-8-22-2-42 37-20 40-24 61-24 143 0 91 2 101 35 166 28 54 45 74 83 98 100 62 204 28 255-82 24-51 27-69 27-162-1-93-4-111-27-155-14-28-47-70-72-93-41-37-51-42-95-42-27 0-53 6-59 12m845 324c-16 16-5 39 33 71 72 62 83 203 16 203-25 0-14 23 17 34s73-13 87-50c26-69-11-192-71-236-28-20-72-32-82-22m-187 621c-58 21-130 98-115 123 11 17 29 11 65-21 19-17 55-40 80-50 60-27 75-40 58-50-14-10-64-10-88-2m160 99c-79 26-103 40-131 75-28 36-29 40-14 55s18 15 38-4c46-42 89-56 167-56 193-1 342 141 357 338 3 42 9 76 13 76 3 0 16-10 28-23 18-19 22-35 22-88 0-190-211-380-420-378-25 0-52 3-60 5m-712 30c-12 11 4 42 27 52 27 12 66 63 85 110 10 25 10 39 1 58-14 33-14 41 3 47 27 11 66-31 66-69 0-89-139-241-182-198m1502 179c0 17 11 32 37 50 67 45 133 25 97-30-14-21-22-25-44-20-20 4-29 2-33-9-4-9-18-16-32-16-20 0-25 5-25 25m-999 17c-32 72 13 202 104 297 40 42 81 72 142 103 83 42 88 43 182 43 86 0 101-3 142-27 58-34 72-52 64-78-6-19-8-19-33-6-120 64-247 58-365-17-101-65-187-202-187-299 0-16-8-31-18-37-14-8-20-4-31 21m2244 322c-18 37-21 39-65 40-19 1-26 7-28 28-4 32 27 53 64 44 36-10 92-63 99-97 8-35 8-35-27-44-23-6-28-2-43 29m-820 25c-151 27-201 161-99 264 81 81 259 92 344 20 79-66 80-152 3-225-49-47-163-74-248-59m174 92c44 24 67 65 57 104-15 60-163 87-246 45-62-32-89-100-52-133 57-52 165-59 241-16m-1079 169c0 12 16 30 40 46 51 34 155 41 173 12 18-28-6-42-67-41-42 1-58-3-72-18-24-26-74-26-74 1"/></svg>