<svg xmlns="http://www.w3.org/2000/svg" fill="#3f3d3d" viewBox="820 777 13075 4446"><path d="M10060 876c-363 50-706 202-984 433-410 341-659 795-722 1315-9 72-17 131-18 132 0 0-48 24-106 54-58 29-112 58-120 65-8 6-51 31-94 55-113 60-355 211-456 283-338 241-565 474-631 647-32 82-37 195-11 253 52 118 146 191 309 241 163 51 256 61 553 61 353 0 654-31 1034-106 54-10 106-19 115-19s43 26 76 58c246 236 611 414 1005 489 120 23 548 26 645 5 254-56 419-113 595-204 197-101 341-210 518-390 273-278 462-656 527-1052 8-49 16-90 17-91 3-1 244-132 338-183 134-72 461-280 590-376 178-132 412-361 487-479 77-120 87-149 87-262 1-93-1-104-28-153-40-72-93-117-191-163-164-77-373-105-710-96-224 6-540 39-785 82-80 14-176 30-213 36l-68 12-82-81c-256-250-528-411-867-510-174-50-275-64-500-68-142-2-237 1-310 12m441 99c142 15 369 60 369 74-1 10-156 120-252 179-126 76-317 165-533 250-219 85-236 91-450 152-283 81-443 107-662 109-123 2-143 0-143-14 0-8 35-55 78-103 384-426 814-628 1408-660 17-1 100 5 185 13m514 119c143 63 254 121 329 171 47 32 86 60 86 64-1 3-24 24-51 46-28 22-56 45-62 50-63 56-302 214-382 251-27 13-41 27-43 42-6 37 22 35 113-8 129-62 313-190 449-313 17-15 33-27 36-27 10 0 167 144 201 184l33 38-66 62c-145 134-442 320-624 391-102 40-124 57-107 83 6 10 19 16 29 14 37-7 306-131 362-168 153-99 205-137 325-231l129-102 34 40c19 23 60 79 91 126l57 86-38 31c-115 96-206 179-240 220-47 57-109 104-244 182-56 32-166 100-245 150-78 50-196 121-262 158-307 174-383 241-367 322 5 28 78 45 147 34 221-36 648-213 925-384 41-25 77-46 80-46 10 0 169-91 210-119 19-13 70-58 113-99 43-42 81-71 86-66 8 9 31 87 55 189 17 71 31 57-154 159-267 147-612 313-899 433-447 186-676 267-1246 443-132 41-450 122-628 160-222 48-553 103-566 95-10-5-70-128-99-198-19-48-12-54 66-56 252-5 848-127 1242-253 120-39 150-54 150-77 0-33-40-31-164 9-306 98-580 162-906 214-202 32-345 48-394 44l-40-3-22-85c-22-81-64-320-64-359 0-17 11-20 103-26 119-8 343-38 437-59 36-8 117-25 180-39 342-75 696-188 1015-324 175-75 390-209 428-267 22-32 13-71-19-93-41-26-129-7-414 92-74 26-157 54-185 62-352 102-475 126-662 127-104 1-145-2-155-12-17-17 1-31 176-129 154-86 189-111 212-155 28-54 4-91-72-108-40-9-179 12-369 55-276 63-555 110-555 93 0-20 48-135 91-220 73-143 111-198 129-191 33 13 295 15 383 3 98-13 316-55 357-69 14-5 63-19 110-31 160-41 471-151 651-231 239-104 473-241 628-365 24-19 46-33 50-31 3 2 24 11 46 21m2241 417c347 38 505 166 445 359-35 111-86 184-231 331-74 74-173 165-220 201-280 216-680 456-1123 675-95 46-181 89-191 95-39 21-357 163-506 225-607 254-1098 424-1770 612-444 123-958 227-1350 271-499 55-804 48-1044-25-228-69-305-197-226-371 69-152 216-306 496-520 59-46 272-187 319-213 22-12 67-39 100-59 33-21 87-53 120-71 116-64 236-134 241-142 14-23 24-4 24 46 0 32-4 55-11 55-14 0-212 118-324 193-203 136-446 342-488 414-23 38-56 88-67 101-6 7-18 45-26 84-25 120 5 193 105 258 112 71 274 101 552 101 389-1 846-71 1489-227 275-67 844-245 1135-354 28-11 88-33 135-51 232-86 514-201 700-286 30-14 82-38 115-53 730-335 1327-721 1527-988 68-92 98-167 98-247-1-60-5-76-28-110-83-120-274-175-608-175-211 0-594 38-667 65-9 4-17 3-17-3 0-5-13-24-29-43-17-18-28-35-27-37 6-6 266-51 404-71 118-16 186-24 412-45 89-8 451-5 536 5m-361 211c277 41 375 148 290 318-42 82-186 233-334 350-62 48-250 177-331 226-36 21-72 43-81 49-10 5-100 56-201 113-581 328-1396 670-2108 886-603 183-900 255-1360 331-303 49-431 60-705 60-247-1-265-2-350-26-191-53-253-119-227-237 33-143 253-361 582-574 177-115 258-161 275-154 11 4 15 18 14 50-2 37-6 46-27 55-50 23-220 158-303 242-154 154-187 271-101 362 72 77 202 109 437 110 293 1 627-49 1105-164 415-100 1088-314 1365-434 17-7 41-16 55-20s57-20 95-37c39-16 79-33 90-37 18-8 96-39 150-62 41-17 337-150 353-159 10-5 98-49 197-98 538-268 891-523 985-714 27-57 32-75 26-109-14-89-68-142-185-181-61-21-85-23-309-23h-244l-19-35c-10-19-18-38-19-41 0-5 269-40 455-59 103-10 327-4 430 12m-347 243c84 19 132 53 132 93 0 72-94 183-259 306-149 111-136 109-156 22-23-105-56-206-104-316-22-52-41-100-41-107 0-27 312-25 428 2m-527 62c17 38 40 87 51 110 11 24 18 48 16 56-5 20-166 166-231 208-32 21-102 61-155 89s-119 65-147 82c-161 99-468 234-710 313-114 36-215 55-215 38 0-21 138-120 300-213 176-101 267-156 299-180 39-28 54-38 218-135 164-96 226-144 313-238 73-78 207-197 223-197 5 0 22 30 38 67m-2517 114c-8 14-152 105-227 144s-145 93-166 128c-14 25-14 30-1 55 29 53 79 67 230 66 193 0 424-50 770-164 158-52 375-118 420-128 23-5 24-4 10 13-37 46-285 186-440 250-36 14-78 32-95 40-108 48-435 149-708 219-281 72-660 136-809 136h-47l5-98c3-53 10-122 14-152 26-165 41-238 61-305l22-75h56c112 0 216-18 646-109 144-31 272-41 259-20m2670 1101c-9 46-20 78-31 86-10 7-26 19-37 28-156 132-438 309-681 428-430 212-1053 404-1555 481-58 9-123 20-145 25s-134 20-250 34c-115 14-226 28-246 31-31 4-42-1-90-41-61-52-68-63-42-62 32 2 226-44 523-123 188-51 230-62 310-86 427-124 976-314 1375-475 166-67 653-285 765-342 58-30 108-54 111-55 4-1 0 32-7 71m-3778 93c14 84 85 280 144 397l19 36-105 7c-177 12-383-15-434-57-71-58 16-199 219-352 53-40 105-77 116-84 24-13 31-4 41 53m3704 172c-15 43-45 114-66 158-298 629-872 1027-1567 1085-184 15-324 5-512-37l-70-16 111-27c105-26 187-64 197-92 2-7 2-28-1-45-3-26 0-34 14-40 11-3 33-17 49-29 31-23 132-58 200-69 61-10 207-45 230-55 11-5 38-12 60-15 104-17 146-65 57-65-46 0-261 41-417 80-116 29-221 85-259 138-24 34-28 45-17 52 56 34-132 95-332 107-81 5-102 0-244-64-95-43-253-138-253-153 0-4 42-11 93-15 283-21 827-122 1142-212 390-112 716-233 975-362 184-92 491-284 585-366 22-19 43-34 46-35 3 0-6 35-21 77"/><path d="M10872 4365c-19 13-57 31-86 39-59 17-82 37-72 62 13 33 147-10 220-70 59-49 2-76-62-31M5750 877c-368 23-840 138-1235 303-113 47-445 212-520 258-27 17-79 47-115 67s-132 82-215 138c-141 94-193 133-371 272l-71 55-44-18c-197-85-495-102-714-41-273 76-522 223-751 442-125 120-212 218-268 301-35 52-35 104 1 140 48 48 107 52 292 18 194-35 337-28 499 23 111 35 114 38 106 108l-7 58-66 34c-37 18-90 52-118 74-71 56-76 89-37 237 5 20 1 22-63 29-354 37-737 278-894 561-42 76-48 114-24 134 13 11 29 10 86-2l70-15-25 26c-48 52-160 229-217 346-64 132-149 347-149 380 0 11 10 29 22 39 19 17 33 18 122 13 200-13 523-84 629-139 31-16 30-4-4 65-32 65-32 67-14 87 26 29 80 26 189-11 318-106 573-322 716-605l37-74 19 21c29 32 115 79 146 79 39 0 74-16 153-69l70-48 64 10 64 10-6 86c-13 180-80 344-219 538-49 68-93 135-98 149-13 33-13 120 0 143 15 29 65 44 123 38 141-17 488-137 647-224 187-103 378-265 495-421 64-86 168-278 185-343 5-19 19-68 30-109 12-41 24-108 28-149 5-50 12-76 22-82 8-4 76-37 150-73 307-148 617-337 895-546 367-276 735-667 954-1015 21-33 56-89 79-125 49-78 132-238 173-335 17-39 34-79 39-90 47-107 110-366 110-449-1-90-53-171-140-216-127-65-503-103-830-83m595 132c66 11 136 26 155 32 50 17 99 66 106 108 13 69-25 233-101 436-67 177-237 492-272 503-28 8-272-264-370-413-121-182-272-513-289-632l-6-41 88-7c49-3 98-8 109-10s119-2 240 0c164 2 250 8 340 24m-807 144c47 147 128 331 185 420 20 31 37 60 37 62 0 3 30 49 66 103 95 139 232 300 303 355 33 27 61 53 61 58 0 16-27 64-44 78-12 10-29-1-104-68-219-197-431-504-545-791-57-142-103-309-93-335 4-10 19-15 48-15h43zm-228-31c71 252 184 505 309 693 117 177 272 353 418 476l42 35-65 84c-229 302-652 674-1064 936-120 76-373 221-464 265l-68 34-70-75c-90-97-248-283-316-374-243-323-483-784-581-1114-38-126-39-124 104-230 336-248 757-480 1130-622 149-56 534-173 592-179 7 0 21 31 33 71m-2288 894 110 26-28 28c-16 16-95 91-176 167-157 148-318 322-437 471-40 50-74 92-76 92-1 0-29-14-63-30-33-17-105-42-159-57-132-35-337-37-487-4-91 20-176 27-176 16 0-3 36-49 79-102 170-210 377-382 601-497 271-141 535-176 812-110m338 8c0 8 18 68 39 133 35 104 55 159 103 277 7 17 55 114 106 216 173 343 419 695 653 936 44 44 79 85 79 90 0 11-41 30-240 111-316 128-858 283-990 283-44 0-65-20-182-180-129-176-146-210-104-210 25 0 292-142 390-208 58-39 144-111 206-172 156-154 213-261 180-340-26-63-111-75-278-40-191 40-380 133-591 290-73 55-137 100-141 100s-15-17-23-38c-9-20-33-80-55-132-56-136-65-185-42-229 26-51 259-326 382-452 164-168 476-449 498-449 6 0 10 6 10 14m137 984c33 21-130 218-266 321-90 69-237 158-341 208-41 19-120 57-175 83-55 27-172 83-260 125-161 77-315 139-315 127 1-25 241-247 454-421 330-269 528-380 766-431 96-21 120-23 137-12m-1102 119c3 16 29 78 56 139 27 62 49 116 49 121 0 4-8 13-17 19-10 6-53 41-96 78-43 36-81 66-85 66-11 0-57-139-89-268-14-59-14-64 3-83 21-23 143-98 160-99 7 0 15 12 19 27m-227 382c16 51 17 48-20 56-80 16-249 82-308 120-95 61-210 189-210 235 0 21 20 40 42 40 10 0 18 2 18 5s-25 36-55 72c-78 95-156 251-180 360-6 29-4 34 21 43 51 20 279-31 417-94l57-26v50c0 83 39 87 175 16 81-41 248-210 293-294 18-34 34-62 36-62 1 0 17 18 34 39l32 39-46 84c-119 214-261 365-445 471-51 29-220 99-225 94-2-2 7-32 21-67 27-70 31-110 13-128-19-19-44-14-126 24-146 69-329 122-513 149-165 24-173 22-150-37 42-105 59-145 98-228 64-134 160-274 253-373 117-123 110-158-30-161-44 0-80-3-80-6 0-9 95-115 140-157 51-46 188-143 203-143 6 0 18-7 27-15 53-48 351-141 461-144 33-1 37 2 47 38m21 148c-13 15-44 47-68 72-94 99-114 129-114 173 0 52 36 88 88 88 38 0 139-30 218-64l54-25 22 30 21 29-21 42c-27 53-119 170-179 226-38 36-156 112-173 112-3 0-3-16 0-34 3-19 3-46-1-60-9-36-41-34-124 8-139 70-362 131-362 99 0-17 57-138 87-185 37-58 47-70 126-151l68-69-21-23c-12-13-35-25-51-29l-30-6 28-36c38-50 121-110 212-152 82-38 181-70 220-71l24-1zm528 110c11 33 194 281 210 288 13 4 3 15-43 46-95 64-109 70-139 59-14-5-51-34-82-62-59-56-183-213-183-233 0-11 191-111 218-114 7 0 15 7 19 16m1458 201c-35 159-78 260-182 420-82 127-254 289-418 393-96 60-308 152-461 198-81 24-215 60-226 61-19 0-4-36 35-88 24-31 66-91 92-132 27-41 56-86 65-100 62-95 140-356 140-471 0-69 12-99 40-99 32 0 355-86 500-134 177-58 383-131 407-145 10-6 21-11 24-11 4 0-4 49-16 108"/><path d="M4642 1595c-138 34-268 110-358 208-59 66-133 205-153 289-33 140-22 287 31 416 31 74 120 204 174 253 97 89 227 148 373 170 228 35 485-75 625-266 148-203 172-471 63-705-82-177-261-319-460-364-81-19-220-19-295-1m286 90c165 39 308 153 379 305 50 105 65 166 65 267 0 93-29 211-74 295-65 122-213 236-354 273-76 20-229 19-307-1-172-44-334-198-400-379-25-67-34-235-17-317 31-154 143-303 291-386 121-68 278-90 417-57"/><path d="M4685 1787c-39 10-140 55-165 75-67 52-121 115-151 176-45 92-47 98-53 172-18 201 90 389 273 477 66 32 86 37 171 41 72 3 111 0 156-13 207-59 344-240 344-455 0-271-212-483-479-479-42 1-85 4-96 6m267 110c89 42 147 98 188 180 30 59 35 80 38 159 4 105-10 160-63 240-42 64-104 116-180 150-54 23-69 25-160 22-119-4-180-29-260-107-144-141-159-374-34-532 37-47 126-109 189-132 73-27 202-17 282 20"/><path d="M4672 1979c-72 34-103 61-100 84 4 32 33 32 100 2 51-23 71-27 133-23 61 3 81 8 125 36 56 35 76 37 94 10 14-23-18-57-91-93-76-39-196-46-261-16"/></svg>