<svg xmlns="http://www.w3.org/2000/svg" fill="#3f3d3d" viewBox="23353 10913 3910 3725"><path d="M24735 11020c-341 51-609 279-705 600-25 82-43 104-122 145-65 34-116 40-228 25-53-7-113-10-133-6-51 10-94 56-102 110-12 80 60 195 170 271 30 21 55 40 55 43 0 2-10 18-22 35-16 23-23 45-22 76 1 37 7 49 37 77 58 54 124 67 321 66h169l59 58c39 39 58 66 58 83 0 29-33 75-130 182-138 151-222 306-271 495-28 107-28 301 1 430 91 409 460 700 1010 795 309 53 720 43 1035-25 220-48 496-165 655-278 206-146 385-380 474-615 122-324 139-731 45-1094-71-279-160-397-283-379-55 9-120 51-165 108-69 86-238 244-301 281-127 74-270 98-501 85-126-7-210-20-276-44-50-18-50-17 28-120 197-260 233-605 95-908-81-178-217-318-393-406-170-84-376-117-558-90m330 120c291 68 514 287 582 572 25 105 23 270-6 371-27 99-79 203-145 292-67 89-76 107-76 145 0 93 102 142 352 169 132 15 225 14 338-4 228-34 356-110 545-324 55-63 116-122 134-132 30-16 37-17 62-3 51 26 94 122 143 319 43 175 51 243 50 425 0 193-22 348-69 495-30 94-107 254-166 345-56 86-235 262-333 328-324 217-836 329-1331 293-656-49-1057-303-1177-746-20-77-17-313 6-400 42-157 130-309 266-460 44-50 92-109 106-132 45-75 33-148-36-227l-30-34 42-25c94-55 149-135 149-215 1-80-18-109-119-187-66-51-103-103-141-197-13-33-38-71-57-88-19-16-34-37-34-46 0-30 86-198 134-261 146-193 406-312 651-297 44 3 116 14 160 24m-926 748c36 83 80 140 155 196 36 28 70 62 76 77 23 55-22 124-107 166l-58 28h-215c-189 0-219-2-243-18-31-20-28-36 14-61 29-17 33-17 102 0 84 21 268 24 334 6 59-17 87-43 78-71-6-20-12-22-38-17-18 4-77 9-132 12-160 10-302-33-432-129-73-54-123-118-123-157 0-36 15-41 92-30 94 14 198 12 256-5 28-9 79-35 114-59l63-43 20 24c11 12 31 49 44 81"/><path d="M24582 11636c-73 37-99 170-46 233 57 68 149 57 184-21 60-131-29-267-138-212m662 1248c-69 16-166 62-213 101-32 27-40 62-20 82 13 13 27 9 92-29 154-90 330-97 568-23 155 49 245 65 363 65 124 0 220-17 335-59 113-41 135-23 92 73-46 101-158 173-321 206-119 24-144 45-103 86 14 13 28 15 77 10 86-9 220-53 278-93 28-18 52-33 55-33 13 0-10 88-34 133-49 90-165 164-329 212-47 14-104 25-126 25-52 0-78 15-78 46 0 17 8 27 24 33 35 14 169-6 264-38 45-16 82-26 82-23 0 14-78 98-124 131-155 114-347 167-577 159-118-4-146-9-234-38-230-78-372-228-415-442-21-100-28-113-59-103-67 21-28 234 68 372 102 145 244 237 446 288 190 48 368 40 577-26 224-71 403-221 425-355 5-30 20-52 67-99 72-71 102-124 117-208 10-52 9-68-4-99-15-36-15-40 9-93 29-66 33-158 8-193-20-29-65-52-102-52-15 0-76 15-134 34-221 72-338 70-617-11-138-40-170-45-276-49-80-2-140 1-181 10"/></svg>