<svg xmlns="http://www.w3.org/2000/svg" fill="#3f3d3d" viewBox="-89 12344 5336 2596"><path d="M2780 12427c-13 3-37 16-53 29-16 14-42 24-60 25-100 2-159-5-227-28-74-25-79-26-265-19-104 3-248 13-320 21l-129 14-36 39c-32 36-41 40-100 46-65 6-151-3-203-23-59-23-381 42-582 116-185 69-312 148-435 272-129 129-184 254-179 404l2 69-63 44c-105 73-135 119-127 191 9 83 80 128 200 127l77-1v78c0 42 3 84 6 92 3 10-16 28-63 57-113 70-201 141-214 172-18 45 6 63 108 82 48 9 88 18 91 20 2 3 6 23 7 44 16 210 151 375 355 436 245 73 757 108 1755 121 358 5 1278-8 1420-20 33-2 105-7 160-10 280-17 592-61 710-100 121-42 224-123 278-223 30-55 57-157 57-218v-41l63-11c127-24 137-29 137-67 0-28-9-41-52-79-29-26-89-72-133-103l-80-57v-141l74 3c89 4 111-1 150-34 43-36 58-90 41-151-11-39-29-63-94-126l-81-79-1-86c-2-95-26-177-79-268-36-63-172-199-254-254-166-112-441-209-732-259-116-20-178-17-194 9-9 14-87 12-183-5-58-10-95-23-125-43-49-34-129-47-342-57-71-3-159-7-195-9s-76-1-90 1m-414 124c27 17 139 122 249 234 164 167 210 209 256 229 71 33 112 27 140-18 23-38 24-70 3-149-19-74-59-156-120-249-26-38-44-71-41-74 5-5 284 11 390 22 77 9 120 44 313 256 153 168 211 224 252 239 93 35 166-34 147-139-10-57-52-164-91-227-19-32-33-59-32-60 4-4 160 27 249 48 108 26 277 86 363 129 125 62 210 124 291 210 95 101 136 183 143 284l4 71-48 20c-128 55-388 95-766 118-49 3-125 7-170 10-405 25-1445 38-1959 25-302-8-751-27-819-35-19-2-80-7-135-10-273-17-553-64-652-110l-56-25 7-68c20-212 248-432 564-546 133-47 320-94 449-112 40-5 47-2 114 50 39 30 137 119 216 196 171 166 233 211 301 218 45 4 50 2 75-28 20-23 27-43 27-74 0-83-64-226-154-347-31-41-56-77-56-80 0-6 40-10 320-29 177-12 172-12 226 21m446 100c63 91 106 185 115 246l6 46-33-19c-29-17-104-90-297-292-29-30-53-55-53-56 0 0 48-1 106 0l106 1zm-1069-19c79 82 177 250 191 325 7 39-4 42-53 12-35-21-327-298-330-312 0-4 20-7 47-8 26 0 65-6 87-14 22-7 41-13 43-14s9 5 15 11m1999 27c16 14 87 154 103 200 9 28 15 62 13 77l-3 26-45-35c-25-19-88-83-140-143-143-164-140-147-29-139 51 4 97 10 101 14m-3362 835c189 57 660 101 1317 126 312 11 1408 11 1733 0 739-25 1167-66 1368-129l90-28 34 25c153 115 183 212 65 212-23 0-96-14-161-30-66-17-143-30-171-30-54 0-127 30-176 72-63 54-87 71-133 95-44 22-59 25-125 21-64-4-92-13-174-51-139-66-183-80-257-80-79-1-134 23-260 114-122 88-173 91-290 13-121-80-168-98-255-99-86 0-102 6-303 115-120 65-179 57-342-46-127-80-219-89-330-30-25 13-83 44-130 68-113 60-160 63-251 16-35-19-89-53-119-76-75-57-133-75-228-70-69 3-90 9-202 62-103 49-136 60-192 64-95 7-138-12-228-99-116-113-169-126-355-88-146 29-216 14-201-45 8-34 147-137 176-131 8 2 53 15 100 29m115 230c19 8 66 45 105 81 157 147 283 158 522 45 168-79 232-78 344 6 32 25 85 57 116 72s57 29 57 33c2 11-220 59-329 70-341 34-758-64-892-212-45-49-52-95-15-102 42-8 58-7 92 7m4279 36c31 30-118 141-246 184-244 82-537 97-795 42-107-23-228-63-197-65 6-1 44-26 84-56 127-95 187-97 366-10 139 67 183 78 272 73 82-4 171-44 247-111 57-50 87-68 130-77 33-7 125 6 139 20m-1708 75c17 7 50 25 74 40 40 25 42 29 26 41-27 19-171 62-263 78-277 49-637 13-842-85l-66-31 55-27c39-18 71-26 110-26 51 0 62 5 147 62 90 60 181 93 255 93 53 0 132-30 224-85 143-85 192-96 280-60m1704 119c-94 154-405 246-785 233-225-8-368-39-518-114l-67-33 16-25c9-14 17-25 18-25 0 0 33 13 71 28 286 116 734 123 1052 16 61-20 165-72 199-99 37-30 42-25 14 19m-4334 3c71 53 236 112 419 149 114 23 462 26 570 5 131-25 227-52 297-83 69-31 69-31 89-12 19 20 19 20-10 42-44 32-189 90-283 112-412 96-959 3-1105-188-51-68-44-76 23-25m1549 22c88 43 206 80 343 108 68 14 135 18 307 17 205 0 228-2 340-28 114-26 244-72 292-104 13-8 31-11 43-7l22 7-24 25c-65 70-213 135-383 169-115 22-453 26-565 6-212-39-356-96-427-169-40-41-53-63-36-63 4 0 44 18 88 39m2955 103c77 60 82 54-60 83-301 62-552 148-794 272l-98 51-62-40c-104-68-374-193-525-244l-143-47 23-18c40-31 55-31 115 4 160 93 382 140 649 140 341-1 619-78 746-207 30-30 60-53 67-50 8 2 44 28 82 56m-4514 40c168 123 445 185 783 175 282-8 485-59 661-168l35-21 70 40c68 40 69 41 43 51-96 36-350 170-553 291l-80 48-118-59c-298-150-676-267-1027-319-71-10-88-15-79-24 2-2 40-27 84-55l80-51 25 27c14 16 48 45 76 65m2782 120 74 21-91 33c-106 37-221 92-344 163-100 58-73 61-251-24-107-51-324-126-421-145-82-17-85-20-34-40 42-17 48-17 134 3 78 17 125 20 345 20 239 0 262-1 360-25 133-32 140-32 228-6m-2745 59c252 50 575 167 874 316l52 26 78-45c134-78 254-143 368-201l110-56 85 15c168 28 432 118 623 211 48 24 96 43 106 43s72-30 137-67c222-125 474-220 560-210 48 5 287 118 430 203 50 30 96 54 103 54 6 0 74-32 151-70 197-99 354-157 612-229 94-26 111-27 105-4-3 10-8 35-12 56-24 143-125 249-285 297-133 40-440 78-840 102-292 18-1911 18-2240 0-416-22-687-53-864-97-157-40-264-146-295-293-16-79-15-85 15-78 14 4 71 16 127 27"/></svg>