<svg xmlns="http://www.w3.org/2000/svg" fill="#3f3d3d" viewBox="365 8010 5970 7084"><path d="M1400 8125c-555 101-955 608-927 1174 26 532 441 986 974 1066 353 53 695-54 950-298 164-158 270-333 323-534 146-559-150-1140-688-1348-185-71-437-95-632-60m420 58c50 11 58 17 88 62 17 27 32 54 32 60s-42 21-92 34c-51 13-124 36-162 52l-69 28-36-18c-38-20-180-65-244-78l-38-8 40-62c21-33 49-64 60-68 82-26 312-27 421-2m-520 32c0 2-13 25-30 51-22 36-48 57-107 91-93 53-161 103-245 181-51 47-73 61-116 70-30 7-58 12-63 12-17 0 8-34 81-113 111-119 243-209 393-268 73-29 87-33 87-24m776 50c145 67 273 165 376 289 27 32 48 60 46 61-2 2-26-2-53-8-40-10-67-27-131-83-87-77-143-117-241-175-45-26-73-51-94-84l-30-47 28 7c15 3 60 21 99 40m-695 124c58 17 131 39 162 51l57 21v346l-57 38c-32 21-109 76-172 122-62 47-118 86-125 89-10 4-332-88-341-98-10-10-17-217-10-274 6-53 11-63 54-102 74-69 159-133 240-179 42-24 78-43 82-43 3 0 53 13 110 29m657 0c74 37 203 134 267 200l50 52v155c0 118-3 157-13 163-8 4-87 30-176 56l-163 47-134-99c-74-55-153-112-176-126l-43-27v-348l53-21c28-11 95-32 147-47 52-14 100-27 105-29 20-7 26-5 83 24M840 8769c0 65 3 138 6 162 5 42 3 47-46 104-28 33-73 95-99 137l-47 77-62-62-61-62 18-90c37-179 110-340 159-351 15-3 47-12 72-19s48-13 53-14c4-1 7 52 7 118m1707-77c30 23 104 213 128 329 22 105 20 118-31 174-42 47-46 49-57 31-55-88-111-168-144-206l-39-45 4-161 4-161 62 15c33 8 66 19 73 24m-790 255c65 47 139 101 165 120l47 34-13 42c-7 23-37 115-67 204l-54 163h-207c-197 0-208-1-218-20-6-11-38-102-71-202l-61-183 37-30c64-53 300-215 312-215 6 0 65 39 130 87m-533 165c5 8 136 414 136 422 0 5-26 46-58 90-32 45-77 109-100 142l-41 62-83-19c-46-10-119-31-163-46-79-28-80-29-112-88-39-72-87-216-103-307-10-57-9-70 6-99 26-52 112-177 150-219l34-38 166 49c92 26 167 49 168 51m1179-59c20 24 63 86 97 138 60 92 61 95 57 149-7 77-50 217-96 314l-39 81-96 32c-90 31-231 62-239 52-2-2-47-67-101-144l-98-139 67-210c36-116 67-211 68-213 1-1 65-20 142-43s151-45 165-50 28-9 31-9c4-1 23 18 42 42M645 9349c12 89 54 229 95 317 40 86 41 91 34 161-3 40-9 73-13 73-12 0-91-126-130-210-64-135-93-247-98-380l-5-115 55 54c46 45 56 61 62 100m2051-35c-12 173-72 356-164 498-20 32-40 58-43 58-4 0-9-25-11-56-4-51 0-68 40-158 43-97 92-264 92-311 0-21 72-125 87-125 3 0 3 42-1 94m-748 397 103 150-53 85c-73 116-133 187-166 197-50 14-275 20-352 9-69-10-78-14-108-49-41-47-148-206-157-233-6-19 35-85 163-263l34-47h216l217 1zM915 9819c43 15 145 41 221 56 14 3 37 32 67 84 25 43 69 106 97 140l51 61-64 29c-34 16-73 31-84 35-42 13-205-85-330-198-58-52-61-64-46-184 5-43 9-52 22-46 9 3 39 14 66 23m1517 60 2 73-72 70c-75 71-186 149-258 181l-41 19-77-32-76-32 38-46c50-61 94-126 122-182 12-25 23-46 24-47s35-9 77-17c41-9 113-29 159-45 47-16 88-26 92-22 4 3 8 39 10 80m-873 328c70 3 165 1 213-5 86-11 88-11 155 19 77 36 77 37-47 70-105 27-323 37-426 20-87-15-184-42-184-50 0-12 134-69 149-65 8 3 71 7 140 11m-431 453c-139 22-259 68-362 139-81 56-172 164-220 263-64 130-80 198-79 343 0 140 25 239 94 378 53 105 95 163 189 260 199 207 447 326 746 357 104 11 140 9 319-18 150-22 419-21 540 2 196 37 408 116 469 175 23 21 536 337 716 439 8 5 22 22 30 38 19 34 74 74 102 74 40 0 78-32 122-102 68-109 79-142 65-185s-60-73-115-73c-22 0-44-4-50-9-28-28-712-431-730-431-12 0-62-31-111-69-216-167-397-437-523-781-75-205-145-319-277-454-160-162-366-280-573-327-100-22-271-32-352-19m387 84c190 57 349 152 491 292 128 126 207 257 284 474 84 235 246 504 396 655 45 46 188 167 212 181 2 1-61 114-74 133-2 2-50-18-108-43-125-56-294-101-442-117-127-14-353-6-494 16-337 53-656-37-926-263-127-105-253-295-304-457-30-96-38-264-16-365 50-236 225-426 462-504 92-30 137-35 284-32 122 3 159 8 235 30m1523 1662 65 36-54 34c-94 58-135 78-153 71-26-10-30-37-11-71 45-77 66-106 77-106 6 0 40 16 76 36m167 101c36 21 65 40 65 44 0 10-178 111-188 107-30-13-122-71-122-76 1-5 162-106 178-111 2-1 32 16 67 36m193 116c28 17 52 34 52 37 0 4-15 14-32 23-18 9-60 32-94 51l-60 35-68-40-67-41 93-54c51-29 100-51 108-48s39 19 68 37m172 104c58 34 61 38 44 50-31 23-161 93-172 93-18 0-119-64-119-75 1-11 155-104 174-105 6 0 39 17 73 37m100 78c0 2-21 38-46 79l-45 75-42-26c-23-14-43-27-45-28-4-4 160-104 171-105 4 0 7 2 7 5m128 17c22 19 12 52-41 138-38 61-59 86-76 88-23 4-61-22-61-42 0-14 86-163 108-189 16-17 43-15 70 5"/><path d="M1150 10779c-228 33-409 158-499 344-50 102-64 175-59 307 9 204 79 359 237 523 101 105 173 158 296 220 284 143 629 146 846 6 68-43 169-155 202-223 39-78 67-196 67-276 0-180-97-403-249-572-87-96-262-216-391-266-137-54-327-80-450-63m9 73c-6 13-13 24-14 26-2 2-16-5-31-15l-28-18 29-6c55-12 57-11 44 13m91-5c14 9 27 18 29 19 2 2-6 19-18 38l-22 35-34-21c-31-18-33-22-24-41 15-29 30-47 38-47 4 0 18 8 31 17m169-1c11 4 10 8-4 24-22 25-33 25-64 1-43-33-4-47 68-25m110 28c11 7-25 76-40 76s-59-31-59-42c0-5 7-19 16-32 13-21 20-23 44-16 16 5 34 11 39 14m-519 2c0 3-5 14-10 25-9 16-14 17-32 8l-21-12 24-13c26-14 39-17 39-8m80 9c35 18 37 34 11 66-17 21-21 22-50 10-35-15-37-21-16-61 18-35 17-35 55-15m290 45c0 3-10 18-23 34-23 28-23 28-55 12-18-9-32-19-32-23 0-3 9-21 21-39l20-33 34 22c19 12 35 24 35 27m234-24 34 17-26 41c-14 23-27 43-29 45-3 4-73-31-73-36 0-7 51-83 55-83 2 0 20 7 39 16m-667 29 22 15-20 35c-22 37-25 37-87-3l-22-15 32-23c37-28 46-29 75-9m243 12c14 9 26 17 28 18 2 2-7 19-19 39l-21 36-31-22c-18-12-33-22-34-23-5-3 38-65 45-65 4 0 19 8 32 17m520 10c14 9 27 18 28 19 6 4-49 94-56 94-4 0-19-10-35-23l-27-22 26-43c14-23 28-42 32-42s19 8 32 17m-262 9c27 18 27 31 3 63-18 24-18 24-50 5-36-21-37-26-15-59 19-29 31-31 62-9m-408 24c24 18 25 20 8 47-21 35-38 39-68 15-23-19-23-19-4-50 21-37 30-39 64-12m265 60c-23 45-31 46-84 11-12-7-10-15 8-44l22-36 34 20c34 20 34 21 20 49m-397-5c2 1-7 19-19 39-20 34-23 36-43 23-11-8-34-22-51-32-16-11-32-20-34-22-3-2 8-17 24-33l29-30 45 27c25 14 47 27 49 28m922-2c0 5-10 27-22 48l-21 38-38-20-37-21 30-49 30-48 29 21c16 12 29 26 29 31m-263 2c1 6-7 22-20 38l-22 27-32-20-33-19 21-36 21-36 31 18c17 10 32 23 34 28m-423 8c15 11 16 17 8 33-27 47-27 47-63 29-19-10-35-19-37-20-2-2 7-19 20-38 23-36 29-37 72-4m237 4c16 10 29 22 29 28 0 8-17 38-36 63-5 7-64-32-64-41 0-10 32-67 38-67 2 0 17 8 33 17m261 26 28 22-21 32c-22 34-28 34-73 0-19-14-19-15 3-46 27-37 28-37 63-8m-662 5c22 18 22 19 6 50-19 36-31 39-65 13-22-17-23-19-7-49 19-36 34-40 66-14m919 6c23 24 23 25 5 55-21 36-26 37-64 14l-29-16 22-39c26-44 36-46 66-14m-1103 17c27 17 50 32 52 34 5 4-33 65-41 65-7 0-92-46-107-57-5-5 31-73 40-73 3 0 28 14 56 31m445 42c-26 40-30 41-64 14l-27-22 20-32 19-33 36 21 36 21zm242-34c32 17 33 24 7 61l-21 29-35-21c-32-19-34-22-21-42 7-11 17-27 21-34s11-12 14-10c4 2 19 10 35 17m-389 40c7 11-25 71-37 71-5 0-22-9-38-21l-29-20 22-34c22-32 24-33 50-19 15 8 29 18 32 23m636-24c34 18 36 26 14 60-19 30-34 31-64 7-23-19-23-19-4-50 21-37 17-36 54-17m-409 22c16 10 29 21 29 26 0 12-33 67-40 67-3 0-18-10-33-23l-29-22 19-33c10-17 20-32 21-32 2 0 17 8 33 17m663 26c18 25 19 29 4 43-12 12-20 13-34 5-47-26-47-27-29-55 21-31 31-30 59 7m-1044 25c0 6-18 36-36 60-4 6-64-28-64-36 0-4 9-22 20-40l20-33 30 21c17 12 30 25 30 28m640-31c14 9 26 17 28 18 2 2-7 19-19 39-22 37-27 38-73 3-19-14-19-15 3-46 26-36 28-37 61-14m-841 34c28 18 51 35 51 38s-10 19-23 35l-23 29-42-24c-23-13-42-29-42-35 0-13 21-74 25-74 2 0 26 14 54 31m455 7c6 10-30 67-41 67-13-1-63-28-63-34 0-3 9-21 20-39 20-32 21-32 49-17 17 8 32 19 35 23m645-19c24 18 24 18 5 50-21 36-26 37-59 15-29-19-31-31-9-62 18-27 31-27 63-3m-418 18c34 21 35 26 9 63l-21 29-34-20-34-20 21-35c11-19 22-34 25-34s18 8 34 17m-384 48c1 6-7 22-20 38l-22 27-32-20-33-19 21-36 21-36 31 18c17 10 32 23 34 28m645-27 27 18-21 32c-23 37-34 39-67 13-22-17-23-19-7-49 19-37 30-39 68-14m265 24c10 8 9 16-2 38-23 45-32 46-94 4-2-2 7-19 19-38 19-32 24-35 43-25 12 7 28 16 34 21m-687-7c17 9 30 20 30 26 0 13-32 69-40 69-3 0-18-11-34-23l-29-24 19-31c21-37 17-36 54-17m784 7c9 12 14 24 12 26-7 7-46-23-46-35 0-20 17-15 34 9m-510 60c-8 15-18 29-24 33-9 5-70-20-70-30 0-2 9-20 21-39l21-35 33 22c32 21 33 23 19 49m-666 14c-11 19-22 34-25 34-9 0-63-34-63-40 0-3 9-20 20-37l19-33 35 21 35 20zm927-26c5 9-1 25-23 58-8 12-15 11-41-2-36-19-37-24-14-64 17-29 19-30 45-16 14 8 29 18 33 24m-661 8c2 4-4 22-16 40-19 31-21 31-48 17-40-21-41-26-18-63 19-31 21-31 48-17 16 8 31 18 34 23m886-13c39 20 38 34-6 93-2 3-41-19-63-35-4-3 31-73 37-73 2 0 16 7 32 15m-1324 16c33 20 33 21 19 49-19 37-30 43-55 30-20-11-25-36-14-78 8-27 9-27 50-1m664-6c35 18 35 18 13 56-20 34-32 36-63 11-22-18-22-19-6-50 19-37 18-37 56-17m280 55c-28 50-34 53-68 36-38-19-38-21-12-64l20-32 34 22c25 17 32 27 26 38m-687-31c33 17 34 28 4 63l-22 28-32-21-32-20 22-35c12-18 24-33 27-31 3 1 17 9 33 16m929 23c17 12 16 15-3 45-20 32-22 32-49 18-40-21-41-26-18-63 21-33 28-33 70 0m-672-2 25 19-19 35c-11 20-22 36-25 36s-19-11-35-23l-29-24 19-31c21-37 30-39 64-12m280 38c0 4-10 20-23 36-20 24-26 27-43 18-48-28-48-28-25-65l22-36 34 21c19 11 35 23 35 26m623-13c19 41 20 45 8 64-7 11-15 9-44-11l-36-24 21-32c11-18 23-32 27-32s15 16 24 35m-1317-4 34 21-22 31c-12 18-23 33-24 35-2 3-41-19-63-35-5-3 31-73 38-73 2 0 19 9 37 21m917 8c33 17 34 28 4 63l-22 28-32-21-32-20 21-35c11-19 23-33 27-32 3 2 18 10 34 17m-665 8c15 9 29 18 31 19 2 2-7 19-19 39-20 33-24 35-44 22-11-7-26-17-33-21-9-5-8-15 4-41 19-40 24-41 61-18m913 10c16 10 29 21 29 26 0 12-33 67-40 67-3 0-18-10-33-23l-29-22 19-33c10-17 20-32 21-32 2 0 17 8 33 17m-652 12c24 18 24 18 5 50-21 36-33 38-64 13-22-18-22-19-6-50 19-37 31-39 65-13m259 67c-11 19-22 34-25 34-12 0-63-35-63-43 0-5 9-22 20-37l21-29 34 20 34 20zm-905-30c-9 23-23 16-23-12 0-22 2-24 14-14 8 6 12 18 9 26m230-17c33 17 34 28 4 63l-22 28-32-21-32-20 21-35c11-19 23-33 27-32 3 2 18 10 34 17m947 30c0 3-9 21-20 39-21 34-28 34-72 0-17-12-16-15 3-45l20-32 35 16c19 9 34 19 34 22m-695-13c30 19 31 34 7 64-18 22-19 22-50 6-37-19-37-19-15-57 20-34 25-35 58-13m262 22c21 13 22 16 8 42-23 45-32 46-83 12-10-7-9-16 8-45 13-22 27-34 33-30 7 4 22 13 34 21m653-13c36 18 36 18 9 61l-21 34-29-21c-34-24-33-22-14-59 18-35 17-35 55-15m-1330 10c39 20 38 34-6 93-2 3-41-19-63-35-4-3 31-73 37-73 2 0 16 7 32 15m923 14c15 8 27 18 27 23 0 7-16 37-36 66-4 7-64-32-64-41 0-13 34-68 40-64 3 1 17 9 33 16m-663 8c14 9 27 18 28 19 6 4-32 64-41 64-4 0-21-7-38-15-26-14-28-18-18-38 15-29 30-47 38-47 4 0 18 8 31 17m919 11 30 18-19 32c-22 37-35 39-69 13-24-18-24-18-5-50 21-36 24-37 63-13m-660 11c19 15 21 21 13 37-27 47-27 47-61 30-35-19-37-27-15-61 19-30 31-31 63-6m921 41c0 36-22 55-47 41-47-27-47-27-24-65 22-35 23-35 47-20 16 11 24 26 24 44m-663-22c23 15 22 23-10 66-14 19-15 19-45 0-18-10-32-22-32-27 0-19 42-67 53-60 7 3 22 13 34 21m-677-3c35 18 35 17 15 55-18 35-30 37-67 12l-27-18 21-32c23-37 20-36 58-17m920 12c14 9 27 18 29 19 2 2-7 19-19 38-22 37-28 38-72 4-17-12-17-15 2-46 23-37 27-38 60-15m-659 8c31 16 30 23-4 69-11 15-17 16-33 8-48-28-48-28-28-61 21-36 24-36 65-16m923 18c19 14 19 15 0 45-21 37-23 37-62 15l-30-17 21-37c22-39 27-39 71-6m-657 9c10 8 9 16-2 38-21 41-31 44-65 20l-29-21 20-34c18-31 23-33 42-24 12 7 28 16 34 21m-657 23c0 26-20 26-30 0-14-36-13-37 10-25 11 6 20 17 20 25m891-18c34 21 35 26 9 63l-21 29-34-20-34-20 21-35c11-19 22-34 25-34s18 8 34 17m-661 8c35 18 35 18 13 56-23 38-28 37-91-6-5-4 33-65 41-65 4 0 21 7 37 15m254 18c24 20 27 26 18 43-27 47-27 47-61 30-17-9-31-21-31-25 0-12 33-71 40-71 3 0 18 10 34 23m668-5 27 18-21 32c-23 37-34 39-66 14-23-18-23-18-5-50 21-37 28-38 65-14m275 39c2 4-7 20-20 36l-22 27-32-20-33-19 21-36 21-36 31 20c18 11 33 24 34 28m-690-17 33 19-21 36c-12 19-23 35-26 35s-18-9-34-20c-28-21-28-21-12-55 9-19 19-35 22-35s21 9 38 20m-667 5c34 18 36 26 14 60-19 30-31 31-63 6-22-17-23-19-7-49 19-37 18-37 56-17m267 23c23 15 22 23-10 66-11 15-17 16-33 8-48-28-48-28-25-66 14-22 27-33 34-29 7 3 22 13 34 21m653-11c14 9 26 17 28 18 2 2-7 18-18 38l-21 36-35-21c-19-11-34-22-34-25 0-9 41-63 48-63 4 0 19 8 32 17m275 33c5 9-1 25-23 58-8 12-15 11-41-2-36-19-37-24-14-64 17-29 19-30 45-16 14 8 29 18 33 24m-682-11c32 17 32 17 7 59-20 32-21 32-49 17-17-8-32-18-35-23-6-9 34-74 43-70 3 2 18 10 34 17m895 50 3 53-30-18c-36-21-36-23-13-63 24-43 36-34 40 28m-1294-16c19 14 19 15 0 45-24 41-30 41-92-3-2-2 7-19 19-39 22-37 27-38 73-3m646-18c36 19 37 31 7 68l-22 27-29-23c-28-23-28-24-12-55 19-37 18-37 56-17m280 55c-5 8-15 24-23 34-14 19-15 19-45 0-18-10-32-21-32-24s9-20 20-38l20-32 34 22c25 17 32 27 26 38m-687-31c15 8 27 19 27 25 0 9-16 39-36 64-5 7-64-32-64-41 0-13 34-68 40-64 3 1 17 9 33 16m942 31c3 6-3 24-15 40-21 29-22 29-50 15-40-21-41-26-18-63 19-31 21-31 48-17 16 8 32 19 35 25m-684-9 29 20-23 34c-22 34-28 35-70 3-18-13-18-15 0-46 21-38 26-38 64-11m-399 31c17 12 16 15-3 45-12 18-24 33-27 33-4 0-19-10-34-23l-28-22 21-32c22-34 28-34 71-1m657-13c24 18 24 18 5 50-10 17-23 31-29 31-8 0-39-17-64-36-7-6 41-64 52-64 7 0 23 9 36 19m245 14c24 20 27 26 18 43-28 48-28 48-66 25l-35-22 22-34c12-19 24-35 27-35s18 10 34 23m-661 10 27 22-20 33c-21 34-28 34-72 0-17-12-16-15 3-46 12-17 24-32 27-32 4 0 19 10 35 23m913 8c19 11 34 24 34 28 0 13-22 71-26 71-12 0-85-52-82-58 26-52 32-62 36-62 3 0 20 9 38 21m-1312 22c17 13 18 16 4 35l-15 22-21-30c-27-37-30-65-4-51 9 5 26 16 36 24m656-13c24 18 25 20 8 47-21 35-36 38-67 15-22-18-23-20-7-50 19-37 31-39 66-12m257 18c23 15 22 23-10 66-11 15-17 16-33 8-48-28-48-28-25-66 14-22 27-33 34-29 7 3 22 13 34 21m-674 1c15 8 27 19 27 25 0 9-16 39-36 64-5 7-64-32-64-41 0-13 34-68 40-64 3 1 17 9 33 16m919 14 28 22-21 32c-20 32-22 32-49 18-16-8-31-18-34-23-5-9 32-72 42-72 4 0 19 10 34 23m-662 4c14 9 26 17 28 18 2 2-7 19-19 39-22 37-27 38-72 4-18-13-18-15 0-46 21-36 29-39 63-15m280 42c0 5-22 42-37 60-1 2-18-4-37-14l-35-19 21-37 20-37 34 20c19 11 34 23 34 27m-673-7c10 8 9 16-2 38-21 41-33 45-61 19s-29-37-8-67c15-22 33-20 71 10m894-5c16 10 29 22 29 28 0 8-17 38-36 63-4 6-64-32-64-41 0-12 30-67 36-67 3 0 19 8 35 17m-661 10c14 9 27 18 29 19 2 2-7 19-19 38-22 37-29 38-72 4-17-12-16-15 3-46 24-37 26-38 59-15m930 18c22 14 40 28 40 31 0 10-31 64-37 64-10 0-93-50-93-56 0-12 35-64 42-64 5 0 26 11 48 25m-670 1 28 17-20 33c-23 39-33 41-67 15-22-17-23-19-7-49 19-37 27-38 66-16m257 21 22 14-21 35c-11 19-23 33-27 32-3-2-18-10-33-17-33-17-33-17-8-59 13-21 25-30 33-26 6 4 22 14 34 21m-670 3 33 20-28 45c-15 25-29 45-32 45s-18-12-33-25l-28-25 23-40c13-22 25-40 28-40s20 9 37 20m913 7c14 9 27 18 29 19 2 2-6 19-18 38l-22 35-35-21c-32-19-34-22-21-42 7-11 17-27 21-34 10-16 17-15 46 5m-659 10c16 10 29 20 29 23s-11 18-23 34l-24 29-31-19c-18-10-31-21-29-24 1-3 9-17 16-33 17-32 23-33 62-10m276 38c1 6-8 23-21 39l-23 30-31-23-32-22 23-34 22-34 29 17c16 10 31 22 33 27m223-10c39 20 38 34-6 93-2 3-41-19-63-35-4-3 31-73 37-73 2 0 16 7 32 15m-660 10c17 9 30 18 30 22 0 12-51 93-58 93-6 0-40-21-61-36-4-4 48-94 55-94 3 0 18 7 34 15m280 41c0 14-32 64-41 64-15 0-59-31-59-42 0-5 9-23 21-39l21-29 29 21c16 11 29 23 29 25m650-24c22 13 40 25 40 28s-10 18-23 34c-25 31-43 31-86-3-24-18-24-18-5-50 22-37 24-37 74-9m-396 36c2 4-4 22-16 40-19 31-21 31-48 17-40-21-42-27-19-63 19-32 20-32 48-17 17 8 32 18 35 23m-404 27c0 7-52 95-56 95-14 0-64-32-64-41 0-6 12-30 26-54l25-44 35 21c19 11 34 21 34 23m630-28c14 9 27 18 28 19 6 4-32 64-41 64-4 0-21-7-38-15-26-14-28-18-18-38 15-29 30-47 38-47 4 0 18 8 31 17m-380 46c0 5-9 22-21 38-20 28-21 28-50 14-33-18-35-25-14-65l15-30 35 17c19 9 35 21 35 26m220-8c34 18 37 31 14 63-18 27-31 27-63 3-22-17-23-19-7-49 19-37 18-37 56-17m265 62c-28 24-51 28-74 14-11-7-10-15 8-45l22-35 35 22 34 22zm-657 23c-12 19-23 37-24 39-3 3-62-17-72-25-4-3 26-64 40-81 7-9 18-7 43 10l34 22zm271-24c2 2-7 19-19 38-21 35-22 35-50 21-40-21-42-27-19-63l19-33 33 17c17 9 34 18 36 20m221-1c36 19 37 26 7 61-23 26-24 27-50 9-31-20-33-27-11-60 19-29 17-29 54-10m-412 22c15 9 28 18 30 19 1 1-3 14-10 28-11 25-16 27-47 21-20-4-38-9-41-11-4-5 30-74 37-74 2 0 16 8 31 17m260 20c30 17 30 18 14 45-18 31-47 36-77 15-17-13-17-15 1-45 21-37 23-37 62-15m221 14c-16 10-23 4-14-10 3-6 11-8 17-5q9 6-3 15m-378 28c37 23 24 36-27 27-36-7-41-15-22-34 15-15 12-15 49 7m244 11c4 6-5 10-20 10s-24-4-20-10c3-6 12-10 20-10s17 4 20 10m568-398c-5 7-17 40-27 73-27 89-80 178-153 256-39 41-63 74-60 83 4 10 33 16 104 21 129 9 203 20 352 52 130 28 153 26 159-13 2-13-30-59-88-129-82-98-129-164-223-313-28-43-47-52-64-30m82 160c60 91 128 180 179 236 21 23 37 44 35 46s-53-7-114-20c-60-12-139-26-175-29s-84-8-107-11l-41-5 50-67c44-58 92-145 112-205 3-9 7-17 9-17s26 33 52 72m581-1112c-63 11-159 59-213 105-94 80-150 221-140 355 16 225 179 390 403 407 180 14 348-86 426-253 40-85 50-209 23-300-19-67-70-157-112-195-100-94-256-142-387-119m44 62c0 27-28 115-50 157-48 94-168 186-259 198l-38 5 8-50c22-144 121-259 258-303 68-22 81-23 81-7m141 4c74 22 144 68 189 126 39 49 83 149 78 176-2 9-23 21-49 27-77 20-140 57-205 120-78 77-113 144-139 269-6 27-8 28-45 23-135-18-257-130-301-275-14-48-6-62 36-62 35 0 143-57 191-102 66-60 119-146 139-225 9-37 19-74 21-81 4-16 19-15 85 4m273 416c-14 92-45 150-113 219-67 67-147 109-208 109-25 0-26-2-19-46 12-88 80-195 163-254 50-36 126-69 161-70 21 0 22 3 16 42m-1899 1479c-280 45-496 275-633 674-33 96-83 283-102 376l-11 57-40-9c-49-11-87 4-106 41-14 27-16 113-4 144 5 13-7 65-35 150-39 119-96 355-124 513-20 113 29 167 163 180 81 7 118-10 140-66 34-84 90-413 102-599 6-88 11-107 31-131 31-37 44-73 44-121 0-47-18-67-76-81-40-10-43-13-38-38 85-366 165-580 277-746 118-173 280-279 446-291l66-5-55 19c-201 67-362 228-427 426-36 112-39 260-5 358 77 222 277 363 491 344 300-25 321-29 416-79 175-93 287-307 272-521-15-210-129-389-312-489l-70-38 44 6c237 32 412 231 516 590 30 106 73 308 81 392l7 60-47 12c-65 16-83 46-67 114 6 28 23 66 38 85 23 31 26 47 34 161 10 147 73 507 99 568s57 77 133 70c130-10 187-60 173-151-24-156-76-384-118-514-47-146-49-156-38-200 9-35 9-57 1-87-18-69-32-80-95-78-55 2-55 2-61-30-64-374-117-558-207-717-132-234-337-353-583-337-51 4-107 2-126-2-54-14-140-18-194-10m325 122c97 45 204 190 246 332 24 85 23 221-5 305-45 142-150 269-274 331-57 30-63 31-115 20-86-17-157-55-223-118-107-102-150-205-150-358 0-100 16-165 64-263 59-121 193-238 305-268 55-14 90-10 152 19m-431 109c-92 114-149 272-149 411 0 68 31 190 66 258 34 69 142 175 219 217l60 33-50-7c-104-12-175-44-246-111-101-94-149-207-149-347 0-134 40-247 129-366 33-44 151-150 167-150 2 0-19 28-47 62m667 0c293 268 212 747-148 874-50 17-48 7 7-34 95-70 180-210 211-350 37-165-7-360-111-496-19-25-31-46-26-46s35 24 67 52m-1294 933c103 22 108 24 108 46 0 27-37 99-55 105-7 3-45-2-84-12-69-16-71-18-81-54-13-50-3-100 21-100 10 0 51 7 91 15m1944 11c6 24 0 101-8 110-2 2-37 10-78 19-66 14-75 14-91-1-23-21-41-67-37-96 3-20 13-25 78-40 111-24 128-23 136 8m-1962 174 58 12-6 56c-3 32-8 93-11 137-9 108-82 473-100 502-17 26-44 29-115 12-56-13-80-34-80-70 0-58 73-378 117-514 52-160 51-158 67-152 6 3 38 10 70 17m1990 87c58 183 126 484 126 563 0 37-3 42-32 55-86 35-149 31-167-12-39-94-120-657-99-679 6-6 100-31 125-33 7-1 27 46 47 106m1903-876c-169 23-327 98-511 242-132 103-195 137-363 192-219 72-335 160-399 300-51 111-54 255-9 354 38 80 129 176 196 205 40 17 63 35 78 60 33 53 106 112 185 151 264 129 645 58 776-144 27-40 40-51 79-62 59-18 163-18 222-1 39 12 53 23 87 72 88 124 266 200 469 200 211-1 404-88 488-220 16-25 36-40 72-53 38-14 63-33 111-88 100-114 107-132 107-280 0-124 0-126-37-200-69-139-179-221-387-290-155-51-249-100-360-188-169-133-274-190-420-227-110-28-277-38-384-23m393 79c41 12 110 40 152 62 75 39 117 67 273 187 86 66 179 112 310 152s226 91 292 156c62 60 83 103 83 170v48l-29-45c-67-106-176-178-366-240-141-46-224-90-352-186-185-139-291-192-455-224-82-16-251-14-342 5-147 30-248 81-420 209-147 110-220 149-368 198-68 21-145 51-172 66-60 32-171 134-193 175-13 27-16 28-25 13-23-40 25-140 97-204 62-55 158-102 305-151 147-48 194-74 334-181 186-141 281-191 431-224 104-23 344-16 445 14m0 158c113 38 189 81 331 189 147 111 182 130 359 190 216 74 306 138 369 262l23 43-30 37c-26 32-35 36-80 39-51 3-52 2-112-57-108-107-256-161-441-161-219 0-405 84-484 218-16 28-41 56-55 61-120 49-266 28-304-44-32-59-117-134-191-170-97-47-181-65-306-65-185 0-332 53-434 157-52 52-60 57-109 61-50 4-53 3-84-33-37-42-36-54 10-127 61-97 152-155 345-220 163-54 214-82 387-211 128-95 194-132 297-166 106-35 147-40 284-37 113 3 142 7 225 34m-719 621c79 25 176 86 215 135 21 25 30 50 33 83 6 81 5 146-4 203-7 46-15 61-55 101-113 112-335 165-523 123-149-33-264-110-314-208-19-38-25-66-26-121-3-160 107-273 317-327 94-24 262-19 357 11m1348 5c176 61 262 160 265 306 1 90-22 146-90 210-126 119-348 169-540 120-106-27-179-64-235-120-39-39-47-54-54-100-18-120-6-239 30-286 30-40 96-87 160-114 132-56 328-63 464-16m511 155c-11 47-54 121-69 121-5 0-11-24-13-52-5-50-3-55 28-88 19-19 40-50 47-69l12-35 3 39c2 21-2 59-8 84m-2776-86c3 13 23 44 44 68 35 40 38 48 34 91-4 52-11 57-34 30-31-34-51-88-58-150-6-61 2-85 14-39m199 144c-5 16-8 61-8 100 0 68-1 72-20 67-41-12-50-31-47-102 4-76 13-92 53-92 27 0 29 2 22 27m2437-1c14 37 12 140-2 152-7 5-22 12-33 16-19 5-20 1-20-62 0-37-4-82-8-100-8-31-8-32 22-32 25 0 34 6 41 26m-1353 49c73 19 146 19 209 0 27-8 51-15 54-15s5 34 5 75v75s-22-7-49-15-79-15-116-15-89 7-116 15-49 15-49 15v-75c0-41 1-75 2-75s28 7 60 15"/><path d="M4040 14281c-30 5-82 23-116 39-180 88-228 256-110 387 53 59 121 97 207 118 205 48 427-27 502-169 32-62 30-148-5-207-79-134-271-201-478-168m218 54c168 38 267 152 233 266-36 120-195 198-376 186-99-7-178-35-235-84-75-65-98-148-61-222 64-125 254-188 439-146m1097-50c-122 27-203 78-250 159-128 222 150 448 476 386 162-31 274-133 287-261 6-64-11-109-64-169-97-107-277-153-449-115m280 64c185 66 239 223 115 342-170 166-561 109-621-89-26-88 24-175 131-230 36-18 85-37 110-42 69-14 197-5 265 19"/></svg>