<svg xmlns="http://www.w3.org/2000/svg" fill="#3f3d3d" viewBox="840 8496 5633 6124"><path d="M3405 8601c-280 41-422 213-385 465 19 129 67 389 100 544 17 80 40 185 50 235 21 97 49 192 71 239 9 20 30 37 65 52l52 23 6 118c4 65 8 137 10 159l3 42-95 23c-111 27-223 77-270 122-42 40-64 83-108 210-61 173-164 358-235 423-15 14-80 37-179 64-320 86-580 182-846 311-461 224-724 519-724 814 0 159 81 299 246 424 34 26 84 74 112 106 188 224 496 422 847 545 123 42 381 110 422 110 14 0 49 25 93 67 40 38 99 88 133 111 140 99 366 192 547 226 46 9 85 17 86 19 1 1 25 54 54 117 129 288 193 370 290 370 104 0 164-92 271-414 24-71 38-100 53-106 12-5 66-23 121-40 229-73 445-211 595-379 59-66 65-70 148-96 389-121 740-322 969-556 97-100 113-120 183-222 30-43 63-85 75-93 46-32 138-132 165-179 48-84 63-155 57-264-8-162-57-262-197-402-268-268-761-462-1470-579-74-12-149-28-166-35-64-26-202-219-300-420-63-128-106-180-176-216-60-31-204-69-260-69-26 0-49-3-51-8-3-4-8-77-11-162l-6-155 47-30c26-17 55-46 65-65 27-53 96-657 114-993 10-184-24-287-123-371-88-75-274-110-448-85m276 129c87 27 132 60 160 117 22 44 24 60 22 178 0 71-6 177-12 235-41 369-83 714-91 734-14 38-94 60-225 60-64 1-129-5-156-12-55-16-51-7-104-252-96-438-145-710-146-811-2-128 78-215 236-255 81-20 242-17 316 6m-47 1452c3 13 8 115 11 227 6 165 4 205-7 212-18 12-125 11-133-1-5-8-34-375-35-437 0-8 22-13 63-16 34-2 70-4 79-5 11-1 19 7 22 20m224 408c115 19 228 73 216 104-9 22-113 73-195 94-185 49-502 55-655 14-69-19-154-59-154-72 0-24 85-69 202-105 96-30 118-28 118 8 0 62 74 107 177 107 113-1 180-42 190-119 6-46 6-46 101-31m336 295c82 158 161 269 254 355l86 80-34 35c-121 125-499 227-894 242-406 15-788-56-890-165l-29-32 54-57c30-32 71-81 90-108 56-77 133-236 168-347 7-21 16-40 21-43s31 5 57 18c225 113 733 99 983-28 27-13 51-29 55-35 15-24 33-4 79 85m721 479c297 57 436 112 485 190 25 42 25 62-1 101-56 81-232 175-454 242-482 145-981 213-1571 213-304 0-471-9-689-36-297-37-569-100-701-164-289-139-145-285 455-461 74-21 136-39 137-39 2 0 15 22 28 49 31 61 72 95 161 137 148 69 343 102 645 110 378 11 705-37 957-142 149-61 226-123 264-210l17-42 44 9c23 5 124 24 223 43m820 251c185 89 360 214 384 273 26 62-59 170-212 272-351 233-1012 408-1832 484-572 54-1222 47-1750-19-438-54-836-169-1020-295-76-52-145-139-145-183 0-43 150-181 323-296 68-46 277-161 291-161 3 0 1 12-4 26-26 67 5 155 72 206 147 112 473 198 963 254 207 24 758 29 1005 10 302-23 557-60 835-123 551-123 856-284 855-452-1-25-7-57-15-71s-14-28-15-31c0-11 144 47 265 106m507 432c31 63 33 75 33 168 0 89-3 106-27 155-15 30-46 76-68 102-111 129-479 311-835 413-469 135-1037 226-1583 256-247 13-928 7-1087-10-821-89-1350-241-1542-442-108-115-131-264-63-417l20-45 29 44c278 436 1826 642 3312 440 679-93 1232-263 1535-472 89-62 197-174 215-223 7-20 16-36 20-36s23 30 41 67m-447 851c-75 73-170 148-277 221-77 51-305 165-413 205-55 21-110 41-122 46-61 25-314 92-448 119-338 68-575 91-988 98-341 6-528-2-761-33-396-51-752-164-1018-321-109-64-314-216-299-221 5-2 53 11 106 27 284 91 571 146 1000 192 258 27 883 37 1192 20 629-36 1172-126 1668-276 135-40 320-106 380-135 22-11 45-20 50-20 6 1-26 35-70 78m-1155 692c0 16-138 121-225 172-84 49-215 105-306 131-159 45-218 52-454 52-216-1-237-2-350-29-129-30-261-78-357-131-76-41-171-109-158-113 5-2 56 2 112 8 57 6 252 14 434 17 334 6 514-2 789-33 142-16 486-71 493-79 9-9 22-5 22 5m-763 606c-84 229-116 267-168 204-42-49-169-300-169-331 0-5 73-9 163-10 89-1 173-4 187-8 38-11 36 11-13 145"/></svg>