<svg xmlns="http://www.w3.org/2000/svg" fill="#3f3d3d" viewBox="11687 822 8687 4477"><path d="M15520 916c-74 8-218 23-320 34s-318 34-480 50c-619 64-701 85-813 209-60 68-90 132-95 209-8 108 9 128 141 171l67 23v454c0 250-4 454-8 454-5 0-89 11-187 25s-180 23-183 21c-4-4 24-187 53-341 8-44 21-118 30-165 31-176 16-226-86-278-88-45-158-56-339-56-265 1-381 44-414 153-16 55-11 101 33 303 52 235 99 463 97 466-2 1-89 16-194 32-104 16-216 39-247 51-115 43-206 171-257 359-19 72-22 111-23 250 0 179 15 270 62 384 16 39 21 61 14 66-6 3-53 12-103 19-51 7-105 19-120 27s-47 42-71 76c-64 91-265 420-283 464-27 65-15 107 86 296 121 226 127 233 192 248 60 13 378 36 638 46 170 7 178 6 275-20 55-15 119-36 142-46 43-19 45-24 56-110 1-9 15-16 33-18 29-3 32 0 52 56 30 80 89 169 147 220 123 108 354 171 525 143 208-34 385-221 425-448 8-43 14-92 15-110 0-31 0-31 73-43 39-6 156-27 259-46s193-34 201-34c7 0 31 35 53 77 49 98 161 214 251 261 86 45 237 82 358 89 176 9 300-36 429-157 134-127 207-273 232-468 6-48 10-55 43-71 59-31 71-50 74-124 1-37 7-67 12-67 6 0 74-3 151-7l142-6 97 82c196 166 264 208 358 221 32 5 61 11 64 13 2 3 11 33 19 67 34 148 146 293 279 362 324 168 710 20 813-312 11-36 23-81 26-101l6-37 246 2 246 1 19 73c27 105 73 187 154 267 91 91 182 137 318 162 133 23 228 10 343-47 147-72 269-237 295-400 11-67 19-80 55-80 31 0 85-40 108-80 20-34 21-53 27-685 4-358 7-678 8-712 1-60 2-62 31-68 77-17 111-75 118-201 6-121-13-190-66-234-53-43-504-267-582-288-59-15-124-17-745-14-374 1-1047 9-1496 16-767 12-818 14-855 32-64 32-78 69-82 215-4 145 7 185 64 222 19 12 35 26 36 32 2 5 2 259 0 563l-2 552-25-16c-33-22-97-21-130 0-32 21-45 54-45 112 0 60-16 48-22-16-3-29-13-59-23-70-23-25-170-100-196-100-10 0-26-11-35-25-15-22-16-108-13-942 2-617 7-920 14-925 5-4 25-8 43-8 63 0 121-21 148-53 25-29 26-36 21-112-5-88-28-154-85-244-92-147-295-303-442-339-78-19-112-20-250-6m286 125c39 16 97 49 130 73 79 57 183 172 217 237 33 67 64 186 51 199s-1262 180-1345 180c-25 0-29-4-34-38-29-187-77-291-186-406-42-44-102-97-133-116s-56-38-56-43c0-4 15-7 33-7s123-9 233-21c743-76 944-95 979-91 22 2 72 18 111 33m-1459 150c174 65 317 230 372 429 12 41 21 80 21 87 0 18-33 10-275-64-115-36-271-83-345-105-239-70-235-67-206-152 58-170 258-259 433-195m-92 489c61 18 189 56 285 85s190 56 208 60l32 7v979c0 538-1 979-2 979-26-1-188-65-188-74 0-3 14-28 30-57 17-28 43-90 57-138 25-79 27-100 27-266 1-166-1-188-26-278-62-221-175-384-312-448-61-29-73-31-155-27l-89 3-6-50c-16-135-1-819 18-812 6 2 61 19 121 37m1721 967c-4 764-8 958-18 964-41 21-90 19-156-7-37-14-105-33-152-41-188-34-389 28-530 162-43 41-49 43-145 58-55 8-102 14-105 12s-4-444-2-984l2-980 33-5c17-3 163-22 322-42 160-20 380-49 490-64s215-28 233-29l33-1zm-2481-813c67 14 129 39 139 54 7 13-22 38-64 55-97 40-343 46-475 12-61-16-107-42-107-60 1-16 71-48 132-61 75-17 301-16 375 0m-440 201c127 39 390 39 519 0 27-8 51-14 52-12 1 1-15 106-37 232-22 127-44 266-50 310-15 108-13 103-66 128-63 28-203 30-281 3-61-21-73-39-91-136-7-36-35-168-62-293-27-126-49-233-49-238 0-12 6-11 65 6m6585 112c69 24 335 152 328 158-4 4-997 18-2113 30-269 3-568 8-663 11l-173 5-127-77c-70-42-139-84-154-93-16-9-28-19-28-22 0-4 262-10 583-14 320-4 807-11 1082-15s658-6 850-6c332 2 353 3 415 23m-2818 196 120 78-6 37c-3 20-6 74-6 119v82l-167-105c-93-58-177-114-188-125-17-17-20-33-20-107 0-48 3-99 7-114l8-26 65 41c36 23 120 77 187 120m3359 88c6 13 10 58 7 116-2 77-6 97-21 108-19 13-103 15-1617 35-393 5-892 11-1108 12-383 3-394 2-408-17-11-15-14-46-12-130l3-110 300-7c394-10 1631-24 2307-26 537-2 537-2 549 19m-5854 184c247 114 371 615 236 952-27 67-88 145-132 168-56 28-605 124-1351 235-35 5-66 7-69 5-2-3 3-13 11-22 9-10 27-41 42-70 117-234 113-615-9-880-40-87-73-133-139-196-28-27-46-46-40-43s50-1 97-10c85-14 87-14 144 9 93 39 157 50 253 45 111-7 186-38 227-96 32-45-16-34 388-92 253-35 277-36 342-5m2488 82c55 35 126 73 158 84l57 22v698c0 385-3 699-7 699-9 0-152-107-190-143l-33-30 30-19c39-23 53-61 46-118-8-62-47-96-118-104-29-4-62-5-73-4-20 3-20-4-23-591l-2-593 27 18c16 10 73 47 128 81m3219 715c-3 354-7 672-10 706-6 65-27 102-59 102-12 0-35-55-35-86 0-23-81-170-112-205-187-203-461-264-688-153-148 73-273 235-302 391l-12 63-218 2c-120 1-232 2-249 2-30 1-32-1-53-74-31-106-71-175-146-250-67-68-155-121-260-156-80-27-243-25-324 5-202 73-346 244-381 453-6 39-24 48-55 28-13-8-15-97-12-722 2-392 5-714 5-714 1-1 299-5 662-9s887-11 1165-15c278-3 636-7 796-8l292-2zm-7278-595c113 38 225 199 275 398 32 126 33 372 1 487-48 174-132 277-248 302-21 5-48 0-83-13-168-64-280-263-312-557-30-286 71-564 227-619 52-19 81-18 140 2m2793 848c-138 36-288 163-359 305-60 120-83 212-83 345-1 126 16 203 67 311 18 38 48 87 66 107q63 73.5-42-6c-136-102-208-260-208-457 0-120 20-203 73-310 51-103 151-210 242-257 67-35 184-61 248-54l42 4zm589 11 37 17-35 8c-36 8-86 12-130 10-23-1-22-3 15-25 49-29 65-31 113-10m-339 59c204 48 325 215 338 465 6 120-14 226-65 335-82 173-270 305-436 305-222 0-410-199-441-466-8-71 14-213 45-297 61-162 216-302 378-341 75-19 104-19 181-1m699 1c16 11 22 24 20 42-3 24-8 27-38 27-31 0-35-3-38-28-7-56 14-71 56-41m-238 218c0 107-4 177-10 181-6 3-12 0-14-7s-11-44-20-82c-19-77-62-167-100-213-14-17-26-33-26-36 0-6 53-12 128-15l42-2zm-1669-138c103 52 233 82 322 74 31-3 57-2 57 1 0 9-129 31-760 128-238 37-261 38-343 28-130-15-213 0-335 62-84 43-116 53-236 75-77 14-161 26-187 26-61 0-570-105-624-129-35-15-176-121-225-168-13-12-13-13 0-9 8 3 47 0 85-7l70-14 75 77c95 97 163 131 270 138 87 5 400-38 1050-144 475-78 602-103 660-133 56-29 73-30 121-5m4699 8c0 2-26 17-57 32-78 39-182 143-222 221-68 135-78 297-28 423 35 85 15 75-30-17-35-70-38-84-41-177-3-84 0-112 18-165 39-117 110-205 214-266 53-31 146-64 146-51m-1678 37c-88 43-194 144-232 223-65 133-78 300-33 428 16 46 17 55 5 45-21-17-57-102-71-165-49-232 84-461 318-547 68-25 76-14 13 16m-834 18c20 12 11 54-13 57-11 2-107 6-212 10l-193 7v-25c0-25 1-25 108-32 59-3 130-10 157-15 67-11 137-13 153-2m2846 40c220 109 290 366 164 603-100 189-341 268-528 173-170-86-259-304-201-494 76-252 351-389 565-282m-1639 5c159 73 256 261 228 443-37 240-257 408-486 372-76-12-128-39-192-100-63-59-111-152-127-246-34-204 114-429 323-488 76-21 184-13 254 19m-5764 73c24 21 55 48 69 61 14 12 51 41 82 64 64 47 80 52 398 119 220 46 246 53 243 65-1 5-29 81-62 169s-78 213-102 277l-42 118h-61c-33 0-185-7-336-15-205-11-284-19-311-31-42-18-77-72-171-262-71-142-76-106 47-312 141-233 178-290 190-290 6 0 31 17 56 37m2719 7c0 2-6 22-14 44-21 59-37 221-30 300l6 68-238 42c-132 24-251 45-266 48-25 5-28 2-42-47-20-68-79-175-119-217-18-18-58-51-91-73-32-21-57-39-55-40 2 0 175-29 384-64 340-56 465-73 465-61m-1222 161c-134 69-236 191-289 345-44 129-26 322 42 438 29 50 22 52-20 4-238-268-107-723 234-808q141-34.5 33 21m355 84c79 38 119 82 166 181 35 73 36 79 36 190-1 139-17 202-78 291-81 122-194 182-337 183-104 0-175-29-244-97-200-200-134-607 119-739 71-38 117-48 197-45 62 3 89 10 141 36m-753 64c-44 79-69 161-82 269-10 84-14 97-32 102-11 3-21 4-22 3s-6-89-10-195l-9-193 35-8c164-41 157-43 120 22m-230 276c0 172-2 220-13 229-7 6-43 18-80 27-36 8-73 18-81 21-11 4 4-49 51-183 36-103 75-216 86-251 12-34 24-62 28-62s8 98 9 219"/><path d="M15490 1901c-131 15-296 50-328 69-45 28-63 70-73 179-13 126-2 505 16 548 17 40 61 63 120 63 25 0 121-11 213-25 301-45 328-60 343-186 11-100 11-448-1-529-8-56-14-70-44-98-33-30-40-32-103-31-38 1-102 5-143 10m189 92c14 18 25 405 14 512-10 95-10 95-148 119-178 31-339 46-351 33-15-16-27-352-18-493 7-102 8-106 33-116 43-17 200-47 296-56 133-14 161-13 174 1m-3105 1171c-145 64-167 332-37 463 119 119 268 6 266-202-1-119-57-231-130-261-40-17-59-17-99 0m95 111c17 20 31 37 31 39 0 1 5 28 11 60 19 102-21 216-75 216-52 0-98-89-98-189 1-143 63-203 131-126m2936 784c-161 73-188 334-44 423 104 65 216 37 287-69 32-49 37-65 40-129 3-60 0-81-18-118-51-107-165-153-265-107m130 75c41 18 75 78 75 134 0 21-10 59-23 83-39 73-116 102-172 65-79-52-88-174-17-250 45-47 80-55 137-32m3657-13c-18 5-50 27-70 47-97 97-76 258 41 317 56 27 83 30 140 14 88-24 143-112 135-214-5-58-34-106-89-147-29-22-111-31-157-17m134 113c97 97-40 249-144 161-79-67-29-195 77-195 24 0 42 9 67 34m-1769-100c-110 40-163 178-109 283 70 136 273 130 341-9 46-96 9-217-79-263-41-21-111-26-153-11m140 108c52 49 36 140-30 171-57 28-102 19-139-27-39-47-12-142 46-167 31-13 98-1 123 23m-5769-165c-28 33-189 318-195 344-6 32 18 55 44 41 16-9 131-194 198-319 23-43 26-55 15-68-17-20-43-19-62 2m88 115c-54 86-185 316-201 355-8 19-15 43-15 53 0 25 36 32 59 12 16-15 82-128 208-357 36-66 41-100 17-109-28-11-34-7-68 46m152 45c-17 20-104 178-202 365-66 126-79 174-52 184 37 14 57-16 278-433 41-77 47-96 38-113-13-25-42-26-62-3m200 60c-21 24-71 126-149 301-66 151-69 173-21 180 15 2 27-8 45-40 24-40 187-409 187-421 0-8-30-37-39-37-4 0-15 8-23 17m215 43c-18 20-162 394-163 421-1 44 53 52 74 10 25-48 114-292 133-364 16-60 16-69 3-77-22-14-28-12-47 10m1072 122c-104 37-166 157-131 256 31 87 87 131 169 132 89 0 151-49 184-147 30-88-16-196-101-234-46-21-77-23-121-7m119 109c45 53 27 152-33 183-36 19-52 20-86 4-70-32-73-152-5-205 8-7 34-13 57-13 34 0 46 5 67 31"/></svg>