<svg xmlns="http://www.w3.org/2000/svg" fill="#3f3d3d" viewBox="840 11324 5701 3282"><path d="M3605 11427c-574 27-1077 348-1295 829-23 49-44 95-49 103-4 8-34 21-67 28-325 70-596 154-787 242-37 17-70 31-72 31-3 0-46 25-96 56-211 131-319 279-319 440 0 156 53 277 179 404 216 219 542 365 1090 490 72 16 158 34 191 39 50 8 69 18 120 60 131 109 355 223 562 286 193 58 486 91 723 81 453-20 782-131 1093-369 54-42 65-46 232-82 784-168 1237-427 1318-755 33-138 19-282-36-362-41-60-156-168-225-211-203-129-619-279-956-343l-94-18-18-42c-68-160-118-246-210-360-292-361-781-570-1284-547m245 113c210 21 445 100 625 210 293 179 512 486 581 812 11 54 12 79 4 98-27 65-257 173-480 224-122 28-165 36-305 56-608 87-1350 27-1742-141-129-55-207-103-222-136-23-51 51-299 132-438 148-255 324-418 590-545 252-120 534-168 817-140m-1631 972c-6 11-14 58-17 103l-5 82 57 56c137 137 507 256 946 304 250 27 772 25 1010-4 491-61 848-189 941-339 19-31 21-45 16-107-4-40-9-82-13-95-6-20-4-22 17-18 558 125 897 263 1064 432 80 80 98 119 93 195-4 50-10 65-44 106-208 248-851 455-1709 552-295 33-499 43-900 42-373 0-494-5-806-36-636-61-1231-205-1537-372-195-105-301-214-302-307 0-45 38-113 95-170 154-154 446-284 905-402 198-51 205-52 189-22m4020 934c-153 189-488 355-964 475-445 113-1197 190-1725 175-243-6-510-24-755-51-343-39-697-112-971-203-142-47-325-123-389-162-16-10-47-27-67-39-69-38-187-131-214-169-16-20-39-49-53-64-32-36-19-36 28 1 89 70 260 154 471 230 159 58 496 141 735 180 714 119 1438 140 2235 65 683-64 1415-270 1660-467 30-24 57-43 59-41s-21 33-50 70m-3334 714c543 50 980 51 1530 5 99-9 200-18 225-21 42-5 44-4 26 10-37 30-196 107-291 141-498 181-1112 157-1557-59-100-49-179-95-163-96 5 0 109 9 230 20"/><path d="M3310 11716c-87 29-100 38-100 69 0 42 26 39 208-23 38-12 43-17 40-41-3-22-8-26-38-28-19-1-69 9-110 23m-320 146c-152 95-276 215-367 355-63 96-128 231-138 285-6 31-4 38 15 48 28 15 54-7 71-59 19-60 99-213 140-268 94-126 231-249 348-313 39-21 46-30 46-55 0-45-36-43-115 7m-1343 989c-55 13-108 43-147 84-32 33-35 41-35 95 0 49 4 63 25 85 80 85 243 74 342-22 70-68 75-148 13-202-53-46-116-59-198-40m133 84c93 48-55 183-175 161-109-21-93-114 25-156 67-23 111-25 150-5m3807-81c-79 29-119 95-97 162 50 149 276 211 383 104 31-31 37-44 37-79 0-49-17-85-57-123-62-60-193-91-266-64m164 91c121 61 115 145-10 145-72 0-98-9-145-50-72-63-34-125 70-116 29 2 67 12 85 21m-3291 231c-78 34-142 120-143 193-2 110 63 172 179 172 108 0 190-67 214-175 31-141-112-250-250-190m139 79c65 33 52 122-26 182-28 22-47 28-86 28-42 0-52-4-74-29-20-24-24-37-20-67 13-98 122-158 206-114m2156-81c-80 36-115 119-89 208 29 96 114 158 219 159 202 3 234-260 43-355-58-29-124-34-173-12m168 99c66 50 74 136 18 177-37 26-76 25-126-3-97-55-115-167-32-200 42-17 97-7 140 26m-1318 6c-160 74-166 287-10 363 49 25 81 29 133 18 123-27 195-162 147-277-21-50-41-71-97-99-57-29-118-31-173-5m171 96c29 28 34 39 34 80 0 81-52 135-130 135-117 0-166-168-66-230 57-36 113-31 162 15"/></svg>