<svg xmlns="http://www.w3.org/2000/svg" fill="#3f3d3d" viewBox="20754 6594 6586 3769"><path d="M22235 6711c-270 24-500 99-700 230-111 72-304 268-384 389-132 202-227 446-277 715-35 192-40 439-11 575 69 319 261 616 532 821 68 52 271 189 280 189 3 0 22 10 43 23 20 13 69 36 107 52 39 15 75 32 80 36 52 38 462 160 670 198 272 51 617 81 917 81h211l53 40c30 22 75 52 100 65 26 14 52 29 58 34 22 17 152 64 245 88 142 36 241 21 269-42 18-38 15-106-6-140-10-17-31-51-45-78l-27-47h24c58 0 445-113 552-160 224-101 308-148 499-282 174-121 313-246 420-379 11-13 38-47 61-74 97-118 221-325 283-470 105-249 129-298 159-317 16-10 79-27 138-38 207-37 251-50 364-104 239-115 410-374 410-620 0-64-3-76-25-100-35-38-80-35-146 10-101 67-184 86-300 65-89-15-255-16-309-1-25 7-71 25-102 40-59 30-68 29-68-3 0-29-64-141-107-188-20-22-83-71-139-109-141-96-169-132-200-254-17-70-55-116-95-116-66 0-158 104-212 240-74 188-69 407 15 580 18 36 36 69 40 75 22 27 118 155 161 213 75 104 63 157-58 254-76 61-148 88-255 95-145 10-313-46-479-159-109-74-110-75-401-362-450-444-710-642-1070-817-399-194-863-285-1275-248m357 99c205 20 378 57 597 129 198 66 382 155 566 275 250 163 399 290 785 671 242 238 322 306 442 379 164 99 271 130 453 131 197 0 293-38 407-164 68-76 88-115 88-173-1-81-30-132-168-300-148-181-189-390-118-603 30-86 94-202 106-188 3 4 12 28 19 53 28 96 87 173 186 239 106 72 148 108 190 163 47 63 68 112 85 201 9 45 17 60 33 66 24 9 54-4 75-32 18-23 105-67 167-83 58-16 173-18 230-4 61 15 214 13 272-4 29-7 73-28 98-45s48-31 51-31c20 0-18 144-62 236-92 195-269 322-502 365-180 32-215 41-279 71-80 37-102 69-178 258-99 247-152 336-272 458-150 150-379 293-588 367-27 9-59 21-70 26-41 18-233 68-335 88-177 34-327 44-591 42l-106-1-49-48c-127-122-186-156-227-129-38 24-31 53 21 92 112 82 144 112 176 159 47 71 61 108 81 217 37 198 66 284 129 383 21 32 35 65 32 72-8 20-98 18-176-5-36-10-103-35-149-55-71-31-116-58-241-143-14-9-59-51-100-93-152-152-274-380-326-609-10-42-22-82-27-89-22-29-96 1-83 34 3 8 2 14-3 14-24 0-229-100-331-162-74-44-110-70-203-145-44-35-88-63-98-63-11 0-36 8-57 19-144 73-437 65-737-21-85-24-442-137-470-148-11-5-99-34-197-66l-176-57-7-35c-3-19-6-84-6-144 3-382 138-795 353-1074 176-229 469-406 773-468 154-31 355-41 517-26m-1500 1893 97 32 58 115c65 129 101 183 184 285 135 164 279 291 479 420 106 69 326 185 350 185 5 0 10 5 10 10 0 14-32 5-160-41-239-86-429-186-620-328-70-52-231-205-275-261-45-56-128-189-155-245-37-79-82-205-72-205 4 0 51 15 104 33m313 106c50 16 101 34 115 40 14 5 50 17 81 26 53 15 59 20 104 88 145 217 383 412 707 576 174 88 265 125 428 174 199 60 329 89 525 117 148 20 151 21 185 56l35 36-220-6c-209-5-424-24-523-47-65-14-380-120-487-164-391-159-739-422-941-710-68-99-129-215-111-215 6 0 53 13 102 29m545 161c47 10 122 22 168 26l83 7 63 58c154 144 360 273 596 372 146 62 373 137 462 153 32 5 42 14 66 58 16 28 40 68 52 89l23 39-49-7c-269-38-496-95-719-179-261-99-528-254-697-404-74-66-228-237-228-253 0-4 21-1 48 7 26 9 85 24 132 34m728 3c81 65 133 100 232 158 82 49 299 149 321 149 9 0 25 34 43 90 16 50 35 102 43 117 13 25 13 25-21 19-44-8-258-79-355-117-196-78-478-245-596-354-27-26-45-44-38-40 18 8 192-29 244-53 24-11 48-21 52-21 4-1 38 23 75 52m3031 144c-38 46-160 151-228 198-35 24-119 64-185 90-67 26-134 53-151 60-168 71-637 165-824 165h-48l-19-63c-10-34-20-67-22-73-2-8 63-13 210-17 117-4 260-13 318-21 184-27 415-86 555-143 117-47 323-156 380-200 39-30 41-29 14 4m-574 442c-44 40-338 166-470 201-158 43-265 69-309 75l-44 7-11-52c-19-90-19-90 49-90 184 0 544-66 735-135 47-17 63-19 50-6"/><path d="M22675 8392c-30 27-54 89-47 125 3 14 20 40 39 59 100 100 248-27 181-154-28-54-126-70-173-30"/></svg>