<svg xmlns="http://www.w3.org/2000/svg" viewBox="0 0 200 140">
  <rect width="200" height="140" fill="#f7f8fc"/>

  <!-- Example 3 with dot-arrows: digitW=70 digitH=95 at dx=5 dy=22 -->
  <!-- Stroke 1: top half -->
  <path d="M 17.6 33.4 C 33 26.75, 62.4 28.65, 59.6 48.6 C 56.8 65.7, 38.6 67.6, 36.5 67.6"
    fill="none" stroke="#333" stroke-width="2.2" stroke-linecap="round" stroke-linejoin="round" stroke-dasharray="1 5"/>
  <!-- Stroke 2: bottom half -->
  <path d="M 36.5 67.6 C 55.4 65.7, 64.5 80.7, 59.6 99.6 C 54 112.25, 26 112.25, 16.2 105.6"
    fill="none" stroke="#333" stroke-width="2.2" stroke-linecap="round" stroke-linejoin="round" stroke-dasharray="1 5"/>
  <!-- Dot-arrow 1 -->
  <circle cx="17.6" cy="33.4" r="7" fill="#222"/>
  <text x="17.6" y="37" text-anchor="middle" font-size="10" font-weight="900" fill="white" font-family="Arial">1</text>
  <rect x="24.6" y="31.4" width="3" height="3.5" fill="#222"/>
  <polygon points="27.6,27.9 27.6,36.9 36.1,32.4" fill="#222"/>
  <!-- Dot-arrow 2 -->
  <circle cx="36.5" cy="67.6" r="7" fill="#222"/>
  <text x="36.5" y="71.2" text-anchor="middle" font-size="10" font-weight="900" fill="white" font-family="Arial">2</text>
  <rect x="43.5" y="65.8" width="3" height="3.5" fill="#222"/>
  <polygon points="46.5,62.1 46.5,73.1 55,67.6" fill="#222"/>

  <!-- Guidelines on right side -->
  <line x1="90" y1="24" x2="195" y2="24" stroke="#aaa" stroke-width="0.8"/>
  <line x1="90" y1="70" x2="195" y2="70" stroke="#ccc" stroke-width="0.6" stroke-dasharray="6 4"/>
  <line x1="90" y1="116" x2="195" y2="116" stroke="#aaa" stroke-width="0.8"/>

  <!-- Traced 3 on guidelines (no arrows): digitW=70 digitH=95 at dx=105 dy=22 -->
  <!-- Stroke 1: top half -->
  <path d="M 117.6 33.4 C 133 26.75, 162.4 28.65, 159.6 48.6 C 156.8 65.7, 138.6 67.6, 136.5 67.6"
    fill="none" stroke="#333" stroke-width="2.2" stroke-linecap="round" stroke-linejoin="round" stroke-dasharray="1 5" opacity="0.5"/>
  <!-- Stroke 2: bottom half -->
  <path d="M 136.5 67.6 C 155.4 65.7, 164.5 80.7, 159.6 99.6 C 154 112.25, 126 112.25, 116.2 105.6"
    fill="none" stroke="#333" stroke-width="2.2" stroke-linecap="round" stroke-linejoin="round" stroke-dasharray="1 5" opacity="0.5"/>
</svg>
