<svg xmlns="http://www.w3.org/2000/svg" viewBox="0 0 200 140">
  <rect width="200" height="140" fill="#f7f8fc"/>
  <defs>
    <symbol id="apple" viewBox="0 0 512 512">
      <path d="m224.2 100.4 2.6-10.9c2.8-11.2 5.9-22.3 11.5-32.5a93 93 0 0 1 55.9-45.8c16.9-5.3 34.1-6.8 51.6-6.3q19.2.5 38.4 0 8-.2 15.8-2.6c2.6-.8 3.2-.2 2.7 2.5a168 168 0 0 1-73.5 107.5l-2.1 1.5c6.2.8 12.2 1 18 2.2a110 110 0 0 1 47.8 22.2 122 122 0 0 1 34.9 48.3 166 166 0 0 1 12.5 48.1 206 206 0 0 1 0 44.4 342 342 0 0 1-13.4 68.8 346 346 0 0 1-47.2 99.1 225 225 0 0 1-34.3 39.8 95 95 0 0 1-44 22.8 80 80 0 0 1-43.2-3.5c-7.7-2.8-15.4-5.6-23.4-7.6a60 60 0 0 0-32.9 2.3c-9.4 2.9-18.7 6.1-28.3 8.1q-33.9 7-61.4-13.7a207 207 0 0 1-45.1-47.7A378 378 0 0 1 11 327.5a262 262 0 0 1-8.9-81.8 187 187 0 0 1 18.4-71.8 107 107 0 0 1 72.1-57.7c11.9-2.9 23.9-3.3 36-2.6 20.1 1.2 38.8 8 57.7 13.8l15.3 5c-2-10.2-5.9-19.2-10.1-28.1-4.1-8.7-10.7-15.3-16.5-22.6a66 66 0 0 0-18.1-14.8q-4-2.5-7.9-5.2-2.9-1.9-1.6-5.3A33 33 0 0 1 158.9 42l6-4.3c5.4-4.2 10.9-3.7 16.7-.8 5 2.6 8.8 6.7 12.5 10.8a171 171 0 0 1 28.7 49.6c.3.8.5 1.8 1.5 2.7Zm-213 159.8q-.1 9.9 1 19.7 1.9 20 6.9 39.3Q35.6 381 70.7 434.6a205 205 0 0 0 44.7 50.8 69 69 0 0 0 67.6 11.9c11.9-4 23.6-8.5 36.4-9 5.5-.2 10.9-.5 16.3.6 9.3 1.8 18.1 4.9 27 8.1 7.8 2.8 15.7 5 24.1 4.8q12-.2 23.3-4.8c18.5-7.4 33-20.2 45.7-35.1 14.5-17 26.1-36.1 36.5-55.8a341 341 0 0 0 38.6-131.2 189 189 0 0 0-1.4-45.1 154 154 0 0 0-16.9-50.9 110 110 0 0 0-28.4-34.5 94 94 0 0 0-50.1-19.5 103 103 0 0 0-43.1 4.3c-8.5 2.9-16.8 6.4-25.3 9.3q-14.7 5-30.3 6.4c-1.2.1-2.2.2-1.9 1.9 1 7.7.9 15.5.7 23.2 0 2.4.7 2.7 3 2.3a154 154 0 0 0 30.3-10.8q1.7-.8 3.3-1.2 2.5-.7 4 1.4 1.5 2.3-.2 4.5-1 1.4-2.4 2.3a91 91 0 0 1-46.4 14.3 98 98 0 0 1-32.6-4.4 109 109 0 0 1-35.4-18.5q-3.6-2.8-1.7-5.7c1.2-2 3.5-2.7 6.1-1.6a23 23 0 0 1 4 2.3 123 123 0 0 0 36.7 16.1q2.4.8 2.5-1.8c.9-7.7-.8-15.1-1.5-22.6-.2-2-.9-2.9-2.8-3.5q-23.5-7.4-47.1-14.4a125 125 0 0 0-31.5-5.7 109 109 0 0 0-52.2 12.4c-19.1 11-32.8 27-42.3 46.8a180 180 0 0 0-16.9 78Zm222.6-150.4 1-1.4q7.6-8.3 16.1-15.7a154 154 0 0 1 59.6-32.8q5.7-1.8 11.7-2.2 3 0 4.2 2.7c.7 2-.2 3.5-1.7 4.7-1 .8-2.2.9-3.3 1.2a162 162 0 0 0-84.6 54.6 42 42 0 0 0 12 1.8 165 165 0 0 0 50.6-7.6 143 143 0 0 0 76.2-66.8c5.3-9.8 10.6-19.7 13.6-30.6.6-2.3 0-2.7-2-2.5q-4 .5-8.2.5l-34.5-.6c-15.7-.5-31.3.4-46.4 5.3A84 84 0 0 0 250 56.1a123 123 0 0 0-13 33.5 77 77 0 0 0-3.3 20Zm-18.6 52.5v6.9q0 4.1 4.1 4.3h1.3c3.4 0 3.5 0 3.7-3.5a171 171 0 0 0-31.2-107.2 60 60 0 0 0-16.6-17.1q-2-1.3-3.9 0a58 58 0 0 0-11.4 9.1c-2.3 2.3-2.3 2.3.5 4a90 90 0 0 1 29.1 25.7 131 131 0 0 1 24.4 77.9Zm31.6-29q-7.3-.7-15.4-2.8c1.1 1.6-.8 3.9 1.8 4.1 4.6.3 9.2.3 13.6-1.3"/>
    </symbol>
  </defs>
  <!-- 3 apples in a row, scaled up and moved down -->
  <use href="#apple" x="10" y="12" width="60" height="60" fill="#2d3748" stroke="none"/>
  <use href="#apple" x="70" y="12" width="60" height="60" fill="#2d3748" stroke="none"/>
  <use href="#apple" x="130" y="12" width="60" height="60" fill="#2d3748" stroke="none"/>
  <!-- Answer line centered below with more space -->
  <line x1="70" y1="105" x2="130" y2="105" stroke="#cbd5e1" stroke-width="1.5"/>
</svg>
