<?xml version="1.0" encoding="UTF-8"?><svg id="a" xmlns="http://www.w3.org/2000/svg" width="1677.792" height="599.204" viewBox="0 0 1677.792 599.204"><path d="M0,502.215c.448-.665.895-1.33,1.477-2.194,4.02,2.448,7.982,5.115,12.169,7.365,13.152,7.069,26.175,6.27,39.053-.926,15.655-8.748,25.401-22.493,31.257-38.84,4.581-12.789,7.361-26.211,11.375-39.218,6.365-20.626,17.314-37.879,37.691-47.294,5.653-2.612,11.877-3.99,18.148-6.035-3.262-5.994-7.176-12.169-10.071-18.79-2.912-6.659-5.775-10.606-14.552-11.074-14.043-.749-24.111-9.593-28.583-23.041-3.964-11.921-3.061-23.719,5.803-33.702,1.965-2.213,4.238-4.572,6.868-5.681,4.722-1.99,4.835-5.001,4.324-9.434-7.009-60.9,3.095-118.398,37.42-169.901C186.88,51.68,235.932,20.262,296.473,7.052c63.326-13.818,124.471-7.805,182.544,22.249,53.001,27.429,90.526,69.154,113.93,123.826,8.87,20.72,15.234,42.182,18.772,64.462.394,2.479.795,4.354,4.164,5.09,18.085,3.952,28.121,17.04,28.112,35.962-.009,18.746-9.73,31.585-27.948,35.455-5.179,1.1-6.579,3.491-7.312,7.973-3.463,21.185-10.296,41.341-19.562,60.637-22.339,46.519-57.772,79.577-104.496,100.89-3.623,1.652-7.247,3.3-11.461,5.219,4.741,7.081,9.33,13.926,13.91,20.777,21.653,32.393,43.428,64.707,64.76,97.31,2.083,3.183,1.429,8.157,2.045,12.3h-8.999c-.609-2.636-.566-5.685-1.934-7.838-7.49-11.787-15.296-23.375-23.05-34.994-17.821-26.703-35.716-53.357-53.459-80.111-2.093-3.156-3.91-3.472-7.659-2.539-17.875,4.447-35.905,8.269-53.866,12.37-3.042.694-6.367,1.073-8.971,2.603-15.485,9.097-30.851,18.404-46.094,27.901-1.782,1.11-3.326,3.69-3.685,5.809-1.724,10.159-2.849,20.419-4.476,30.597-2.466,15.421-5.173,30.804-7.777,46.203h-6.999c1.817-11.157,3.379-22.362,5.513-33.458,3.066-15.937,4.256-32.336,11.288-47.371.502-1.074-.77-3.635-1.941-4.73-10.575-9.896-21.235-19.706-32.067-29.319-2.124-1.885-4.95-3.354-7.701-4.096-21.445-5.784-42.17-13.34-61.605-24.206-5.892-3.294-11.748-6.652-17.668-10.007-2.307,2.735-4.337,5.147-6.373,7.554-38.786,45.85-77.588,91.686-116.287,137.61-1.257,1.492-1.459,3.873-2.447,6.676,4.769-.255,8.236-.747,11.668-.566,9.222.485,18.429,1.256,27.643,1.914h-47.994c-.984-8.283,2.636-14.597,8.191-20.353,3.836-3.975,7.105-8.497,10.183-12.235-12.552-1.818-25.013-2.676-36.986-5.556-24.315-5.85-44.847-18.322-59.687-38.875-4.224-5.849-7.164-12.622-10.692-18.97v-1ZM375.444,225.569c.223-.378.446-.757.669-1.135-.636-.495-1.244-1.031-1.911-1.478-17.22-11.537-32.934-24.874-47.248-39.841-1.262-1.32-1.51-3.61-2.229-5.45,89.933,33.742,180.733,42.859,274.69,22.399-2.21-7.378-4.087-14.094-6.231-20.724-14.554-45.013-39.406-83.273-76.164-113.192-44.468-36.196-96.075-53.807-153.062-55.41-38.953-1.096-76.588,5.964-112.252,22.123-51.137,23.17-88.77,59.983-111.217,111.642-17.826,41.023-22.458,83.996-17.006,128.158,1.132,9.164,3.331,18.197,5.038,27.29.587.243,1.174.485,1.761.728,7.033-6.259,14.509-12.091,21.025-18.849,36.394-37.748,55.151-83.707,62.009-135.061.843-6.313,1.367-12.669,2.119-19.771,45.179,47.629,98.543,79.757,160.007,98.57h.002ZM140.737,333.631c.883,2.094,1.631,3.935,2.43,5.754,17.888,40.734,46.236,72.545,83.564,96.249,55.154,35.023,115.353,47.959,180.08,39.042,41.418-5.706,79.977-19.386,113.61-44.646,46.848-35.184,72.927-82.8,81.258-140.415.648-4.48,2.101-5.653,6.484-5.473,14.604.602,26.83-10.82,27.097-24.858.279-14.677-10.591-25.788-25.757-25.876-3.607-.021-4.435-1.331-4.813-4.531-.697-5.896-1.894-11.732-2.897-17.678-18.74,2.9-36.844,5.702-55.43,8.579,16.59,15.575,23.486,34.695,22.463,56.468-1.296,27.578-14.693,48.05-39.978,59.047-35.693,15.524-77.159-1.047-92.024-37.083-11.437-27.726-7.947-54.148,12.648-77.206.586-.656.902-1.553.763-1.306-29.741-6.085-59.489-12.172-89.082-18.227,18.593,14.388,38.713,26.937,58.9,36.529.767,2.027,1.16,3.064,1.951,5.154-78.675-7.443-143.185-43.385-199.389-94.164-5.971,23.522-11.944,47.055-17.745,69.906,45.391-21.716,84.043,10.559,93.471,42.174,11.196,37.544-8.233,76.244-44.404,87.231-18.866,5.731-37.056,3.745-54.116-5.599-23.58-12.915-33.359-34.575-35.838-61.239-11.847,12.965-23.774,24.373-39.68,31.575-2.37-7.573-4.635-14.81-6.903-22.057-9.751,3.895-15.039,14.549-12.399,24.591,3.779,14.377,16.823,21.076,35.736,18.058h0ZM24.487,523.464c1.425,1.356,2.778,2.798,4.284,4.056,24.344,20.333,52.398,28.715,83.922,26.324,4.374-.332,7.246-1.854,10.031-5.206,22.651-27.258,45.444-54.398,68.297-81.487,7.589-8.995,15.477-17.737,23.225-26.59-.626-.811-.845-1.285-1.215-1.546-19.993-14.131-37.411-30.916-52.299-50.364-.901-1.177-3.064-2.085-4.571-1.992-13.09.81-24.501,5.616-34.029,14.782-10.837,10.425-16.321,23.704-20.372,37.762-3.22,11.175-6.073,22.465-9.62,33.533-3.386,10.564-8.982,20.081-16.426,28.314-13.577,15.017-29.594,24.639-51.229,22.413h.002ZM502.519,329.977c2.164,0,4.356.232,6.486-.036,23.887-2.998,44.931-21.324,50.095-43.529,5.728-24.63-4.196-50.067-25.067-63.659-2.06-1.342-4.883-2.068-7.369-2.111-18.141-.31-36.287-.511-54.429-.383-3.274.023-6.982,1.023-9.731,2.769-15.589,9.901-22.735,24.902-23.644,42.799-1.793,35.293,27.518,64.68,63.659,64.149h0ZM293.405,281.276c-.262-2.024-.555-5.85-1.274-9.593-6.558-34.146-39.326-55.933-69.93-48.407-12.966,3.188-24.747,8.399-31.397,21.518-3.667,7.233-8.478,13.968-13.391,20.46-3.423,4.524-4.705,9.041-4.632,14.682.485,37.21,32.411,65.031,69.258,60.058,28.684-3.871,51.035-28.649,51.365-58.718h.001ZM321.858,485.752c8.515,7.787,17.247,15.773,26.005,23.783,11.402-6.921,22.334-13.557,33.381-20.263-20.142-1.194-39.704-2.353-59.386-3.52h0Z"/><path d="M1677.79,264.245c-1.709,5.899-3.062,11.93-5.202,17.669-4.052,10.872-12.635,15.563-22.973,13.863-12.239-2.012-24.563-3.517-36.859-5.17-22.01-2.959-44.037-5.79-66.035-8.834-7.855-1.087-14.55-4.477-18.942-11.925-6.779,6.562-14.877,7.671-23.313,7.444-7.138-.192-14.288-.379-21.403-.95-11.966-.96-18.813-7.205-21.313-18.846-1.421-6.617-3.099-13.182-4.377-19.825-.533-2.77-1.724-3.983-4.534-4.196-8.597-.653-17.18-1.481-25.767-2.263-3.129-.285-6.278-.474-9.371-.985-4.326-.715-6.544.896-7.942,5.141-2.171,6.596-4.73,13.111-7.707,19.384-4.69,9.881-11.826,13.653-22.539,12.522-11.874-1.253-23.855-1.965-34.745-7.815-1.212-.651-3.448.081-5.009.687-13.029,5.059-26.473,5.371-39.537,1.456-10.208-3.059-13.32-8.359-14.256-23.627-.844-13.77-.766-27.595-1.108-41.396-.019-.774-.157-1.546-1.286-2.674-1.283,2.871-2.504,5.772-3.862,8.608-3.23,6.742-6.417,13.508-9.823,20.162-3.414,6.67-8.968,10.625-16.408,11.604-9.021,1.187-17.987.591-26.568-2.48-6.024-2.156-10.377-6.269-12.391-12.684-2.131-6.787-4.606-13.467-6.985-20.175-.364-1.026-1.027-1.946-2.164-4.048-.855,8.825-1.566,16.427-2.335,24.024-.768,7.581-1.329,15.195-2.456,22.723-1.787,11.93-7.767,18.042-19.779,18.441-8.88.295-17.967-.668-26.703-2.387-9.74-1.917-12.78-5.413-17.128-15.486-.591,1.328-1.032,2.306-1.463,3.288-3.303,7.52-8.422,13.113-17.095,13.281-9.593.186-19.419.709-28.752-1.024-13.599-2.525-16.887-10.145-17.734-24.048-2.15-35.317-3.788-70.667-5.469-106.011-.774-16.267-1.428-32.547-1.668-48.829-.285-19.314,4.102-25.034,23.211-28.137,8.686-1.41,17.924-1.271,26.666-.059,13.346,1.85,19.275,10.297,20.018,26.112.492,10.467.803,20.946.958,31.423.41,27.811.713,55.623,1.011,83.435.087,8.076.013,16.153.013,24.23.539.008,1.079.017,1.618.025.576-7.641,1.026-15.295,1.755-22.922,1.4-14.659,3.033-29.296,4.427-43.956,1.005-10.571,1.781-21.163,2.658-31.746,1.259-15.204,2.336-30.425,3.832-45.605,1.114-11.301,7.483-18.939,18.801-20.073,11.967-1.2,24.215-1.2,36.201-.144,10.617.935,16.839,8.609,20.146,18.457,5.849,17.415,11.613,34.858,17.428,52.284.726,2.176,1.55,4.319,2.752,7.653,3.714-8.943,6.922-16.85,10.274-24.696,4.626-10.827,9.366-21.605,14.045-32.409,5.774-13.33,16.208-19.557,30.41-18.822,9.383.485,18.89,1.405,28.001,3.565,9.951,2.359,14.028,8.606,14.581,18.836.844,15.597,1.787,31.191,2.425,46.797.767,18.755,1.21,37.524,1.891,56.283.259,7.127.788,14.245,1.267,22.635,1.127-2.24,1.894-3.523,2.444-4.893,12.064-30.007,24.077-60.034,36.162-90.032,3.779-9.38,7.676-18.713,11.627-28.021,5.709-13.453,12.875-18.294,27.378-17.445,10.574.619,21.087,2.253,31.638,3.323,14.438,1.464,21.736,10.181,25.35,23.566,9.872,36.561,19.985,73.058,30.246,109.512,4.022,14.288,8.695,28.393,13.889,42.647.371-2.278.946-4.543,1.082-6.835,1.003-16.908,1.673-33.84,2.921-50.729,1.783-24.131,3.941-48.234,6.004-72.343.494-5.768,1.098-11.535,1.912-17.266,1.246-8.783,6.848-14.325,15.054-15.858,16.306-3.046,32.395-1.001,47.699,5.398,7.279,3.044,10.37,10.425,9.455,18.47-2.284,20.068-4.315,40.164-6.506,60.242-1.993,18.26-3.922,36.53-6.153,54.762-1.375,11.242-1.088,11.442,10.179,12.904,15.753,2.044,31.466,4.471,47.12,7.177,10.219,1.766,17.805,7.291,21.113,17.633v9.999l-.002.004ZM1245.896,163.003c-.99-2.846-1.887-5.292-2.694-7.767-9.13-27.997-18.204-56.013-27.399-83.989-2.008-6.109-5.962-10.565-12.755-11.051-8.781-.628-17.634-1.461-26.388-.976-11.439.633-14.288,3.792-15.324,14.877-1.651,17.658-2.985,35.345-4.586,53.008-1.584,17.49-3.36,34.962-4.999,52.447-1.561,16.651-2.875,33.327-4.642,49.956-1.177,11.081.88,14.895,11.383,17.166,5.794,1.253,11.758,2.01,17.679,2.312,9.095.464,13.595-2.753,14.478-10.779,1.757-15.974,3.342-31.984,4.334-48.021,1.119-18.086,1.507-36.218,2.236-54.932.613,1.251,1.119,2.044,1.407,2.909,8.431,25.289,16.805,50.598,25.285,75.87,1.664,4.96,4.998,8.083,10.578,8.354,4.795.233,9.581.672,14.367,1.059,6.484.524,10.796-2.525,13.436-8.213,6.151-13.254,12.441-26.448,18.317-39.823,4.874-11.094,9.237-22.413,13.826-33.632.717,2.964.304,5.701.334,8.433.245,21.808.461,43.617.93,65.421.193,8.966.934,17.923,1.524,26.877.282,4.283,1.884,8.467,6.514,8.812,8.912.664,17.898.602,26.844.419,4.468-.091,6.694-3.407,7.424-7.523.404-2.276.414-4.651.359-6.975-.521-21.954-.932-43.913-1.692-65.86-1.099-31.705-2.475-63.401-3.704-95.102-.254-6.544-1.6-8.97-7.982-10.006-8.963-1.456-18.053-2.253-27.118-2.922-7.807-.576-13.669,3.142-16.736,10.184-7.946,18.243-15.782,36.543-23.166,55.018-4.437,11.102-7.947,22.575-12.071,34.448h.001ZM1349.239,242.126c-.803,5.954,2.523,8.478,7.491,9.521,7.112,1.493,14.28,2.719,21.41,4.127,7.378,1.458,11.725-.891,14.319-8.067,3.213-8.887,6.406-17.783,9.385-26.75.936-2.816,1.862-3.694,5.225-3.346,17.677,1.829,35.395,3.294,53.122,4.564,3.234.232,4.811,1.147,5.517,4.231,2.101,9.178,4.482,18.294,6.484,27.493,1.907,8.764,5.127,11.785,14.256,12.06,7.296.22,14.605.276,21.902.109,10.572-.242,13.557-4.067,10.823-14.162-3.285-12.133-6.985-24.154-10.412-36.25-12.173-42.963-24.383-85.916-36.383-128.928-2.144-7.685-6.468-12.014-14.486-12.741-9.574-.868-19.162-1.706-28.686-2.985-11.766-1.58-16.76,1.19-20.998,12.287-3.313,8.673-6.79,17.284-10.084,25.964-15.525,40.92-31.039,81.845-46.456,122.805-1.207,3.206-1.637,6.704-2.428,10.066v.002ZM1586.953,236.206c.35-2.431.644-4.05.809-5.681,1.381-13.671,2.667-27.351,4.119-41.014,1.871-17.603,3.884-35.19,5.807-52.788,1.242-11.366,2.228-22.765,3.713-34.099,1.066-8.135-.368-11.944-8.491-13.502-10.347-1.983-20.948-2.987-31.484-3.507-6.418-.317-10.225,3.484-10.94,9.941-1.24,11.196-1.902,22.455-2.844,33.685-1.411,16.827-2.969,33.642-4.247,50.479-1.031,13.587-1.792,27.195-2.579,40.799-.776,13.417-1.448,26.84-2.137,40.262-.259,5.053,2.184,8.334,7.015,9.483,4.805,1.143,9.681,2.096,14.578,2.73,30.263,3.916,60.541,7.714,90.812,11.563,6.542.832,10.034-1.1,12.117-7.367,1.459-4.388,2.765-8.892,3.482-13.448,1.786-11.35-.69-15.041-12.018-17.514-7.265-1.586-14.677-2.53-22.047-3.597-15.064-2.18-30.143-4.248-45.664-6.426h-.001ZM1125.219,106.562c-.681,0-1.362-.002-2.043-.003,0-11.969.107-23.939-.042-35.906-.083-6.697-2.533-10.513-9.148-10.829-10.523-.503-21.159.116-31.667,1.107-4.65.439-7.31,4.426-7.22,9.36.247,13.459.373,26.929,1.033,40.371.999,20.367,2.529,40.707,3.608,61.071,1.037,19.575,1.631,39.174,2.724,58.745.654,11.707,2.842,14.117,14.641,16.096,5.187.87,10.586.595,15.89.618,9.439.041,12.979-3.382,12.919-12.881-.118-18.793-.569-37.583-.666-56.376-.123-23.791-.03-47.583-.03-71.375v.002Z"/><path d="M145.982,599.203c2.047-2.561,3.866-5.352,6.176-7.649,25.127-24.981,50.33-49.886,75.522-74.801.46-.455,1.051-.776,2.668-1.947-.334,4.098-.326,7.294-.889,10.387-4.341,23.86-8.794,47.699-13.202,71.546-.15.811-.192,1.642-.285,2.464h-7.999c.123-1.641.085-3.312.392-4.918,2.742-14.336,5.557-28.659,8.319-42.992.583-3.026,1.036-6.076,1.74-10.242-1.8,1.445-2.724,2.068-3.507,2.835-9.974,9.768-19.952,19.533-29.878,29.349-8.719,8.622-17.375,17.309-26.059,25.967h-12.998,0Z"/><path d="M452.943,599.203c1.11-16.188,2.22-32.376,3.33-48.564.46-.214.92-.427,1.38-.641,14.095,16.402,28.19,32.803,42.284,49.205h-12.998c-7.767-9.101-15.533-18.201-23.971-28.088-.384,5.781-.66,10.251-.984,14.717-.323,4.459-.693,8.914-1.042,13.371h-7.999Z"/><path d="M337.958,599.203c.095-.654.198-1.307.284-1.962.389-2.968,1.765-5.22,5.027-4.987,4.242.303,4.492,3.701,4.688,6.95h-9.999Z"/><path d="M1038.456,504.275c-14.495,12.062-32.058,12.97-49.808,11.579-9.448-.741-15.273-7.371-16.909-16.565-2.054-11.544-3.264-23.239-4.82-34.872-.888-6.643-1.74-13.29-3.662-19.956-2.655,7.455-5.411,14.876-7.945,22.373-6.967,20.617-15.321,23.132-33.531,24.273-9.258.58-18.602-.307-25.002-8.326-2.855-3.577-4.814-7.914-6.91-12.043-3.431-6.758-6.641-13.629-9.93-20.424,0,6.704-.092,13.195.02,19.683.217,12.59,1.015,25.192.649,37.762-.205,7.043-3.679,13.288-10.745,16.094-14.102,5.6-28.443,6.11-42.733.617-9.162-3.522-13.135-11.128-13.782-20.219-1.226-17.227-1.739-34.504-2.653-51.755-1.131-21.361-2.667-42.705-3.473-64.078-.758-20.095-.948-40.215-1.073-60.327-.05-8.03,8.963-17.23,18.96-20.354,13.186-4.121,26.745-5.332,40.418-4.409,7.219.487,13.683,3.757,17.288,10.358,6.603,12.09,12.841,24.386,18.996,36.713,5.318,10.652,10.309,21.467,16.054,33.483,1.838-6.433,3.347-11.614,4.797-16.811,4.669-16.729,9.45-33.427,13.93-50.206,3.651-13.673,13.204-20.546,26.384-22.241,9.953-1.28,20.154-1.692,30.17-1.138,11.276.624,17.566,6.282,19.675,17.112,5.084,26.105,9.876,52.272,14.359,78.487,3.621,21.177,6.612,42.462,9.924,63.693.122.782.674,1.496,1.341,2.91,4.063-14.371,7.895-28.235,11.905-42.047,7.612-26.218,15.328-52.407,22.997-78.609,2.741-9.366,5.753-18.665,8.138-28.121,3.127-12.396,11.573-18.522,23.507-19.443,13.526-1.043,27.147-1.149,40.726-1.124,12.214.023,19.977,6.796,24.474,17.826,8.139,19.962,16.589,39.801,24.48,59.859,14.502,36.862,28.685,73.849,43.018,110.778,2.977,7.67,5.276,15.546-.903,22.513-2.851,3.214-6.847,6.006-10.876,7.475-13.347,4.868-27.399,5.126-41.356,4.167-8.776-.603-14.431-6.402-17.613-14.303-2.966-7.364-5.515-14.902-8.062-22.427-.998-2.949-2.546-4.156-5.789-4.05-14.631.479-29.274.62-43.899,1.207-1.495.06-3.717,2.029-4.207,3.559-1.908,5.96-3.38,12.071-4.787,18.178-4.105,17.817-12.805,20.552-26.99,20.526-8.028-.015-16.103-1.787-24.057-3.294-3.646-.691-7.052-2.65-10.695-4.084h0ZM968.548,387.326c.383.061.766.121,1.149.182,1.149,13.112,2.082,26.247,3.504,39.328,1.537,14.144,3.45,28.248,5.353,42.35,1.303,9.66,2.697,19.315,4.391,28.912.796,4.507,3.789,7.872,8.615,7.364,10.508-1.106,21.055-2.338,31.382-4.493,6.436-1.343,8.74-5.258,8.005-11.875-1.297-11.676-3.007-23.313-4.826-34.922-3.961-25.284-8.04-50.549-12.182-75.804-3.613-22.027-7.324-44.039-11.112-66.036-1.164-6.757-2.861-8.981-9.7-9.115-10.369-.203-20.783.569-31.138,1.417-7.818.64-12.709,5.551-14.749,12.892-5.442,19.589-10.753,39.216-15.875,58.891-3.394,13.037-6.373,26.183-9.682,39.875-1.133-2.029-2.08-3.525-2.837-5.112-6.227-13.048-12.374-26.135-18.633-39.168-8.337-17.36-16.728-34.695-25.151-52.013-2.399-4.932-6.727-7.671-11.953-7.757-12.665-.208-25.245,1.009-37.254,5.392-7.118,2.598-9.169,5.656-8.977,13.099.408,15.785.949,31.568,1.622,47.345,1.07,25.069,2.248,50.134,3.466,75.197.846,17.402,1.821,34.798,2.769,52.194.299,5.494,2.686,9.105,8.055,9.78,7.376.927,14.886,1.059,22.338,1.049,11.719-.016,15.263-3.513,15.006-15.219-.417-18.956-1.086-37.91-1.923-56.852-.527-11.925-1.567-23.826-2.352-35.74-.324-4.92-.583-9.845-.872-14.767,1.107.494,1.384,1.066,1.653,1.643,11.655,24.953,23.26,49.929,35.013,74.836,1.924,4.076,4.479,8.34,9.487,8.699,6.558.47,13.214.409,19.768-.139,5.934-.496,10.112-4.177,11.989-9.832,7.191-21.664,14.286-43.36,21.271-65.091,1.74-5.413,2.934-11.002,4.378-16.511h.002ZM1097.361,457.84c6.095,0,12.061.109,18.022-.021,15.137-.33,30.271-.871,45.409-1.015,1.729-.017,4.431,1.553,5.062,3.064,4.085,9.776,7.772,19.721,11.487,29.648,2.764,7.385,4.994,9.337,12.942,8.941,9.116-.455,18.264-1.146,27.278-2.521,10.437-1.592,13.36-7.269,9.602-17.043-13.32-34.645-26.525-69.336-40.026-103.91-8.926-22.857-18.328-45.527-27.425-68.318-3.136-7.858-8.619-11.863-17.192-11.542-10.635.397-21.283.506-31.907,1.081-8.866.48-16.78,2.603-19.552,12.843-5.656,20.899-11.694,41.695-17.306,62.606-5.995,22.339-11.637,44.773-17.517,67.144-3.819,14.533-7.88,29.003-11.656,43.547-2.643,10.182-.228,14.341,10.158,16.26,6.641,1.227,13.495,1.527,20.269,1.752,9.138.304,11.64-1.674,14.386-10.354.548-1.732.78-3.562,1.223-5.331,2.155-8.625,4.332-17.244,6.744-26.828v-.003Z"/><path d="M986.599,136.294c-.737-7.505-1.526-15.006-2.199-22.517-1.109-12.373-2.696-24.737-3.046-37.134-.333-11.779,7.106-19.462,19.532-21.172,7.871-1.083,15.844-1.54,23.787-1.971,17.314-.939,24.556,8.477,25.696,24.191,1.321,18.199,2.414,36.416,3.541,54.629,1.539,24.864,3.017,49.732,4.521,74.598.501,8.282,1.256,16.559,1.433,24.849.184,8.636.717,17.897-7.102,23.795-4.194,3.163-9.598,5.332-14.778,6.434-7.741,1.647-15.748,2.258-23.676,2.769-12.827.828-20.841-6.409-27.333-16.572-12.866-20.143-26.087-40.06-39.161-60.07-.266-.407-.538-.811-1.683-.917.45,6.76.775,13.531,1.379,20.277,1.004,11.211,2.489,22.386,3.225,33.613,1.199,18.3-5.057,25.583-23.673,28.068-4.926.658-9.926.781-14.896,1.095-9.665.61-18.227-1.271-23.478-11.405-3.807,9.508-11.681,12.855-19.962,14.669-8.869,1.943-17.993,3.09-27.063,3.644-8.909.544-15.724-3.63-19.426-12.037-3.076-6.986-6.269-13.946-8.832-21.124-1.254-3.511-3.215-4.198-6.353-3.842-12.698,1.438-25.417,2.724-38.076,4.445-1.425.194-3.26,2.622-3.646,4.303-1.735,7.567-2.758,15.298-4.52,22.858-2.559,10.975-9.36,16.32-20.654,16.311-8.418-.007-17.039.579-25.21-.982-18.023-3.444-20.185-13.05-17.419-27.057,6.275-31.769,13.384-63.374,20.28-95.018,5.068-23.256,10.345-46.466,15.509-69.701,2.275-10.237,9.464-15.694,18.968-17.51,11.388-2.175,22.983-3.571,34.553-4.398,11.024-.788,19.63,3.829,24.681,14.165,13.637,27.907,27.405,55.75,40.977,83.688,10.38,21.37,20.539,42.847,30.813,64.269.03.063.305.008.981.008-.952-7.675-1.9-15.294-2.841-22.914-1.988-16.1-4.016-32.195-5.942-48.303-1.53-12.792-3.16-25.579-4.329-38.406-1.19-13.051-2.272-26.137-2.65-39.23-.301-10.429,5.245-17.591,15.677-21.223,11.413-3.973,23.346-5.362,35.341-4.535,11.983.826,19.651,8.555,26.064,17.978,12.514,18.389,25.208,36.655,37.834,54.967.643.933,1.36,1.815,2.042,2.72.372-.101.744-.202,1.115-.303v-.002ZM1002.665,181.069c-.695-.761-1.171-1.168-1.508-1.668-9.921-14.729-19.8-29.486-29.743-44.2-12.454-18.429-24.954-36.828-37.447-55.231-3.761-5.541-8.254-10.398-15.566-9.905-9.676.653-19.468,1.212-28.91,3.221-9.084,1.933-11.601,7.471-10.526,16.834,1.435,12.505,2.404,25.064,3.675,37.589,1.737,17.119,3.478,34.24,5.389,51.34,1.875,16.779,3.92,33.539,5.982,50.297.866,7.041,1.719,14.1,3.045,21.062.894,4.694,3.454,8.684,8.954,8.43,8.605-.397,17.244-.904,25.759-2.128,6.374-.916,8.684-4.204,8.357-10.903-.606-12.424-1.318-24.856-2.499-37.235-2.116-22.176-4.611-44.316-6.945-66.441.73.941,1.713,2.033,2.501,3.251,4.774,7.389,9.46,14.836,14.256,22.211,16.553,25.457,33.097,50.921,49.754,76.31,2.812,4.286,5.92,9.559,11.682,9.009,11.808-1.128,23.605-2.893,35.216-5.31,5.235-1.09,5.474-6.785,5.363-11.192-.208-8.276-1.164-16.529-1.622-24.803-.725-13.094-1.196-26.202-1.954-39.293-1.344-23.215-2.812-46.422-4.252-69.631-.575-9.262-1.096-18.53-1.859-27.778-.731-8.862-4.97-12.678-14.013-12.548-6.297.09-12.608.413-18.876,1.012-11.887,1.135-15.096,4.852-14.277,16.778,1.012,14.731,2.085,29.465,3.578,44.152,1.903,18.723,4.252,37.4,6.487,56.772v-.002ZM842.036,267.54c9.34-2.172,18.739-4.121,28.002-6.583,7.972-2.119,9.98-6.271,6.692-13.81-4.113-9.432-8.651-18.681-13.044-27.99-8.791-18.63-17.488-37.307-26.445-55.857-11.634-24.092-23.475-48.085-35.249-72.109-3.188-6.506-8.384-9.806-15.686-9.061-9.906,1.01-19.814,2.07-29.672,3.456-8.632,1.214-12.97,6.546-14.708,15.115-6.936,34.187-14.354,68.276-21.385,102.444-4.33,21.043-8.346,42.152-12.366,63.257-1.222,6.414,1.509,9.83,8.168,10.091,7.109.278,14.241.174,21.356-.012,9.364-.244,12.58-3.124,14.255-12.493,1.569-8.774,3.18-17.546,4.439-26.367.4-2.807,1.538-3.43,4.103-3.709,17.311-1.88,34.62-3.811,51.889-6.043,4.02-.519,6.047.434,7.531,4.264,3.474,8.965,7.373,17.765,11.099,26.632,2.022,4.811,5.099,8.181,11.021,8.775h0Z"/><path d="M1446.79,444.401c-1.343,12.711-2.609,25.025-3.962,37.33-.596,5.421-1.048,10.888-2.117,16.223-3.337,16.649-11.049,19.292-24.22,19.81-8.274.325-16.941-1.099-24.926-3.456-14.082-4.156-17.666-14.065-16.572-27.98.987-12.564,1.957-25.13,3.07-37.683,1.434-16.166,3.047-32.317,4.501-48.481,1.218-13.543,2.165-27.112,3.51-40.642,1.456-14.652,2.733-29.35,5.027-43.88,1.94-12.292,9.458-17.908,22.085-17.675,7.455.137,15.011.371,22.321,1.68,13.049,2.337,19.518,9.502,19.687,22.385.14,10.591-1.067,21.21-1.885,31.8-.533,6.905-1.44,13.78-2.278,21.593,13.407,1.317,26.817,2.635,40.837,4.012.634-7.368,1.17-14.41,1.861-21.437,1.053-10.709,1.523-21.537,3.504-32.077,2.43-12.928,10.891-18.94,24.132-19.303,11.468-.315,22.554,1.093,32.979,6.142,11.498,5.57,15.696,13.05,14.042,27.128-1.548,13.175-2.429,26.426-3.678,39.637-1.402,14.829-2.922,29.647-4.326,44.476-1.265,13.366-2.416,26.743-3.668,40.111-1.511,16.143-2.955,32.294-4.682,48.415-.599,5.593-3.342,10.365-8.949,12.214-5.741,1.893-11.704,3.941-17.643,4.195-7.685.329-15.634-.196-23.128-1.877-14.892-3.34-17.953-10.348-18.178-22.388-.272-14.55,1.471-29.134,2.229-43.709.214-4.118.033-8.257.033-13.07-12.983-1.145-25.968-2.291-39.604-3.494h-.002ZM1439.395,387.149c.351-3.375.677-6.157.923-8.947,1.474-16.678,2.737-33.378,4.461-50.03,1.095-10.585-1.889-16.422-11.069-18.552-4.977-1.155-10.139-1.892-15.242-2.052-13.912-.437-16.138,1.576-18.074,15.062-.141.983-.028,1.999-.104,2.994-1.207,15.722-2.413,31.444-3.644,47.164-1.708,21.809-3.372,43.622-5.176,65.423-1.394,16.849-2.757,33.705-4.548,50.514-1.14,10.695,1.162,14.96,11.779,16.839,6.987,1.237,14.188,1.405,21.308,1.704,4.867.204,7.695-2.854,8.691-7.323.931-4.178,1.541-8.456,1.92-12.723,1.263-14.211,2.34-28.438,3.53-42.655.395-4.722.917-9.433,1.413-14.483,21.378,1.937,42.292,3.832,63.207,5.727,0,5.099.232,9.752-.041,14.376-1.083,18.377-2.436,36.739-3.45,55.12-.413,7.485,2.217,10.956,9.803,11.774,8.548.922,17.223,1.115,25.824.888,4.308-.114,8.096-2.804,8.799-7.502,1.223-8.164,2.041-16.395,2.811-24.619,1.021-10.905,1.719-21.84,2.762-32.743,1.67-17.457,3.526-34.897,5.269-52.347,1.104-11.051,2.176-22.105,3.207-33.164,1.091-11.704,2.321-23.401,3.089-35.128.426-6.507-1.081-9.017-7.511-10.45-9.641-2.148-19.475-3.719-29.311-4.617-7.546-.688-11.134,2.09-12.108,9.523-1.76,13.436-2.675,26.986-3.814,40.5-.719,8.53-1.203,17.08-1.809,25.87-21.156-2.067-41.713-4.076-62.896-6.146v.003Z"/><path d="M1329.895,354.434c0,19.523.293,38.8-.075,58.064-.453,23.763-1.234,47.527-2.329,71.269-.433,9.395-3.281,18.134-12.834,22.537-2.643,1.218-5.68,2.202-8.542,2.215-9.924.046-20.05.77-29.727-.91-13.407-2.327-19.058-10.571-18.994-24.593.171-37.96.478-75.92.72-113.88.035-5.473.005-10.947.005-17.028-3.817-.33-7.387-.735-10.97-.929-7.124-.385-14.289-.317-21.374-1.046-11.462-1.179-17.798-6.823-18.667-18.29-.744-9.81-.231-19.832.875-29.63,1.009-8.939,10.113-15.925,19.704-15.862,28.128.183,56.267.254,84.376,1.16,16.23.523,32.477,2.049,48.593,4.096,13.93,1.769,19.297,8.684,19.159,22.612-.064,6.452-.074,13.022-1.262,19.321-2.802,14.866-10.057,20.516-25.673,20.868-7.111.16-14.228.027-22.983.027h-.002ZM1268.873,339.53v44.929c0,33.327-.07,66.654.05,99.98.027,7.341,3.237,11.345,10.547,12.093,9.069.928,18.249.951,27.382.999,3.953.021,6.523-2.693,7.173-6.479.895-5.216,1.627-10.507,1.818-15.788.776-21.424,1.407-42.855,1.919-64.287.461-19.295.689-38.595,1.044-57.892.058-3.156-.939-7.466.699-9.137,1.616-1.648,5.958-.768,9.102-.746,8.327.058,16.681-.12,24.971.502,7.308.549,11.825-1.622,13.063-8.882,1.247-7.308,1.595-14.803,1.877-22.233.295-7.806-2.224-10.649-9.988-11.229-17.724-1.325-35.464-2.468-53.207-3.507-12.289-.72-24.591-1.358-36.896-1.641-13.488-.31-26.988-.313-40.48-.16-5.675.064-9.158,3.087-9.777,8.672-.712,6.419-.92,12.931-.827,19.395.178,12.335,3.35,15.361,15.468,15.403,12.105.042,24.21.009,36.062.009h0Z"/><path d="M347.275,540.917c.185-5.335,1.053-8.814,5.265-8.914,3.957-.094,5.065,3.105,5.168,6.572.101,3.418-1.385,6.446-4.827,6.154-2.257-.192-4.304-2.862-5.607-3.812h0Z"/><path d="M352.868,567.429c-.779,4.364-2.084,6.676-5.616,6.661-3.158-.013-4.67-2.01-4.634-5.185.04-3.464.967-6.797,5.017-6.232,1.928.269,3.499,3.09,5.232,4.755h.001Z"/><path d="M433.859,352.429c2.425,16.021-8.005,44.675-28.98,59.58-21.067,14.97-49.999,15.503-72.388.939-18.769-12.21-35.263-41.992-32.002-57.409,45.123,30.326,89.432,29.816,133.37-3.11h0ZM402.962,399.967c-12.916-16.054-60.767-16.247-71.824-.89,17.739,17.943,55.111,18.406,71.824.89Z"/><path d="M484.673,295.704c-13.761.008-25.082-11.594-25.128-25.749-.05-15.287,10.506-26.977,24.303-26.915,13.836.062,24.584,11.847,24.815,27.208.21,13.957-10.62,25.449-23.989,25.456h-.001Z"/><path d="M246.078,253.169c14.36-.005,25.114,11.091,25.199,26.001.086,15.008-10.935,26.899-24.992,26.964-13.391.062-24.75-11.846-24.931-26.137-.196-15.5,10.239-26.824,24.723-26.829h.001Z"/><path d="M1455.713,186.926c-13.88-1.24-27.118-2.423-40.881-3.652,8.372-22.427,16.551-44.338,24.892-66.683,5.311,23.363,10.535,46.344,15.989,70.335h0ZM1437.453,153.555l-1.245-.251c-2.588,7.129-5.176,14.258-7.901,21.764,5.309.494,9.346.87,14.298,1.331-1.861-8.251-3.507-15.547-5.153-22.844h0Z"/><path d="M1152.776,418.187c-15.714.682-30.74,1.334-46.848,2.033,6.745-27.314,13.319-53.932,20.038-81.142,9.013,26.596,17.79,52.493,26.81,79.109ZM1128.05,380.006c-.34-.036-.68-.073-1.021-.109-2.495,9.733-4.99,19.467-7.708,30.072,6.875-.49,12.513-.891,18.894-1.346-3.599-10.131-6.882-19.374-10.165-28.618h0Z"/><path d="M777.274,126.198c9.061,22.414,17.964,44.435,27.208,67.302-13.636,1.429-26.534,2.781-39.974,4.189,4.341-24.31,8.514-47.678,12.766-71.492h0ZM776.047,187.404c4.976-.552,9.222-1.023,14.422-1.6-3.176-7.421-6.146-14.363-9.117-21.305-.395.111-.79.223-1.185.334-1.33,7.286-2.66,14.572-4.121,22.571h0Z"/></svg>