<svg xmlns="http://www.w3.org/2000/svg" width="1677.79" height="599.2" viewBox="0 0 1677.79 599.2"><path d="m0 502 1-2 13 7q20 11 39-1 22-13 31-38l11-40q9-31 38-47l18-6-10-19q-3-9-14-11-22-2-29-23-7-18 6-34l7-5q5-3 4-10-12-92 37-170 53-76 144-96 96-22 183 22 80 42 114 124 13 31 19 65 0 3 4 5 27 7 28 36 0 28-28 35-7 2-7 8-6 31-20 61-34 68-104 101l-12 5 14 21 65 97q2 5 2 12h-9l-2-8-23-35-54-80q-2-4-7-2l-54 12-9 3-46 28-4 5-4 31-8 46h-7l5-33c4-16 5-33 12-48l-2-4-40-34q-32-8-62-24l-17-10-7 8-116 137-2 7 11-1 28 2H89q0-11 8-20l10-12-37-6q-36-8-59-39L0 503zm375-276 1-2-2-1q-26-18-47-40l-2-5c90 33 180 43 274 22l-6-21q-21-68-76-113-67-54-153-55-59-2-112 22-77 34-112 112-25 61-17 128l6 27 1 1 21-19c37-38 55-84 62-135l2-20q69 71 160 99M141 334l2 5q27 61 84 97 83 53 180 39 62-8 113-45 70-53 82-140 0-7 6-6c15 1 27-11 27-25 1-14-10-26-25-26q-5 0-5-4l-3-18-56 9q25 23 23 56-2 42-40 59c-36 16-77-1-92-37q-18-42 12-77l1-1-89-19q29 22 59 37l2 5c-79-7-143-43-199-94l-18 70c45-22 84 10 93 42 12 38-8 76-44 87q-28 9-54-5-34-20-36-62-17 21-40 32l-7-22c-9 4-15 15-12 25q7 22 36 18M24 523l5 5q36 30 84 26 6 0 10-5l68-82 23-26-1-2q-30-21-52-50-2-2-5-2-19 0-34 14a81 81 0 0 0-20 38l-10 34q-5 16-16 28c-14 15-30 25-52 22m479-193h6c24-3 45-21 50-44 6-24-4-50-25-63q-3-2-7-2l-55-1q-5 0-9 3a51 51 0 0 0-24 43c-2 35 27 65 64 64m-210-49-1-9c-6-34-39-56-70-49q-21 3-31 22l-14 20q-4 7-4 15c0 37 32 65 69 60 29-4 51-29 51-59m29 205 26 24 33-21zm1356-222-5 18q-7 16-23 14l-37-5-66-9q-12-1-19-12-11 9-24 7l-21-1q-18-1-21-19l-5-19q0-4-4-5l-26-2-9-1q-7 0-8 5l-8 20q-7 14-22 12-18 0-35-8l-5 1q-20 8-40 2-14-3-14-24l-1-41-1-3-4 9-10 20q-5 9-17 11-14 2-26-2-9-3-12-13l-7-20-3-4-2 24-2 23q-2 18-20 18l-27-2c-10-2-13-6-17-16l-1 3q-5 13-18 14l-28-1c-14-3-17-10-18-24l-6-106-1-49c0-19 4-25 23-28q13-3 27 0 19 3 20 26l1 31 1 84v24h1l2-23 4-44 3-32 4-45q1-18 19-20 18-3 36-1 16 3 20 19l18 52 2 8 11-25 14-32q8-21 30-19 14 0 28 3 14 4 15 19l2 47 2 56 1 23 3-5 36-90 11-28q7-19 28-17l31 3q21 2 26 24l44 152 1-7 3-51 6-72 2-17q2-14 15-16 24-4 48 5 10 5 9 19l-6 60-7 55c-1 11-1 11 11 12l47 8q15 2 21 17zm-432-101-3-8-27-84q-3-9-13-11l-26-1q-16 0-16 15l-4 53-5 53-5 50c-1 11 1 14 11 17l18 2q14 1 15-11l4-48 2-55 2 3 25 76q3 8 10 8l15 1q10 1 13-8l19-40 13-33 1 8 1 66 1 27q1 7 7 8l27 1q6-1 7-8v-7l-1-66-4-95q1-9-8-10l-27-3q-12 0-17 11l-23 55zm103 79q0 9 8 10l21 4q11 2 14-8l10-27q1-4 5-3l53 4q5 0 6 4l6 28q2 13 14 12h22q16 0 11-14l-10-36-37-129q-3-12-14-13l-29-3q-16-4-21 12l-10 26-46 123zm238-6 1-5 4-41 6-53 3-34q3-12-8-14-15-3-32-3-9-1-11 10l-2 33-5 51-2 41-2 40q-1 8 7 9l14 3 91 12q10 0 12-8l4-13c1-12-1-15-12-18l-22-3zm-462-129h-2V71q1-11-9-11-16-1-32 1-6 1-7 9l1 41 4 61 2 58c1 12 3 15 15 17h16q13 1 13-13l-1-56z"/><path d="m146 599 6-7 76-75 2-2-1 10-13 72v2h-8v-5l9-43 1-10-3 3-30 29-26 26zm307 0 3-48 2-1 42 49h-13l-24-28-1 15-1 13zm-115 0v-2q1-5 5-5 6 2 5 7zm700-95c-14 12-32 13-49 12q-15-2-17-17l-5-35-4-20-8 23c-7 20-15 23-33 24q-15 3-25-8l-7-12-10-21v20l1 38q-1 11-11 16-21 8-43 0-13-5-14-20l-2-52-4-64-1-60c0-8 9-17 19-20q20-6 41-5 11 1 17 11l19 36 16 34 5-17 14-50q5-21 26-22 15-3 30-2 17 2 20 18l14 78 10 64 1 3 12-42 23-79 8-28q6-18 24-20l41-1q18 1 24 18l25 60 43 111q6 11-1 22-5 5-11 8-20 7-41 4-13-2-18-14l-8-23q-2-4-6-4l-44 1q-3 0-4 4l-5 18c-4 18-13 21-27 21q-12 0-24-4zm-69-117 3 39 6 42 4 29q2 8 9 7l31-4q9-2 8-12l-5-35-23-142q0-9-10-9l-31 2q-12 1-15 13l-16 58-9 40-3-5-19-39-25-52q-4-8-12-8-19-1-37 6-10 2-9 13l5 122 3 52q0 10 8 10l22 1q17 2 15-15l-2-57-2-36-1-14 2 1 35 75q2 7 9 9h20q9-1 12-10l21-65zm128 71h18l46-1q3 0 5 3l11 30q3 10 13 8l28-2q15-2 9-17l-40-104-27-68q-5-12-17-12l-32 1q-14 0-20 13l-17 63-18 67-11 43q-5 15 10 17l20 1q12 3 14-10l2-5zM987 136l-3-22-3-37q0-19 20-22l24-1q25-1 25 24l4 54 4 75 2 25c0 8 1 18-7 24q-7 5-15 6l-24 3q-19 0-27-17l-39-60-2-1 2 20 3 34q3 26-24 28l-15 1q-14 3-23-11-7 13-20 15l-27 3q-14 1-20-12l-9-21q-1-5-6-4l-38 5-4 4-4 23q-5 16-21 16-13 1-25-1c-18-3-20-13-17-27l20-95 15-70q5-14 19-17l35-5q16-1 25 15l40 83 31 65h1l-3-23-5-49-5-38-2-39q-1-16 15-22 18-6 36-4 17 2 26 18l37 55 2 3zm16 45-2-2-30-44-37-55q-5-9-16-10l-29 3q-13 3-10 17l4 38 11 101 3 21q2 8 9 9l26-2q9-1 8-11l-2-37-7-67 2 3 14 23 50 76q4 8 12 9l35-5q7-3 5-12l-1-24-2-40-4-69-2-28q-1-13-14-13l-19 1c-12 2-15 5-14 17l3 44zm-161 87 28-7q12-2 7-14l-13-28-27-56-35-72q-4-10-16-9l-29 4q-13 1-15 15l-21 102-13 63q-1 10 8 10h22q12 1 14-12l4-26q1-4 4-4l52-6q6-2 8 4l11 27q2 8 11 9m605 176-4 38-2 16c-4 17-11 19-25 20q-12 0-24-4c-15-4-18-14-17-28l3-37 5-49 3-40 5-44q3-19 22-18 12 0 23 2 19 3 19 22l-2 32-2 21 41 4 2-21 3-32q4-19 24-19 18-1 33 6 18 7 14 27l-3 40-5 44-3 40-5 49q-1 8-9 12-9 4-18 4-11 1-23-2c-15-3-18-10-18-22l2-44v-13zm-8-57 1-9 5-50q2-15-11-18-7-2-16-2c-13-1-16 1-18 15v3l-3 47-6 65-4 51q-3 15 12 17l21 1q8 0 9-7l2-13 3-42 2-15 63 6v14l-4 55q-1 11 10 12l26 1q7 0 9-8l3-24 2-33 6-52 3-33 3-36q1-9-8-10l-29-5q-11-1-12 10l-4 40-2 26zm-109-33v58l-3 72q1 15-12 22l-9 3-30-1q-19-4-19-25l1-114v-17l-11-1-21-1q-18-2-19-18-1-15 1-30 3-15 20-16l84 2q25 1 49 4 20 1 19 22l-1 20q-4 21-26 20zm-61-14v144q0 12 10 13l28 1q6 0 7-7l2-16 2-64 1-58q-1-5 1-9 2-2 9-1l25 1q10 1 13-9l2-22q0-11-10-12l-131-5q-9 0-10 9l-1 19q0 16 16 16zM347 541q-1-8 6-9 5 0 5 7 0 5-5 6zm6 26q-1 7-6 7-4 0-4-5 0-7 5-6 3 1 5 4m81-215c2 16-8 45-29 60a65 65 0 0 1-73 1c-18-12-35-42-32-57q68 45 134-4m-31 48c-13-16-61-16-72-1 18 18 55 18 72 1m82-104c-14 0-25-12-25-26-1-15 10-27 24-27s24 12 25 27c0 14-11 26-24 26m-239-43c14 0 25 11 25 26s-11 27-25 27c-13 0-24-12-25-26 0-16 11-27 25-27m1210-66-41-4 25-66zm-19-33-8 22 15 1z"/><path d="m1153 418-47 2 20-81zm-25-38-8 30 19-1zM777 126l27 68-39 4zm-1 61 14-1-9-22-1 1z"/></svg>