<svg xmlns="http://www.w3.org/2000/svg" viewBox="0 0 200 140">
  <rect width="200" height="140" fill="#f7f8fc"/>
  <circle cx="100" cy="56" r="48" fill="none" stroke="#2d3748" stroke-width="2"/>
  <line x1="120.6" y1="20.3" x2="122.3" y2="17.3" stroke="#2d3748" stroke-width="1.5"/>
  <line x1="104.4" y1="14.0" x2="104.7" y2="11.6" stroke="#2d3748" stroke-width="0.7"/>
  <line x1="108.8" y1="14.7" x2="109.3" y2="12.3" stroke="#2d3748" stroke-width="0.7"/>
  <line x1="113.1" y1="15.8" x2="113.8" y2="13.5" stroke="#2d3748" stroke-width="0.7"/>
  <line x1="117.2" y1="17.4" x2="118.2" y2="15.2" stroke="#2d3748" stroke-width="0.7"/>
  <text x="117.3" y="29.8" text-anchor="middle" font-family="Google Sans Flex, sans-serif" font-size="10.6" font-weight="500" fill="#2d3748">1</text>
  <line x1="135.7" y1="35.4" x2="138.7" y2="33.7" stroke="#2d3748" stroke-width="1.5"/>
  <line x1="124.8" y1="21.8" x2="126.2" y2="19.9" stroke="#2d3748" stroke-width="0.7"/>
  <line x1="128.3" y1="24.6" x2="129.9" y2="22.8" stroke="#2d3748" stroke-width="0.7"/>
  <line x1="131.4" y1="27.7" x2="133.2" y2="26.1" stroke="#2d3748" stroke-width="0.7"/>
  <line x1="134.2" y1="31.2" x2="136.1" y2="29.8" stroke="#2d3748" stroke-width="0.7"/>
  <text x="129.9" y="42.4" text-anchor="middle" font-family="Google Sans Flex, sans-serif" font-size="10.6" font-weight="500" fill="#2d3748">2</text>
  <line x1="141.3" y1="56.0" x2="144.6" y2="56.0" stroke="#2d3748" stroke-width="1.5"/>
  <line x1="138.6" y1="38.8" x2="140.8" y2="37.8" stroke="#2d3748" stroke-width="0.7"/>
  <line x1="140.2" y1="42.9" x2="142.5" y2="42.2" stroke="#2d3748" stroke-width="0.7"/>
  <line x1="141.3" y1="47.2" x2="143.7" y2="46.7" stroke="#2d3748" stroke-width="0.7"/>
  <line x1="142.0" y1="51.6" x2="144.4" y2="51.3" stroke="#2d3748" stroke-width="0.7"/>
  <text x="134.6" y="59.7" text-anchor="middle" font-family="Google Sans Flex, sans-serif" font-size="10.6" font-weight="500" fill="#2d3748">3</text>
  <line x1="135.7" y1="76.6" x2="138.7" y2="78.3" stroke="#2d3748" stroke-width="1.5"/>
  <line x1="142.0" y1="60.4" x2="144.4" y2="60.7" stroke="#2d3748" stroke-width="0.7"/>
  <line x1="141.3" y1="64.8" x2="143.7" y2="65.3" stroke="#2d3748" stroke-width="0.7"/>
  <line x1="140.2" y1="69.1" x2="142.5" y2="69.8" stroke="#2d3748" stroke-width="0.7"/>
  <line x1="138.6" y1="73.2" x2="140.8" y2="74.2" stroke="#2d3748" stroke-width="0.7"/>
  <text x="129.9" y="77.0" text-anchor="middle" font-family="Google Sans Flex, sans-serif" font-size="10.6" font-weight="500" fill="#2d3748">4</text>
  <line x1="120.6" y1="91.7" x2="122.3" y2="94.7" stroke="#2d3748" stroke-width="1.5"/>
  <line x1="134.2" y1="80.8" x2="136.1" y2="82.2" stroke="#2d3748" stroke-width="0.7"/>
  <line x1="131.4" y1="84.3" x2="133.2" y2="85.9" stroke="#2d3748" stroke-width="0.7"/>
  <line x1="128.3" y1="87.4" x2="129.9" y2="89.2" stroke="#2d3748" stroke-width="0.7"/>
  <line x1="124.8" y1="90.2" x2="126.2" y2="92.1" stroke="#2d3748" stroke-width="0.7"/>
  <text x="117.3" y="89.6" text-anchor="middle" font-family="Google Sans Flex, sans-serif" font-size="10.6" font-weight="500" fill="#2d3748">5</text>
  <line x1="100.0" y1="97.3" x2="100.0" y2="100.6" stroke="#2d3748" stroke-width="1.5"/>
  <line x1="117.2" y1="94.6" x2="118.2" y2="96.8" stroke="#2d3748" stroke-width="0.7"/>
  <line x1="113.1" y1="96.2" x2="113.8" y2="98.5" stroke="#2d3748" stroke-width="0.7"/>
  <line x1="108.8" y1="97.3" x2="109.3" y2="99.7" stroke="#2d3748" stroke-width="0.7"/>
  <line x1="104.4" y1="98.0" x2="104.7" y2="100.4" stroke="#2d3748" stroke-width="0.7"/>
  <text x="100.0" y="94.3" text-anchor="middle" font-family="Google Sans Flex, sans-serif" font-size="10.6" font-weight="500" fill="#2d3748">6</text>
  <line x1="79.4" y1="91.7" x2="77.7" y2="94.7" stroke="#2d3748" stroke-width="1.5"/>
  <line x1="95.6" y1="98.0" x2="95.3" y2="100.4" stroke="#2d3748" stroke-width="0.7"/>
  <line x1="91.2" y1="97.3" x2="90.7" y2="99.7" stroke="#2d3748" stroke-width="0.7"/>
  <line x1="86.9" y1="96.2" x2="86.2" y2="98.5" stroke="#2d3748" stroke-width="0.7"/>
  <line x1="82.8" y1="94.6" x2="81.8" y2="96.8" stroke="#2d3748" stroke-width="0.7"/>
  <text x="82.7" y="89.6" text-anchor="middle" font-family="Google Sans Flex, sans-serif" font-size="10.6" font-weight="500" fill="#2d3748">7</text>
  <line x1="64.3" y1="76.6" x2="61.3" y2="78.3" stroke="#2d3748" stroke-width="1.5"/>
  <line x1="75.2" y1="90.2" x2="73.8" y2="92.1" stroke="#2d3748" stroke-width="0.7"/>
  <line x1="71.7" y1="87.4" x2="70.1" y2="89.2" stroke="#2d3748" stroke-width="0.7"/>
  <line x1="68.6" y1="84.3" x2="66.8" y2="85.9" stroke="#2d3748" stroke-width="0.7"/>
  <line x1="65.8" y1="80.8" x2="63.9" y2="82.2" stroke="#2d3748" stroke-width="0.7"/>
  <text x="70.1" y="77.0" text-anchor="middle" font-family="Google Sans Flex, sans-serif" font-size="10.6" font-weight="500" fill="#2d3748">8</text>
  <line x1="58.7" y1="56.0" x2="55.4" y2="56.0" stroke="#2d3748" stroke-width="1.5"/>
  <line x1="61.4" y1="73.2" x2="59.2" y2="74.2" stroke="#2d3748" stroke-width="0.7"/>
  <line x1="59.8" y1="69.1" x2="57.5" y2="69.8" stroke="#2d3748" stroke-width="0.7"/>
  <line x1="58.7" y1="64.8" x2="56.3" y2="65.3" stroke="#2d3748" stroke-width="0.7"/>
  <line x1="58.0" y1="60.4" x2="55.6" y2="60.7" stroke="#2d3748" stroke-width="0.7"/>
  <text x="65.4" y="59.7" text-anchor="middle" font-family="Google Sans Flex, sans-serif" font-size="10.6" font-weight="500" fill="#2d3748">9</text>
  <line x1="64.3" y1="35.4" x2="61.3" y2="33.7" stroke="#2d3748" stroke-width="1.5"/>
  <line x1="58.0" y1="51.6" x2="55.6" y2="51.3" stroke="#2d3748" stroke-width="0.7"/>
  <line x1="58.7" y1="47.2" x2="56.3" y2="46.7" stroke="#2d3748" stroke-width="0.7"/>
  <line x1="59.8" y1="42.9" x2="57.5" y2="42.2" stroke="#2d3748" stroke-width="0.7"/>
  <line x1="61.4" y1="38.8" x2="59.2" y2="37.8" stroke="#2d3748" stroke-width="0.7"/>
  <text x="70.1" y="42.4" text-anchor="middle" font-family="Google Sans Flex, sans-serif" font-size="10.6" font-weight="500" fill="#2d3748">10</text>
  <line x1="79.4" y1="20.3" x2="77.7" y2="17.3" stroke="#2d3748" stroke-width="1.5"/>
  <line x1="65.8" y1="31.2" x2="63.9" y2="29.8" stroke="#2d3748" stroke-width="0.7"/>
  <line x1="68.6" y1="27.7" x2="66.8" y2="26.1" stroke="#2d3748" stroke-width="0.7"/>
  <line x1="71.7" y1="24.6" x2="70.1" y2="22.8" stroke="#2d3748" stroke-width="0.7"/>
  <line x1="75.2" y1="21.8" x2="73.8" y2="19.9" stroke="#2d3748" stroke-width="0.7"/>
  <text x="82.7" y="29.8" text-anchor="middle" font-family="Google Sans Flex, sans-serif" font-size="10.6" font-weight="500" fill="#2d3748">11</text>
  <line x1="100.0" y1="14.7" x2="100.0" y2="11.4" stroke="#2d3748" stroke-width="1.5"/>
  <line x1="82.8" y1="17.4" x2="81.8" y2="15.2" stroke="#2d3748" stroke-width="0.7"/>
  <line x1="86.9" y1="15.8" x2="86.2" y2="13.5" stroke="#2d3748" stroke-width="0.7"/>
  <line x1="91.2" y1="14.7" x2="90.7" y2="12.3" stroke="#2d3748" stroke-width="0.7"/>
  <line x1="95.6" y1="14.0" x2="95.3" y2="11.6" stroke="#2d3748" stroke-width="0.7"/>
  <text x="100.0" y="25.1" text-anchor="middle" font-family="Google Sans Flex, sans-serif" font-size="10.6" font-weight="500" fill="#2d3748">12</text>
  <circle cx="100" cy="56" r="2.5" fill="#2d3748"/>
  <!-- Time display: separate elements like generator uses -->
  <text x="88" y="132" text-anchor="end" font-size="22" font-weight="500" fill="#2d3748" font-family="Google Sans Flex, sans-serif">2</text>
  <circle cx="92" cy="123" r="2" fill="#2d3748"/>
  <circle cx="92" cy="129" r="2" fill="#2d3748"/>
  <text x="96" y="132" text-anchor="start" font-size="22" font-weight="500" fill="#2d3748" font-family="Google Sans Flex, sans-serif">30</text>
</svg>