<svg xmlns="http://www.w3.org/2000/svg" viewBox="0 0 1678 601" width="1678" height="601">
  <path d="M 338,600 C 339.3,600.8 345.7,600.8 347,600 C 348.3,599.2 347.3,595.8 346,595 C 344.7,594.2 340.3,594.2 339,595 C 337.7,595.8 336.7,599.2 338,600 Z M 345,564 C 343.8,564.8 342.3,567.3 342,569 C 341.7,570.7 341.8,573.0 343,574 C 344.2,575.0 347.7,575.2 349,575 C 350.3,574.8 350.7,574.5 351,573 C 351.3,571.5 351.3,567.5 351,566 C 350.7,564.5 350.0,564.3 349,564 C 348.0,563.7 346.2,563.2 345,564 Z M 456,551 C 448.3,551.0 452.2,591.8 453,600 C 453.8,608.2 459.7,602.8 461,600 C 462.3,597.2 460.7,587.7 461,583 C 461.3,578.3 458.8,569.2 463,572 C 467.2,574.8 480.0,595.3 486,600 C 492.0,604.7 504.0,608.2 499,600 C 494.0,591.8 463.7,551.0 456,551 Z M 350,534 C 348.7,534.7 347.5,536.7 347,538 C 346.5,539.3 346.5,540.7 347,542 C 347.5,543.3 348.8,545.3 350,546 C 351.2,546.7 352.8,546.5 354,546 C 355.2,545.5 356.5,544.5 357,543 C 357.5,541.5 357.3,538.5 357,537 C 356.7,535.5 356.2,534.5 355,534 C 353.8,533.5 351.3,533.3 350,534 Z M 230,516 C 216.2,527.8 158.0,586.0 146,600 C 134.0,614.0 146.2,609.7 158,600 C 169.8,590.3 207.2,550.0 217,542 C 226.8,534.0 218.2,545.2 217,552 C 215.8,558.8 211.2,576.8 210,583 C 208.8,589.2 210.5,586.2 210,589 C 209.5,591.8 206.2,598.2 207,600 C 207.8,601.8 211.8,609.2 215,600 C 218.2,590.8 224.2,555.2 226,545 C 227.8,534.8 225.5,541.7 226,539 C 226.5,536.3 228.3,532.8 229,529 C 229.7,525.2 243.8,504.2 230,516 Z M 1402,301 C 1395.3,302.7 1395.5,302.7 1393,310 C 1390.5,317.3 1388.3,332.8 1387,345 C 1385.7,357.2 1385.8,373.5 1385,383 C 1384.2,392.5 1383.7,384.7 1382,402 C 1380.3,419.3 1376.2,471.2 1375,487 C 1373.8,502.8 1374.5,493.8 1375,497 C 1375.5,500.2 1376.3,503.3 1378,506 C 1379.7,508.7 1381.3,511.0 1385,513 C 1388.7,515.0 1394.3,517.0 1400,518 C 1405.7,519.0 1414.0,519.3 1419,519 C 1424.0,518.7 1427.3,517.2 1430,516 C 1432.7,514.8 1433.5,513.8 1435,512 C 1436.5,510.2 1437.3,515.0 1439,505 C 1440.7,495.0 1443.7,462.0 1445,452 C 1446.3,442.0 1440.8,445.7 1447,445 C 1453.2,444.3 1475.3,447.2 1482,448 C 1488.7,448.8 1486.7,439.8 1487,450 C 1487.3,460.2 1483.8,497.3 1484,509 C 1484.2,520.7 1485.8,517.0 1488,520 C 1490.2,523.0 1494.0,525.3 1497,527 C 1500.0,528.7 1500.2,529.5 1506,530 C 1511.8,530.5 1525.8,530.7 1532,530 C 1538.2,529.3 1540.0,527.7 1543,526 C 1546.0,524.3 1548.5,522.5 1550,520 C 1551.5,517.5 1550.5,524.0 1552,511 C 1553.5,498.0 1558.0,454.5 1559,442 C 1560.0,429.5 1556.7,450.0 1558,436 C 1559.3,422.0 1565.7,372.2 1567,358 C 1568.3,343.8 1565.8,355.3 1566,351 C 1566.2,346.7 1568.0,336.5 1568,332 C 1568.0,327.5 1567.5,326.5 1566,324 C 1564.5,321.5 1563.3,319.5 1559,317 C 1554.7,314.5 1547.2,310.5 1540,309 C 1532.8,307.5 1521.0,307.8 1516,308 C 1511.0,308.2 1512.5,308.5 1510,310 C 1507.5,311.5 1503.3,313.8 1501,317 C 1498.7,320.2 1497.3,319.2 1496,329 C 1494.7,338.8 1493.8,367.3 1493,376 C 1492.2,384.7 1497.7,380.7 1491,381 C 1484.3,381.3 1459.8,379.0 1453,378 C 1446.2,377.0 1449.8,380.5 1450,375 C 1450.2,369.5 1453.2,354.0 1454,345 C 1454.8,336.0 1455.5,326.8 1455,321 C 1454.5,315.2 1452.5,312.7 1451,310 C 1449.5,307.3 1449.0,306.7 1446,305 C 1443.0,303.3 1440.3,300.7 1433,300 C 1425.7,299.3 1408.7,299.3 1402,301 Z M 1407,309 C 1411.7,308.0 1423.7,308.5 1429,309 C 1434.3,309.5 1436.5,310.5 1439,312 C 1441.5,313.5 1443.0,315.0 1444,318 C 1445.0,321.0 1445.7,320.7 1445,330 C 1444.3,339.3 1440.8,364.3 1440,374 C 1439.2,383.7 1439.5,385.5 1440,388 C 1440.5,390.5 1438.7,388.7 1443,389 C 1447.3,389.3 1456.3,389.0 1466,390 C 1475.7,391.0 1494.8,395.7 1501,395 C 1507.2,394.3 1502.7,391.5 1503,386 C 1503.3,380.5 1502.7,369.8 1503,362 C 1503.3,354.2 1504.0,345.7 1505,339 C 1506.0,332.3 1507.2,325.5 1509,322 C 1510.8,318.5 1512.5,318.7 1516,318 C 1519.5,317.3 1524.2,317.2 1530,318 C 1535.8,318.8 1546.7,321.5 1551,323 C 1555.3,324.5 1555.0,323.7 1556,327 C 1557.0,330.3 1557.7,334.3 1557,343 C 1556.3,351.7 1552.8,370.0 1552,379 C 1551.2,388.0 1553.3,383.2 1552,397 C 1550.7,410.8 1545.7,444.8 1544,462 C 1542.3,479.2 1542.7,491.5 1542,500 C 1541.3,508.5 1541.0,510.0 1540,513 C 1539.0,516.0 1537.3,516.8 1536,518 C 1534.7,519.2 1536.7,519.7 1532,520 C 1527.3,520.3 1513.5,520.5 1508,520 C 1502.5,519.5 1501.2,518.2 1499,517 C 1496.8,515.8 1495.7,518.7 1495,513 C 1494.3,507.3 1494.3,495.5 1495,483 C 1495.7,470.5 1499.7,445.8 1499,438 C 1498.3,430.2 1497.2,436.5 1491,436 C 1484.8,435.5 1471.3,435.7 1462,435 C 1452.7,434.3 1439.5,430.7 1435,432 C 1430.5,433.3 1435.5,437.7 1435,443 C 1434.5,448.3 1432.3,459.2 1432,464 C 1431.7,468.8 1433.3,466.5 1433,472 C 1432.7,477.5 1431.0,491.3 1430,497 C 1429.0,502.7 1428.3,504.0 1427,506 C 1425.7,508.0 1425.3,508.5 1422,509 C 1418.7,509.5 1411.7,509.3 1407,509 C 1402.3,508.7 1397.3,508.3 1394,507 C 1390.7,505.7 1388.3,503.8 1387,501 C 1385.7,498.2 1385.2,501.3 1386,490 C 1386.8,478.7 1390.7,450.2 1392,433 C 1393.3,415.8 1392.7,404.0 1394,387 C 1395.3,370.0 1399.2,341.5 1400,331 C 1400.8,320.5 1398.8,326.7 1399,324 C 1399.2,321.3 1399.7,317.5 1401,315 C 1402.3,312.5 1402.3,310.0 1407,309 Z M 1220,289 C 1207.0,290.5 1212.2,294.0 1210,297 C 1207.8,300.0 1207.7,302.0 1207,307 C 1206.3,312.0 1205.8,321.7 1206,327 C 1206.2,332.3 1207.2,336.0 1208,339 C 1208.8,342.0 1209.2,343.2 1211,345 C 1212.8,346.8 1216.2,348.8 1219,350 C 1221.8,351.2 1222.7,351.7 1228,352 C 1233.3,352.3 1246.0,351.7 1251,352 C 1256.0,352.3 1256.8,330.3 1258,354 C 1259.2,377.7 1256.8,469.0 1258,494 C 1259.2,519.0 1262.0,501.5 1265,504 C 1268.0,506.5 1269.3,508.0 1276,509 C 1282.7,510.0 1298.7,510.2 1305,510 C 1311.3,509.8 1310.8,510.0 1314,508 C 1317.2,506.0 1321.8,501.3 1324,498 C 1326.2,494.7 1326.2,508.5 1327,488 C 1327.8,467.5 1328.3,397.2 1329,375 C 1329.7,352.8 1325.5,358.3 1331,355 C 1336.5,351.7 1356.0,355.3 1362,355 C 1368.0,354.7 1364.8,354.7 1367,353 C 1369.2,351.3 1373.0,348.8 1375,345 C 1377.0,341.2 1378.3,336.0 1379,330 C 1379.7,324.0 1379.3,313.5 1379,309 C 1378.7,304.5 1378.0,304.8 1377,303 C 1376.0,301.2 1374.8,299.5 1373,298 C 1371.2,296.5 1368.5,295.0 1366,294 C 1363.5,293.0 1371.0,293.0 1358,292 C 1345.0,291.0 1311.0,288.5 1288,288 C 1265.0,287.5 1233.0,287.5 1220,289 Z M 1224,297 C 1232.5,296.2 1249.5,296.5 1269,297 C 1288.5,297.5 1325.3,299.0 1341,300 C 1356.7,301.0 1358.3,301.5 1363,303 C 1367.7,304.5 1368.2,303.8 1369,309 C 1369.8,314.2 1368.3,329.2 1368,334 C 1367.7,338.8 1368.0,336.3 1367,338 C 1366.0,339.7 1363.7,342.7 1362,344 C 1360.3,345.3 1363.5,346.0 1357,346 C 1350.5,346.0 1329.3,344.2 1323,344 C 1316.7,343.8 1320.2,322.5 1319,345 C 1317.8,367.5 1316.8,454.2 1316,479 C 1315.2,503.8 1315.2,490.7 1314,494 C 1312.8,497.3 1314.8,498.2 1309,499 C 1303.2,499.8 1284.8,499.3 1279,499 C 1273.2,498.7 1275.7,498.3 1274,497 C 1272.3,495.7 1269.8,516.8 1269,491 C 1268.2,465.2 1276.8,367.2 1269,342 C 1261.2,316.8 1230.5,341.0 1222,340 C 1213.5,339.0 1219.0,337.7 1218,336 C 1217.0,334.3 1216.3,334.5 1216,330 C 1215.7,325.5 1215.7,313.7 1216,309 C 1216.3,304.3 1216.7,304.0 1218,302 C 1219.3,300.0 1215.5,297.8 1224,297 Z M 1240,484 C 1235.5,470.7 1218.2,425.2 1213,412 C 1207.8,398.8 1209.8,407.2 1209,405 C 1208.2,402.8 1210.5,405.3 1208,399 C 1205.5,392.7 1196.5,373.3 1194,367 C 1191.5,360.7 1195.8,368.0 1193,361 C 1190.2,354.0 1179.8,332.0 1177,325 C 1174.2,318.0 1177.7,323.2 1176,319 C 1174.3,314.8 1169.7,304.5 1167,300 C 1164.3,295.5 1162.2,293.8 1160,292 C 1157.8,290.2 1156.8,289.8 1154,289 C 1151.2,288.2 1151.5,287.0 1143,287 C 1134.5,287.0 1111.3,288.2 1103,289 C 1094.7,289.8 1096.2,290.0 1093,292 C 1089.8,294.0 1087.2,294.5 1084,301 C 1080.8,307.5 1075.5,325.7 1074,331 C 1072.5,336.3 1076.2,329.0 1075,333 C 1073.8,337.0 1068.3,350.5 1067,355 C 1065.7,359.5 1068.5,354.8 1067,360 C 1065.5,365.2 1059.3,381.3 1058,386 C 1056.7,390.7 1060.2,384.0 1059,388 C 1057.8,392.0 1052.3,405.5 1051,410 C 1049.7,414.5 1051.8,412.0 1051,415 C 1050.2,418.0 1047.5,422.7 1046,428 C 1044.5,433.3 1043.3,442.0 1042,447 C 1040.7,452.0 1039.2,457.7 1038,458 C 1036.8,458.3 1035.7,453.2 1035,449 C 1034.3,444.8 1035.5,442.7 1034,433 C 1032.5,423.3 1027.3,399.3 1026,391 C 1024.7,382.7 1027.3,390.3 1026,383 C 1024.7,375.7 1020.0,357.7 1018,347 C 1016.0,336.3 1015.3,326.0 1014,319 C 1012.7,312.0 1011.7,308.5 1010,305 C 1008.3,301.5 1007.2,299.8 1004,298 C 1000.8,296.2 995.5,294.7 991,294 C 986.5,293.3 981.8,293.7 977,294 C 972.2,294.3 966.8,294.8 962,296 C 957.2,297.2 951.5,299.0 948,301 C 944.5,303.0 942.8,305.5 941,308 C 939.2,310.5 939.8,307.3 937,316 C 934.2,324.7 926.2,351.7 924,360 C 921.8,368.3 925.2,361.8 924,366 C 922.8,370.2 922.8,391.7 917,385 C 911.2,378.3 894.8,337.8 889,326 C 883.2,314.2 884.0,316.8 882,314 C 880.0,311.2 879.3,310.5 877,309 C 874.7,307.5 873.3,305.7 868,305 C 862.7,304.3 852.7,304.2 845,305 C 837.3,305.8 827.3,308.2 822,310 C 816.7,311.8 815.7,313.3 813,316 C 810.3,318.7 807.3,321.0 806,326 C 804.7,331.0 803.8,315.7 805,346 C 806.2,376.3 810.8,479.2 813,508 C 815.2,536.8 815.3,515.8 818,519 C 820.7,522.2 825.8,525.3 829,527 C 832.2,528.7 832.3,528.7 837,529 C 841.7,529.3 852.2,529.3 857,529 C 861.8,528.7 863.3,528.0 866,527 C 868.7,526.0 870.7,525.5 873,523 C 875.3,520.5 878.7,515.0 880,512 C 881.3,509.0 881.3,514.5 881,505 C 880.7,495.5 878.3,464.0 878,455 C 877.7,446.0 877.0,448.3 879,451 C 881.0,453.7 887.7,466.2 890,471 C 892.3,475.8 891.0,477.0 893,480 C 895.0,483.0 898.5,487.0 902,489 C 905.5,491.0 910.2,491.5 914,492 C 917.8,492.5 920.7,492.5 925,492 C 929.3,491.5 936.0,490.8 940,489 C 944.0,487.2 946.7,484.0 949,481 C 951.3,478.0 952.8,474.2 954,471 C 955.2,467.8 954.5,466.3 956,462 C 957.5,457.7 961.5,447.2 963,445 C 964.5,442.8 964.2,443.3 965,449 C 965.8,454.7 966.8,470.8 968,479 C 969.2,487.2 971.5,494.3 972,498 C 972.5,501.7 970.5,499.2 971,501 C 971.5,502.8 973.5,506.8 975,509 C 976.5,511.2 978.0,512.7 980,514 C 982.0,515.3 982.3,516.5 987,517 C 991.7,517.5 1002.0,517.5 1008,517 C 1014.0,516.5 1017.8,516.0 1023,514 C 1028.2,512.0 1035.2,505.8 1039,505 C 1042.8,504.2 1042.7,507.8 1046,509 C 1049.3,510.2 1053.7,511.3 1059,512 C 1064.3,512.7 1073.3,513.2 1078,513 C 1082.7,512.8 1084.5,512.0 1087,511 C 1089.5,510.0 1091.3,508.7 1093,507 C 1094.7,505.3 1094.8,507.2 1097,501 C 1099.2,494.8 1096.2,475.3 1106,470 C 1115.8,464.7 1147.2,468.5 1156,469 C 1164.8,469.5 1158.0,470.3 1159,473 C 1160.0,475.7 1160.5,480.7 1162,485 C 1163.5,489.3 1166.3,495.7 1168,499 C 1169.7,502.3 1169.5,503.2 1172,505 C 1174.5,506.8 1177.2,509.2 1183,510 C 1188.8,510.8 1199.7,510.7 1207,510 C 1214.3,509.3 1221.8,508.2 1227,506 C 1232.2,503.8 1235.8,499.3 1238,497 C 1240.2,494.7 1239.7,494.2 1240,492 C 1240.3,489.8 1244.5,497.3 1240,484 Z M 999,306 C 1001.2,307.3 1002.3,308.8 1003,311 C 1003.7,313.2 1001.7,311.5 1003,319 C 1004.3,326.5 1009.7,348.2 1011,356 C 1012.3,363.8 1009.8,358.8 1011,366 C 1012.2,373.2 1016.7,390.8 1018,399 C 1019.3,407.2 1018.3,410.5 1019,415 C 1019.7,419.5 1020.7,419.2 1022,426 C 1023.3,432.8 1026.2,449.3 1027,456 C 1027.8,462.7 1026.3,461.3 1027,466 C 1027.7,470.7 1030.5,478.7 1031,484 C 1031.5,489.3 1031.3,494.8 1030,498 C 1028.7,501.2 1027.0,501.5 1023,503 C 1019.0,504.5 1011.8,506.3 1006,507 C 1000.2,507.7 991.7,507.5 988,507 C 984.3,506.5 985.2,505.7 984,504 C 982.8,502.3 981.8,500.0 981,497 C 980.2,494.0 979.5,491.2 979,486 C 978.5,480.8 979.5,478.7 978,466 C 976.5,453.3 971.2,420.7 970,410 C 968.8,399.3 971.2,405.7 971,402 C 970.8,398.3 970.5,385.7 969,388 C 967.5,390.3 964.2,408.8 962,416 C 959.8,423.2 957.0,427.7 956,431 C 955.0,434.3 958.2,429.3 956,436 C 953.8,442.7 946.3,463.8 943,471 C 939.7,478.2 939.5,477.2 936,479 C 932.5,480.8 926.3,481.7 922,482 C 917.7,482.3 913.5,482.5 910,481 C 906.5,479.5 904.2,478.2 901,473 C 897.8,467.8 893.7,455.3 891,450 C 888.3,444.7 887.7,446.0 885,441 C 882.3,436.0 876.8,424.5 875,420 C 873.2,415.5 874.5,415.3 874,414 C 873.5,412.7 873.5,415.3 872,412 C 870.5,408.7 865.7,391.2 865,394 C 864.3,396.8 867.2,409.8 868,429 C 868.8,448.2 870.5,494.5 870,509 C 869.5,523.5 866.7,514.5 865,516 C 863.3,517.5 865.0,517.7 860,518 C 855.0,518.3 840.2,518.3 835,518 C 829.8,517.7 830.8,517.3 829,516 C 827.2,514.7 825.5,521.2 824,510 C 822.5,498.8 820.8,467.8 820,449 C 819.2,430.2 819.7,412.7 819,397 C 818.3,381.3 816.5,366.5 816,355 C 815.5,343.5 815.7,333.3 816,328 C 816.3,322.7 816.8,324.5 818,323 C 819.2,321.5 820.2,320.3 823,319 C 825.8,317.7 830.0,316.0 835,315 C 840.0,314.0 848.2,313.3 853,313 C 857.8,312.7 861.2,312.7 864,313 C 866.8,313.3 868.2,313.8 870,315 C 871.8,316.2 870.5,311.7 875,320 C 879.5,328.3 892.8,356.0 897,365 C 901.2,374.0 898.7,371.2 900,374 C 901.3,376.8 902.3,376.3 905,382 C 907.7,387.7 913.2,402.2 916,408 C 918.8,413.8 921.0,416.7 922,417 C 923.0,417.3 920.5,416.3 922,410 C 923.5,403.7 929.3,385.8 931,379 C 932.7,372.2 930.8,373.5 932,369 C 933.2,364.5 936.8,356.5 938,352 C 939.2,347.5 938.5,344.2 939,342 C 939.5,339.8 939.7,343.3 941,339 C 942.3,334.7 945.3,320.8 947,316 C 948.7,311.2 949.7,311.5 951,310 C 952.3,308.5 953.2,307.8 955,307 C 956.8,306.2 958.0,305.7 962,305 C 966.0,304.3 974.3,303.3 979,303 C 983.7,302.7 986.7,302.5 990,303 C 993.3,303.5 996.8,304.7 999,306 Z M 1097,300 C 1102.2,297.7 1112.8,296.7 1121,296 C 1129.2,295.3 1140.5,295.5 1146,296 C 1151.5,296.5 1152.0,297.7 1154,299 C 1156.0,300.3 1155.5,299.0 1158,304 C 1160.5,309.0 1167.0,323.8 1169,329 C 1171.0,334.2 1168.5,331.3 1170,335 C 1171.5,338.7 1175.3,344.3 1178,351 C 1180.7,357.7 1183.3,368.3 1186,375 C 1188.7,381.7 1192.7,387.7 1194,391 C 1195.3,394.3 1188.7,381.0 1194,395 C 1199.3,409.0 1220.8,461.5 1226,475 C 1231.2,488.5 1224.5,474.5 1225,476 C 1225.5,477.5 1228.3,481.7 1229,484 C 1229.7,486.3 1229.7,488.2 1229,490 C 1228.3,491.8 1226.7,493.7 1225,495 C 1223.3,496.3 1223.2,497.2 1219,498 C 1214.8,498.8 1205.8,499.7 1200,500 C 1194.2,500.3 1187.3,500.3 1184,500 C 1180.7,499.7 1181.2,499.2 1180,498 C 1178.8,496.8 1179.5,499.5 1177,493 C 1174.5,486.5 1167.7,464.8 1165,459 C 1162.3,453.2 1172.3,457.8 1161,458 C 1149.7,458.2 1108.8,455.3 1097,460 C 1085.2,464.7 1091.2,480.8 1090,486 C 1088.8,491.2 1090.5,489.0 1090,491 C 1089.5,493.0 1088.3,496.2 1087,498 C 1085.7,499.8 1087.2,501.5 1082,502 C 1076.8,502.5 1061.7,501.5 1056,501 C 1050.3,500.5 1050.2,500.2 1048,499 C 1045.8,497.8 1043.8,496.3 1043,494 C 1042.2,491.7 1042.3,488.3 1043,485 C 1043.7,481.7 1045.3,480.3 1047,474 C 1048.7,467.7 1051.3,453.2 1053,447 C 1054.7,440.8 1056.2,440.3 1057,437 C 1057.8,433.7 1056.7,432.2 1058,427 C 1059.3,421.8 1063.5,411.7 1065,406 C 1066.5,400.3 1065.7,398.0 1067,393 C 1068.3,388.0 1072.0,379.8 1073,376 C 1074.0,372.2 1072.0,373.7 1073,370 C 1074.0,366.3 1077.3,360.2 1079,354 C 1080.7,347.8 1081.2,339.7 1083,333 C 1084.8,326.3 1088.8,317.8 1090,314 C 1091.2,310.2 1088.8,312.3 1090,310 C 1091.2,307.7 1091.8,302.3 1097,300 Z M 1126,341 C 1120.7,347.7 1101.7,408.0 1106,421 C 1110.3,434.0 1145.7,423.5 1152,419 C 1158.3,414.5 1146.3,400.3 1144,394 C 1141.7,387.7 1141.0,389.8 1138,381 C 1135.0,372.2 1131.3,334.3 1126,341 Z M 1127,380 C 1128.2,377.8 1128.5,380.5 1129,382 C 1129.5,383.5 1128.5,384.8 1130,389 C 1131.5,393.2 1137.0,403.3 1138,407 C 1139.0,410.7 1139.2,410.3 1136,411 C 1132.8,411.7 1121.3,413.7 1119,411 C 1116.7,408.3 1120.7,400.2 1122,395 C 1123.3,389.8 1125.8,382.2 1127,380 Z M 1046,64 C 1044.3,61.0 1042.3,59.5 1040,58 C 1037.7,56.5 1038.0,55.3 1032,55 C 1026.0,54.7 1010.0,55.5 1004,56 C 998.0,56.5 999.0,56.7 996,58 C 993.0,59.3 988.3,62.0 986,64 C 983.7,66.0 982.8,68.2 982,70 C 981.2,71.8 980.8,68.8 981,75 C 981.2,81.2 982.0,97.0 983,107 C 984.0,117.0 986.5,129.7 987,135 C 987.5,140.3 988.0,140.7 986,139 C 984.0,137.3 982.0,135.2 975,125 C 968.0,114.8 951.5,88.0 944,78 C 936.5,68.0 934.0,67.7 930,65 C 926.0,62.3 926.2,62.2 920,62 C 913.8,61.8 899.2,63.2 893,64 C 886.8,64.8 886.3,65.3 883,67 C 879.7,68.7 875.5,71.0 873,74 C 870.5,77.0 868.8,81.5 868,85 C 867.2,88.5 866.7,82.0 868,95 C 869.3,108.0 874.5,147.8 876,163 C 877.5,178.2 875.5,173.7 877,186 C 878.5,198.3 884.2,228.5 885,237 C 885.8,245.5 886.3,245.5 882,237 C 877.7,228.5 864.2,196.8 859,186 C 853.8,175.2 852.3,174.8 851,172 C 849.7,169.2 852.3,171.8 851,169 C 849.7,166.2 844.3,157.8 843,155 C 841.7,152.2 848.3,163.2 843,152 C 837.7,140.8 817.7,100.2 811,88 C 804.3,75.8 806.2,81.2 803,79 C 799.8,76.8 800.0,75.2 792,75 C 784.0,74.8 763.0,76.8 755,78 C 747.0,79.2 747.2,80.2 744,82 C 740.8,83.8 737.8,86.7 736,89 C 734.2,91.3 733.5,93.8 733,96 C 732.5,98.2 734.3,96.3 733,102 C 731.7,107.7 726.3,124.2 725,130 C 723.7,135.8 726.2,131.7 725,137 C 723.8,142.3 719.3,156.0 718,162 C 716.7,168.0 718.0,168.5 717,173 C 716.0,177.5 713.0,184.8 712,189 C 711.0,193.2 711.5,195.8 711,198 C 710.5,200.2 709.3,200.2 709,202 C 708.7,203.8 710.2,203.5 709,209 C 707.8,214.5 703.3,228.8 702,235 C 700.7,241.2 701.8,241.7 701,246 C 700.2,250.3 697.7,256.0 697,261 C 696.3,266.0 696.2,272.3 697,276 C 697.8,279.7 699.5,281.0 702,283 C 704.5,285.0 708.2,286.8 712,288 C 715.8,289.2 719.7,289.8 725,290 C 730.3,290.2 739.5,289.7 744,289 C 748.5,288.3 749.8,287.3 752,286 C 754.2,284.7 755.2,284.8 757,281 C 758.8,277.2 761.8,268.3 763,263 C 764.2,257.7 763.3,252.0 764,249 C 764.7,246.0 761.3,246.0 767,245 C 772.7,244.0 791.7,243.7 798,243 C 804.3,242.3 802.7,241.2 805,241 C 807.3,240.8 808.8,237.2 812,242 C 815.2,246.8 821.2,264.5 824,270 C 826.8,275.5 827.0,273.7 829,275 C 831.0,276.3 832.7,277.5 836,278 C 839.3,278.5 843.5,278.5 849,278 C 854.5,277.5 863.2,276.8 869,275 C 874.8,273.2 881.0,269.3 884,267 C 887.0,264.7 886.0,262.0 887,261 C 888.0,260.0 888.7,259.8 890,261 C 891.3,262.2 893.0,266.3 895,268 C 897.0,269.7 897.5,270.5 902,271 C 906.5,271.5 915.7,271.7 922,271 C 928.3,270.3 936.0,268.5 940,267 C 944.0,265.5 944.3,264.5 946,262 C 947.7,259.5 949.3,255.8 950,252 C 950.7,248.2 950.7,246.3 950,239 C 949.3,231.7 946.7,216.7 946,208 C 945.3,199.3 938.0,178.5 946,187 C 954.0,195.5 984.3,246.0 994,259 C 1003.7,272.0 1001.5,263.8 1004,265 C 1006.5,266.2 1004.0,266.2 1009,266 C 1014.0,265.8 1027.2,265.2 1034,264 C 1040.8,262.8 1046.0,261.5 1050,259 C 1054.0,256.5 1056.5,253.8 1058,249 C 1059.5,244.2 1059.0,239.2 1059,230 C 1059.0,220.8 1059.5,216.7 1058,194 C 1056.5,171.3 1051.3,113.7 1050,94 C 1048.7,74.3 1050.7,81.0 1050,76 C 1049.3,71.0 1047.7,67.0 1046,64 Z M 795,84 C 798.3,85.5 795.2,79.3 802,92 C 808.8,104.7 830.2,147.8 836,160 C 841.8,172.2 835.7,162.2 837,165 C 838.3,167.8 842.8,174.5 844,177 C 845.2,179.5 838.7,168.7 844,180 C 849.3,191.3 870.3,232.2 876,245 C 881.7,257.8 878.7,254.2 878,257 C 877.3,259.8 875.7,260.3 872,262 C 868.3,263.7 861.8,266.0 856,267 C 850.2,268.0 841.2,268.8 837,268 C 832.8,267.2 834.2,268.3 831,262 C 827.8,255.7 821.2,235.5 818,230 C 814.8,224.5 814.2,228.8 812,229 C 809.8,229.2 811.7,230.2 805,231 C 798.3,231.8 780.2,233.0 772,234 C 763.8,235.0 758.5,236.0 756,237 C 753.5,238.0 757.7,235.0 757,240 C 756.3,245.0 753.2,261.7 752,267 C 750.8,272.3 751.2,270.3 750,272 C 748.8,273.7 748.8,275.8 745,277 C 741.2,278.2 732.3,278.8 727,279 C 721.7,279.2 716.2,278.8 713,278 C 709.8,277.2 709.0,275.2 708,274 C 707.0,272.8 707.0,273.5 707,271 C 707.0,268.5 706.7,265.5 708,259 C 709.3,252.5 713.7,238.7 715,232 C 716.3,225.3 714.5,226.7 716,219 C 717.5,211.3 722.7,192.8 724,186 C 725.3,179.2 723.2,182.2 724,178 C 724.8,173.8 727.7,167.3 729,161 C 730.3,154.7 731.0,144.8 732,140 C 733.0,135.2 733.3,139.2 735,132 C 736.7,124.8 739.8,104.2 742,97 C 744.2,89.8 745.0,91.0 748,89 C 751.0,87.0 754.3,86.0 760,85 C 765.7,84.0 776.2,83.2 782,83 C 787.8,82.8 791.7,82.5 795,84 Z M 777,127 C 775.7,131.7 774.2,150.2 772,162 C 769.8,173.8 760.0,192.3 764,198 C 768.0,203.7 789.5,196.7 796,196 C 802.5,195.3 803.5,198.8 803,194 C 802.5,189.2 795.5,173.0 793,167 C 790.5,161.0 789.0,160.5 788,158 C 787.0,155.5 788.3,155.3 787,152 C 785.7,148.7 781.2,141.0 780,138 C 778.8,135.0 780.5,135.8 780,134 C 779.5,132.2 778.3,122.3 777,127 Z M 780,165 C 782.3,164.0 787.5,178.2 789,182 C 790.5,185.8 791.3,187.0 789,188 C 786.7,189.0 776.5,191.8 775,188 C 773.5,184.2 777.7,166.0 780,165 Z M 1035,65 C 1036.5,66.3 1038.0,67.8 1039,71 C 1040.0,74.2 1040.3,72.2 1041,84 C 1041.7,95.8 1041.5,116.3 1043,142 C 1044.5,167.7 1049.2,220.7 1050,238 C 1050.8,255.3 1049.8,243.7 1048,246 C 1046.2,248.3 1044.7,250.5 1039,252 C 1033.3,253.5 1020.0,254.8 1014,255 C 1008.0,255.2 1006.0,254.7 1003,253 C 1000.0,251.3 1000.3,251.5 996,245 C 991.7,238.5 980.7,219.5 977,214 C 973.3,208.5 981.8,223.8 974,212 C 966.2,200.2 937.0,153.2 930,143 C 923.0,132.8 931.8,149.3 932,151 C 932.2,152.7 930.0,143.3 931,153 C 932.0,162.7 936.5,192.3 938,209 C 939.5,225.7 940.3,245.0 940,253 C 939.7,261.0 938.2,255.8 936,257 C 933.8,258.2 932.7,259.5 927,260 C 921.3,260.5 907.2,261.3 902,260 C 896.8,258.7 897.8,259.2 896,252 C 894.2,244.8 891.8,224.8 891,217 C 890.2,209.2 892.2,215.2 891,205 C 889.8,194.8 885.3,168.0 884,156 C 882.7,144.0 884.0,143.7 883,133 C 882.0,122.3 878.8,100.0 878,92 C 877.2,84.0 877.7,87.2 878,85 C 878.3,82.8 878.3,80.8 880,79 C 881.7,77.2 884.2,75.3 888,74 C 891.8,72.7 898.2,71.7 903,71 C 907.8,70.3 912.8,69.5 917,70 C 921.2,70.5 923.8,70.3 928,74 C 932.2,77.7 929.5,73.8 942,92 C 954.5,110.2 993.5,171.2 1003,183 C 1012.5,194.8 1000.5,174.2 999,163 C 997.5,151.8 995.2,131.2 994,116 C 992.8,100.8 991.8,80.0 992,72 C 992.2,64.0 992.8,69.3 995,68 C 997.2,66.7 999.2,64.8 1005,64 C 1010.8,63.2 1025.0,62.8 1030,63 C 1035.0,63.2 1033.5,63.7 1035,65 Z M 1067,63 C 1064.8,65.7 1065.3,62.7 1065,70 C 1064.7,77.3 1064.0,80.3 1065,107 C 1066.0,133.7 1069.3,206.3 1071,230 C 1072.7,253.7 1073.5,244.8 1075,249 C 1076.5,253.2 1078.0,253.3 1080,255 C 1082.0,256.7 1079.7,258.3 1087,259 C 1094.3,259.7 1116.7,259.8 1124,259 C 1131.3,258.2 1128.8,256.7 1131,254 C 1133.2,251.3 1135.7,243.8 1137,243 C 1138.3,242.2 1137.3,246.7 1139,249 C 1140.7,251.3 1142.2,255.0 1147,257 C 1151.8,259.0 1161.3,260.5 1168,261 C 1174.7,261.5 1183.3,260.3 1187,260 C 1190.7,259.7 1188.2,260.5 1190,259 C 1191.8,257.5 1196.3,253.2 1198,251 C 1199.7,248.8 1198.8,255.2 1200,246 C 1201.2,236.8 1203.7,203.7 1205,196 C 1206.3,188.3 1207.0,197.3 1208,200 C 1209.0,202.7 1209.3,207.5 1211,212 C 1212.7,216.5 1215.5,223.5 1218,227 C 1220.5,230.5 1222.7,231.5 1226,233 C 1229.3,234.5 1233.7,235.5 1238,236 C 1242.3,236.5 1247.7,236.8 1252,236 C 1256.3,235.2 1261.2,232.8 1264,231 C 1266.8,229.2 1266.0,230.5 1269,225 C 1272.0,219.5 1279.3,202.8 1282,198 C 1284.7,193.2 1284.3,188.3 1285,196 C 1285.7,203.7 1285.5,234.7 1286,244 C 1286.5,253.3 1287.0,249.5 1288,252 C 1289.0,254.5 1289.3,257.0 1292,259 C 1294.7,261.0 1298.7,263.0 1304,264 C 1309.3,265.0 1318.8,265.2 1324,265 C 1329.2,264.8 1331.8,264.0 1335,263 C 1338.2,262.0 1339.7,258.7 1343,259 C 1346.3,259.3 1351.5,263.7 1355,265 C 1358.5,266.3 1358.0,266.7 1364,267 C 1370.0,267.3 1385.2,268.0 1391,267 C 1396.8,266.0 1396.5,264.3 1399,261 C 1401.5,257.7 1404.0,251.8 1406,247 C 1408.0,242.2 1408.7,234.7 1411,232 C 1413.3,229.3 1412.7,230.5 1420,231 C 1427.3,231.5 1448.8,234.0 1455,235 C 1461.2,236.0 1455.8,232.7 1457,237 C 1458.2,241.3 1460.7,255.8 1462,261 C 1463.3,266.2 1463.5,265.8 1465,268 C 1466.5,270.2 1468.7,272.5 1471,274 C 1473.3,275.5 1472.2,276.3 1479,277 C 1485.8,277.7 1504.7,278.3 1512,278 C 1519.3,277.7 1520.5,276.2 1523,275 C 1525.5,273.8 1525.0,270.3 1527,271 C 1529.0,271.7 1532.7,277.2 1535,279 C 1537.3,280.8 1531.2,280.2 1541,282 C 1550.8,283.8 1581.7,288.5 1594,290 C 1606.3,291.5 1605.8,289.8 1615,291 C 1624.2,292.2 1641.3,296.2 1649,297 C 1656.7,297.8 1657.5,297.5 1661,296 C 1664.5,294.5 1667.5,292.2 1670,288 C 1672.5,283.8 1674.8,276.3 1676,271 C 1677.2,265.7 1677.2,259.5 1677,256 C 1676.8,252.5 1676.2,252.0 1675,250 C 1673.8,248.0 1672.8,246.0 1670,244 C 1667.2,242.0 1669.8,240.5 1658,238 C 1646.2,235.5 1609.0,232.3 1599,229 C 1589.0,225.7 1595.8,239.7 1598,218 C 1600.2,196.3 1610.3,120.5 1612,99 C 1613.7,77.5 1610.5,91.8 1608,89 C 1605.5,86.2 1602.2,83.8 1597,82 C 1591.8,80.2 1583.7,78.7 1577,78 C 1570.3,77.3 1562.3,77.0 1557,78 C 1551.7,79.0 1547.7,82.0 1545,84 C 1542.3,86.0 1542.2,86.8 1541,90 C 1539.8,93.2 1538.8,97.5 1538,103 C 1537.2,108.5 1536.3,116.3 1536,123 C 1535.7,129.7 1537.3,123.8 1536,143 C 1534.7,162.2 1529.2,221.5 1528,238 C 1526.8,254.5 1529.3,241.3 1529,242 C 1528.7,242.7 1528.0,247.5 1526,242 C 1524.0,236.5 1519.5,217.2 1517,209 C 1514.5,200.8 1512.2,197.2 1511,193 C 1509.8,188.8 1511.0,187.7 1510,184 C 1509.0,180.3 1506.5,176.5 1505,171 C 1503.5,165.5 1502.5,156.5 1501,151 C 1499.5,145.5 1497.0,141.7 1496,138 C 1495.0,134.3 1495.5,131.0 1495,129 C 1494.5,127.0 1495.2,133.2 1493,126 C 1490.8,118.8 1484.5,94.2 1482,86 C 1479.5,77.8 1480.3,79.8 1478,77 C 1475.7,74.2 1472.7,71.0 1468,69 C 1463.3,67.0 1458.3,66.0 1450,65 C 1441.7,64.0 1424.3,63.0 1418,63 C 1411.7,63.0 1414.3,63.7 1412,65 C 1409.7,66.3 1406.7,67.3 1404,71 C 1401.3,74.7 1398.7,80.7 1396,87 C 1393.3,93.3 1389.7,105.0 1388,109 C 1386.3,113.0 1386.7,109.8 1386,111 C 1385.3,112.2 1384.2,115.0 1384,116 C 1383.8,117.0 1386.0,114.5 1385,117 C 1384.0,119.5 1384.0,116.5 1378,131 C 1372.0,145.5 1354.2,195.2 1349,204 C 1343.8,212.8 1347.8,204.5 1347,184 C 1346.2,163.5 1344.7,99.5 1344,81 C 1343.3,62.5 1344.2,76.0 1343,73 C 1341.8,70.0 1339.7,65.5 1337,63 C 1334.3,60.5 1332.2,59.3 1327,58 C 1321.8,56.7 1312.2,55.3 1306,55 C 1299.8,54.7 1294.3,55.0 1290,56 C 1285.7,57.0 1282.7,59.2 1280,61 C 1277.3,62.8 1276.0,64.2 1274,67 C 1272.0,69.8 1269.5,74.5 1268,78 C 1266.5,81.5 1266.7,84.2 1265,88 C 1263.3,91.8 1259.5,97.5 1258,101 C 1256.5,104.5 1258.0,104.0 1256,109 C 1254.0,114.0 1248.3,128.7 1246,131 C 1243.7,133.3 1243.0,125.5 1242,123 C 1241.0,120.5 1240.2,117.3 1240,116 C 1239.8,114.7 1243.0,121.5 1241,115 C 1239.0,108.5 1230.5,83.7 1228,77 C 1225.5,70.3 1226.5,76.3 1226,75 C 1225.5,73.7 1225.7,71.0 1225,69 C 1224.3,67.0 1223.7,65.2 1222,63 C 1220.3,60.8 1218.8,57.8 1215,56 C 1211.2,54.2 1205.8,52.7 1199,52 C 1192.2,51.3 1179.8,51.7 1174,52 C 1168.2,52.3 1167.2,52.5 1164,54 C 1160.8,55.5 1157.2,58.2 1155,61 C 1152.8,63.8 1151.8,65.5 1151,71 C 1150.2,76.5 1150.8,85.5 1150,94 C 1149.2,102.5 1146.8,112.7 1146,122 C 1145.2,131.3 1146.7,134.2 1145,150 C 1143.3,165.8 1137.3,209.2 1136,217 C 1134.7,224.8 1137.3,220.7 1137,197 C 1136.7,173.3 1134.8,96.8 1134,75 C 1133.2,53.2 1133.5,69.2 1132,66 C 1130.5,62.8 1128.8,58.5 1125,56 C 1121.2,53.5 1114.2,51.8 1109,51 C 1103.8,50.2 1099.2,50.5 1094,51 C 1088.8,51.5 1082.5,52.0 1078,54 C 1073.5,56.0 1069.2,60.3 1067,63 Z M 1556,87 C 1560.2,85.8 1569.8,85.8 1575,86 C 1580.2,86.2 1583.2,87.0 1587,88 C 1590.8,89.0 1595.5,90.3 1598,92 C 1600.5,93.7 1601.8,93.3 1602,98 C 1602.2,102.7 1599.3,115.2 1599,120 C 1598.7,124.8 1600.5,122.3 1600,127 C 1599.5,131.7 1597.5,137.2 1596,148 C 1594.5,158.8 1591.7,183.5 1591,192 C 1590.3,200.5 1592.7,191.5 1592,199 C 1591.3,206.5 1581.7,229.7 1587,237 C 1592.3,244.3 1614.8,241.8 1624,243 C 1633.2,244.2 1635.7,243.0 1642,244 C 1648.3,245.0 1657.8,247.2 1662,249 C 1666.2,250.8 1666.2,252.2 1667,255 C 1667.8,257.8 1667.7,261.8 1667,266 C 1666.3,270.2 1664.7,276.7 1663,280 C 1661.3,283.3 1658.5,284.8 1657,286 C 1655.5,287.2 1657.0,287.3 1654,287 C 1651.0,286.7 1643.7,284.5 1639,284 C 1634.3,283.5 1636.3,285.3 1626,284 C 1615.7,282.7 1587.2,277.3 1577,276 C 1566.8,274.7 1570.0,276.5 1565,276 C 1560.0,275.5 1551.3,274.3 1547,273 C 1542.7,271.7 1540.5,272.0 1539,268 C 1537.5,264.0 1536.5,275.5 1538,249 C 1539.5,222.5 1546.0,135.0 1548,109 C 1550.0,83.0 1548.7,96.7 1550,93 C 1551.3,89.3 1551.8,88.2 1556,87 Z M 1417,72 C 1419.8,70.8 1420.7,70.7 1427,71 C 1433.3,71.3 1448.5,73.0 1455,74 C 1461.5,75.0 1463.5,75.8 1466,77 C 1468.5,78.2 1467.7,75.2 1470,81 C 1472.3,86.8 1478.3,106.0 1480,112 C 1481.7,118.0 1478.8,113.0 1480,117 C 1481.2,121.0 1485.7,131.3 1487,136 C 1488.3,140.7 1486.5,139.7 1488,145 C 1489.5,150.3 1494.7,163.2 1496,168 C 1497.3,172.8 1495.0,170.3 1496,174 C 1497.0,177.7 1499.8,182.5 1502,190 C 1504.2,197.5 1507.3,213.2 1509,219 C 1510.7,224.8 1511.3,222.5 1512,225 C 1512.7,227.5 1511.8,229.8 1513,234 C 1514.2,238.2 1517.8,245.2 1519,250 C 1520.2,254.8 1521.0,260.0 1520,263 C 1519.0,266.0 1519.2,267.2 1513,268 C 1506.8,268.8 1489.2,268.5 1483,268 C 1476.8,267.5 1478.0,267.0 1476,265 C 1474.0,263.0 1471.8,258.7 1471,256 C 1470.2,253.3 1472.2,254.2 1471,249 C 1469.8,243.8 1466.8,229.3 1464,225 C 1461.2,220.7 1464.2,224.0 1454,223 C 1443.8,222.0 1413.5,214.0 1403,219 C 1392.5,224.0 1394.2,246.5 1391,253 C 1387.8,259.5 1389.0,257.7 1384,258 C 1379.0,258.3 1366.3,256.0 1361,255 C 1355.7,254.0 1354.0,253.0 1352,252 C 1350.0,251.0 1349.3,251.8 1349,249 C 1348.7,246.2 1347.0,244.7 1350,235 C 1353.0,225.3 1363.8,199.8 1367,191 C 1370.2,182.2 1367.7,185.5 1369,182 C 1370.3,178.5 1373.5,174.0 1375,170 C 1376.5,166.0 1377.2,160.3 1378,158 C 1378.8,155.7 1379.0,158.5 1380,156 C 1381.0,153.5 1382.3,147.2 1384,143 C 1385.7,138.8 1388.7,134.5 1390,131 C 1391.3,127.5 1389.0,129.7 1392,122 C 1395.0,114.3 1405.5,91.3 1408,85 C 1410.5,78.7 1406.7,85.2 1407,84 C 1407.3,82.8 1408.3,80.0 1410,78 C 1411.7,76.0 1414.2,73.2 1417,72 Z M 1440,117 C 1435.3,124.5 1413.3,172.2 1415,184 C 1416.7,195.8 1443.3,187.5 1450,188 C 1456.7,188.5 1456.2,195.2 1455,187 C 1453.8,178.8 1445.5,150.7 1443,139 C 1440.5,127.3 1444.7,109.5 1440,117 Z M 1437,154 C 1438.5,154.8 1440.3,163.0 1441,167 C 1441.7,171.0 1443.2,176.5 1441,178 C 1438.8,179.5 1429.5,178.7 1428,176 C 1426.5,173.3 1430.5,165.7 1432,162 C 1433.5,158.3 1435.5,153.2 1437,154 Z M 1165,63 C 1167.3,61.5 1168.2,60.3 1175,60 C 1181.8,59.7 1199.2,59.2 1206,61 C 1212.8,62.8 1213.8,67.3 1216,71 C 1218.2,74.7 1218.2,80.7 1219,83 C 1219.8,85.3 1219.8,82.3 1221,85 C 1222.2,87.7 1225.3,96.5 1226,99 C 1226.7,101.5 1223.7,95.8 1225,100 C 1226.3,104.2 1232.7,119.8 1234,124 C 1235.3,128.2 1231.0,118.3 1233,125 C 1235.0,131.7 1243.0,160.7 1246,164 C 1249.0,167.3 1249.2,150.3 1251,145 C 1252.8,139.7 1256.0,134.8 1257,132 C 1258.0,129.2 1256.7,129.0 1257,128 C 1257.3,127.0 1257.8,128.8 1259,126 C 1260.2,123.2 1260.2,120.2 1264,111 C 1267.8,101.8 1277.2,78.8 1282,71 C 1286.8,63.2 1286.3,64.8 1293,64 C 1299.7,63.2 1315.5,64.8 1322,66 C 1328.5,67.2 1329.7,61.8 1332,71 C 1334.3,80.2 1335.0,91.7 1336,121 C 1337.0,150.3 1338.5,225.0 1338,247 C 1337.5,269.0 1339.0,252.0 1333,253 C 1327.0,254.0 1307.8,253.5 1302,253 C 1296.2,252.5 1299.0,251.2 1298,250 C 1297.0,248.8 1296.7,256.2 1296,246 C 1295.3,235.8 1294.2,206.3 1294,189 C 1293.8,171.7 1298.3,141.3 1295,142 C 1291.7,142.7 1279.8,179.8 1274,193 C 1268.2,206.2 1263.3,215.7 1260,221 C 1256.7,226.3 1257.8,224.3 1254,225 C 1250.2,225.7 1241.2,225.3 1237,225 C 1232.8,224.7 1231.5,225.0 1229,223 C 1226.5,221.0 1224.2,217.3 1222,213 C 1219.8,208.7 1216.8,199.8 1216,197 C 1215.2,194.2 1218.2,199.3 1217,196 C 1215.8,192.7 1210.7,181.8 1209,177 C 1207.3,172.2 1208.3,171.0 1207,167 C 1205.7,163.0 1202.7,158.2 1201,153 C 1199.3,147.8 1198.2,125.7 1197,136 C 1195.8,146.3 1195.2,197.0 1194,215 C 1192.8,233.0 1191.7,238.2 1190,244 C 1188.3,249.8 1186.8,248.8 1184,250 C 1181.2,251.2 1177.8,251.3 1173,251 C 1168.2,250.7 1159.3,249.5 1155,248 C 1150.7,246.5 1148.5,244.8 1147,242 C 1145.5,239.2 1145.0,243.3 1146,231 C 1147.0,218.7 1151.8,181.5 1153,168 C 1154.2,154.5 1151.8,163.2 1153,150 C 1154.2,136.8 1158.7,102.5 1160,89 C 1161.3,75.5 1160.2,73.3 1161,69 C 1161.8,64.7 1162.7,64.5 1165,63 Z M 1082,61 C 1087.8,60.3 1106.0,60.0 1112,60 C 1118.0,60.0 1116.2,59.8 1118,61 C 1119.8,62.2 1121.7,37.2 1123,67 C 1124.3,96.8 1125.8,210.3 1126,240 C 1126.2,269.7 1125.5,243.5 1124,245 C 1122.5,246.5 1122.3,248.5 1117,249 C 1111.7,249.5 1097.3,248.8 1092,248 C 1086.7,247.2 1086.7,245.7 1085,244 C 1083.3,242.3 1083.2,254.0 1082,238 C 1080.8,222.0 1079.3,171.2 1078,148 C 1076.7,124.8 1074.7,112.2 1074,99 C 1073.3,85.8 1073.5,74.8 1074,69 C 1074.5,63.2 1075.7,65.3 1077,64 C 1078.3,62.7 1076.2,61.7 1082,61 Z M 521,58 C 514.5,52.8 505.8,46.5 499,42 C 492.2,37.5 486.3,34.3 480,31 C 473.7,27.7 468.7,25.2 461,22 C 453.3,18.8 441.7,14.5 434,12 C 426.3,9.5 422.3,8.5 415,7 C 407.7,5.5 405.0,3.7 390,3 C 375.0,2.3 340.0,2.3 325,3 C 310.0,3.7 308.7,5.2 300,7 C 291.3,8.8 283.2,10.5 273,14 C 262.8,17.5 248.5,23.5 239,28 C 229.5,32.5 222.2,37.2 216,41 C 209.8,44.8 208.2,46.0 202,51 C 195.8,56.0 185.5,64.7 179,71 C 172.5,77.3 168.2,82.5 163,89 C 157.8,95.5 153.2,101.3 148,110 C 142.8,118.7 136.2,131.7 132,141 C 127.8,150.3 125.7,157.0 123,166 C 120.3,175.0 117.7,186.3 116,195 C 114.3,203.7 113.5,206.2 113,218 C 112.5,229.8 112.7,255.5 113,266 C 113.3,276.5 116.0,277.7 115,281 C 114.0,284.3 109.3,284.2 107,286 C 104.7,287.8 102.8,289.0 101,292 C 99.2,295.0 96.8,299.5 96,304 C 95.2,308.5 95.3,314.7 96,319 C 96.7,323.3 97.8,326.5 100,330 C 102.2,333.5 106.0,337.5 109,340 C 112.0,342.5 115.2,343.8 118,345 C 120.8,346.2 123.2,346.7 126,347 C 128.8,347.3 131.2,342.8 135,347 C 138.8,351.2 146.5,366.8 149,372 C 151.5,377.2 151.5,376.8 150,378 C 148.5,379.2 143.8,377.8 140,379 C 136.2,380.2 132.2,381.3 127,385 C 121.8,388.7 113.0,396.8 109,401 C 105.0,405.2 105.3,405.5 103,410 C 100.7,414.5 97.5,419.8 95,428 C 92.5,436.2 90.0,451.7 88,459 C 86.0,466.3 85.5,466.8 83,472 C 80.5,477.2 77.0,484.7 73,490 C 69.0,495.3 64.3,500.2 59,504 C 53.7,507.8 46.3,511.3 41,513 C 35.7,514.7 30.7,514.2 27,514 C 23.3,513.8 23.5,514.2 19,512 C 14.5,509.8 2.8,501.3 0,501 C -2.8,500.7 -0.3,505.3 2,510 C 4.3,514.7 8.3,522.7 14,529 C 19.7,535.3 29.5,543.3 36,548 C 42.5,552.7 47.2,554.5 53,557 C 58.8,559.5 65.5,561.5 71,563 C 76.5,564.5 79.8,565.3 86,566 C 92.2,566.7 107.5,563.0 108,567 C 108.5,571.0 92.2,584.5 89,590 C 85.8,595.5 81.2,598.3 89,600 C 96.8,601.7 134.5,600.3 136,600 C 137.5,599.7 104.3,599.0 98,598 C 91.7,597.0 85.0,610.3 98,594 C 111.0,577.7 155.2,524.5 176,500 C 196.8,475.5 212.8,454.3 223,447 C 233.2,439.7 231.0,452.7 237,456 C 243.0,459.3 251.0,463.5 259,467 C 267.0,470.5 277.2,474.5 285,477 C 292.8,479.5 296.0,475.2 306,482 C 316.0,488.8 339.8,508.7 345,518 C 350.2,527.3 340.0,524.3 337,538 C 334.0,551.7 327.5,589.7 327,600 C 326.5,610.3 331.2,610.2 334,600 C 336.8,589.8 342.0,552.3 344,539 C 346.0,525.7 345.2,523.7 346,520 C 346.8,516.3 340.5,522.3 349,517 C 357.5,511.7 384.2,493.5 397,488 C 409.8,482.5 416.5,485.8 426,484 C 435.5,482.2 448.3,478.7 454,477 C 459.7,475.3 458.5,474.5 460,474 C 461.5,473.5 461.8,473.3 463,474 C 464.2,474.7 453.7,458.3 467,478 C 480.3,497.7 530.0,571.7 543,592 C 556.0,612.3 543.2,598.7 545,600 C 546.8,601.3 552.7,601.7 554,600 C 555.3,598.3 566.3,611.2 553,590 C 539.7,568.8 487.2,493.2 474,473 C 460.8,452.8 470.8,471.0 474,469 C 477.2,467.0 485.8,464.7 493,461 C 500.2,457.3 509.7,451.8 517,447 C 524.3,442.2 529.8,438.3 537,432 C 544.2,425.7 553.2,417.0 560,409 C 566.8,401.0 573.0,391.8 578,384 C 583.0,376.2 586.2,370.3 590,362 C 593.8,353.7 598.2,342.3 601,334 C 603.8,325.7 605.7,318.0 607,312 C 608.3,306.0 608.3,300.7 609,298 C 609.7,295.3 610.0,296.3 611,296 C 612.0,295.7 612.0,297.0 615,296 C 618.0,295.0 625.5,292.0 629,290 C 632.5,288.0 633.7,287.5 636,284 C 638.3,280.5 641.7,273.3 643,269 C 644.3,264.7 644.2,261.5 644,258 C 643.8,254.5 643.2,251.5 642,248 C 640.8,244.5 639.5,240.3 637,237 C 634.5,233.7 631.2,230.3 627,228 C 622.8,225.7 615.3,228.3 612,223 C 608.7,217.7 609.3,205.3 607,196 C 604.7,186.7 600.8,175.0 598,167 C 595.2,159.0 594.0,156.2 590,148 C 586.0,139.8 580.7,128.3 574,118 C 567.3,107.7 556.0,93.5 550,86 C 544.0,78.5 542.8,77.7 538,73 C 533.2,68.3 527.5,63.2 521,58 Z M 321,487 C 317.7,482.8 323.7,485.7 327,486 C 330.3,486.3 331.8,488.3 341,489 C 350.2,489.7 381.0,486.3 382,490 C 383.0,493.7 357.2,511.5 347,511 C 336.8,510.5 324.3,491.2 321,487 Z M 214,442 C 211.7,454.2 187.0,472.2 171,491 C 155.0,509.8 131.2,544.2 118,555 C 104.8,565.8 100.0,556.5 92,556 C 84.0,555.5 77.7,554.3 70,552 C 62.3,549.7 51.8,544.8 46,542 C 40.2,539.2 38.7,537.8 35,535 C 31.3,532.2 23.3,526.8 24,525 C 24.7,523.2 34.7,524.7 39,524 C 43.3,523.3 46.5,522.3 50,521 C 53.5,519.7 55.7,519.2 60,516 C 64.3,512.8 71.0,508.2 76,502 C 81.0,495.8 86.5,486.2 90,479 C 93.5,471.8 95.0,466.2 97,459 C 99.0,451.8 99.8,443.0 102,436 C 104.2,429.0 107.5,421.8 110,417 C 112.5,412.2 114.5,410.0 117,407 C 119.5,404.0 121.0,401.8 125,399 C 129.0,396.2 135.5,392.0 141,390 C 146.5,388.0 150.7,382.3 158,387 C 165.3,391.7 175.7,408.8 185,418 C 194.3,427.2 216.3,429.8 214,442 Z M 226,223 C 231.5,222.7 239.8,222.0 247,224 C 254.2,226.0 263.0,230.7 269,235 C 275.0,239.3 279.3,244.7 283,250 C 286.7,255.3 289.3,262.5 291,267 C 292.7,271.5 292.8,272.0 293,277 C 293.2,282.0 292.8,291.8 292,297 C 291.2,302.2 289.8,304.3 288,308 C 286.2,311.7 285.0,314.7 281,319 C 277.0,323.3 268.2,330.8 264,334 C 259.8,337.2 259.7,336.7 256,338 C 252.3,339.3 248.2,341.5 242,342 C 235.8,342.5 224.7,341.8 219,341 C 213.3,340.2 212.0,339.0 208,337 C 204.0,335.0 198.8,332.0 195,329 C 191.2,326.0 187.7,322.2 185,319 C 182.3,315.8 180.8,313.7 179,310 C 177.2,306.3 175.2,301.0 174,297 C 172.8,293.0 172.3,290.0 172,286 C 171.7,282.0 169.2,279.2 172,273 C 174.8,266.8 185.3,254.7 189,249 C 192.7,243.3 191.5,242.0 194,239 C 196.5,236.0 200.7,233.2 204,231 C 207.3,228.8 210.3,227.3 214,226 C 217.7,224.7 220.5,223.3 226,223 Z M 239,255 C 235.3,255.7 233.5,257.0 231,259 C 228.5,261.0 225.7,264.0 224,267 C 222.3,270.0 221.3,273.3 221,277 C 220.7,280.7 221.2,285.7 222,289 C 222.8,292.3 223.8,294.3 226,297 C 228.2,299.7 232.3,303.3 235,305 C 237.7,306.7 238.8,306.8 242,307 C 245.2,307.2 251.0,306.7 254,306 C 257.0,305.3 258.2,304.3 260,303 C 261.8,301.7 263.3,300.3 265,298 C 266.7,295.7 269.2,293.2 270,289 C 270.8,284.8 271.0,277.5 270,273 C 269.0,268.5 266.8,265.0 264,262 C 261.2,259.0 257.2,256.2 253,255 C 248.8,253.8 242.7,254.3 239,255 Z M 457,227 C 460.5,223.8 454.7,221.8 467,221 C 479.3,220.2 518.2,220.2 531,222 C 543.8,223.8 540.3,228.3 544,232 C 547.7,235.7 550.7,240.2 553,244 C 555.3,247.8 556.7,249.7 558,255 C 559.3,260.3 561.2,269.3 561,276 C 560.8,282.7 558.8,289.8 557,295 C 555.2,300.2 552.8,303.2 550,307 C 547.2,310.8 542.8,315.3 540,318 C 537.2,320.7 536.7,321.0 533,323 C 529.3,325.0 522.2,328.5 518,330 C 513.8,331.5 511.7,331.7 508,332 C 504.3,332.3 499.8,332.3 496,332 C 492.2,331.7 489.3,331.3 485,330 C 480.7,328.7 474.2,326.2 470,324 C 465.8,321.8 463.2,319.7 460,317 C 456.8,314.3 453.7,311.3 451,308 C 448.3,304.7 446.0,301.2 444,297 C 442.0,292.8 440.0,288.5 439,283 C 438.0,277.5 438.0,268.3 438,264 C 438.0,259.7 437.7,261.0 439,257 C 440.3,253.0 443.0,245.0 446,240 C 449.0,235.0 453.5,230.2 457,227 Z M 478,245 C 475.2,245.3 474.3,245.5 472,247 C 469.7,248.5 466.0,251.3 464,254 C 462.0,256.7 460.8,259.5 460,263 C 459.2,266.5 458.5,271.3 459,275 C 459.5,278.7 461.5,282.3 463,285 C 464.5,287.7 465.2,289.0 468,291 C 470.8,293.0 476.7,296.0 480,297 C 483.3,298.0 485.3,297.5 488,297 C 490.7,296.5 493.5,295.5 496,294 C 498.5,292.5 501.2,290.3 503,288 C 504.8,285.7 506.2,283.3 507,280 C 507.8,276.7 508.2,271.3 508,268 C 507.8,264.7 507.3,262.8 506,260 C 504.7,257.2 502.8,253.5 500,251 C 497.2,248.5 492.7,246.0 489,245 C 485.3,244.0 480.8,244.7 478,245 Z M 104,317 C 103.3,313.8 103.7,308.7 104,306 C 104.3,303.3 104.2,303.3 106,301 C 107.8,298.7 113.0,293.3 115,292 C 117.0,290.7 116.5,289.3 118,293 C 119.5,296.7 119.7,312.5 124,314 C 128.3,315.5 137.5,307.2 144,302 C 150.5,296.8 159.2,282.8 163,283 C 166.8,283.2 164.8,296.3 167,303 C 169.2,309.7 171.5,316.7 176,323 C 180.5,329.3 187.7,336.5 194,341 C 200.3,345.5 208.0,348.0 214,350 C 220.0,352.0 223.5,353.0 230,353 C 236.5,353.0 246.0,352.0 253,350 C 260.0,348.0 266.0,345.3 272,341 C 278.0,336.7 284.5,330.5 289,324 C 293.5,317.5 297.0,307.5 299,302 C 301.0,296.5 300.7,294.8 301,291 C 301.3,287.2 301.5,283.8 301,279 C 300.5,274.2 299.8,267.7 298,262 C 296.2,256.3 292.2,249.0 290,245 C 287.8,241.0 288.7,241.7 285,238 C 281.3,234.3 274.0,226.8 268,223 C 262.0,219.2 254.7,216.7 249,215 C 243.3,213.3 239.0,213.0 234,213 C 229.0,213.0 224.2,213.8 219,215 C 213.8,216.2 203.7,225.3 203,220 C 202.3,214.7 212.3,192.5 215,183 C 217.7,173.5 218.3,167.5 219,163 C 219.7,158.5 218.5,158.3 219,156 C 219.5,153.7 217.5,146.5 222,149 C 226.5,151.5 236.3,163.3 246,171 C 255.7,178.7 266.8,187.0 280,195 C 293.2,203.0 312.0,212.8 325,219 C 338.0,225.2 346.5,228.3 358,232 C 369.5,235.7 383.3,239.0 394,241 C 404.7,243.0 418.0,244.0 422,244 C 426.0,244.0 418.0,241.5 418,241 C 418.0,240.5 427.7,244.5 422,241 C 416.3,237.5 394.3,226.5 384,220 C 373.7,213.5 356.3,203.2 360,202 C 363.7,200.8 393.7,210.3 406,213 C 418.3,215.7 427.8,217.2 434,218 C 440.2,218.8 440.2,217.5 443,218 C 445.8,218.5 451.3,218.7 451,221 C 450.7,223.3 444.2,226.7 441,232 C 437.8,237.3 433.5,243.7 432,253 C 430.5,262.3 430.3,278.3 432,288 C 433.7,297.7 437.8,304.5 442,311 C 446.2,317.5 452.0,322.8 457,327 C 462.0,331.2 467.0,333.7 472,336 C 477.0,338.3 480.8,340.0 487,341 C 493.2,342.0 502.5,342.5 509,342 C 515.5,341.5 521.5,339.5 526,338 C 530.5,336.5 532.3,335.3 536,333 C 539.7,330.7 543.7,328.7 548,324 C 552.3,319.3 558.7,311.3 562,305 C 565.3,298.7 567.2,294.0 568,286 C 568.8,278.0 568.7,265.5 567,257 C 565.3,248.5 560.5,240.0 558,235 C 555.5,230.0 554.2,229.3 552,227 C 549.8,224.7 537.2,223.5 545,221 C 552.8,218.5 589.5,213.3 599,212 C 608.5,210.7 601.0,209.3 602,213 C 603.0,216.7 603.2,230.5 605,234 C 606.8,237.5 610.2,233.5 613,234 C 615.8,234.5 619.2,235.3 622,237 C 624.8,238.7 627.8,241.0 630,244 C 632.2,247.0 634.2,251.5 635,255 C 635.8,258.5 635.3,262.3 635,265 C 634.7,267.7 634.3,268.7 633,271 C 631.7,273.3 629.8,276.7 627,279 C 624.2,281.3 620.2,283.8 616,285 C 611.8,286.2 605.0,281.3 602,286 C 599.0,290.7 600.8,302.2 598,313 C 595.2,323.8 589.0,341.2 585,351 C 581.0,360.8 577.8,365.5 574,372 C 570.2,378.5 566.2,384.3 562,390 C 557.8,395.7 553.3,401.2 549,406 C 544.7,410.8 543.0,413.2 536,419 C 529.0,424.8 516.8,434.7 507,441 C 497.2,447.3 488.2,452.2 477,457 C 465.8,461.8 452.0,466.7 440,470 C 428.0,473.3 414.2,475.5 405,477 C 395.8,478.5 393.8,478.7 385,479 C 376.2,479.3 362.8,479.7 352,479 C 341.2,478.3 332.5,477.7 320,475 C 307.5,472.3 291.0,468.2 277,463 C 263.0,457.8 248.8,451.5 236,444 C 223.2,436.5 210.3,426.7 200,418 C 189.7,409.3 182.2,401.8 174,392 C 165.8,382.2 156.7,368.5 151,359 C 145.3,349.5 143.0,338.7 140,335 C 137.0,331.3 135.8,336.8 133,337 C 130.2,337.2 126.0,336.8 123,336 C 120.0,335.2 117.5,333.8 115,332 C 112.5,330.2 109.8,327.5 108,325 C 106.2,322.5 104.7,320.2 104,317 Z M 434,361 C 434.5,356.7 435.3,352.5 433,353 C 430.7,353.5 425.7,360.5 420,364 C 414.3,367.5 406.3,371.5 399,374 C 391.7,376.5 383.7,378.2 376,379 C 368.3,379.8 361.3,380.2 353,379 C 344.7,377.8 332.8,374.3 326,372 C 319.2,369.7 316.3,367.7 312,365 C 307.7,362.3 302.0,355.8 300,356 C 298.0,356.2 299.3,362.2 300,366 C 300.7,369.8 301.2,373.2 304,379 C 306.8,384.8 313.3,395.8 317,401 C 320.7,406.2 322.2,407.0 326,410 C 329.8,413.0 335.8,416.8 340,419 C 344.2,421.2 347.2,422.0 351,423 C 354.8,424.0 358.3,424.8 363,425 C 367.7,425.2 373.3,425.2 379,424 C 384.7,422.8 391.8,420.5 397,418 C 402.2,415.5 406.2,412.3 410,409 C 413.8,405.7 416.7,403.0 420,398 C 423.3,393.0 427.7,385.2 430,379 C 432.3,372.8 433.5,365.3 434,361 Z M 330,400 C 328.7,397.8 331.0,397.7 334,396 C 337.0,394.3 341.0,391.2 348,390 C 355.0,388.8 368.0,388.2 376,389 C 384.0,389.8 392.0,393.5 396,395 C 400.0,396.5 399.0,396.7 400,398 C 401.0,399.3 403.2,401.2 402,403 C 400.8,404.8 397.0,407.2 393,409 C 389.0,410.8 384.0,413.2 378,414 C 372.0,414.8 363.0,414.8 357,414 C 351.0,413.2 346.5,411.3 342,409 C 337.5,406.7 331.3,402.2 330,400 Z M 598,195 C 599.2,199.8 601.2,200.2 598,202 C 594.8,203.8 590.7,204.3 579,206 C 567.3,207.7 543.0,210.8 528,212 C 513.0,213.2 501.8,213.3 489,213 C 476.2,212.7 464.2,211.5 451,210 C 437.8,208.5 424.7,207.0 410,204 C 395.3,201.0 377.3,196.3 363,192 C 348.7,187.7 330.5,179.7 324,178 C 317.5,176.3 320.0,177.5 324,182 C 328.0,186.5 339.3,197.7 348,205 C 356.7,212.3 372.8,222.7 376,226 C 379.2,229.3 375.7,228.0 367,225 C 358.3,222.0 337.3,214.2 324,208 C 310.7,201.8 299.7,196.0 287,188 C 274.3,180.0 260.0,169.8 248,160 C 236.0,150.2 221.0,129.3 215,129 C 209.0,128.7 213.7,148.0 212,158 C 210.3,168.0 207.7,179.5 205,189 C 202.3,198.5 199.3,206.8 196,215 C 192.7,223.2 190.3,229.0 185,238 C 179.7,247.0 169.7,261.3 164,269 C 158.3,276.7 155.0,279.8 151,284 C 147.0,288.2 143.7,291.0 140,294 C 136.3,297.0 131.5,302.7 129,302 C 126.5,301.3 126.3,296.5 125,290 C 123.7,283.5 121.7,274.8 121,263 C 120.3,251.2 120.7,227.7 121,219 C 121.3,210.3 122.7,213.8 123,211 C 123.3,208.2 121.2,210.7 123,202 C 124.8,193.3 129.0,172.8 134,159 C 139.0,145.2 145.8,131.0 153,119 C 160.2,107.0 170.2,95.2 177,87 C 183.8,78.8 187.5,75.7 194,70 C 200.5,64.3 209.3,57.7 216,53 C 222.7,48.3 226.8,45.8 234,42 C 241.2,38.2 250.5,33.5 259,30 C 267.5,26.5 277.8,23.2 285,21 C 292.2,18.8 293.5,18.5 302,17 C 310.5,15.5 323.3,12.8 336,12 C 348.7,11.2 368.0,11.7 378,12 C 388.0,12.3 388.8,12.8 396,14 C 403.2,15.2 413.5,17.2 421,19 C 428.5,20.8 433.5,22.3 441,25 C 448.5,27.7 458.3,31.5 466,35 C 473.7,38.5 480.7,42.3 487,46 C 493.3,49.7 498.0,52.7 504,57 C 510.0,61.3 516.5,66.2 523,72 C 529.5,77.8 537.0,85.3 543,92 C 549.0,98.7 552.7,102.5 559,112 C 565.3,121.5 575.7,138.8 581,149 C 586.3,159.2 588.2,165.3 591,173 C 593.8,180.7 596.8,190.2 598,195 Z" fill="black" fill-rule="evenodd" stroke="none"/>
</svg>