<svg xmlns="http://www.w3.org/2000/svg" viewBox="0 0 200 140">
  <rect width="200" height="140" fill="#f7f8fc"/>
  <g transform="translate(15,10)">
    <rect x="0" y="0" width="34" height="28" fill="none" stroke="#cbd5e0" stroke-width="1"/><text x="17" y="19" text-anchor="middle" font-size="14" font-weight="600" fill="#2d3748" font-family="'Google Sans Flex', sans-serif">1</text>
    <rect x="34" y="0" width="34" height="28" fill="none" stroke="#cbd5e0" stroke-width="1"/><text x="51" y="19" text-anchor="middle" font-size="14" font-weight="600" fill="#2d3748" font-family="'Google Sans Flex', sans-serif">2</text>
    <rect x="68" y="0" width="34" height="28" fill="#edf2f7" stroke="#cbd5e0" stroke-width="1"/>
    <rect x="102" y="0" width="34" height="28" fill="none" stroke="#cbd5e0" stroke-width="1"/><text x="119" y="19" text-anchor="middle" font-size="14" font-weight="600" fill="#2d3748" font-family="'Google Sans Flex', sans-serif">4</text>
    <rect x="136" y="0" width="34" height="28" fill="none" stroke="#cbd5e0" stroke-width="1"/><text x="153" y="19" text-anchor="middle" font-size="14" font-weight="600" fill="#2d3748" font-family="'Google Sans Flex', sans-serif">5</text>
    <rect x="0" y="28" width="34" height="28" fill="none" stroke="#cbd5e0" stroke-width="1"/><text x="17" y="47" text-anchor="middle" font-size="14" font-weight="600" fill="#2d3748" font-family="'Google Sans Flex', sans-serif">6</text>
    <rect x="34" y="28" width="34" height="28" fill="none" stroke="#cbd5e0" stroke-width="1"/><text x="51" y="47" text-anchor="middle" font-size="14" font-weight="600" fill="#2d3748" font-family="'Google Sans Flex', sans-serif">7</text>
    <rect x="68" y="28" width="34" height="28" fill="none" stroke="#cbd5e0" stroke-width="1"/><text x="85" y="47" text-anchor="middle" font-size="14" font-weight="600" fill="#2d3748" font-family="'Google Sans Flex', sans-serif">8</text>
    <rect x="102" y="28" width="34" height="28" fill="#edf2f7" stroke="#cbd5e0" stroke-width="1"/>
    <rect x="136" y="28" width="34" height="28" fill="none" stroke="#cbd5e0" stroke-width="1"/><text x="153" y="47" text-anchor="middle" font-size="14" font-weight="600" fill="#2d3748" font-family="'Google Sans Flex', sans-serif">10</text>
    <rect x="0" y="56" width="34" height="28" fill="none" stroke="#cbd5e0" stroke-width="1"/><text x="17" y="75" text-anchor="middle" font-size="14" font-weight="600" fill="#2d3748" font-family="'Google Sans Flex', sans-serif">11</text>
    <rect x="34" y="56" width="34" height="28" fill="#edf2f7" stroke="#cbd5e0" stroke-width="1"/>
    <rect x="68" y="56" width="34" height="28" fill="none" stroke="#cbd5e0" stroke-width="1"/><text x="85" y="75" text-anchor="middle" font-size="14" font-weight="600" fill="#2d3748" font-family="'Google Sans Flex', sans-serif">13</text>
    <rect x="102" y="56" width="34" height="28" fill="none" stroke="#cbd5e0" stroke-width="1"/><text x="119" y="75" text-anchor="middle" font-size="14" font-weight="600" fill="#2d3748" font-family="'Google Sans Flex', sans-serif">14</text>
    <rect x="136" y="56" width="34" height="28" fill="none" stroke="#cbd5e0" stroke-width="1"/><text x="153" y="75" text-anchor="middle" font-size="14" font-weight="600" fill="#2d3748" font-family="'Google Sans Flex', sans-serif">15</text>
    <rect x="0" y="84" width="34" height="28" fill="none" stroke="#cbd5e0" stroke-width="1"/><text x="17" y="103" text-anchor="middle" font-size="14" font-weight="600" fill="#2d3748" font-family="'Google Sans Flex', sans-serif">16</text>
    <rect x="34" y="84" width="34" height="28" fill="none" stroke="#cbd5e0" stroke-width="1"/><text x="51" y="103" text-anchor="middle" font-size="14" font-weight="600" fill="#2d3748" font-family="'Google Sans Flex', sans-serif">17</text>
    <rect x="68" y="84" width="34" height="28" fill="none" stroke="#cbd5e0" stroke-width="1"/><text x="85" y="103" text-anchor="middle" font-size="14" font-weight="600" fill="#2d3748" font-family="'Google Sans Flex', sans-serif">18</text>
    <rect x="102" y="84" width="34" height="28" fill="none" stroke="#cbd5e0" stroke-width="1"/><text x="119" y="103" text-anchor="middle" font-size="14" font-weight="600" fill="#2d3748" font-family="'Google Sans Flex', sans-serif">19</text>
    <rect x="136" y="84" width="34" height="28" fill="#edf2f7" stroke="#cbd5e0" stroke-width="1"/>
  </g>
</svg>