<svg xmlns="http://www.w3.org/2000/svg" viewBox="0 0 200 140">
  <rect width="200" height="140" fill="#f7f8fc"/>
  <g transform="translate(30,15)">
    <rect x="0" y="0" width="30" height="24" fill="none" stroke="#cbd5e0" stroke-width="1"/><text x="15" y="17" text-anchor="middle" font-size="13" font-weight="600" fill="#2d3748" font-family="Arial">1</text>
    <rect x="30" y="0" width="30" height="24" fill="none" stroke="#cbd5e0" stroke-width="1"/><text x="45" y="17" text-anchor="middle" font-size="13" font-weight="600" fill="#2d3748" font-family="Arial">2</text>
    <rect x="60" y="0" width="30" height="24" fill="#edf2f7" stroke="#cbd5e0" stroke-width="1"/><text x="75" y="17" text-anchor="middle" font-size="13" fill="#a0aec0" font-family="Arial">?</text>
    <rect x="90" y="0" width="30" height="24" fill="none" stroke="#cbd5e0" stroke-width="1"/><text x="105" y="17" text-anchor="middle" font-size="13" font-weight="600" fill="#2d3748" font-family="Arial">4</text>
    <rect x="0" y="24" width="30" height="24" fill="none" stroke="#cbd5e0" stroke-width="1"/><text x="15" y="41" text-anchor="middle" font-size="13" font-weight="600" fill="#2d3748" font-family="Arial">5</text>
    <rect x="30" y="24" width="30" height="24" fill="#edf2f7" stroke="#cbd5e0" stroke-width="1"/><text x="45" y="41" text-anchor="middle" font-size="13" fill="#a0aec0" font-family="Arial">?</text>
    <rect x="60" y="24" width="30" height="24" fill="none" stroke="#cbd5e0" stroke-width="1"/><text x="75" y="41" text-anchor="middle" font-size="13" font-weight="600" fill="#2d3748" font-family="Arial">7</text>
    <rect x="90" y="24" width="30" height="24" fill="none" stroke="#cbd5e0" stroke-width="1"/><text x="105" y="41" text-anchor="middle" font-size="13" font-weight="600" fill="#2d3748" font-family="Arial">8</text>
    <rect x="0" y="48" width="30" height="24" fill="none" stroke="#cbd5e0" stroke-width="1"/><text x="15" y="65" text-anchor="middle" font-size="13" font-weight="600" fill="#2d3748" font-family="Arial">9</text>
    <rect x="30" y="48" width="30" height="24" fill="none" stroke="#cbd5e0" stroke-width="1"/><text x="45" y="65" text-anchor="middle" font-size="13" font-weight="600" fill="#2d3748" font-family="Arial">10</text>
    <rect x="60" y="48" width="30" height="24" fill="none" stroke="#cbd5e0" stroke-width="1"/><text x="75" y="65" text-anchor="middle" font-size="13" font-weight="600" fill="#2d3748" font-family="Arial">11</text>
    <rect x="90" y="48" width="30" height="24" fill="#edf2f7" stroke="#cbd5e0" stroke-width="1"/><text x="105" y="65" text-anchor="middle" font-size="13" fill="#a0aec0" font-family="Arial">?</text>
  </g>
</svg>